<?xml version="1.0" encoding="UTF-8" standalone="no"?>
<!-- Created with Inkscape (http://www.inkscape.org/) -->

<svg
   xmlns:osb="http://www.openswatchbook.org/uri/2009/osb"
   xmlns:dc="http://purl.org/dc/elements/1.1/"
   xmlns:cc="http://creativecommons.org/ns#"
   xmlns:rdf="http://www.w3.org/1999/02/22-rdf-syntax-ns#"
   xmlns:svg="http://www.w3.org/2000/svg"
   xmlns="http://www.w3.org/2000/svg"
   xmlns:sodipodi="http://sodipodi.sourceforge.net/DTD/sodipodi-0.dtd"
   xmlns:inkscape="http://www.inkscape.org/namespaces/inkscape"
   width="100"
   height="500"
   viewBox="0 0 26.458334 132.29166"
   version="1.1"
   id="svg8"
   inkscape:version="0.92.4 (5da689c313, 2019-01-14)"
   sodipodi:docname="about.svg">
  <defs
     id="defs2">
    <linearGradient
       id="linearGradient898"
       osb:paint="solid">
      <stop
         style="stop-color:#000000;stop-opacity:1;"
         offset="0"
         id="stop896" />
    </linearGradient>
  </defs>
  <sodipodi:namedview
     id="base"
     pagecolor="#ffffff"
     bordercolor="#666666"
     borderopacity="1.0"
     inkscape:pageopacity="0.0"
     inkscape:pageshadow="2"
     inkscape:zoom="1.0074671"
     inkscape:cx="-619.51663"
     inkscape:cy="357.15199"
     inkscape:document-units="mm"
     inkscape:current-layer="layer1"
     showgrid="false"
     inkscape:window-width="1920"
     inkscape:window-height="1017"
     inkscape:window-x="1358"
     inkscape:window-y="-8"
     inkscape:window-maximized="1"
     units="px" />
  <metadata
     id="metadata5">
    <rdf:RDF>
      <cc:Work
         rdf:about="">
        <dc:format>image/svg+xml</dc:format>
        <dc:type
           rdf:resource="http://purl.org/dc/dcmitype/StillImage" />
        <dc:title></dc:title>
      </cc:Work>
    </rdf:RDF>
  </metadata>
  <g
     inkscape:label="Laag 1"
     inkscape:groupmode="layer"
     id="layer1"
     transform="translate(0,-164.70834)">
    <flowRoot
       xml:space="preserve"
       id="flowRoot819"
       style="font-style:normal;font-weight:normal;font-size:96px;line-height:1.25;font-family:sans-serif;letter-spacing:0px;word-spacing:0px;fill:#000000;fill-opacity:1;stroke:none"
       transform="scale(0.26458333)"><flowRegion
         id="flowRegion821"
         style="font-size:96px"><rect
           id="rect823"
           width="565.71429"
           height="402.85715"
           x="102.85714"
           y="279.66254"
           style="font-size:96px" /></flowRegion><flowPara
         id="flowPara825" /></flowRoot>    <flowRoot
       xml:space="preserve"
       id="flowRoot835"
       style="font-style:normal;font-weight:normal;font-size:40px;line-height:1.25;font-family:sans-serif;letter-spacing:0px;word-spacing:0px;fill:#000000;fill-opacity:1;stroke:none"
       transform="scale(0.26458333)"><flowRegion
         id="flowRegion837"><rect
           id="rect839"
           width="317.14285"
           height="162.85716"
           x="82.85714"
           y="408.23398" /></flowRegion><flowPara
         id="flowPara841" /></flowRoot>    <flowRoot
       xml:space="preserve"
       id="flowRoot876"
       style="font-style:normal;font-weight:normal;font-size:40px;line-height:1.25;font-family:sans-serif;letter-spacing:0px;word-spacing:0px;fill:#000000;fill-opacity:1;stroke:none"
       transform="matrix(0.26458333,0,0,0.26458333,0,270.54167)"><flowRegion
         id="flowRegion878"><rect
           id="rect880"
           width="100"
           height="97.14286"
           x="151.42857"
           y="60" /></flowRegion><flowPara
         id="flowPara882" /></flowRoot>    <flowRoot
       xml:space="preserve"
       id="flowRoot934"
       style="font-style:normal;font-weight:normal;font-size:40px;line-height:1.25;font-family:sans-serif;letter-spacing:0px;word-spacing:0px;fill:#000000;fill-opacity:1;stroke:none"
       transform="matrix(0.26458333,0,0,0.26458333,0,164.70834)"><flowRegion
         id="flowRegion936"><rect
           id="rect938"
           width="78.847862"
           height="478.34369"
           x="10.513048"
           y="8.5150156" /></flowRegion><flowPara
         id="flowPara940">Softskills</flowPara></flowRoot>    <path
       style="font-style:normal;font-variant:normal;font-weight:normal;font-stretch:normal;font-size:40px;line-height:1.25;font-family:'Agency FB';-inkscape-font-specification:'Agency FB';letter-spacing:0px;word-spacing:0px;fill:#ff2800;fill-opacity:1;stroke:none;stroke-width:2.42813063"
       d="M 3.8769531 358.56055 L 3.6425781 358.56445 L 3.7207031 363.69336 L 24.195312 365.50781 L 24.380859 377.41406 L 3.9707031 379.80859 L 4.0527344 385.0918 L 96.052734 373.17773 L 95.972656 367.93359 L 3.8769531 358.56055 z M 31.431641 366.09375 L 81.326172 370.66797 L 31.595703 376.62109 L 31.431641 366.09375 z M 96.085938 390.40625 L 4.15625 391.71484 L 4.3632812 405.1875 C 4.398478 407.45872 5.584141 409.33188 7.9179688 410.80469 C 10.290957 412.27696 13.23919 412.98764 16.763672 412.9375 L 55.591797 412.38477 C 59.860335 412.32407 61.97358 410.8776 61.929688 408.04492 C 61.907146 406.59031 61.620907 404.59161 61.072266 402.04688 C 60.649415 400.03642 60.225585 398.02611 59.802734 396.01562 L 96.164062 395.49805 L 96.085938 390.40625 z M 53.929688 396.09766 L 54.574219 407.30859 L 17.859375 407.83008 C 13.473352 407.89244 11.259904 406.53161 11.216797 403.75 L 11.107422 396.70703 L 53.929688 396.09766 z M 55.132812 420.70117 L 11.253906 421.32422 C 6.828722 421.38716 4.6373471 422.84885 4.6816406 425.70703 L 4.8808594 438.49219 C 4.9255475 441.37597 7.160754 442.78565 11.585938 442.72266 L 55.464844 442.09961 C 59.890038 442.03669 62.079855 440.56144 62.035156 437.67773 L 61.837891 424.89258 C 61.793597 422.03432 59.557997 420.63818 55.132812 420.70117 z M 54.976562 425.79492 L 55.150391 437.01172 L 11.742188 437.62891 L 11.568359 426.41211 L 54.976562 425.79492 z M 62.232422 450.31055 L 11.068359 451.03906 C 6.8389798 451.09921 4.7443982 452.50561 4.7871094 455.26172 C 4.8120238 456.86945 5.0799942 458.89666 5.5878906 461.33984 C 6.0107429 463.35033 6.4516542 465.37278 6.9140625 467.4082 L 5.328125 467.42969 L 5.40625 472.44531 L 62.5625 471.63281 L 62.484375 466.61719 L 12.789062 467.32422 L 12.144531 456.03906 L 62.308594 455.32617 L 62.232422 450.31055 z M 62.652344 477.41211 L 55.779297 477.50977 L 55.847656 481.98828 L 12.203125 482.60938 C 7.7779407 482.67229 5.588519 484.13401 5.6328125 486.99219 L 5.7441406 494.22656 L 12.617188 494.12891 L 12.515625 487.62109 L 55.925781 487.00391 L 56.027344 493.51172 L 62.898438 493.41406 L 62.798828 486.90625 L 80.597656 486.65234 L 80.519531 481.63867 L 62.720703 481.89062 L 62.652344 477.41211 z "
       transform="matrix(0.26458333,0,0,0.26458333,0,164.70834)"
       id="path837" />
  </g>
</svg>
