<?xml version="1.0" encoding="UTF-8" standalone="no"?>
<!-- Created with Inkscape (http://www.inkscape.org/) -->

<svg
   xmlns:dc="http://purl.org/dc/elements/1.1/"
   xmlns:cc="http://creativecommons.org/ns#"
   xmlns:rdf="http://www.w3.org/1999/02/22-rdf-syntax-ns#"
   xmlns:svg="http://www.w3.org/2000/svg"
   xmlns="http://www.w3.org/2000/svg"
   xmlns:sodipodi="http://sodipodi.sourceforge.net/DTD/sodipodi-0.dtd"
   xmlns:inkscape="http://www.inkscape.org/namespaces/inkscape"
   width="500"
   height="100"
   viewBox="0 0 132.29166 26.458334"
   version="1.1"
   id="svg8"
   inkscape:version="0.92.4 (5da689c313, 2019-01-14)"
   sodipodi:docname="F-hardskills.svg">
  <defs
     id="defs2" />
  <sodipodi:namedview
     id="base"
     pagecolor="#ffffff"
     bordercolor="#666666"
     borderopacity="1.0"
     inkscape:pageopacity="0.0"
     inkscape:pageshadow="2"
     inkscape:zoom="1.4182101"
     inkscape:cx="227.93739"
     inkscape:cy="251.30524"
     inkscape:document-units="px"
     inkscape:current-layer="layer1"
     showgrid="false"
     units="px"
     inkscape:window-width="1920"
     inkscape:window-height="1017"
     inkscape:window-x="1358"
     inkscape:window-y="-8"
     inkscape:window-maximized="1" />
  <metadata
     id="metadata5">
    <rdf:RDF>
      <cc:Work
         rdf:about="">
        <dc:format>image/svg+xml</dc:format>
        <dc:type
           rdf:resource="http://purl.org/dc/dcmitype/StillImage" />
        <dc:title></dc:title>
      </cc:Work>
    </rdf:RDF>
  </metadata>
  <g
     inkscape:label="Laag 1"
     inkscape:groupmode="layer"
     id="layer1"
     transform="translate(0,-270.54165)">
    <path
       style="font-style:normal;font-variant:normal;font-weight:normal;font-stretch:normal;font-size:74.66666412px;line-height:1.25;font-family:'Agency FB';-inkscape-font-specification:'Agency FB';letter-spacing:0px;word-spacing:0px;fill:#ffbc42;fill-opacity:1;stroke:none;stroke-width:0.99999994"
       d="M 141.34961 21.738281 L 141.34961 78.794922 L 146.41602 78.794922 L 146.41602 51.378906 L 160.16211 51.378906 L 160.16211 78.794922 L 165.22852 78.794922 L 165.22852 21.738281 L 160.16211 21.738281 L 160.16211 46.820312 L 146.41602 46.820312 L 146.41602 21.738281 L 141.34961 21.738281 z M 241.86523 21.738281 L 241.86523 43.320312 L 233.88086 43.320312 C 231.71767 43.320313 229.9184 44.049494 228.48438 45.507812 C 227.05035 46.941841 226.33398 48.753891 226.33398 50.941406 L 226.33398 71.685547 C 226.33398 73.775827 226.96463 75.525833 228.22852 76.935547 C 229.4924 78.320971 231.15864 79.013672 233.22461 79.013672 C 233.78363 79.013672 236.66384 78.612638 241.86523 77.810547 L 241.86523 78.794922 L 246.67773 78.794922 L 246.67773 21.738281 L 241.86523 21.738281 z M 281.49414 21.738281 L 281.49414 78.794922 L 286.34375 78.794922 L 286.34375 60.710938 L 296.11523 78.794922 L 301.40039 78.794922 L 290.35352 59.144531 L 300.67188 43.466797 L 300.67188 43.320312 L 295.45898 43.320312 L 286.34375 57.976562 L 286.34375 21.738281 L 281.49414 21.738281 z M 320.14062 21.738281 L 320.14062 78.794922 L 324.91602 78.794922 L 324.91602 21.738281 L 320.14062 21.738281 z M 333.41211 21.738281 L 333.41211 78.794922 L 338.1875 78.794922 L 338.1875 21.738281 L 333.41211 21.738281 z M 306.79688 29.429688 L 306.79688 35.554688 L 311.71875 35.554688 L 311.71875 29.429688 L 306.79688 29.429688 z M 216.27148 43.101562 C 214.98329 43.101562 213.36632 43.247409 211.42188 43.539062 C 209.7934 43.806325 208.17643 44.061538 206.57227 44.304688 L 206.57227 43.320312 L 201.72461 43.320312 L 201.72461 78.794922 L 206.57227 78.794922 L 206.57227 47.951172 L 215.50586 47.660156 L 215.50586 54.988281 L 220.28125 54.988281 L 220.28125 47.076172 C 220.28125 44.426874 218.9451 43.101562 216.27148 43.101562 z M 178.02539 43.320312 C 175.30317 43.320313 173.94336 44.694899 173.94336 47.441406 L 173.94336 53.419922 L 178.64648 53.419922 L 178.64648 47.367188 L 189.07227 47.367188 L 189.07227 58.050781 L 177.66211 58.050781 C 174.91558 58.050781 173.54102 59.410595 173.54102 62.132812 L 173.54102 75.076172 C 173.54102 77.70118 174.86632 79.013672 177.51562 79.013672 C 178.94965 79.013672 180.85829 78.867825 183.24023 78.576172 C 185.16037 78.333098 187.07986 78.077911 189 77.810547 L 189 78.794922 L 193.77539 78.794922 L 193.77539 47.441406 C 193.77539 44.694899 192.41558 43.320312 189.69336 43.320312 L 178.02539 43.320312 z M 258.59961 43.320312 C 255.85307 43.320313 254.47852 44.694899 254.47852 47.441406 L 254.47852 53.347656 C 254.47852 54.903209 255.08745 56.166451 256.30273 57.138672 L 268.99023 67.529297 L 268.99023 74.601562 L 259.18164 74.601562 L 259.18164 66.617188 L 254.40625 66.617188 L 254.40625 74.675781 C 254.40625 77.422288 255.77886 78.794922 258.52539 78.794922 L 269.64648 78.794922 C 272.39301 78.794922 273.76562 77.422288 273.76562 74.675781 L 273.76562 67.966797 C 273.76562 66.338324 273.16949 65.049468 271.97852 64.101562 L 259.18164 53.710938 L 259.18164 47.513672 L 268.99023 47.513672 L 268.99023 54.513672 L 273.69336 54.513672 L 273.69336 47.441406 C 273.69336 44.694899 272.3188 43.320312 269.57227 43.320312 L 258.59961 43.320312 z M 306.86914 43.320312 L 306.86914 78.794922 L 311.64648 78.794922 L 311.64648 43.320312 L 306.86914 43.320312 z M 350.32812 43.320312 C 347.5816 43.320313 346.20898 44.694899 346.20898 47.441406 L 346.20898 53.347656 C 346.20898 54.903209 346.81598 56.166451 348.03125 57.138672 L 360.71875 67.529297 L 360.71875 74.601562 L 350.91211 74.601562 L 350.91211 66.617188 L 346.13477 66.617188 L 346.13477 74.675781 C 346.13477 77.422288 347.50933 78.794922 350.25586 78.794922 L 361.375 78.794922 C 364.12152 78.794922 365.49414 77.422288 365.49414 74.675781 L 365.49414 67.966797 C 365.49414 66.338324 364.89995 65.049468 363.70898 64.101562 L 350.91211 53.710938 L 350.91211 47.513672 L 360.71875 47.513672 L 360.71875 54.513672 L 365.42188 54.513672 L 365.42188 47.441406 C 365.42188 44.694899 364.04926 43.320312 361.30273 43.320312 L 350.32812 43.320312 z M 235.15625 47.585938 L 241.86523 47.585938 L 241.86523 74.382812 C 238.02495 74.625962 235.7882 74.748047 235.15625 74.748047 C 232.48264 74.748047 231.14648 73.38628 231.14648 70.664062 L 231.14648 51.707031 C 231.14648 48.960499 232.48264 47.585938 235.15625 47.585938 z M 178.24414 61.841797 L 189.07227 61.841797 L 189.07227 74.382812 L 178.24414 74.601562 L 178.24414 61.841797 z "
       transform="matrix(0.26458333,0,0,0.26458333,0,270.54165)"
       id="path905" />
  </g>
</svg>
