<?xml version="1.0" encoding="UTF-8" standalone="no"?>
<!-- Created with Inkscape (http://www.inkscape.org/) -->

<svg
   xmlns:dc="http://purl.org/dc/elements/1.1/"
   xmlns:cc="http://creativecommons.org/ns#"
   xmlns:rdf="http://www.w3.org/1999/02/22-rdf-syntax-ns#"
   xmlns:svg="http://www.w3.org/2000/svg"
   xmlns="http://www.w3.org/2000/svg"
   xmlns:sodipodi="http://sodipodi.sourceforge.net/DTD/sodipodi-0.dtd"
   xmlns:inkscape="http://www.inkscape.org/namespaces/inkscape"
   width="500"
   height="100"
   viewBox="0 0 132.29166 26.458334"
   version="1.1"
   id="svg8"
   inkscape:version="0.92.4 (5da689c313, 2019-01-14)"
   sodipodi:docname="F-softskills.svg">
  <defs
     id="defs2" />
  <sodipodi:namedview
     id="base"
     pagecolor="#ffffff"
     bordercolor="#666666"
     borderopacity="1.0"
     inkscape:pageopacity="0.0"
     inkscape:pageshadow="2"
     inkscape:zoom="1.4182101"
     inkscape:cx="113.35634"
     inkscape:cy="251.30524"
     inkscape:document-units="px"
     inkscape:current-layer="layer1"
     showgrid="false"
     units="px"
     inkscape:window-width="1920"
     inkscape:window-height="1017"
     inkscape:window-x="1358"
     inkscape:window-y="-8"
     inkscape:window-maximized="1" />
  <metadata
     id="metadata5">
    <rdf:RDF>
      <cc:Work
         rdf:about="">
        <dc:format>image/svg+xml</dc:format>
        <dc:type
           rdf:resource="http://purl.org/dc/dcmitype/StillImage" />
        <dc:title></dc:title>
      </cc:Work>
    </rdf:RDF>
  </metadata>
  <g
     inkscape:label="Laag 1"
     inkscape:groupmode="layer"
     id="layer1"
     transform="translate(0,-270.54165)">
    <path
       style="font-style:normal;font-variant:normal;font-weight:normal;font-stretch:normal;font-size:74.66666412px;line-height:1.25;font-family:'Agency FB';-inkscape-font-specification:'Agency FB';letter-spacing:0px;word-spacing:0px;fill:#8f2d42;fill-opacity:1;stroke:none;stroke-width:0.99999994"
       d="M 145.21289 21.738281 C 144.02192 21.738281 143.03754 22.113726 142.25977 22.867188 C 141.50629 23.620649 141.13086 24.594177 141.13086 25.785156 L 141.13086 37.341797 C 141.13086 38.921639 141.67773 40.367184 142.77148 41.679688 L 158.52148 60.710938 L 158.52148 74.310547 L 146.19727 74.310547 L 146.19727 60.273438 L 141.13086 60.273438 L 141.13086 74.748047 C 141.13086 75.939001 141.50629 76.910576 142.25977 77.664062 C 143.03754 78.417524 144.02192 78.794922 145.21289 78.794922 L 159.57812 78.794922 C 160.7691 78.794922 161.72982 78.417524 162.45898 77.664062 C 163.21246 76.910576 163.58789 75.939001 163.58789 74.748047 L 163.58789 61.550781 C 163.58789 59.970914 163.06662 58.54903 162.02148 57.285156 L 146.19727 38.253906 L 146.19727 26.222656 L 158.52148 26.222656 L 158.52148 39.054688 L 163.58789 39.054688 L 163.58789 25.785156 C 163.58789 24.594177 163.21246 23.620649 162.45898 22.867188 C 161.72982 22.113726 160.7691 21.738281 159.57812 21.738281 L 145.21289 21.738281 z M 206.13477 21.738281 C 203.41254 21.738281 202.05273 23.110915 202.05273 25.857422 L 202.05273 43.320312 L 197.93164 43.320312 L 197.93164 47.585938 L 202.05273 47.585938 L 202.05273 78.794922 L 206.82812 78.794922 L 206.82812 47.585938 L 212.88086 47.585938 L 212.88086 43.320312 L 206.82812 43.320312 L 206.82812 26.003906 L 213.68164 26.003906 L 213.68164 21.738281 L 206.13477 21.738281 z M 263.84961 21.738281 L 263.84961 78.794922 L 268.69727 78.794922 L 268.69727 60.710938 L 278.46875 78.794922 L 283.75586 78.794922 L 272.70898 59.144531 L 283.02539 43.466797 L 283.02539 43.320312 L 277.8125 43.320312 L 268.69727 57.976562 L 268.69727 21.738281 L 263.84961 21.738281 z M 302.49414 21.738281 L 302.49414 78.794922 L 307.27148 78.794922 L 307.27148 21.738281 L 302.49414 21.738281 z M 315.76562 21.738281 L 315.76562 78.794922 L 320.54102 78.794922 L 320.54102 21.738281 L 315.76562 21.738281 z M 289.15039 29.429688 L 289.15039 35.554688 L 294.07227 35.554688 L 294.07227 29.429688 L 289.15039 29.429688 z M 219.84375 32.273438 L 219.84375 43.320312 L 215.57812 43.320312 L 215.57812 47.585938 L 219.84375 47.585938 L 219.84375 74.675781 C 219.84375 77.422288 221.20551 78.794922 223.92773 78.794922 L 230.81836 78.794922 L 230.81836 74.529297 L 224.61914 74.529297 L 224.61914 47.585938 L 230.81836 47.585938 L 230.81836 43.320312 L 224.61914 43.320312 L 224.61914 32.273438 L 219.84375 32.273438 z M 176.05664 43.320312 C 173.33442 43.320313 171.97461 44.694899 171.97461 47.441406 L 171.97461 74.675781 C 171.97461 77.422288 173.33442 78.794922 176.05664 78.794922 L 188.23438 78.794922 C 190.9809 78.794922 192.35352 77.422288 192.35352 74.675781 L 192.35352 47.441406 C 192.35352 44.694899 190.9809 43.320312 188.23438 43.320312 L 176.05664 43.320312 z M 240.95312 43.320312 C 238.2066 43.320313 236.83398 44.694899 236.83398 47.441406 L 236.83398 53.347656 C 236.83398 54.903209 237.44098 56.166451 238.65625 57.138672 L 251.34375 67.529297 L 251.34375 74.601562 L 241.53711 74.601562 L 241.53711 66.617188 L 236.75977 66.617188 L 236.75977 74.675781 C 236.75977 77.422288 238.13433 78.794922 240.88086 78.794922 L 252 78.794922 C 254.74653 78.794922 256.11914 77.422288 256.11914 74.675781 L 256.11914 67.966797 C 256.11914 66.338324 255.52495 65.049468 254.33398 64.101562 L 241.53711 53.710938 L 241.53711 47.513672 L 251.34375 47.513672 L 251.34375 54.513672 L 256.04688 54.513672 L 256.04688 47.441406 C 256.04687 44.694899 254.67426 43.320312 251.92773 43.320312 L 240.95312 43.320312 z M 289.22461 43.320312 L 289.22461 78.794922 L 294 78.794922 L 294 43.320312 L 289.22461 43.320312 z M 332.68164 43.320312 C 329.93511 43.320313 328.5625 44.694899 328.5625 47.441406 L 328.5625 53.347656 C 328.5625 54.903209 329.16948 56.166451 330.38477 57.138672 L 343.07227 67.529297 L 343.07227 74.601562 L 333.26562 74.601562 L 333.26562 66.617188 L 328.49023 66.617188 L 328.49023 74.675781 C 328.49023 77.422288 329.86285 78.794922 332.60938 78.794922 L 343.72852 78.794922 C 346.47504 78.794922 347.84961 77.422288 347.84961 74.675781 L 347.84961 67.966797 C 347.84961 66.338324 347.25347 65.049468 346.0625 64.101562 L 333.26562 53.710938 L 333.26562 47.513672 L 343.07227 47.513672 L 343.07227 54.513672 L 347.77539 54.513672 L 347.77539 47.441406 C 347.77539 44.694899 346.40278 43.320312 343.65625 43.320312 L 332.68164 43.320312 z M 176.82227 47.585938 L 187.50586 47.585938 L 187.50586 74.529297 L 176.82227 74.529297 L 176.82227 47.585938 z "
       transform="matrix(0.26458333,0,0,0.26458333,0,270.54165)"
       id="path819" />
  </g>
</svg>
