<?xml version="1.0" encoding="UTF-8" standalone="no"?>
<!-- Created with Inkscape (http://www.inkscape.org/) -->

<svg
   xmlns:dc="http://purl.org/dc/elements/1.1/"
   xmlns:cc="http://creativecommons.org/ns#"
   xmlns:rdf="http://www.w3.org/1999/02/22-rdf-syntax-ns#"
   xmlns:svg="http://www.w3.org/2000/svg"
   xmlns="http://www.w3.org/2000/svg"
   xmlns:sodipodi="http://sodipodi.sourceforge.net/DTD/sodipodi-0.dtd"
   xmlns:inkscape="http://www.inkscape.org/namespaces/inkscape"
   width="500"
   height="100"
   viewBox="0 0 132.29166 26.458334"
   version="1.1"
   id="svg8"
   inkscape:version="0.92.4 (5da689c313, 2019-01-14)"
   sodipodi:docname="F-talenkennis.svg">
  <defs
     id="defs2" />
  <sodipodi:namedview
     id="base"
     pagecolor="#ffffff"
     bordercolor="#666666"
     borderopacity="1.0"
     inkscape:pageopacity="0.0"
     inkscape:pageshadow="2"
     inkscape:zoom="1.4182101"
     inkscape:cx="113.35634"
     inkscape:cy="251.30524"
     inkscape:document-units="px"
     inkscape:current-layer="layer1"
     showgrid="false"
     units="px"
     inkscape:window-width="1920"
     inkscape:window-height="1017"
     inkscape:window-x="1358"
     inkscape:window-y="-8"
     inkscape:window-maximized="1" />
  <metadata
     id="metadata5">
    <rdf:RDF>
      <cc:Work
         rdf:about="">
        <dc:format>image/svg+xml</dc:format>
        <dc:type
           rdf:resource="http://purl.org/dc/dcmitype/StillImage" />
        <dc:title></dc:title>
      </cc:Work>
    </rdf:RDF>
  </metadata>
  <g
     inkscape:label="Laag 1"
     inkscape:groupmode="layer"
     id="layer1"
     transform="translate(0,-270.54165)">
    <path
       style="font-style:normal;font-variant:normal;font-weight:normal;font-stretch:normal;font-size:74.66666412px;line-height:1.25;font-family:'Agency FB';-inkscape-font-specification:'Agency FB';letter-spacing:0px;word-spacing:0px;fill:#049bff;fill-opacity:1;stroke:none;stroke-width:0.99999994"
       d="M 115.65039 21.738281 L 115.65039 26.222656 L 124.54492 26.222656 L 124.54492 78.794922 L 129.61328 78.794922 L 129.61328 26.222656 L 138.43555 26.222656 L 138.43555 21.738281 L 115.65039 21.738281 z M 172.16016 21.738281 L 172.16016 78.794922 L 176.93555 78.794922 L 176.93555 21.738281 L 172.16016 21.738281 z M 241.28516 21.738281 L 241.28516 78.794922 L 246.13477 78.794922 L 246.13477 60.710938 L 255.9043 78.794922 L 261.19141 78.794922 L 250.14453 59.144531 L 260.46289 43.466797 L 260.46289 43.320312 L 255.24805 43.320312 L 246.13477 57.976562 L 246.13477 21.738281 L 241.28516 21.738281 z M 351.02539 29.429688 L 351.02539 35.554688 L 355.94727 35.554688 L 355.94727 29.429688 L 351.02539 29.429688 z M 229.32617 43.101562 C 227.81923 43.101562 225.89974 43.247409 223.56641 43.539062 C 221.64627 43.806325 219.73763 44.061538 217.8418 44.304688 L 217.8418 43.320312 L 212.99414 43.320312 L 212.99414 78.794922 L 217.8418 78.794922 L 217.8418 47.951172 L 228.52539 47.660156 L 228.52539 78.794922 L 233.37305 78.794922 L 233.37305 47.076172 C 233.37305 44.426874 232.02409 43.101562 229.32617 43.101562 z M 310.55664 43.101562 C 309.0497 43.101562 307.12826 43.247409 304.79492 43.539062 C 302.87478 43.806325 300.9681 44.061538 299.07227 44.304688 L 299.07227 43.320312 L 294.22266 43.320312 L 294.22266 78.794922 L 299.07227 78.794922 L 299.07227 47.951172 L 309.75391 47.660156 L 309.75391 78.794922 L 314.60352 78.794922 L 314.60352 47.076172 C 314.60352 44.426874 313.25455 43.101562 310.55664 43.101562 z M 338.84766 43.101562 C 337.34071 43.101562 335.42122 43.247409 333.08789 43.539062 C 331.16776 43.806325 329.25911 44.061538 327.36328 44.304688 L 327.36328 43.320312 L 322.51367 43.320312 L 322.51367 78.794922 L 327.36328 78.794922 L 327.36328 47.951172 L 338.04492 47.660156 L 338.04492 78.794922 L 342.89453 78.794922 L 342.89453 47.076172 C 342.89453 44.426874 341.54558 43.101562 338.84766 43.101562 z M 148.16992 43.320312 C 145.4477 43.320313 144.08789 44.694899 144.08789 47.441406 L 144.08789 53.419922 L 148.79102 53.419922 L 148.79102 47.367188 L 159.2168 47.367188 L 159.2168 58.050781 L 147.80664 58.050781 C 145.06011 58.050781 143.68555 59.410595 143.68555 62.132812 L 143.68555 75.076172 C 143.68555 77.70118 145.01085 79.013672 147.66016 79.013672 C 149.09418 79.013672 151.00282 78.867825 153.38477 78.576172 C 155.3049 78.333098 157.22439 78.077911 159.14453 77.810547 L 159.14453 78.794922 L 163.91992 78.794922 L 163.91992 47.441406 C 163.91992 44.694899 162.56011 43.320312 159.83789 43.320312 L 148.16992 43.320312 z M 189.22266 43.320312 C 186.50043 43.320313 185.13867 44.694899 185.13867 47.441406 L 185.13867 74.675781 C 185.13867 77.422288 186.50043 78.794922 189.22266 78.794922 L 200.88867 78.794922 C 203.61089 78.794922 204.97266 77.422288 204.97266 74.675781 L 204.97266 68.257812 L 200.26953 68.257812 L 200.26953 74.748047 L 189.8418 74.748047 L 189.8418 61.914062 L 203.33203 61.914062 L 204.97266 60.201172 L 204.97266 47.441406 C 204.97266 44.694899 203.61089 43.320312 200.88867 43.320312 L 189.22266 43.320312 z M 270.45117 43.320312 C 267.72894 43.320313 266.36914 44.694899 266.36914 47.441406 L 266.36914 74.675781 C 266.36914 77.422288 267.72894 78.794922 270.45117 78.794922 L 282.11914 78.794922 C 284.84137 78.794922 286.20117 77.422288 286.20117 74.675781 L 286.20117 68.257812 L 281.49805 68.257812 L 281.49805 74.748047 L 271.07227 74.748047 L 271.07227 61.914062 L 284.56055 61.914062 L 286.20117 60.201172 L 286.20117 47.441406 C 286.20117 44.694899 284.84137 43.320312 282.11914 43.320312 L 270.45117 43.320312 z M 351.09766 43.320312 L 351.09766 78.794922 L 355.87305 78.794922 L 355.87305 43.320312 L 351.09766 43.320312 z M 368.01367 43.320312 C 365.26714 43.320313 363.89453 44.694899 363.89453 47.441406 L 363.89453 53.347656 C 363.89453 54.903209 364.50152 56.166451 365.7168 57.138672 L 378.4043 67.529297 L 378.4043 74.601562 L 368.59766 74.601562 L 368.59766 66.617188 L 363.82227 66.617188 L 363.82227 74.675781 C 363.82227 77.422288 365.19488 78.794922 367.94141 78.794922 L 379.06055 78.794922 C 381.80708 78.794922 383.18164 77.422288 383.18164 74.675781 L 383.18164 67.966797 C 383.18164 66.338324 382.58549 65.049468 381.39453 64.101562 L 368.59766 53.710938 L 368.59766 47.513672 L 378.4043 47.513672 L 378.4043 54.513672 L 383.10742 54.513672 L 383.10742 47.441406 C 383.10742 44.694899 381.73481 43.320312 378.98828 43.320312 L 368.01367 43.320312 z M 189.8418 47.367188 L 200.26953 47.367188 L 200.26953 58.050781 L 189.8418 58.050781 L 189.8418 47.367188 z M 271.07227 47.367188 L 281.49805 47.367188 L 281.49805 58.050781 L 271.07227 58.050781 L 271.07227 47.367188 z M 148.38867 61.841797 L 159.2168 61.841797 L 159.2168 74.382812 L 148.38867 74.601562 L 148.38867 61.841797 z "
       transform="matrix(0.26458333,0,0,0.26458333,0,270.54165)"
       id="path819" />
  </g>
</svg>
