<?xml version="1.0" encoding="UTF-8" standalone="no"?>
<!-- Created with Inkscape (http://www.inkscape.org/) -->

<svg
   xmlns:osb="http://www.openswatchbook.org/uri/2009/osb"
   xmlns:dc="http://purl.org/dc/elements/1.1/"
   xmlns:cc="http://creativecommons.org/ns#"
   xmlns:rdf="http://www.w3.org/1999/02/22-rdf-syntax-ns#"
   xmlns:svg="http://www.w3.org/2000/svg"
   xmlns="http://www.w3.org/2000/svg"
   xmlns:sodipodi="http://sodipodi.sourceforge.net/DTD/sodipodi-0.dtd"
   xmlns:inkscape="http://www.inkscape.org/namespaces/inkscape"
   width="100"
   height="500"
   viewBox="0 0 26.458334 132.29166"
   version="1.1"
   id="svg8"
   inkscape:version="0.92.4 (5da689c313, 2019-01-14)"
   sodipodi:docname="github.svg">
  <defs
     id="defs2">
    <linearGradient
       id="linearGradient898"
       osb:paint="solid">
      <stop
         style="stop-color:#000000;stop-opacity:1;"
         offset="0"
         id="stop896" />
    </linearGradient>
  </defs>
  <sodipodi:namedview
     id="base"
     pagecolor="#ffffff"
     bordercolor="#666666"
     borderopacity="1.0"
     inkscape:pageopacity="0.0"
     inkscape:pageshadow="2"
     inkscape:zoom="1.0074671"
     inkscape:cx="-619.51663"
     inkscape:cy="357.15199"
     inkscape:document-units="mm"
     inkscape:current-layer="layer1"
     showgrid="false"
     inkscape:window-width="1920"
     inkscape:window-height="1017"
     inkscape:window-x="1358"
     inkscape:window-y="-8"
     inkscape:window-maximized="1"
     units="px" />
  <metadata
     id="metadata5">
    <rdf:RDF>
      <cc:Work
         rdf:about="">
        <dc:format>image/svg+xml</dc:format>
        <dc:type
           rdf:resource="http://purl.org/dc/dcmitype/StillImage" />
        <dc:title></dc:title>
      </cc:Work>
    </rdf:RDF>
  </metadata>
  <g
     inkscape:label="Laag 1"
     inkscape:groupmode="layer"
     id="layer1"
     transform="translate(0,-164.70834)">
    <flowRoot
       xml:space="preserve"
       id="flowRoot819"
       style="font-style:normal;font-weight:normal;font-size:96px;line-height:1.25;font-family:sans-serif;letter-spacing:0px;word-spacing:0px;fill:#000000;fill-opacity:1;stroke:none"
       transform="scale(0.26458333)"><flowRegion
         id="flowRegion821"
         style="font-size:96px"><rect
           id="rect823"
           width="565.71429"
           height="402.85715"
           x="102.85714"
           y="279.66254"
           style="font-size:96px" /></flowRegion><flowPara
         id="flowPara825" /></flowRoot>    <flowRoot
       xml:space="preserve"
       id="flowRoot835"
       style="font-style:normal;font-weight:normal;font-size:40px;line-height:1.25;font-family:sans-serif;letter-spacing:0px;word-spacing:0px;fill:#000000;fill-opacity:1;stroke:none"
       transform="scale(0.26458333)"><flowRegion
         id="flowRegion837"><rect
           id="rect839"
           width="317.14285"
           height="162.85716"
           x="82.85714"
           y="408.23398" /></flowRegion><flowPara
         id="flowPara841" /></flowRoot>    <flowRoot
       xml:space="preserve"
       id="flowRoot876"
       style="font-style:normal;font-weight:normal;font-size:40px;line-height:1.25;font-family:sans-serif;letter-spacing:0px;word-spacing:0px;fill:#000000;fill-opacity:1;stroke:none"
       transform="matrix(0.26458333,0,0,0.26458333,0,270.54167)"><flowRegion
         id="flowRegion878"><rect
           id="rect880"
           width="100"
           height="97.14286"
           x="151.42857"
           y="60" /></flowRegion><flowPara
         id="flowPara882" /></flowRoot>    <flowRoot
       xml:space="preserve"
       id="flowRoot934"
       style="font-style:normal;font-weight:normal;font-size:40px;line-height:1.25;font-family:sans-serif;letter-spacing:0px;word-spacing:0px;fill:#000000;fill-opacity:1;stroke:none"
       transform="matrix(0.26458333,0,0,0.26458333,0,164.70834)"><flowRegion
         id="flowRegion936"><rect
           id="rect938"
           width="78.847862"
           height="478.34369"
           x="10.513048"
           y="8.5150156" /></flowRegion><flowPara
         id="flowPara940">Softskills</flowPara></flowRoot>    <path
       style="font-style:normal;font-variant:normal;font-weight:normal;font-stretch:normal;font-size:40px;line-height:1.25;font-family:'Agency FB';-inkscape-font-specification:'Agency FB';letter-spacing:0px;word-spacing:0px;fill:#ff2800;fill-opacity:1;stroke:none;stroke-width:2.42813063"
       d="M 88.095703 340.86328 L 9.2070312 341.98633 C 7.2881447 342.01359 5.7271184 342.42992 4.5253906 343.23828 C 3.3236606 344.04665 2.7325742 345.07766 2.7519531 346.32812 L 2.9960938 362.06055 C 3.0154718 363.31099 3.6370326 364.32186 4.8632812 365.0957 C 6.0895278 365.86947 7.6631447 366.24401 9.5820312 366.2168 L 49.115234 365.6543 L 48.931641 353.90234 L 41.882812 354.00195 L 41.982422 360.39453 L 10.203125 360.84766 L 9.9941406 347.29688 L 87.472656 346.19531 L 87.683594 359.74609 L 67.005859 360.03906 L 67.089844 365.39844 L 88.470703 365.09375 C 90.389584 365.06646 91.95061 364.65016 93.152344 363.8418 C 94.354097 363.03343 94.945183 362.00242 94.925781 360.75195 L 94.681641 345.01953 C 94.662262 343.76909 94.040703 342.75822 92.814453 341.98438 C 91.588203 341.2106 90.014587 340.83607 88.095703 340.86328 z M 82.738281 374.25 L 72.869141 374.39062 L 72.949219 379.55859 L 82.818359 379.41797 L 82.738281 374.25 z M 60.359375 374.64453 L 3.203125 375.45703 L 3.28125 380.47266 L 60.435547 379.66016 L 60.359375 374.64453 z M 60.529297 385.66992 L 53.65625 385.76758 L 53.726562 390.24609 L 10.082031 390.86719 C 5.6568477 390.9301 3.4654728 392.38984 3.5097656 395.24805 L 3.6210938 402.48242 L 10.494141 402.38477 L 10.394531 395.87891 L 53.804688 395.26172 L 53.904297 401.76758 L 60.777344 401.66992 L 60.675781 395.16211 L 78.474609 394.91016 L 78.396484 389.89453 L 60.599609 390.14844 L 60.529297 385.66992 z M 95.662109 408.29492 L 3.7324219 409.60352 L 3.8144531 414.92383 L 47.988281 414.29492 L 48.212891 428.72656 L 4.0390625 429.35547 L 4.1210938 434.67578 L 96.050781 433.36914 L 95.96875 428.04883 L 55.554688 428.62305 L 55.330078 414.19141 L 95.744141 413.61719 L 95.662109 408.29492 z M 61.414062 442.7832 L 10.25 443.50977 C 6.0206207 443.56991 3.9279919 444.97827 3.9707031 447.73438 C 3.9956175 449.34211 4.2616351 451.36736 4.7695312 453.81055 C 5.1923838 455.82103 5.6352479 457.84348 6.0976562 459.87891 L 4.5117188 459.90234 L 4.5898438 464.91602 L 61.744141 464.10352 L 61.667969 459.08984 L 11.972656 459.79492 L 11.326172 448.50977 L 61.492188 447.79688 L 61.414062 442.7832 z M 96.650391 471.99219 L 4.71875 473.30078 L 4.9277344 486.77344 C 4.9629314 489.04466 6.1485941 490.91782 8.4824219 492.39062 C 10.85541 493.8629 13.803643 494.57358 17.328125 494.52344 L 56.15625 493.9707 C 60.424785 493.91 62.53608 492.46354 62.492188 489.63086 C 62.469646 488.17625 62.18536 486.17752 61.636719 483.63281 C 61.21387 481.62233 60.790041 479.61204 60.367188 477.60156 L 96.728516 477.08398 L 96.650391 471.99219 z M 54.494141 477.68359 L 55.136719 488.89258 L 18.423828 489.41602 C 14.037805 489.4784 11.822404 488.11757 11.779297 485.33594 L 11.671875 478.29297 L 54.494141 477.68359 z "
       transform="matrix(0.26458333,0,0,0.26458333,0,164.70834)"
       id="path837" />
  </g>
</svg>
