<?xml version="1.0" encoding="UTF-8" standalone="no"?>
<!-- Created with Inkscape (http://www.inkscape.org/) -->

<svg
   xmlns:osb="http://www.openswatchbook.org/uri/2009/osb"
   xmlns:dc="http://purl.org/dc/elements/1.1/"
   xmlns:cc="http://creativecommons.org/ns#"
   xmlns:rdf="http://www.w3.org/1999/02/22-rdf-syntax-ns#"
   xmlns:svg="http://www.w3.org/2000/svg"
   xmlns="http://www.w3.org/2000/svg"
   xmlns:sodipodi="http://sodipodi.sourceforge.net/DTD/sodipodi-0.dtd"
   xmlns:inkscape="http://www.inkscape.org/namespaces/inkscape"
   width="100"
   height="500"
   viewBox="0 0 26.458334 132.29166"
   version="1.1"
   id="svg8"
   inkscape:version="0.92.4 (5da689c313, 2019-01-14)"
   sodipodi:docname="goNuts.svg">
  <defs
     id="defs2">
    <linearGradient
       id="linearGradient898"
       osb:paint="solid">
      <stop
         style="stop-color:#000000;stop-opacity:1;"
         offset="0"
         id="stop896" />
    </linearGradient>
  </defs>
  <sodipodi:namedview
     id="base"
     pagecolor="#ffffff"
     bordercolor="#666666"
     borderopacity="1.0"
     inkscape:pageopacity="0.0"
     inkscape:pageshadow="2"
     inkscape:zoom="1.0074671"
     inkscape:cx="-619.51663"
     inkscape:cy="357.15199"
     inkscape:document-units="mm"
     inkscape:current-layer="layer1"
     showgrid="false"
     inkscape:window-width="1920"
     inkscape:window-height="1017"
     inkscape:window-x="1358"
     inkscape:window-y="-8"
     inkscape:window-maximized="1"
     units="px" />
  <metadata
     id="metadata5">
    <rdf:RDF>
      <cc:Work
         rdf:about="">
        <dc:format>image/svg+xml</dc:format>
        <dc:type
           rdf:resource="http://purl.org/dc/dcmitype/StillImage" />
        <dc:title></dc:title>
      </cc:Work>
    </rdf:RDF>
  </metadata>
  <g
     inkscape:label="Laag 1"
     inkscape:groupmode="layer"
     id="layer1"
     transform="translate(0,-164.70834)">
    <flowRoot
       xml:space="preserve"
       id="flowRoot819"
       style="font-style:normal;font-weight:normal;font-size:96px;line-height:1.25;font-family:sans-serif;letter-spacing:0px;word-spacing:0px;fill:#000000;fill-opacity:1;stroke:none"
       transform="scale(0.26458333)"><flowRegion
         id="flowRegion821"
         style="font-size:96px"><rect
           id="rect823"
           width="565.71429"
           height="402.85715"
           x="102.85714"
           y="279.66254"
           style="font-size:96px" /></flowRegion><flowPara
         id="flowPara825" /></flowRoot>    <flowRoot
       xml:space="preserve"
       id="flowRoot835"
       style="font-style:normal;font-weight:normal;font-size:40px;line-height:1.25;font-family:sans-serif;letter-spacing:0px;word-spacing:0px;fill:#000000;fill-opacity:1;stroke:none"
       transform="scale(0.26458333)"><flowRegion
         id="flowRegion837"><rect
           id="rect839"
           width="317.14285"
           height="162.85716"
           x="82.85714"
           y="408.23398" /></flowRegion><flowPara
         id="flowPara841" /></flowRoot>    <flowRoot
       xml:space="preserve"
       id="flowRoot876"
       style="font-style:normal;font-weight:normal;font-size:40px;line-height:1.25;font-family:sans-serif;letter-spacing:0px;word-spacing:0px;fill:#000000;fill-opacity:1;stroke:none"
       transform="matrix(0.26458333,0,0,0.26458333,0,270.54167)"><flowRegion
         id="flowRegion878"><rect
           id="rect880"
           width="100"
           height="97.14286"
           x="151.42857"
           y="60" /></flowRegion><flowPara
         id="flowPara882" /></flowRoot>    <flowRoot
       xml:space="preserve"
       id="flowRoot934"
       style="font-style:normal;font-weight:normal;font-size:40px;line-height:1.25;font-family:sans-serif;letter-spacing:0px;word-spacing:0px;fill:#000000;fill-opacity:1;stroke:none"
       transform="matrix(0.26458333,0,0,0.26458333,0,164.70834)"><flowRegion
         id="flowRegion936"><rect
           id="rect938"
           width="78.847862"
           height="478.34369"
           x="10.513048"
           y="8.5150156" /></flowRegion><flowPara
         id="flowPara940">Softskills</flowPara></flowRoot>    <path
       style="font-style:normal;font-variant:normal;font-weight:normal;font-stretch:normal;font-size:40px;line-height:1.25;font-family:'Agency FB';-inkscape-font-specification:'Agency FB';letter-spacing:0px;word-spacing:0px;fill:#ff2800;fill-opacity:1;stroke:none;stroke-width:2.42813063"
       d="M 88.095703 300.16797 L 9.2070312 301.28906 C 7.2881447 301.31633 5.7271184 301.7346 4.5253906 302.54297 C 3.3236606 303.35133 2.7325742 304.38039 2.7519531 305.63086 L 2.9960938 321.36328 C 3.0154718 322.61373 3.6370326 323.62654 4.8632812 324.40039 C 6.0895278 325.17416 7.6631447 325.54674 9.5820312 325.51953 L 49.115234 324.95898 L 48.931641 313.20703 L 41.882812 313.30664 L 41.982422 319.69922 L 10.203125 320.15039 L 9.9941406 306.59961 L 87.472656 305.49805 L 87.683594 319.04883 L 67.005859 319.34375 L 67.089844 324.70312 L 88.470703 324.39844 C 90.389584 324.37115 91.95061 323.9529 93.152344 323.14453 C 94.354097 322.33617 94.945183 321.30711 94.925781 320.05664 L 94.681641 304.32422 C 94.662262 303.07377 94.040703 302.06096 92.814453 301.28711 C 91.588203 300.51334 90.014587 300.14076 88.095703 300.16797 z M 53.716797 333.73633 L 9.8359375 334.36133 C 5.4107541 334.42424 3.2213322 335.88398 3.265625 338.74219 L 3.4628906 351.52734 C 3.5075788 354.41112 5.7427855 355.82276 10.167969 355.75977 L 54.046875 355.13477 C 58.472069 355.07182 60.66384 353.59855 60.619141 350.71484 L 60.419922 337.92969 C 60.375628 335.07143 58.141981 333.67334 53.716797 333.73633 z M 53.560547 338.83203 L 53.734375 350.04688 L 10.324219 350.66406 L 10.150391 339.44922 L 53.560547 338.83203 z M 61.050781 378.66016 L 3.8964844 379.47266 L 3.9746094 384.5625 L 53.669922 383.85742 L 54.314453 395.06641 L 4.1484375 395.7793 L 4.2285156 400.87109 L 55.332031 400.14453 C 59.600567 400.08383 61.713815 398.63539 61.669922 395.80273 C 61.645403 394.22052 61.378989 392.20881 60.871094 389.76562 C 60.409082 387.7557 59.96738 385.75839 59.544922 383.77344 L 61.130859 383.75 L 61.050781 378.66016 z M 61.511719 408.36328 L 10.347656 409.0918 C 6.1182765 409.15192 4.0256482 410.5603 4.0683594 413.31641 C 4.0932743 414.92414 4.3592913 416.94939 4.8671875 419.39258 C 5.2900398 421.40306 5.7329042 423.42549 6.1953125 425.46094 L 4.609375 425.48438 L 4.6875 430.49805 L 61.841797 429.68555 L 61.763672 424.67188 L 12.068359 425.37695 L 11.423828 414.0918 L 61.589844 413.37891 L 61.511719 408.36328 z M 61.931641 435.4668 L 55.058594 435.56445 L 55.128906 440.04297 L 11.484375 440.66211 C 7.059191 440.72505 4.8678158 442.18674 4.9121094 445.04492 L 5.0234375 452.2793 L 11.896484 452.18164 L 11.796875 445.67383 L 55.207031 445.05664 L 55.306641 451.56445 L 62.179688 451.4668 L 62.078125 444.95898 L 79.876953 444.70508 L 79.798828 439.69141 L 62.001953 439.94531 L 61.931641 435.4668 z M 55.640625 457.87695 L 46.123047 458.01172 C 43.616746 458.04735 41.591588 458.71543 40.044922 460.01367 L 23.509766 473.57227 L 12.113281 473.73438 L 11.953125 463.4375 L 24.818359 463.25391 L 24.740234 458.24023 L 11.759766 458.42383 C 7.3345814 458.48674 5.1428109 459.96005 5.1875 462.84375 L 5.3691406 474.51953 C 5.4138288 477.40331 7.6490353 478.81299 12.074219 478.75 L 22.882812 478.59766 C 25.506595 478.56034 27.57218 477.90498 29.080078 476.63281 L 45.613281 462.95898 L 55.599609 462.81641 L 55.757812 473.11328 L 44.480469 473.27539 L 44.556641 478.21289 L 55.953125 478.05078 C 60.378322 477.98786 62.568137 476.51456 62.523438 473.63086 L 62.34375 462.10742 C 62.299061 459.22367 60.065807 457.81396 55.640625 457.87695 z "
       transform="matrix(0.26458333,0,0,0.26458333,0,164.70834)"
       id="path837" />
  </g>
</svg>
