<?xml version="1.0" encoding="UTF-8" standalone="no"?>
<!-- Created with Inkscape (http://www.inkscape.org/) -->

<svg
   xmlns:dc="http://purl.org/dc/elements/1.1/"
   xmlns:cc="http://creativecommons.org/ns#"
   xmlns:rdf="http://www.w3.org/1999/02/22-rdf-syntax-ns#"
   xmlns:svg="http://www.w3.org/2000/svg"
   xmlns="http://www.w3.org/2000/svg"
   xmlns:sodipodi="http://sodipodi.sourceforge.net/DTD/sodipodi-0.dtd"
   xmlns:inkscape="http://www.inkscape.org/namespaces/inkscape"
   width="500"
   height="100"
   viewBox="0 0 132.29166 26.458334"
   version="1.1"
   id="svg8"
   inkscape:version="0.92.4 (5da689c313, 2019-01-14)"
   sodipodi:docname="hs-1.svg">
  <defs
     id="defs2" />
  <sodipodi:namedview
     id="base"
     pagecolor="#ffffff"
     bordercolor="#666666"
     borderopacity="1.0"
     inkscape:pageopacity="0.0"
     inkscape:pageshadow="2"
     inkscape:zoom="1.3249068"
     inkscape:cx="-9.2937966"
     inkscape:cy="251.30524"
     inkscape:document-units="px"
     inkscape:current-layer="layer1"
     showgrid="false"
     units="px"
     inkscape:window-width="1920"
     inkscape:window-height="1017"
     inkscape:window-x="1358"
     inkscape:window-y="-8"
     inkscape:window-maximized="1" />
  <metadata
     id="metadata5">
    <rdf:RDF>
      <cc:Work
         rdf:about="">
        <dc:format>image/svg+xml</dc:format>
        <dc:type
           rdf:resource="http://purl.org/dc/dcmitype/StillImage" />
        <dc:title></dc:title>
      </cc:Work>
    </rdf:RDF>
  </metadata>
  <g
     inkscape:label="Laag 1"
     inkscape:groupmode="layer"
     id="layer1"
     transform="translate(0,-270.54165)">
    <path
       style="font-style:normal;font-variant:normal;font-weight:normal;font-stretch:normal;font-size:37.33333206px;line-height:1.25;font-family:'Segoe MDL2 Assets';-inkscape-font-specification:'Segoe MDL2 Assets';letter-spacing:0px;word-spacing:0px;fill:#8f2d56;fill-opacity:1;stroke:none;stroke-width:0.99999994"
       d="M 137.25195 31.054688 C 134.97938 31.054688 133.24023 31.705526 132.03711 33.005859 C 130.83398 34.294048 130.23242 36.146034 130.23242 38.564453 L 130.23242 39.240234 L 127.91797 39.240234 L 127.91797 42.119141 L 130.23242 42.119141 L 130.23242 59.601562 L 133.66016 59.601562 L 133.66016 42.119141 L 139.73047 42.119141 L 139.73047 39.240234 L 133.55078 39.240234 L 133.55078 38.546875 C 133.55078 36.845508 133.87891 35.673404 134.53516 35.029297 C 135.20356 34.373045 136.27365 34.044922 137.74414 34.044922 C 138.20595 34.044922 138.74002 34.105114 139.34766 34.226562 C 139.9553 34.335917 140.44748 34.445333 140.82422 34.554688 L 141.00586 34.554688 L 141.00586 31.419922 C 140.49544 31.322662 139.93034 31.236881 139.31055 31.164062 C 138.70291 31.091244 138.01758 31.054688 137.25195 31.054688 z M 119.80664 31.236328 L 119.80664 59.601562 L 123.23242 59.601562 L 123.23242 31.236328 L 119.80664 31.236328 z M 236.54492 31.236328 L 236.54492 40.060547 C 235.63346 39.586569 234.76584 39.240193 233.93945 39.021484 C 233.11306 38.790681 232.16514 38.673828 231.0957 38.673828 C 229.91688 38.673828 228.77388 38.918199 227.66797 39.404297 C 226.57422 39.89042 225.6135 40.593962 224.78711 41.517578 C 223.94857 42.465484 223.28146 43.613927 222.7832 44.962891 C 222.29709 46.311829 222.05273 47.850465 222.05273 49.576172 C 222.05273 52.893892 222.76367 55.487854 224.18555 57.359375 C 225.61957 59.230896 227.55186 60.166016 229.98242 60.166016 C 231.23415 60.166016 232.3954 59.929031 233.46484 59.455078 C 234.53428 58.981125 235.56054 58.319446 236.54492 57.46875 L 236.54492 59.601562 L 239.97266 59.601562 L 239.97266 31.236328 L 236.54492 31.236328 z M 362.29102 31.236328 L 362.29102 59.601562 L 365.7168 59.601562 L 365.7168 52.802734 L 367.94141 50.6875 L 376.10742 59.601562 L 380.62891 59.601562 L 370.47461 48.646484 L 379.93555 39.240234 L 375.61523 39.240234 L 365.7168 49.429688 L 365.7168 31.236328 L 362.29102 31.236328 z M 246.53516 32.275391 L 246.53516 35.830078 L 250.40039 35.830078 L 250.40039 32.275391 L 246.53516 32.275391 z M 72.574219 32.458984 L 72.574219 35.666016 L 88.597656 35.666016 L 71.955078 56.248047 L 71.955078 59.601562 L 93.136719 59.601562 L 93.136719 56.392578 L 75.927734 56.392578 L 92.736328 35.720703 L 92.736328 32.458984 L 72.574219 32.458984 z M 162.7168 33.388672 L 162.7168 39.240234 L 160.40234 39.240234 L 160.40234 42.119141 L 162.7168 42.119141 L 162.7168 52.947266 C 162.7168 55.414289 163.25825 57.208137 164.33984 58.326172 C 165.42144 59.444232 167.00196 60.001953 169.08008 60.001953 C 169.67557 60.001953 170.35004 59.947245 171.10352 59.837891 C 171.86914 59.728461 172.5727 59.590001 173.2168 59.419922 L 173.2168 56.337891 L 173.03516 56.337891 C 172.7678 56.447321 172.3303 56.587734 171.72266 56.757812 C 171.11501 56.915797 170.53168 56.994141 169.97266 56.994141 C 169.01259 56.994141 168.29622 56.884724 167.82227 56.666016 C 167.36046 56.435112 166.99588 56.07792 166.72852 55.591797 C 166.43684 55.069239 166.2654 54.50954 166.2168 53.914062 C 166.16819 53.306415 166.14453 52.467893 166.14453 51.398438 L 166.14453 42.119141 L 173.2168 42.119141 L 173.2168 39.240234 L 166.14453 39.240234 L 166.14453 33.388672 L 162.7168 33.388672 z M 105.98828 38.673828 C 103.023 38.673828 100.62956 39.652789 98.806641 41.609375 C 96.995877 43.565986 96.089844 46.209223 96.089844 49.539062 C 96.089844 52.905387 97.03776 55.506735 98.933594 57.341797 C 100.82942 59.164713 103.46723 60.076172 106.8457 60.076172 C 108.17036 60.076172 109.43359 59.912098 110.63672 59.583984 C 111.83984 59.255871 113.01931 58.847451 114.17383 58.361328 L 114.17383 54.625 L 113.99023 54.625 C 113.39475 55.159728 112.39214 55.706608 110.98242 56.265625 C 109.58485 56.812497 108.19401 57.085938 106.80859 57.085938 C 105.76346 57.085937 104.80274 56.940091 103.92773 56.648438 C 103.06489 56.356759 102.31749 55.91927 101.68555 55.335938 C 101.02929 54.74046 100.51345 53.980256 100.13672 53.056641 C 99.759983 52.12088 99.572266 51.027145 99.572266 49.775391 L 114.57422 49.775391 L 114.57422 47.916016 C 114.57422 44.962894 113.82682 42.684236 112.33203 41.080078 C 110.84939 39.475921 108.73481 38.673828 105.98828 38.673828 z M 210.0957 38.673828 C 208.89258 38.673828 207.71853 38.923632 206.57617 39.421875 C 205.43381 39.920143 204.32921 40.612844 203.25977 41.5 L 203.25977 39.240234 L 199.83203 39.240234 L 199.83203 59.601562 L 203.25977 59.601562 L 203.25977 44.398438 C 204.19553 43.681436 205.17253 43.092667 206.19336 42.630859 C 207.21419 42.169051 208.19314 41.9375 209.12891 41.9375 C 210.04036 41.9375 210.78233 42.065119 211.35352 42.320312 C 211.9247 42.563387 212.3622 42.940759 212.66602 43.451172 C 212.95768 43.91298 213.1582 44.556431 213.26758 45.382812 C 213.37696 46.197049 213.43164 47.072052 213.43164 48.007812 L 213.43164 59.601562 L 216.85742 59.601562 L 216.85742 46.384766 C 216.85742 43.893452 216.28147 41.986758 215.12695 40.662109 C 213.97244 39.337461 212.29536 38.673828 210.0957 38.673828 z M 264.59961 38.673828 C 263.48156 38.673828 262.35873 38.918199 261.22852 39.404297 C 260.09831 39.87825 259.13758 40.545337 258.34766 41.408203 C 257.49696 42.331794 256.82248 43.43294 256.32422 44.708984 C 255.83811 45.972884 255.5957 47.478519 255.5957 49.228516 C 255.5957 52.424686 256.30664 54.903849 257.72852 56.666016 C 259.16255 58.416012 261.09484 59.291016 263.52539 59.291016 C 264.98372 59.291016 266.17947 59.090486 267.11523 58.689453 C 268.06316 58.27625 269.05491 57.656459 270.08789 56.830078 L 270.08789 58.689453 C 270.08789 59.515834 269.99675 60.263244 269.81445 60.931641 C 269.63216 61.600037 269.32769 62.172506 268.90234 62.646484 C 268.477 63.144752 267.88086 63.532991 267.11523 63.8125 C 266.34962 64.092009 265.38346 64.232422 264.2168 64.232422 C 263.00152 64.232422 261.78755 64.068373 260.57227 63.740234 C 259.35699 63.424241 258.46918 63.156209 257.91016 62.9375 L 257.72852 62.9375 L 257.72852 66.4375 C 258.72505 66.716958 259.73307 66.930282 260.75391 67.076172 C 261.78689 67.234156 262.84418 67.3125 263.92578 67.3125 C 267.18273 67.3125 269.5944 66.504999 271.16211 64.888672 C 272.72982 63.272369 273.51367 60.738498 273.51367 57.287109 L 273.51367 39.240234 L 270.30664 39.240234 L 270.08789 40.115234 C 269.20074 39.629036 268.35482 39.269866 267.55273 39.039062 C 266.76281 38.795913 265.77843 38.673828 264.59961 38.673828 z M 332.39453 38.673828 C 329.42925 38.673828 327.0358 39.652789 325.21289 41.609375 C 323.40212 43.565986 322.49609 46.209223 322.49609 49.539062 C 322.49609 52.905387 323.44401 55.506735 325.33984 57.341797 C 327.23568 59.164713 329.87348 60.076172 333.25195 60.076172 C 334.57661 60.076172 335.83984 59.912098 337.04297 59.583984 C 338.2461 59.255871 339.42556 58.847451 340.58008 58.361328 L 340.58008 54.625 L 340.39648 54.625 C 339.801 55.159728 338.7984 55.706608 337.38867 56.265625 C 335.99111 56.812497 334.60026 57.085938 333.21484 57.085938 C 332.1697 57.085937 331.20899 56.940091 330.33398 56.648438 C 329.47114 56.356759 328.72374 55.91927 328.0918 55.335938 C 327.43554 54.74046 326.9197 53.980256 326.54297 53.056641 C 326.16623 52.12088 325.97852 51.027145 325.97852 49.775391 L 340.98047 49.775391 L 340.98047 47.916016 C 340.98047 44.962894 340.23307 42.684236 338.73828 41.080078 C 337.25564 39.475921 335.14106 38.673828 332.39453 38.673828 z M 392.33203 38.673828 C 389.36674 38.673828 386.97135 39.652789 385.14844 41.609375 C 383.33767 43.565986 382.43359 46.209223 382.43359 49.539062 C 382.43359 52.905387 383.38151 55.506735 385.27734 57.341797 C 387.17318 59.164713 389.80903 60.076172 393.1875 60.076172 C 394.51217 60.076172 395.77734 59.912098 396.98047 59.583984 C 398.18359 59.255871 399.36306 58.847451 400.51758 58.361328 L 400.51758 54.625 L 400.33398 54.625 C 399.73851 55.159728 398.73589 55.706608 397.32617 56.265625 C 395.9286 56.812497 394.53777 57.085938 393.15234 57.085938 C 392.1072 57.085937 391.1465 56.940091 390.27148 56.648438 C 389.40864 56.356759 388.66123 55.91927 388.0293 55.335938 C 387.37304 54.74046 386.85721 53.980256 386.48047 53.056641 C 386.10373 52.12088 385.91602 51.027145 385.91602 49.775391 L 400.91797 49.775391 L 400.91797 47.916016 C 400.91797 44.962894 400.17056 42.684236 398.67578 41.080078 C 397.19312 39.475921 395.07854 38.673828 392.33203 38.673828 z M 416.37695 38.673828 C 415.17383 38.673828 413.99977 38.923632 412.85742 39.421875 C 411.71507 39.920143 410.61047 40.612844 409.54102 41.5 L 409.54102 39.240234 L 406.11328 39.240234 L 406.11328 59.601562 L 409.54102 59.601562 L 409.54102 44.398438 C 410.47678 43.681436 411.45378 43.092667 412.47461 42.630859 C 413.49546 42.169051 414.4744 41.9375 415.41016 41.9375 C 416.3216 41.9375 417.06358 42.065119 417.63477 42.320312 C 418.20595 42.563387 418.64344 42.940759 418.94727 43.451172 C 419.23894 43.91298 419.43947 44.556431 419.54883 45.382812 C 419.65818 46.197049 419.71289 47.072052 419.71289 48.007812 L 419.71289 59.601562 L 423.13867 59.601562 L 423.13867 46.384766 C 423.13867 43.893452 422.56272 41.986758 421.4082 40.662109 C 420.25368 39.337461 418.57661 38.673828 416.37695 38.673828 z M 150.12109 38.748047 C 148.82075 38.748047 147.64127 38.917529 146.58398 39.257812 C 145.53884 39.585926 144.67665 40.036234 143.99609 40.607422 C 143.29123 41.190754 142.76259 41.852433 142.41016 42.59375 C 142.06988 43.335067 141.90039 44.124339 141.90039 44.962891 C 141.90039 46.299684 142.2704 47.4299 143.01172 48.353516 C 143.76519 49.264987 145.03581 49.957688 146.82227 50.431641 C 147.46636 50.601719 148.1773 50.76036 148.95508 50.90625 C 149.74501 51.052089 150.38303 51.179708 150.86914 51.289062 C 152.18164 51.580741 153.06749 51.9325 153.5293 52.345703 C 153.9911 52.758881 154.22266 53.367831 154.22266 54.169922 C 154.22266 55.215062 153.79796 55.980699 152.94727 56.466797 C 152.09657 56.95292 150.9171 57.195312 149.41016 57.195312 C 148.19488 57.195312 146.92426 56.958328 145.59961 56.484375 C 144.27496 55.998252 143.07183 55.347439 141.99023 54.533203 L 141.80859 54.533203 L 141.80859 58.380859 C 142.65929 58.806207 143.71115 59.199855 144.96289 59.564453 C 146.22678 59.916881 147.6122 60.09375 149.11914 60.09375 C 151.7806 60.09375 153.87695 59.49762 155.4082 58.306641 C 156.95161 57.115661 157.72266 55.591798 157.72266 53.732422 C 157.72266 52.249789 157.29058 51.057504 156.42773 50.158203 C 155.56489 49.271047 154.33811 48.645823 152.74609 48.28125 C 152.22352 48.159776 151.56728 48.026749 150.77734 47.880859 C 149.99957 47.73507 149.29405 47.589249 148.66211 47.443359 C 147.51975 47.175996 146.69401 46.829645 146.18359 46.404297 C 145.66102 45.978974 145.40039 45.346364 145.40039 44.507812 C 145.40039 43.559882 145.83051 42.848953 146.69336 42.375 C 147.55621 41.888902 148.6135 41.646484 149.86523 41.646484 C 151.06836 41.646484 152.29709 41.870675 153.54883 42.320312 C 154.80056 42.757831 155.86328 43.299277 156.73828 43.943359 L 156.91992 43.943359 L 156.91992 40.279297 C 156.09353 39.853949 155.05447 39.494779 153.80273 39.203125 C 152.56315 38.899301 151.33637 38.748047 150.12109 38.748047 z M 184.33789 38.748047 C 183.11046 38.748047 181.8635 38.857463 180.59961 39.076172 C 179.33572 39.29478 178.36958 39.495309 177.70117 39.677734 L 177.70117 43.158203 L 177.88477 43.158203 C 179.06359 42.708439 180.20464 42.369475 181.31055 42.138672 C 182.41645 41.895522 183.41905 41.773438 184.31836 41.773438 C 185.05968 41.773438 185.77062 41.822662 186.45117 41.919922 C 187.13173 42.017157 187.71507 42.204866 188.20117 42.484375 C 188.71159 42.776054 189.10178 43.177087 189.36914 43.6875 C 189.64865 44.197913 189.78711 44.841364 189.78711 45.619141 L 189.78711 46.148438 C 187.79406 46.245597 185.92925 46.391418 184.19141 46.585938 C 182.45355 46.780382 180.96419 47.150393 179.72461 47.697266 C 178.49718 48.244138 177.54926 48.998909 176.88086 49.958984 C 176.22461 50.90689 175.89648 52.151905 175.89648 53.695312 C 175.89648 55.578979 176.53451 57.128455 177.81055 58.34375 C 179.08659 59.559019 180.64345 60.166016 182.47852 60.166016 C 183.47505 60.166016 184.34267 60.06952 185.08398 59.875 C 185.8253 59.692701 186.48155 59.461149 187.05273 59.181641 C 187.53885 58.962907 188.03841 58.671239 188.54883 58.306641 C 189.0714 57.929923 189.48329 57.638255 189.78711 57.431641 L 189.78711 59.601562 L 193.19727 59.601562 L 193.19727 45.785156 C 193.19727 44.472652 192.99674 43.371531 192.5957 42.484375 C 192.19466 41.597219 191.61133 40.875424 190.8457 40.316406 C 190.06792 39.745118 189.14366 39.344084 188.07422 39.113281 C 187.01693 38.870132 185.77192 38.748047 184.33789 38.748047 z M 246.75391 39.240234 L 246.75391 59.601562 L 250.18164 59.601562 L 250.18164 39.240234 L 246.75391 39.240234 z M 291.58008 39.240234 L 296.93945 59.601562 L 300.0918 59.601562 L 305.28711 43.90625 L 310.51953 59.601562 L 313.69141 59.601562 L 318.99609 39.240234 L 315.55078 39.240234 L 312.01367 55.007812 L 306.80078 39.240234 L 303.97461 39.240234 L 298.88867 55.007812 L 295.15234 39.240234 L 291.58008 39.240234 z M 346.17578 39.240234 L 346.17578 59.601562 L 349.60352 59.601562 L 349.60352 45.146484 C 350.51497 44.405168 351.46289 43.803605 352.44727 43.341797 C 353.43165 42.867844 354.45248 42.630859 355.50977 42.630859 C 356.16602 42.630859 356.73112 42.659979 357.20508 42.720703 C 357.69119 42.769333 358.1888 42.855114 358.69922 42.976562 L 358.88086 42.976562 L 358.88086 39.458984 C 358.34614 39.374827 357.9451 39.320119 357.67773 39.294922 C 357.41037 39.258386 356.98025 39.240234 356.38477 39.240234 C 355.30317 39.240234 354.2385 39.469833 353.19336 39.931641 C 352.16037 40.381304 350.96463 41.154302 349.60352 42.248047 L 349.60352 39.240234 L 346.17578 39.240234 z M 105.80664 41.5 C 107.62956 41.5 108.98394 41.992172 109.87109 42.976562 C 110.77046 43.960928 111.22619 45.351789 111.23828 47.150391 L 99.572266 47.150391 C 99.7181 45.546233 100.33051 44.204647 101.41211 43.123047 C 102.50586 42.041447 103.97157 41.5 105.80664 41.5 z M 332.21289 41.5 C 334.0358 41.5 335.39019 41.992172 336.27734 42.976562 C 337.17671 43.960928 337.63244 45.351789 337.64453 47.150391 L 325.97852 47.150391 C 326.12435 45.546233 326.73676 44.204647 327.81836 43.123047 C 328.91211 42.041447 330.37782 41.5 332.21289 41.5 z M 392.15039 41.5 C 393.97328 41.5 395.32769 41.992172 396.21484 42.976562 C 397.11372 43.960928 397.56943 45.351789 397.58203 47.150391 L 385.91602 47.150391 C 386.06185 45.546233 386.67426 44.204647 387.75586 43.123047 C 388.8496 42.041447 390.3153 41.5 392.15039 41.5 z M 265.20117 41.755859 C 265.97895 41.755859 266.75737 41.847124 267.53516 42.029297 C 268.32508 42.199451 269.17643 42.491119 270.08789 42.904297 L 270.08789 54.005859 C 269.24935 54.649966 268.32509 55.165799 267.31641 55.554688 C 266.31987 55.931431 265.3227 56.119141 264.32617 56.119141 C 262.4668 56.119141 261.13607 55.530397 260.33398 54.351562 C 259.53191 53.172753 259.13086 51.440974 259.13086 49.15625 C 259.13086 46.750001 259.67231 44.91429 260.75391 43.650391 C 261.8355 42.386517 263.31749 41.755859 265.20117 41.755859 z M 231.67773 41.810547 C 232.54058 41.810547 233.33724 41.888891 234.06641 42.046875 C 234.79557 42.204859 235.62131 42.491119 236.54492 42.904297 L 236.54492 54.587891 C 235.68207 55.268458 234.75239 55.828132 233.75586 56.265625 C 232.75933 56.690973 231.77495 56.904297 230.80273 56.904297 C 228.97982 56.904297 227.65647 56.27712 226.83008 55.025391 C 226.00369 53.761491 225.58984 51.920347 225.58984 49.501953 C 225.58984 47.047074 226.12392 45.151247 227.19336 43.814453 C 228.26281 42.477659 229.7576 41.810547 231.67773 41.810547 z M 189.78711 48.919922 L 189.78711 54.587891 C 188.93642 55.244143 188.01411 55.80925 187.01758 56.283203 C 186.02105 56.745011 184.91992 56.976562 183.7168 56.976562 C 182.27062 56.976562 181.1951 56.684895 180.49023 56.101562 C 179.78538 55.506085 179.43359 54.625649 179.43359 53.458984 C 179.43359 52.425989 179.73806 51.616535 180.3457 51.033203 C 180.95334 50.437726 181.74805 50.000212 182.73242 49.720703 C 183.55882 49.489698 184.67817 49.314808 186.08789 49.193359 C 187.50976 49.071911 188.74197 48.980646 189.78711 48.919922 z "
       transform="matrix(0.26458333,0,0,0.26458333,0,270.54165)"
       id="path819" />
  </g>
</svg>
