<?xml version="1.0" encoding="UTF-8" standalone="no"?>
<!-- Created with Inkscape (http://www.inkscape.org/) -->

<svg
   xmlns:dc="http://purl.org/dc/elements/1.1/"
   xmlns:cc="http://creativecommons.org/ns#"
   xmlns:rdf="http://www.w3.org/1999/02/22-rdf-syntax-ns#"
   xmlns:svg="http://www.w3.org/2000/svg"
   xmlns="http://www.w3.org/2000/svg"
   xmlns:sodipodi="http://sodipodi.sourceforge.net/DTD/sodipodi-0.dtd"
   xmlns:inkscape="http://www.inkscape.org/namespaces/inkscape"
   width="500"
   height="100"
   viewBox="0 0 132.29166 26.458334"
   version="1.1"
   id="svg8"
   inkscape:version="0.92.4 (5da689c313, 2019-01-14)"
   sodipodi:docname="hs-3.svg">
  <defs
     id="defs2" />
  <sodipodi:namedview
     id="base"
     pagecolor="#ffffff"
     bordercolor="#666666"
     borderopacity="1.0"
     inkscape:pageopacity="0.0"
     inkscape:pageshadow="2"
     inkscape:zoom="1.3249068"
     inkscape:cx="-9.2937966"
     inkscape:cy="251.30524"
     inkscape:document-units="px"
     inkscape:current-layer="layer1"
     showgrid="false"
     units="px"
     inkscape:window-width="1920"
     inkscape:window-height="1017"
     inkscape:window-x="1358"
     inkscape:window-y="-8"
     inkscape:window-maximized="1" />
  <metadata
     id="metadata5">
    <rdf:RDF>
      <cc:Work
         rdf:about="">
        <dc:format>image/svg+xml</dc:format>
        <dc:type
           rdf:resource="http://purl.org/dc/dcmitype/StillImage" />
        <dc:title></dc:title>
      </cc:Work>
    </rdf:RDF>
  </metadata>
  <g
     inkscape:label="Laag 1"
     inkscape:groupmode="layer"
     id="layer1"
     transform="translate(0,-270.54165)">
    <path
       style="font-style:normal;font-variant:normal;font-weight:normal;font-stretch:normal;font-size:37.33333206px;line-height:1.25;font-family:'Segoe MDL2 Assets';-inkscape-font-specification:'Segoe MDL2 Assets';letter-spacing:0px;word-spacing:0px;fill:#d81159;fill-opacity:1;stroke:none;stroke-width:0.99999994"
       d="M 310.58203 32.746094 L 310.58203 61.111328 L 314.00977 61.111328 L 314.00977 54.3125 L 316.23438 52.197266 L 324.40039 61.111328 L 328.92188 61.111328 L 318.76758 50.15625 L 328.22852 40.75 L 323.9082 40.75 L 314.00977 50.939453 L 314.00977 32.746094 L 310.58203 32.746094 z M 332.56641 32.746094 L 332.56641 61.111328 L 335.99414 61.111328 L 335.99414 32.746094 L 332.56641 32.746094 z M 64.726562 33.402344 C 62.855034 33.402344 61.123263 33.719625 59.53125 34.351562 C 57.951387 34.983525 56.626083 35.894983 55.556641 37.085938 C 54.438583 38.337692 53.587239 39.843327 53.003906 41.605469 C 52.420571 43.355466 52.128906 45.337023 52.128906 47.548828 C 52.128906 49.797093 52.420571 51.796878 53.003906 53.546875 C 53.599391 55.296872 54.445313 56.773438 55.539062 57.976562 C 56.632812 59.179687 57.956163 60.096553 59.511719 60.728516 C 61.079429 61.360453 62.818576 61.675781 64.726562 61.675781 C 66.683158 61.675781 68.420355 61.365886 69.939453 60.746094 C 71.470704 60.126302 72.796008 59.204002 73.914062 57.976562 C 74.99566 56.797753 75.834203 55.326595 76.429688 53.564453 C 77.037327 51.790141 77.339844 49.784948 77.339844 47.548828 C 77.339844 45.312734 77.042753 43.312948 76.447266 41.550781 C 75.863933 39.788639 75.019965 38.301232 73.914062 37.085938 C 72.832465 35.907128 71.512587 35.001078 69.957031 34.369141 C 68.413628 33.725034 66.671006 33.402344 64.726562 33.402344 z M 282.65625 34.898438 L 282.65625 40.75 L 280.33984 40.75 L 280.33984 43.628906 L 282.65625 43.628906 L 282.65625 54.457031 C 282.65625 56.924055 283.19574 58.717903 284.27734 59.835938 C 285.35894 60.953997 286.93945 61.511719 289.01758 61.511719 C 289.61307 61.511719 290.28754 61.457011 291.04102 61.347656 C 291.80664 61.238226 292.51216 61.099766 293.15625 60.929688 L 293.15625 57.847656 L 292.97266 57.847656 C 292.70529 57.957086 292.2678 58.097499 291.66016 58.267578 C 291.05252 58.425562 290.46918 58.503906 289.91016 58.503906 C 288.95009 58.503906 288.23373 58.39449 287.75977 58.175781 C 287.29796 57.944877 286.93337 57.587685 286.66602 57.101562 C 286.37434 56.579005 286.20485 56.019305 286.15625 55.423828 C 286.10765 54.816181 286.08203 53.977658 286.08203 52.908203 L 286.08203 43.628906 L 293.15625 43.628906 L 293.15625 40.75 L 286.08203 40.75 L 286.08203 34.898438 L 282.65625 34.898438 z M 388.96875 34.898438 L 388.96875 40.75 L 386.65234 40.75 L 386.65234 43.628906 L 388.96875 43.628906 L 388.96875 54.457031 C 388.96875 56.924055 389.50824 58.717903 390.58984 59.835938 C 391.67144 60.953997 393.25197 61.511719 395.33008 61.511719 C 395.92558 61.511719 396.60005 61.457011 397.35352 61.347656 C 398.11915 61.238226 398.82467 61.099766 399.46875 60.929688 L 399.46875 57.847656 L 399.28516 57.847656 C 399.01779 57.957086 398.5803 58.097499 397.97266 58.267578 C 397.36501 58.425562 396.78167 58.503906 396.22266 58.503906 C 395.26258 58.503906 394.54622 58.39449 394.07227 58.175781 C 393.61046 57.944877 393.24588 57.587685 392.97852 57.101562 C 392.68686 56.579005 392.51738 56.019305 392.46875 55.423828 C 392.42012 54.816181 392.39453 53.977658 392.39453 52.908203 L 392.39453 43.628906 L 399.46875 43.628906 L 399.46875 40.75 L 392.39453 40.75 L 392.39453 34.898438 L 388.96875 34.898438 z M 64.744141 36.519531 C 67.478515 36.519531 69.634984 37.480265 71.214844 39.400391 C 72.794704 41.308372 73.585938 44.024519 73.585938 47.548828 C 73.585938 51.109597 72.783853 53.838539 71.179688 55.734375 C 69.587672 57.618041 67.442056 58.558594 64.744141 58.558594 C 62.046223 58.558594 59.895181 57.618041 58.291016 55.734375 C 56.686848 53.838539 55.884766 51.109597 55.884766 47.548828 C 55.884766 44.024519 56.66862 41.308372 58.236328 39.400391 C 59.816188 37.480265 61.985458 36.519531 64.744141 36.519531 z M 92.816406 40.183594 C 91.613282 40.183594 90.477648 40.433398 89.408203 40.931641 C 88.350913 41.429908 87.288195 42.12261 86.21875 43.009766 L 86.21875 40.75 L 82.791016 40.75 L 82.791016 61.111328 L 86.21875 61.111328 L 86.21875 45.908203 C 87.154513 45.191202 88.089625 44.602433 89.025391 44.140625 C 89.973306 43.678817 90.915799 43.447266 91.851562 43.447266 C 92.835938 43.447266 93.588758 43.580292 94.111328 43.847656 C 94.633898 44.10285 95.034939 44.493042 95.314453 45.015625 C 95.569657 45.501723 95.733721 46.150608 95.806641 46.964844 C 95.891705 47.766935 95.933594 48.618277 95.933594 49.517578 L 95.933594 61.111328 L 99.361328 61.111328 L 99.361328 48.078125 C 99.361328 47.713552 99.348408 47.348948 99.324219 46.984375 C 99.299904 46.607632 99.270835 46.279509 99.234375 46 C 100.19445 45.258658 101.15321 44.649734 102.11328 44.175781 C 103.07335 43.689684 104.03407 43.447266 104.99414 43.447266 C 105.97851 43.447266 106.73134 43.580292 107.25391 43.847656 C 107.77648 44.11502 108.17752 44.510646 108.45703 45.033203 C 108.71224 45.519326 108.8763 46.170139 108.94922 46.984375 C 109.03428 47.798586 109.07812 48.642567 109.07812 49.517578 L 109.07812 61.111328 L 112.50391 61.111328 L 112.50391 47.894531 C 112.50391 45.463993 111.96983 43.575526 110.90039 42.226562 C 109.8431 40.865454 108.19705 40.183594 105.96094 40.183594 C 104.66059 40.183594 103.43923 40.446193 102.29688 40.96875 C 101.15451 41.479163 99.889322 42.31771 98.503906 43.484375 C 98.029948 42.451405 97.308161 41.641926 96.335938 41.058594 C 95.375869 40.475261 94.201825 40.183594 92.816406 40.183594 z M 126.70508 40.183594 C 125.58702 40.183594 124.46224 40.427965 123.33203 40.914062 C 122.20182 41.388015 121.24305 42.055103 120.45312 42.917969 C 119.60243 43.841559 118.92795 44.942706 118.42969 46.21875 C 117.94357 47.482649 117.69922 48.988284 117.69922 50.738281 C 117.69922 53.934451 118.41016 56.413614 119.83203 58.175781 C 121.26606 59.925778 123.19835 60.800781 125.62891 60.800781 C 127.08724 60.800781 128.28494 60.600252 129.2207 60.199219 C 130.16862 59.786016 131.15842 59.166225 132.19141 58.339844 L 132.19141 60.199219 C 132.19141 61.0256 132.10027 61.773009 131.91797 62.441406 C 131.73568 63.109803 131.43316 63.682272 131.00781 64.15625 C 130.58246 64.654518 129.98633 65.042757 129.2207 65.322266 C 128.45508 65.601774 127.48893 65.742188 126.32227 65.742188 C 125.10699 65.742188 123.89106 65.578139 122.67578 65.25 C 121.4605 64.934006 120.57465 64.665974 120.01562 64.447266 L 119.83203 64.447266 L 119.83203 67.947266 C 120.82856 68.226724 121.83854 68.440048 122.85938 68.585938 C 123.89236 68.743922 124.94965 68.822266 126.03125 68.822266 C 129.28819 68.822266 131.69987 68.014765 133.26758 66.398438 C 134.83529 64.782135 135.61914 62.248264 135.61914 58.796875 L 135.61914 40.75 L 132.41016 40.75 L 132.19141 41.625 C 131.30425 41.138802 130.46029 40.779631 129.6582 40.548828 C 128.86827 40.305679 127.8839 40.183594 126.70508 40.183594 z M 197.54297 40.183594 C 196.33984 40.183594 195.16775 40.433398 194.02539 40.931641 C 192.88303 41.429908 191.77648 42.12261 190.70703 43.009766 L 190.70703 40.75 L 187.28125 40.75 L 187.28125 61.111328 L 190.70703 61.111328 L 190.70703 45.908203 C 191.6428 45.191202 192.62174 44.602433 193.64258 44.140625 C 194.66341 43.678817 195.64236 43.447266 196.57812 43.447266 C 197.48958 43.447266 198.2296 43.574884 198.80078 43.830078 C 199.37196 44.073152 199.80946 44.450525 200.11328 44.960938 C 200.40494 45.422745 200.60546 46.066197 200.71484 46.892578 C 200.82422 47.706814 200.87891 48.581817 200.87891 49.517578 L 200.87891 61.111328 L 204.30664 61.111328 L 204.30664 47.894531 C 204.30664 45.403218 203.72873 43.496524 202.57422 42.171875 C 201.4197 40.847226 199.74262 40.183594 197.54297 40.183594 z M 234.05664 40.183594 C 232.85351 40.183594 231.71788 40.433398 230.64844 40.931641 C 229.59115 41.429908 228.52648 42.12261 227.45703 43.009766 L 227.45703 40.75 L 224.03125 40.75 L 224.03125 61.111328 L 227.45703 61.111328 L 227.45703 45.908203 C 228.3928 45.191202 229.32987 44.602433 230.26562 44.140625 C 231.21355 43.678817 232.15408 43.447266 233.08984 43.447266 C 234.07422 43.447266 234.829 43.580292 235.35156 43.847656 C 235.87413 44.10285 236.27517 44.493042 236.55469 45.015625 C 236.80989 45.501723 236.97396 46.150608 237.04688 46.964844 C 237.13194 47.766935 237.17383 48.618277 237.17383 49.517578 L 237.17383 61.111328 L 240.60156 61.111328 L 240.60156 48.078125 C 240.60156 47.713552 240.58889 47.348948 240.56445 46.984375 C 240.54019 46.607632 240.50912 46.279509 240.47266 46 C 241.43272 45.258658 242.39345 44.649734 243.35352 44.175781 C 244.31359 43.689684 245.27431 43.447266 246.23438 43.447266 C 247.21875 43.447266 247.97157 43.580292 248.49414 43.847656 C 249.01671 44.11502 249.41775 44.510646 249.69727 45.033203 C 249.95247 45.519326 250.11653 46.170139 250.18945 46.984375 C 250.27452 47.798586 250.31641 48.642567 250.31641 49.517578 L 250.31641 61.111328 L 253.74414 61.111328 L 253.74414 47.894531 C 253.74414 45.463993 253.21007 43.575526 252.14062 42.226562 C 251.08333 40.865454 249.43533 40.183594 247.19922 40.183594 C 245.89887 40.183594 244.67752 40.446193 243.53516 40.96875 C 242.39279 41.479163 241.12955 42.31771 239.74414 43.484375 C 239.27018 42.451405 238.54644 41.641926 237.57422 41.058594 C 236.61415 40.475261 235.44205 40.183594 234.05664 40.183594 z M 268.80078 40.183594 C 265.8355 40.183594 263.44205 41.162555 261.61914 43.119141 C 259.80837 45.075752 258.90234 47.718989 258.90234 51.048828 C 258.90234 54.415153 259.85026 57.016501 261.74609 58.851562 C 263.64193 60.674479 266.27973 61.585938 269.6582 61.585938 C 270.98286 61.585938 272.24609 61.421863 273.44922 61.09375 C 274.65235 60.765637 275.83182 60.357217 276.98633 59.871094 L 276.98633 56.134766 L 276.80469 56.134766 C 276.20921 56.669493 275.2066 57.216373 273.79688 57.775391 C 272.39931 58.322263 271.00651 58.595703 269.62109 58.595703 C 268.57595 58.595703 267.61719 58.449857 266.74219 58.158203 C 265.87934 57.866524 265.13194 57.429035 264.5 56.845703 C 263.84375 56.250226 263.32595 55.490022 262.94922 54.566406 C 262.57248 53.630646 262.38477 52.536911 262.38477 51.285156 L 277.38672 51.285156 L 277.38672 49.425781 C 277.38672 46.47266 276.63932 44.194001 275.14453 42.589844 C 273.66189 40.985686 271.54731 40.183594 268.80078 40.183594 z M 375.5332 40.183594 C 374.33008 40.183594 373.15798 40.433398 372.01562 40.931641 C 370.87327 41.429908 369.76671 42.12261 368.69727 43.009766 L 368.69727 40.75 L 365.26953 40.75 L 365.26953 61.111328 L 368.69727 61.111328 L 368.69727 45.908203 C 369.63303 45.191202 370.61198 44.602433 371.63281 44.140625 C 372.65365 43.678817 373.63064 43.447266 374.56641 43.447266 C 375.47786 43.447266 376.21984 43.574884 376.79102 43.830078 C 377.3622 44.073152 377.79969 44.450525 378.10352 44.960938 C 378.39519 45.422745 378.59572 46.066197 378.70508 46.892578 C 378.81443 47.706814 378.86914 48.581817 378.86914 49.517578 L 378.86914 61.111328 L 382.29688 61.111328 L 382.29688 47.894531 C 382.29688 45.403218 381.71897 43.496524 380.56445 42.171875 C 379.40993 40.847226 377.73285 40.183594 375.5332 40.183594 z M 412.08203 40.183594 C 409.11674 40.183594 406.72331 41.162555 404.90039 43.119141 C 403.08962 45.075752 402.18359 47.718989 402.18359 51.048828 C 402.18359 54.415153 403.13151 57.016501 405.02734 58.851562 C 406.92318 60.674479 409.56098 61.585938 412.93945 61.585938 C 414.2641 61.585938 415.52732 61.421863 416.73047 61.09375 C 417.93359 60.765637 419.11308 60.357217 420.26758 59.871094 L 420.26758 56.134766 L 420.08594 56.134766 C 419.49046 56.669493 418.48786 57.216373 417.07812 57.775391 C 415.68056 58.322263 414.28774 58.595703 412.90234 58.595703 C 411.8572 58.595703 410.89845 58.449857 410.02344 58.158203 C 409.1606 57.866524 408.41319 57.429035 407.78125 56.845703 C 407.125 56.250226 406.60721 55.490022 406.23047 54.566406 C 405.85373 53.630646 405.66602 52.536911 405.66602 51.285156 L 420.66797 51.285156 L 420.66797 49.425781 C 420.66797 46.47266 419.92056 44.194001 418.42578 42.589844 C 416.94312 40.985686 414.82854 40.183594 412.08203 40.183594 z M 436.12695 40.183594 C 434.92383 40.183594 433.75172 40.433398 432.60938 40.931641 C 431.467 41.429908 430.36045 42.12261 429.29102 43.009766 L 429.29102 40.75 L 425.86328 40.75 L 425.86328 61.111328 L 429.29102 61.111328 L 429.29102 45.908203 C 430.22678 45.191202 431.20574 44.602433 432.22656 44.140625 C 433.24741 43.678817 434.2244 43.447266 435.16016 43.447266 C 436.0716 43.447266 436.81358 43.574884 437.38477 43.830078 C 437.95595 44.073152 438.39347 44.450525 438.69727 44.960938 C 438.98897 45.422745 439.18947 46.066197 439.29883 46.892578 C 439.40818 47.706814 439.46289 48.581817 439.46289 49.517578 L 439.46289 61.111328 L 442.89062 61.111328 L 442.89062 47.894531 C 442.89063 45.403218 442.31272 43.496524 441.1582 42.171875 C 440.00368 40.847226 438.32661 40.183594 436.12695 40.183594 z M 149.32812 40.257812 C 148.1007 40.257812 146.85373 40.367229 145.58984 40.585938 C 144.32595 40.804797 143.35981 41.005327 142.69141 41.1875 L 142.69141 44.667969 L 142.875 44.667969 C 144.05382 44.218205 145.19488 43.879241 146.30078 43.648438 C 147.40669 43.405288 148.40929 43.283203 149.30859 43.283203 C 150.04991 43.283203 150.76085 43.332428 151.44141 43.429688 C 152.12196 43.526922 152.70529 43.714632 153.19141 43.994141 C 153.70183 44.285819 154.09202 44.686853 154.35938 45.197266 C 154.63889 45.707678 154.77734 46.35113 154.77734 47.128906 L 154.77734 47.658203 C 152.78428 47.755362 150.91949 47.901183 149.18164 48.095703 C 147.44379 48.290147 145.95443 48.660159 144.71484 49.207031 C 143.48741 49.753904 142.5395 50.508674 141.87109 51.46875 C 141.21484 52.416656 140.88672 53.66167 140.88672 55.205078 C 140.88672 57.088744 141.52474 58.638221 142.80078 59.853516 C 144.07682 61.068785 145.63368 61.675781 147.46875 61.675781 C 148.46528 61.675781 149.3329 61.579285 150.07422 61.384766 C 150.81554 61.202466 151.47179 60.970915 152.04297 60.691406 C 152.52908 60.472672 153.02865 60.181005 153.53906 59.816406 C 154.06164 59.439688 154.47352 59.14802 154.77734 58.941406 L 154.77734 61.111328 L 158.1875 61.111328 L 158.1875 47.292969 C 158.1875 45.980465 157.98698 44.881297 157.58594 43.994141 C 157.1849 43.106985 156.60156 42.383236 155.83594 41.824219 C 155.05816 41.252931 154.13389 40.851897 153.06445 40.621094 C 152.00716 40.377944 150.76216 40.257812 149.32812 40.257812 z M 171.78516 40.257812 C 170.55773 40.257812 169.31272 40.367229 168.04883 40.585938 C 166.78494 40.804797 165.81879 41.005327 165.15039 41.1875 L 165.15039 44.667969 L 165.33203 44.667969 C 166.51085 44.218205 167.65387 43.879241 168.75977 43.648438 C 169.86567 43.405288 170.86828 43.283203 171.76758 43.283203 C 172.5089 43.283203 173.21983 43.332428 173.90039 43.429688 C 174.58094 43.526922 175.16428 43.714632 175.65039 43.994141 C 176.1608 44.285819 176.54904 44.686853 176.81641 45.197266 C 177.09592 45.707678 177.23633 46.35113 177.23633 47.128906 L 177.23633 47.658203 C 175.24327 47.755362 173.37847 47.901183 171.64062 48.095703 C 169.90278 48.290147 168.41341 48.660159 167.17383 49.207031 C 165.9464 49.753904 164.99849 50.508674 164.33008 51.46875 C 163.67383 52.416656 163.3457 53.66167 163.3457 55.205078 C 163.3457 57.088744 163.98372 58.638221 165.25977 59.853516 C 166.5358 61.068785 168.09071 61.675781 169.92578 61.675781 C 170.92231 61.675781 171.79188 61.579285 172.5332 61.384766 C 173.27452 61.202466 173.93077 60.970915 174.50195 60.691406 C 174.98807 60.472672 175.48568 60.181005 175.99609 59.816406 C 176.51866 59.439688 176.93251 59.14802 177.23633 58.941406 L 177.23633 61.111328 L 180.64453 61.111328 L 180.64453 47.292969 C 180.64453 45.980465 180.44401 44.881297 180.04297 43.994141 C 179.64192 43.106985 179.05859 42.383236 178.29297 41.824219 C 177.51519 41.252931 176.59288 40.851897 175.52344 40.621094 C 174.46614 40.377944 173.21918 40.257812 171.78516 40.257812 z M 349.77539 40.257812 C 348.54796 40.257812 347.30295 40.367229 346.03906 40.585938 C 344.77518 40.804797 343.80903 41.005327 343.14062 41.1875 L 343.14062 44.667969 L 343.32227 44.667969 C 344.50109 44.218205 345.64409 43.879241 346.75 43.648438 C 347.8559 43.405288 348.85851 43.283203 349.75781 43.283203 C 350.49913 43.283203 351.21007 43.332428 351.89062 43.429688 C 352.57118 43.526922 353.15452 43.714632 353.64062 43.994141 C 354.15105 44.285819 354.53928 44.686853 354.80664 45.197266 C 355.08615 45.707678 355.22656 46.35113 355.22656 47.128906 L 355.22656 47.658203 C 353.23351 47.755362 351.36675 47.901183 349.62891 48.095703 C 347.89105 48.290147 346.40364 48.660159 345.16406 49.207031 C 343.93663 49.753904 342.98871 50.508674 342.32031 51.46875 C 341.66407 52.416656 341.33594 53.66167 341.33594 55.205078 C 341.33594 57.088744 341.97396 58.638221 343.25 59.853516 C 344.52604 61.068785 346.08095 61.675781 347.91602 61.675781 C 348.91255 61.675781 349.78213 61.579285 350.52344 61.384766 C 351.26476 61.202466 351.92101 60.970915 352.49219 60.691406 C 352.9783 60.472672 353.47591 60.181005 353.98633 59.816406 C 354.5089 59.439688 354.92274 59.14802 355.22656 58.941406 L 355.22656 61.111328 L 358.63477 61.111328 L 358.63477 47.292969 C 358.63477 45.980465 358.43424 44.881297 358.0332 43.994141 C 357.63216 43.106985 357.04883 42.383236 356.2832 41.824219 C 355.50542 41.252931 354.58116 40.851897 353.51172 40.621094 C 352.45443 40.377944 351.20942 40.257812 349.77539 40.257812 z M 268.61914 43.009766 C 270.44205 43.009766 271.79644 43.501938 272.68359 44.486328 C 273.58296 45.470693 274.03869 46.861555 274.05078 48.660156 L 262.38477 48.660156 C 262.5306 47.055999 263.14496 45.714413 264.22656 44.632812 C 265.32031 43.551212 266.78407 43.009766 268.61914 43.009766 z M 411.90039 43.009766 C 413.72331 43.009766 415.07769 43.501938 415.96484 44.486328 C 416.86372 45.470693 417.31943 46.861555 417.33203 48.660156 L 405.66602 48.660156 C 405.81185 47.055999 406.42621 45.714413 407.50781 44.632812 C 408.60156 43.551212 410.06533 43.009766 411.90039 43.009766 z M 127.30664 43.265625 C 128.08442 43.265625 128.86285 43.356889 129.64062 43.539062 C 130.43055 43.709217 131.27995 44.000885 132.19141 44.414062 L 132.19141 55.515625 C 131.35286 56.159732 130.43056 56.675565 129.42188 57.064453 C 128.42535 57.441196 127.42817 57.628906 126.43164 57.628906 C 124.57227 57.628906 123.24154 57.040163 122.43945 55.861328 C 121.63737 54.682519 121.23633 52.95074 121.23633 50.666016 C 121.23633 48.259767 121.77778 46.424055 122.85938 45.160156 C 123.94097 43.896282 125.42296 43.265625 127.30664 43.265625 z M 154.77734 50.429688 L 154.77734 56.097656 C 153.92665 56.753908 153.00435 57.319016 152.00781 57.792969 C 151.01129 58.254777 149.91016 58.486328 148.70703 58.486328 C 147.26085 58.486328 146.18533 58.19466 145.48047 57.611328 C 144.77561 57.015851 144.42383 56.135415 144.42383 54.96875 C 144.42383 53.935755 144.7283 53.126301 145.33594 52.542969 C 145.94358 51.947492 146.73828 51.509977 147.72266 51.230469 C 148.54904 50.999464 149.6684 50.824574 151.07812 50.703125 C 152.5 50.581676 153.7322 50.490412 154.77734 50.429688 z M 177.23633 50.429688 L 177.23633 56.097656 C 176.38563 56.753908 175.46137 57.319016 174.46484 57.792969 C 173.46832 58.254777 172.36914 58.486328 171.16602 58.486328 C 169.71983 58.486328 168.64431 58.19466 167.93945 57.611328 C 167.23459 57.015851 166.88281 56.135415 166.88281 54.96875 C 166.88281 53.935755 167.18533 53.126301 167.79297 52.542969 C 168.4006 51.947492 169.19726 51.509977 170.18164 51.230469 C 171.00803 50.999464 172.12544 50.824574 173.53516 50.703125 C 174.95703 50.581676 176.19119 50.490412 177.23633 50.429688 z M 355.22656 50.429688 L 355.22656 56.097656 C 354.37587 56.753908 353.4516 57.319016 352.45508 57.792969 C 351.45854 58.254777 350.35937 58.486328 349.15625 58.486328 C 347.71007 58.486328 346.63455 58.19466 345.92969 57.611328 C 345.22483 57.015851 344.87109 56.135415 344.87109 54.96875 C 344.87109 53.935755 345.17556 53.126301 345.7832 52.542969 C 346.39085 51.947492 347.1875 51.509977 348.17188 51.230469 C 348.99827 50.999464 350.11567 50.824574 351.52539 50.703125 C 352.94726 50.581676 354.18142 50.490412 355.22656 50.429688 z "
       transform="matrix(0.26458333,0,0,0.26458333,0,270.54165)"
       id="path819" />
  </g>
</svg>
