<?xml version="1.0" encoding="UTF-8" standalone="no"?>
<!-- Created with Inkscape (http://www.inkscape.org/) -->

<svg
   xmlns:dc="http://purl.org/dc/elements/1.1/"
   xmlns:cc="http://creativecommons.org/ns#"
   xmlns:rdf="http://www.w3.org/1999/02/22-rdf-syntax-ns#"
   xmlns:svg="http://www.w3.org/2000/svg"
   xmlns="http://www.w3.org/2000/svg"
   xmlns:sodipodi="http://sodipodi.sourceforge.net/DTD/sodipodi-0.dtd"
   xmlns:inkscape="http://www.inkscape.org/namespaces/inkscape"
   width="500"
   height="100"
   viewBox="0 0 132.29166 26.458334"
   version="1.1"
   id="svg8"
   inkscape:version="0.92.4 (5da689c313, 2019-01-14)"
   sodipodi:docname="i-1.svg">
  <defs
     id="defs2" />
  <sodipodi:namedview
     id="base"
     pagecolor="#ffffff"
     bordercolor="#666666"
     borderopacity="1.0"
     inkscape:pageopacity="0.0"
     inkscape:pageshadow="2"
     inkscape:zoom="1.3249068"
     inkscape:cx="-9.2937966"
     inkscape:cy="251.30524"
     inkscape:document-units="px"
     inkscape:current-layer="layer1"
     showgrid="false"
     units="px"
     inkscape:window-width="1920"
     inkscape:window-height="1017"
     inkscape:window-x="1358"
     inkscape:window-y="-8"
     inkscape:window-maximized="1" />
  <metadata
     id="metadata5">
    <rdf:RDF>
      <cc:Work
         rdf:about="">
        <dc:format>image/svg+xml</dc:format>
        <dc:type
           rdf:resource="http://purl.org/dc/dcmitype/StillImage" />
        <dc:title></dc:title>
      </cc:Work>
    </rdf:RDF>
  </metadata>
  <g
     inkscape:label="Laag 1"
     inkscape:groupmode="layer"
     id="layer1"
     transform="translate(0,-270.54165)">
    <path
       style="font-style:normal;font-variant:normal;font-weight:normal;font-stretch:normal;font-size:37.33333206px;line-height:1.25;font-family:'Segoe MDL2 Assets';-inkscape-font-specification:'Segoe MDL2 Assets';letter-spacing:0px;word-spacing:0px;fill:#ffbc42;fill-opacity:1;stroke:none;stroke-width:0.99999994"
       d="M 235.53906 37.275391 L 235.53906 46.097656 C 234.6276 45.623678 233.75998 45.277302 232.93359 45.058594 C 232.10721 44.827791 231.15929 44.712891 230.08984 44.712891 C 228.91102 44.712891 227.76801 44.955309 226.66211 45.441406 C 225.56836 45.927529 224.60764 46.633025 223.78125 47.556641 C 222.94271 48.504546 222.27561 49.652989 221.77734 51.001953 C 221.29123 52.350892 221.04688 53.887574 221.04688 55.613281 C 221.04688 58.931001 221.75781 61.526916 223.17969 63.398438 C 224.61372 65.269959 226.54601 66.205078 228.97656 66.205078 C 230.2283 66.205078 231.38954 65.968093 232.45898 65.494141 C 233.52843 65.020188 234.55469 64.358509 235.53906 63.507812 L 235.53906 65.640625 L 238.9668 65.640625 L 238.9668 37.275391 L 235.53906 37.275391 z M 269.1543 38.314453 L 269.1543 41.869141 L 273.01953 41.869141 L 273.01953 38.314453 L 269.1543 38.314453 z M 187.94336 38.496094 L 178.0625 65.640625 L 181.72656 65.640625 L 184.38867 58.074219 L 196.12891 58.074219 L 198.78906 65.640625 L 202.63672 65.640625 L 192.75586 38.496094 L 187.94336 38.496094 z M 190.25781 41.650391 L 195.01562 54.976562 L 185.48242 54.976562 L 190.25781 41.650391 z M 289.88086 44.712891 C 288.67773 44.712891 287.50564 44.962695 286.36328 45.460938 C 285.22092 45.959205 284.11437 46.651907 283.04492 47.539062 L 283.04492 45.277344 L 279.61719 45.277344 L 279.61719 65.640625 L 283.04492 65.640625 L 283.04492 50.4375 C 283.98069 49.720498 284.95964 49.129777 285.98047 48.667969 C 287.0013 48.206161 287.9783 47.976562 288.91406 47.976562 C 289.82552 47.976563 290.56749 48.104181 291.13867 48.359375 C 291.70985 48.602449 292.14735 48.977869 292.45117 49.488281 C 292.74283 49.950089 292.94335 50.595494 293.05273 51.421875 C 293.16211 52.236111 293.2168 53.111114 293.2168 54.046875 L 293.2168 65.640625 L 296.64453 65.640625 L 296.64453 52.423828 C 296.64453 49.932515 296.06662 48.023868 294.91211 46.699219 C 293.7576 45.37457 292.08051 44.712891 289.88086 44.712891 z M 311.20898 44.712891 C 308.32878 44.712891 306.03732 45.679057 304.33594 47.611328 C 302.6467 49.531479 301.80273 52.15103 301.80273 55.46875 C 301.80273 58.786445 302.6467 61.404068 304.33594 63.324219 C 306.03732 65.244345 308.32878 66.205078 311.20898 66.205078 C 314.06489 66.205078 316.34354 65.244345 318.04492 63.324219 C 319.74631 61.404068 320.59766 58.786445 320.59766 55.46875 C 320.59766 52.15103 319.74631 49.531479 318.04492 47.611328 C 316.34354 45.679057 314.06489 44.712891 311.20898 44.712891 z M 206.48242 45.277344 L 206.48242 65.640625 L 209.91016 65.640625 L 209.91016 51.183594 C 210.82161 50.442277 211.76953 49.840714 212.75391 49.378906 C 213.73828 48.904953 214.75911 48.667969 215.81641 48.667969 C 216.47266 48.667969 217.03776 48.699041 217.51172 48.759766 C 217.99783 48.808396 218.49544 48.894176 219.00586 49.015625 L 219.1875 49.015625 L 219.1875 45.496094 C 218.65278 45.411936 218.25174 45.357228 217.98438 45.332031 C 217.71701 45.295496 217.28689 45.277344 216.69141 45.277344 C 215.60981 45.277344 214.54514 45.508895 213.5 45.970703 C 212.46701 46.420366 211.27126 47.191411 209.91016 48.285156 L 209.91016 45.277344 L 206.48242 45.277344 z M 245.56641 45.277344 L 245.56641 58.494141 C 245.56641 61.021914 246.16059 62.941402 247.35156 64.253906 C 248.54253 65.55424 250.20877 66.205078 252.34766 66.205078 C 253.6237 66.205078 254.79036 65.96266 255.84766 65.476562 C 256.90495 64.99044 258.00955 64.290377 259.16406 63.378906 L 259.16406 65.640625 L 262.5918 65.640625 L 262.5918 45.277344 L 259.16406 45.277344 L 259.16406 60.480469 C 258.2526 61.19747 257.26823 61.788192 256.21094 62.25 C 255.1658 62.711808 254.19965 62.941406 253.3125 62.941406 C 252.31597 62.941406 251.55773 62.821275 251.03516 62.578125 C 250.51259 62.335051 250.08594 61.944859 249.75781 61.410156 C 249.44183 60.887574 249.23588 60.262375 249.13867 59.533203 C 249.04144 58.791887 248.99219 57.904064 248.99219 56.871094 L 248.99219 45.277344 L 245.56641 45.277344 z M 269.37305 45.277344 L 269.37305 65.640625 L 272.80078 65.640625 L 272.80078 45.277344 L 269.37305 45.277344 z M 311.20898 47.666016 C 313.04406 47.666016 314.47873 48.309442 315.51172 49.597656 C 316.5447 50.8737 317.06055 52.831597 317.06055 55.46875 C 317.06055 58.045128 316.53733 59.988277 315.49219 61.300781 C 314.4592 62.601115 313.0319 63.251953 311.20898 63.251953 C 309.36176 63.251953 307.92166 62.595707 306.88867 61.283203 C 305.85568 59.958554 305.33984 58.020813 305.33984 55.46875 C 305.33984 52.831597 305.85026 50.8737 306.87109 49.597656 C 307.90408 48.309442 309.34961 47.666016 311.20898 47.666016 z M 230.67188 47.847656 C 231.53472 47.847656 232.33138 47.927953 233.06055 48.085938 C 233.78971 48.243922 234.61545 48.528228 235.53906 48.941406 L 235.53906 60.626953 C 234.67622 61.30752 233.74653 61.867195 232.75 62.304688 C 231.75347 62.730036 230.7691 62.941406 229.79688 62.941406 C 227.97396 62.941406 226.65061 62.316182 225.82422 61.064453 C 224.99783 59.800554 224.58398 57.959409 224.58398 55.541016 C 224.58398 53.086137 225.11805 51.190309 226.1875 49.853516 C 227.25695 48.516722 228.75174 47.847656 230.67188 47.847656 z "
       transform="matrix(0.26458333,0,0,0.26458333,0,270.54165)"
       id="path819" />
  </g>
</svg>
