<?xml version="1.0" encoding="UTF-8" standalone="no"?>
<!-- Created with Inkscape (http://www.inkscape.org/) -->

<svg
   xmlns:dc="http://purl.org/dc/elements/1.1/"
   xmlns:cc="http://creativecommons.org/ns#"
   xmlns:rdf="http://www.w3.org/1999/02/22-rdf-syntax-ns#"
   xmlns:svg="http://www.w3.org/2000/svg"
   xmlns="http://www.w3.org/2000/svg"
   xmlns:sodipodi="http://sodipodi.sourceforge.net/DTD/sodipodi-0.dtd"
   xmlns:inkscape="http://www.inkscape.org/namespaces/inkscape"
   width="500"
   height="100"
   viewBox="0 0 132.29166 26.458334"
   version="1.1"
   id="svg8"
   inkscape:version="0.92.4 (5da689c313, 2019-01-14)"
   sodipodi:docname="i-2.svg">
  <defs
     id="defs2" />
  <sodipodi:namedview
     id="base"
     pagecolor="#ffffff"
     bordercolor="#666666"
     borderopacity="1.0"
     inkscape:pageopacity="0.0"
     inkscape:pageshadow="2"
     inkscape:zoom="1.3249068"
     inkscape:cx="-9.2937966"
     inkscape:cy="251.30524"
     inkscape:document-units="px"
     inkscape:current-layer="layer1"
     showgrid="false"
     units="px"
     inkscape:window-width="1920"
     inkscape:window-height="1017"
     inkscape:window-x="1358"
     inkscape:window-y="-8"
     inkscape:window-maximized="1" />
  <metadata
     id="metadata5">
    <rdf:RDF>
      <cc:Work
         rdf:about="">
        <dc:format>image/svg+xml</dc:format>
        <dc:type
           rdf:resource="http://purl.org/dc/dcmitype/StillImage" />
        <dc:title></dc:title>
      </cc:Work>
    </rdf:RDF>
  </metadata>
  <g
     inkscape:label="Laag 1"
     inkscape:groupmode="layer"
     id="layer1"
     transform="translate(0,-270.54165)">
    <path
       style="font-style:normal;font-variant:normal;font-weight:normal;font-stretch:normal;font-size:37.33333206px;line-height:1.25;font-family:'Segoe MDL2 Assets';-inkscape-font-specification:'Segoe MDL2 Assets';letter-spacing:0px;word-spacing:0px;fill:#8f2d56;fill-opacity:1;stroke:none;stroke-width:0.99999994"
       d="M 316.55078 31.992188 L 303.53516 65.898438 L 306.6875 65.898438 L 319.75781 31.992188 L 316.55078 31.992188 z M 50.933594 32.648438 C 49.584635 32.648438 48.186415 32.830739 46.740234 33.195312 C 45.306209 33.547766 44.15777 33.93598 43.294922 34.361328 L 43.294922 38.171875 L 43.476562 38.171875 C 44.631077 37.418414 45.85981 36.835078 47.160156 36.421875 C 48.460505 36.008672 49.687285 35.802734 50.841797 35.802734 C 51.595271 35.802734 52.26975 35.862926 52.865234 35.984375 C 53.460722 36.105925 54.020401 36.324656 54.542969 36.640625 C 55.041234 36.956594 55.429471 37.36306 55.708984 37.861328 C 55.988498 38.347426 56.128906 38.917967 56.128906 39.574219 C 56.128906 41.056852 55.574652 42.187067 54.46875 42.964844 C 53.375 43.730475 51.905815 44.113281 50.058594 44.113281 L 48.78125 44.113281 L 48.78125 47.140625 L 50.421875 47.140625 C 51.321181 47.140625 52.159721 47.213485 52.9375 47.359375 C 53.715276 47.493044 54.378906 47.748257 54.925781 48.125 C 55.472656 48.489573 55.897351 48.992612 56.201172 49.636719 C 56.517143 50.268656 56.675781 51.070748 56.675781 52.042969 C 56.675781 53.027359 56.535373 53.842246 56.255859 54.486328 C 55.988498 55.130435 55.574652 55.719179 55.015625 56.253906 C 54.480902 56.752174 53.78277 57.129572 52.919922 57.384766 C 52.057076 57.639985 51.242186 57.767578 50.476562 57.767578 C 49.176214 57.767578 47.827256 57.543413 46.429688 57.09375 C 45.032119 56.644112 43.818144 56.079004 42.785156 55.398438 L 42.511719 55.398438 L 42.511719 59.207031 C 43.447484 59.632379 44.643229 60.022572 46.101562 60.375 C 47.559896 60.739573 49.043838 60.921875 50.550781 60.921875 C 52.021267 60.921875 53.370224 60.721346 54.597656 60.320312 C 55.837241 59.907109 56.912763 59.274524 57.824219 58.423828 C 58.638455 57.658197 59.269097 56.759533 59.71875 55.726562 C 60.168403 54.693567 60.394531 53.555991 60.394531 52.316406 C 60.394531 51.064677 60.204861 50.043828 59.828125 49.253906 C 59.451609 48.464421 58.971543 47.809518 58.388672 47.287109 C 57.866102 46.825301 57.228081 46.442496 56.474609 46.138672 C 55.721135 45.822729 55.052082 45.614838 54.46875 45.517578 L 54.46875 45.263672 C 55.914931 44.971993 57.167319 44.266472 58.224609 43.148438 C 59.294054 42.018208 59.828125 40.700282 59.828125 39.193359 C 59.828125 38.087444 59.60395 37.121303 59.154297 36.294922 C 58.704644 35.468516 58.042967 34.76302 57.167969 34.179688 C 56.353733 33.645061 55.442274 33.256821 54.433594 33.013672 C 53.424911 32.770522 52.258245 32.648438 50.933594 32.648438 z M 363.49023 33.03125 L 363.49023 36.585938 L 367.35547 36.585938 L 367.35547 33.03125 L 363.49023 33.03125 z M 66.882812 33.212891 L 66.882812 60.355469 L 73.738281 60.355469 C 76.2296 60.355469 78.234808 60.185961 79.753906 59.845703 C 81.285157 59.50542 82.670575 58.953132 83.910156 58.1875 C 85.696615 57.08161 87.123914 55.524747 88.193359 53.519531 C 89.274957 51.514315 89.816406 49.279498 89.816406 46.8125 C 89.816406 44.175347 89.298613 41.896714 88.265625 39.976562 C 87.23264 38.056436 85.792534 36.517801 83.945312 35.363281 C 82.863715 34.694884 81.540367 34.173618 79.972656 33.796875 C 78.417101 33.407987 76.313368 33.212891 73.664062 33.212891 L 66.882812 33.212891 z M 154.91211 34.142578 L 154.91211 39.994141 L 152.59766 39.994141 L 152.59766 42.875 L 154.91211 42.875 L 154.91211 53.703125 C 154.91211 56.170149 155.45356 57.962043 156.53516 59.080078 C 157.61676 60.198138 159.19532 60.757812 161.27344 60.757812 C 161.86892 60.757813 162.5434 60.703104 163.29688 60.59375 C 164.0625 60.48432 164.76802 60.343907 165.41211 60.173828 L 165.41211 57.09375 L 165.23047 57.09375 C 164.96311 57.20318 164.52561 57.34164 163.91797 57.511719 C 163.31033 57.669703 162.727 57.75 162.16797 57.75 C 161.2079 57.75 160.48959 57.640584 160.01562 57.421875 C 159.55382 57.190971 159.18923 56.831826 158.92188 56.345703 C 158.6302 55.823146 158.46071 55.263446 158.41211 54.667969 C 158.3635 54.060321 158.33984 53.221799 158.33984 52.152344 L 158.33984 42.875 L 165.41211 42.875 L 165.41211 39.994141 L 158.33984 39.994141 L 158.33984 34.142578 L 154.91211 34.142578 z M 397.65234 34.142578 L 397.65234 39.994141 L 395.33594 39.994141 L 395.33594 42.875 L 397.65234 42.875 L 397.65234 53.703125 C 397.65234 56.170149 398.19184 57.962043 399.27344 59.080078 C 400.35504 60.198138 401.93554 60.757812 404.01367 60.757812 C 404.60915 60.757813 405.28365 60.703104 406.03711 60.59375 C 406.80274 60.48432 407.50824 60.343907 408.15234 60.173828 L 408.15039 57.09375 L 407.96875 57.09375 C 407.70139 57.20318 407.26387 57.34164 406.65625 57.511719 C 406.0486 57.669703 405.46527 57.75 404.90625 57.75 C 403.94617 57.75 403.22984 57.640584 402.75586 57.421875 C 402.29408 57.190971 401.92947 56.831826 401.66211 56.345703 C 401.37046 55.823146 401.20097 55.263446 401.15234 54.667969 C 401.10371 54.060321 401.07812 53.221799 401.07812 52.152344 L 401.07812 42.875 L 408.15234 42.875 L 408.15234 39.994141 L 401.07812 39.994141 L 401.07812 34.142578 L 397.65234 34.142578 z M 70.492188 36.3125 L 73.882812 36.3125 C 75.559895 36.3125 77.000001 36.432632 78.203125 36.675781 C 79.406252 36.906685 80.543839 37.325946 81.613281 37.933594 C 83.083769 38.772145 84.188368 39.920588 84.929688 41.378906 C 85.671007 42.83725 86.042969 44.631072 86.042969 46.757812 C 86.042969 48.872383 85.702041 50.633255 85.021484 52.042969 C 84.353082 53.452707 83.345053 54.590284 81.996094 55.453125 C 80.914496 56.145837 79.722221 56.619806 78.421875 56.875 C 77.133681 57.130219 75.620659 57.257812 73.882812 57.257812 L 70.492188 57.257812 L 70.492188 36.3125 z M 116.50391 39.429688 C 113.6237 39.429687 111.33225 40.395854 109.63086 42.328125 C 107.94162 44.248276 107.09766 46.865874 107.09766 50.183594 C 107.09766 53.501288 107.94162 56.120864 109.63086 58.041016 C 111.33225 59.961142 113.6237 60.921875 116.50391 60.921875 C 119.35981 60.921875 121.63845 59.961142 123.33984 58.041016 C 125.04123 56.120864 125.89063 53.501288 125.89062 50.183594 C 125.89063 46.865874 125.04123 44.248276 123.33984 42.328125 C 121.63845 40.395854 119.35981 39.429688 116.50391 39.429688 z M 141.47656 39.429688 C 140.27344 39.429688 139.10135 39.677539 137.95898 40.175781 C 136.81662 40.674049 135.71007 41.36675 134.64062 42.253906 L 134.64062 39.994141 L 131.21484 39.994141 L 131.21484 60.355469 L 134.64062 60.355469 L 134.64062 45.152344 C 135.57639 44.435342 136.55534 43.846574 137.57617 43.384766 C 138.597 42.922958 139.57596 42.691406 140.51172 42.691406 C 141.42318 42.691406 142.1632 42.819025 142.73438 43.074219 C 143.30555 43.317293 143.74306 43.694666 144.04688 44.205078 C 144.33854 44.666886 144.53906 45.310338 144.64844 46.136719 C 144.75782 46.950955 144.8125 47.825958 144.8125 48.761719 L 144.8125 60.355469 L 148.24023 60.355469 L 148.24023 47.140625 C 148.24023 44.649312 147.66233 42.740664 146.50781 41.416016 C 145.3533 40.091367 143.67622 39.429688 141.47656 39.429688 z M 208.57812 39.429688 C 205.61285 39.429688 203.2194 40.406695 201.39648 42.363281 C 199.58572 44.319892 198.67969 46.963129 198.67969 50.292969 C 198.67969 53.659293 199.6276 56.260642 201.52344 58.095703 C 203.41927 59.91862 206.05708 60.830078 209.43555 60.830078 C 210.7602 60.830078 212.02344 60.666004 213.22656 60.337891 C 214.42969 60.009777 215.60916 59.60331 216.76367 59.117188 L 216.76367 55.378906 L 216.58203 55.378906 C 215.98655 55.913634 214.98394 56.460514 213.57422 57.019531 C 212.17665 57.566404 210.78386 57.839844 209.39844 57.839844 C 208.3533 57.839844 207.39453 57.693997 206.51953 57.402344 C 205.65669 57.110665 204.90928 56.673176 204.27734 56.089844 C 203.62109 55.494367 203.1033 54.736116 202.72656 53.8125 C 202.34982 52.876739 202.16211 51.783004 202.16211 50.53125 L 217.16406 50.53125 L 217.16406 48.671875 C 217.16406 45.718754 216.41667 43.440095 214.92188 41.835938 C 213.43923 40.23178 211.32465 39.429688 208.57812 39.429688 z M 248.46484 39.429688 C 247.17665 39.429688 245.96072 39.690333 244.81836 40.212891 C 243.68815 40.723303 242.66732 41.361322 241.75586 42.126953 L 241.75586 39.994141 L 238.32812 39.994141 L 238.32812 67.867188 L 241.75586 67.867188 L 241.75586 59.335938 C 242.64301 59.822136 243.51259 60.181306 244.36328 60.412109 C 245.22613 60.642913 246.18489 60.757812 247.24219 60.757812 C 248.45746 60.757812 249.6059 60.513441 250.6875 60.027344 C 251.78125 59.529076 252.72917 58.830941 253.53125 57.931641 C 254.3941 56.98371 255.06315 55.829859 255.53711 54.46875 C 256.01107 53.095496 256.24805 51.582475 256.24805 49.929688 C 256.24805 46.636283 255.56077 44.065956 254.1875 42.21875 C 252.82639 40.359374 250.9197 39.429688 248.46484 39.429688 z M 270.04688 39.429688 C 267.0816 39.429688 264.68816 40.406695 262.86523 42.363281 C 261.05448 44.319892 260.14844 46.963129 260.14844 50.292969 C 260.14844 53.659293 261.09635 56.260642 262.99219 58.095703 C 264.88802 59.91862 267.52583 60.830078 270.9043 60.830078 C 272.22895 60.830078 273.49219 60.666004 274.69531 60.337891 C 275.89844 60.009777 277.07791 59.60331 278.23242 59.117188 L 278.23242 55.378906 L 278.05078 55.378906 C 277.45529 55.913634 276.45269 56.460514 275.04297 57.019531 C 273.6454 57.566404 272.2526 57.839844 270.86719 57.839844 C 269.82205 57.839844 268.86328 57.693997 267.98828 57.402344 C 267.12544 57.110665 266.37804 56.673176 265.74609 56.089844 C 265.08985 55.494367 264.57205 54.736116 264.19531 53.8125 C 263.81858 52.876739 263.63086 51.783004 263.63086 50.53125 L 278.63281 50.53125 L 278.63281 48.671875 C 278.63281 45.718754 277.88541 43.440095 276.39062 41.835938 C 274.90798 40.23178 272.7934 39.429688 270.04688 39.429688 z M 294.0918 39.429688 C 292.88867 39.429688 291.71658 39.677539 290.57422 40.175781 C 289.43186 40.674049 288.32531 41.36675 287.25586 42.253906 L 287.25586 39.994141 L 283.82812 39.994141 L 283.82812 60.355469 L 287.25586 60.355469 L 287.25586 45.152344 C 288.19162 44.435342 289.17057 43.846574 290.19141 43.384766 C 291.21224 42.922958 292.18923 42.691406 293.125 42.691406 C 294.03646 42.691406 294.77843 42.819025 295.34961 43.074219 C 295.92079 43.317293 296.35829 43.694666 296.66211 44.205078 C 296.95377 44.666886 297.15429 45.310338 297.26367 46.136719 C 297.37305 46.950955 297.42773 47.825958 297.42773 48.761719 L 297.42773 60.355469 L 300.85547 60.355469 L 300.85547 47.140625 C 300.85547 44.649312 300.27756 42.740664 299.12305 41.416016 C 297.96853 40.091367 296.29145 39.429688 294.0918 39.429688 z M 334.57812 39.429688 C 333.28993 39.429688 332.07596 39.690333 330.93359 40.212891 C 329.80338 40.723303 328.78255 41.361322 327.87109 42.126953 L 327.87109 39.994141 L 324.44336 39.994141 L 324.44336 67.867188 L 327.87109 67.867188 L 327.87109 59.335938 C 328.75825 59.822136 329.62587 60.181306 330.47656 60.412109 C 331.33941 60.642913 332.30013 60.757812 333.35742 60.757812 C 334.5727 60.757812 335.72113 60.513441 336.80273 60.027344 C 337.89648 59.529076 338.8444 58.830941 339.64648 57.931641 C 340.50933 56.98371 341.17838 55.829859 341.65234 54.46875 C 342.1263 53.095496 342.36328 51.582475 342.36328 49.929688 C 342.36328 46.636283 341.67599 44.065956 340.30273 42.21875 C 338.94162 40.359374 337.03299 39.429688 334.57812 39.429688 z M 384.2168 39.429688 C 383.01367 39.429688 381.84157 39.677539 380.69922 40.175781 C 379.55684 40.674049 378.4503 41.36675 377.38086 42.253906 L 377.38086 39.994141 L 373.95312 39.994141 L 373.95312 60.355469 L 377.38086 60.355469 L 377.38086 45.152344 C 378.31663 44.435342 379.29558 43.846574 380.31641 43.384766 C 381.33726 42.922958 382.31424 42.691406 383.25 42.691406 C 384.16145 42.691406 384.90342 42.819025 385.47461 43.074219 C 386.04577 43.317293 386.48329 43.694666 386.78711 44.205078 C 387.07881 44.666886 387.27932 45.310338 387.38867 46.136719 C 387.49803 46.950955 387.55273 47.825958 387.55273 48.761719 L 387.55273 60.355469 L 390.98047 60.355469 L 390.98047 47.140625 C 390.98047 44.649312 390.40254 42.740664 389.24805 41.416016 C 388.09353 40.091367 386.41646 39.429688 384.2168 39.429688 z M 420.76562 39.429688 C 417.80036 39.429688 415.4069 40.406695 413.58398 42.363281 C 411.77321 44.319892 410.86719 46.963129 410.86719 50.292969 C 410.86719 53.659293 411.8151 56.260642 413.71094 58.095703 C 415.60677 59.91862 418.24458 60.830078 421.62305 60.830078 C 422.9477 60.830078 424.21094 60.666004 425.41406 60.337891 C 426.61719 60.009777 427.79665 59.60331 428.95117 59.117188 L 428.95117 55.378906 L 428.76953 55.378906 C 428.17403 55.913634 427.17143 56.460514 425.76172 57.019531 C 424.36415 57.566404 422.97136 57.839844 421.58594 57.839844 C 420.5408 57.839844 419.58202 57.693997 418.70703 57.402344 C 417.84417 57.110665 417.09678 56.673176 416.46484 56.089844 C 415.80859 55.494367 415.29078 54.736116 414.91406 53.8125 C 414.53732 52.876739 414.34961 51.783004 414.34961 50.53125 L 429.35156 50.53125 L 429.35156 48.671875 C 429.35156 45.718754 428.60418 43.440095 427.10938 41.835938 C 425.62674 40.23178 423.51216 39.429688 420.76562 39.429688 z M 444.81055 39.429688 C 443.60742 39.429688 442.43534 39.677539 441.29297 40.175781 C 440.15062 40.674049 439.04406 41.36675 437.97461 42.253906 L 437.97461 39.994141 L 434.54688 39.994141 L 434.54688 60.355469 L 437.97461 60.355469 L 437.97461 45.152344 C 438.9104 44.435342 439.88933 43.846574 440.91016 43.384766 C 441.93098 42.922958 442.90799 42.691406 443.84375 42.691406 C 444.75522 42.691406 445.4972 42.819025 446.06836 43.074219 C 446.63955 43.317293 447.07704 43.694666 447.38086 44.205078 C 447.67256 44.666886 447.87307 45.310338 447.98242 46.136719 C 448.09178 46.950955 448.14648 47.825958 448.14648 48.761719 L 448.14648 60.355469 L 451.57422 60.355469 L 451.57422 47.140625 C 451.57422 44.649312 450.99632 42.740664 449.8418 41.416016 C 448.6873 40.091367 447.01021 39.429688 444.81055 39.429688 z M 167.76367 39.994141 L 173.12305 60.355469 L 176.27734 60.355469 L 181.47266 44.660156 L 186.70312 60.355469 L 189.875 60.355469 L 195.17969 39.994141 L 191.73438 39.994141 L 188.19922 55.761719 L 182.98438 39.994141 L 180.16016 39.994141 L 175.07422 55.761719 L 171.33594 39.994141 L 167.76367 39.994141 z M 222.35938 39.994141 L 222.35938 60.357422 L 225.78711 60.357422 L 225.78711 45.900391 C 226.69857 45.159074 227.64649 44.557511 228.63086 44.095703 C 229.61523 43.62175 230.63607 43.384766 231.69336 43.384766 C 232.34961 43.384766 232.91471 43.415838 233.38867 43.476562 C 233.87478 43.525192 234.3724 43.60902 234.88281 43.730469 L 235.06641 43.730469 L 235.06641 40.212891 C 234.53169 40.128733 234.13064 40.074025 233.86328 40.048828 C 233.59592 40.012293 233.16385 39.994141 232.56836 39.994141 C 231.48676 39.994141 230.42405 40.225692 229.37891 40.6875 C 228.34593 41.137163 227.14822 41.908208 225.78711 43.001953 L 225.78711 39.994141 L 222.35938 39.994141 z M 347.70312 39.994141 L 347.70312 60.357422 L 351.13086 60.357422 L 351.13086 45.900391 C 352.04232 45.159074 352.99024 44.557511 353.97461 44.095703 C 354.95899 43.62175 355.97982 43.384766 357.03711 43.384766 C 357.69336 43.384766 358.25846 43.415838 358.73242 43.476562 C 359.21853 43.525192 359.71614 43.60902 360.22656 43.730469 L 360.41016 43.730469 L 360.41016 40.212891 C 359.87544 40.128733 359.4744 40.074025 359.20703 40.048828 C 358.93967 40.012293 358.5076 39.994141 357.91211 39.994141 C 356.83051 39.994141 355.76779 40.225692 354.72266 40.6875 C 353.68967 41.137163 352.49197 41.908208 351.13086 43.001953 L 351.13086 39.994141 L 347.70312 39.994141 z M 363.70898 39.994141 L 363.70898 60.355469 L 367.13672 60.355469 L 367.13672 39.994141 L 363.70898 39.994141 z M 208.39648 42.253906 C 210.2194 42.253906 211.57378 42.746078 212.46094 43.730469 C 213.3603 44.714834 213.81603 46.107648 213.82812 47.90625 L 202.16211 47.90625 C 202.30794 46.302092 202.92231 44.958553 204.00391 43.876953 C 205.09765 42.795353 206.56141 42.253906 208.39648 42.253906 z M 269.86523 42.253906 C 271.68815 42.253906 273.04253 42.746078 273.92969 43.730469 C 274.82905 44.714834 275.28478 46.107648 275.29688 47.90625 L 263.63086 47.90625 C 263.77669 46.302092 264.39106 44.958553 265.47266 43.876953 C 266.56641 42.795353 268.03017 42.253906 269.86523 42.253906 z M 420.58398 42.253906 C 422.4069 42.253906 423.76128 42.746078 424.64844 43.730469 C 425.54728 44.714834 426.00303 46.107648 426.01562 47.90625 L 414.34961 47.90625 C 414.49542 46.302092 415.10981 44.958553 416.19141 43.876953 C 417.28518 42.795353 418.74892 42.253906 420.58398 42.253906 z M 116.50391 42.382812 C 118.33898 42.382813 119.7717 43.026239 120.80469 44.314453 C 121.83768 45.590497 122.35547 47.546441 122.35547 50.183594 C 122.35547 52.759972 121.83225 54.705074 120.78711 56.017578 C 119.75412 57.317912 118.32682 57.96875 116.50391 57.96875 C 114.65668 57.96875 113.21658 57.312504 112.18359 56 C 111.15061 54.675351 110.63281 52.735657 110.63281 50.183594 C 110.63281 47.546441 111.14323 45.590497 112.16406 44.314453 C 113.19705 43.026239 114.64453 42.382812 116.50391 42.382812 z M 247.58984 42.691406 C 249.32769 42.691406 250.61458 43.300356 251.45312 44.515625 C 252.29166 45.730894 252.71094 47.564652 252.71094 50.019531 C 252.71094 52.547305 252.17687 54.455952 251.10742 55.744141 C 250.03797 57.03233 248.54861 57.675781 246.64062 57.675781 C 245.75347 57.675781 244.95877 57.597437 244.25391 57.439453 C 243.5612 57.281469 242.72808 56.984368 241.75586 56.546875 L 241.75586 45.007812 C 242.66732 44.315101 243.62066 43.755426 244.61719 43.330078 C 245.61371 42.90473 246.60547 42.691406 247.58984 42.691406 z M 333.70312 42.691406 C 335.44097 42.691406 336.72982 43.300356 337.56836 44.515625 C 338.40691 45.730894 338.82617 47.564652 338.82617 50.019531 C 338.82617 52.547305 338.2921 54.455952 337.22266 55.744141 C 336.15321 57.03233 334.66385 57.675781 332.75586 57.675781 C 331.86871 57.675781 331.07205 57.597437 330.36719 57.439453 C 329.67448 57.281469 328.84331 56.984368 327.87109 56.546875 L 327.87109 45.007812 C 328.78255 44.315101 329.73589 43.755426 330.73242 43.330078 C 331.72895 42.90473 332.71875 42.691406 333.70312 42.691406 z "
       transform="matrix(0.26458333,0,0,0.26458333,0,270.54165)"
       id="path819" />
  </g>
</svg>
