<?xml version="1.0" encoding="UTF-8" standalone="no"?>
<!-- Created with Inkscape (http://www.inkscape.org/) -->

<svg
   xmlns:dc="http://purl.org/dc/elements/1.1/"
   xmlns:cc="http://creativecommons.org/ns#"
   xmlns:rdf="http://www.w3.org/1999/02/22-rdf-syntax-ns#"
   xmlns:svg="http://www.w3.org/2000/svg"
   xmlns="http://www.w3.org/2000/svg"
   xmlns:sodipodi="http://sodipodi.sourceforge.net/DTD/sodipodi-0.dtd"
   xmlns:inkscape="http://www.inkscape.org/namespaces/inkscape"
   width="500"
   height="100"
   viewBox="0 0 132.29166 26.458334"
   version="1.1"
   id="svg8"
   inkscape:version="0.92.4 (5da689c313, 2019-01-14)"
   sodipodi:docname="i-3.svg">
  <defs
     id="defs2" />
  <sodipodi:namedview
     id="base"
     pagecolor="#ffffff"
     bordercolor="#666666"
     borderopacity="1.0"
     inkscape:pageopacity="0.0"
     inkscape:pageshadow="2"
     inkscape:zoom="1.3249068"
     inkscape:cx="-9.2937966"
     inkscape:cy="251.30524"
     inkscape:document-units="px"
     inkscape:current-layer="layer1"
     showgrid="false"
     units="px"
     inkscape:window-width="1920"
     inkscape:window-height="1017"
     inkscape:window-x="1358"
     inkscape:window-y="-8"
     inkscape:window-maximized="1" />
  <metadata
     id="metadata5">
    <rdf:RDF>
      <cc:Work
         rdf:about="">
        <dc:format>image/svg+xml</dc:format>
        <dc:type
           rdf:resource="http://purl.org/dc/dcmitype/StillImage" />
        <dc:title></dc:title>
      </cc:Work>
    </rdf:RDF>
  </metadata>
  <g
     inkscape:label="Laag 1"
     inkscape:groupmode="layer"
     id="layer1"
     transform="translate(0,-270.54165)">
    <path
       style="font-style:normal;font-variant:normal;font-weight:normal;font-stretch:normal;font-size:37.33333206px;line-height:1.25;font-family:'Segoe MDL2 Assets';-inkscape-font-specification:'Segoe MDL2 Assets';letter-spacing:0px;word-spacing:0px;fill:#0496ff;fill-opacity:1;stroke:none;stroke-width:0.99999994"
       d="M 242.22656 33.501953 L 229.21094 67.408203 L 232.36523 67.408203 L 245.43555 33.501953 L 242.22656 33.501953 z M 276.20508 34.230469 C 271.78147 34.230469 268.29969 35.488278 265.75977 38.003906 C 263.23199 40.50739 261.96875 43.929033 261.96875 48.267578 C 261.96875 50.637367 262.30967 52.708135 262.99023 54.482422 C 263.67079 56.244589 264.63694 57.715722 265.88867 58.894531 C 267.12826 60.061196 268.62847 60.936199 270.39062 61.519531 C 272.15278 62.102864 274.0905 62.394531 276.20508 62.394531 C 277.84571 62.394531 279.54102 62.144727 281.29102 61.646484 C 283.05317 61.136047 284.67556 60.54187 286.1582 59.861328 L 286.1582 48.212891 L 275.3125 48.212891 L 275.3125 51.384766 L 282.58594 51.384766 L 282.58594 58.037109 C 281.71094 58.401783 280.6901 58.700837 279.52344 58.931641 C 278.36892 59.162444 277.20768 59.277344 276.04102 59.277344 C 272.85699 59.277344 270.34137 58.305769 268.49414 56.361328 C 266.64692 54.404717 265.72461 51.670342 265.72461 48.158203 C 265.72461 44.828339 266.60504 42.190535 268.36719 40.246094 C 270.14149 38.289483 272.54774 37.310547 275.58594 37.310547 C 276.9349 37.310547 278.13803 37.43814 279.19531 37.693359 C 280.26476 37.936408 281.2181 38.246304 282.05664 38.623047 C 282.74935 38.939015 283.45486 39.334641 284.17188 39.808594 C 284.88889 40.282547 285.43577 40.665353 285.8125 40.957031 L 286.14062 40.957031 L 286.14062 36.673828 C 284.28125 35.786672 282.54405 35.159495 280.92773 34.794922 C 279.32357 34.418179 277.74849 34.230469 276.20508 34.230469 z M 292.00977 34.541016 L 292.00977 38.095703 L 295.875 38.095703 L 295.875 34.541016 L 292.00977 34.541016 z M 115.57031 34.722656 L 115.57031 61.865234 L 122.42383 61.865234 C 124.91515 61.865234 126.92036 61.695727 128.43945 61.355469 C 129.9707 61.015185 131.35612 60.462897 132.5957 59.697266 C 134.38216 58.591376 135.81141 57.034513 136.88086 55.029297 C 137.96246 53.024081 138.50195 50.789264 138.50195 48.322266 C 138.50195 45.685113 137.98611 43.406479 136.95312 41.486328 C 135.92014 39.566202 134.48003 38.027567 132.63281 36.873047 C 131.55122 36.20465 130.22591 35.683384 128.6582 35.306641 C 127.10265 34.917752 125.00087 34.722656 122.35156 34.722656 L 115.57031 34.722656 z M 302.54688 35.652344 L 302.54688 41.503906 L 300.23242 41.503906 L 300.23242 44.384766 L 302.54688 44.384766 L 302.54688 55.212891 C 302.54687 57.679914 303.08832 59.471809 304.16992 60.589844 C 305.25152 61.707904 306.83008 62.267578 308.9082 62.267578 C 309.50369 62.267578 310.17817 62.21287 310.93164 62.103516 C 311.69727 61.994086 312.40278 61.853672 313.04688 61.683594 L 313.04688 58.603516 L 312.86523 58.603516 C 312.59787 58.712946 312.16037 58.851406 311.55273 59.021484 C 310.94509 59.179469 310.36176 59.259766 309.80273 59.259766 C 308.84267 59.259766 308.12435 59.150349 307.65039 58.931641 C 307.18858 58.700737 306.824 58.341592 306.55664 57.855469 C 306.26496 57.332911 306.09548 56.773212 306.04688 56.177734 C 305.99827 55.570087 305.97461 54.731565 305.97461 53.662109 L 305.97461 44.384766 L 313.04688 44.384766 L 313.04688 41.503906 L 305.97461 41.503906 L 305.97461 35.652344 L 302.54688 35.652344 z M 119.17969 37.822266 L 122.57031 37.822266 C 124.2474 37.822266 125.6875 37.942397 126.89062 38.185547 C 128.09375 38.416451 129.22938 38.835712 130.29883 39.443359 C 131.76931 40.281911 132.87587 41.430354 133.61719 42.888672 C 134.35851 44.347015 134.72852 46.140838 134.72852 48.267578 C 134.72852 50.382148 134.38954 52.143021 133.70898 53.552734 C 133.04058 54.962473 132.0306 56.10005 130.68164 56.962891 C 129.60005 57.655602 128.40972 58.129547 127.10938 58.384766 C 125.82118 58.639959 124.30816 58.767578 122.57031 58.767578 L 119.17969 58.767578 L 119.17969 37.822266 z M 193.71875 40.939453 C 192.51563 40.939453 191.37999 41.187304 190.31055 41.685547 C 189.25326 42.183815 188.18859 42.876516 187.11914 43.763672 L 187.11914 41.503906 L 183.69336 41.503906 L 183.69336 61.865234 L 187.11914 61.865234 L 187.11914 46.662109 C 188.0549 45.945108 188.99197 45.356339 189.92773 44.894531 C 190.87565 44.432723 191.81619 44.201172 192.75195 44.201172 C 193.73633 44.201172 194.4911 44.336152 195.01367 44.603516 C 195.53624 44.858709 195.93728 45.246949 196.2168 45.769531 C 196.472 46.255629 196.63606 46.906467 196.70898 47.720703 C 196.79405 48.522794 196.83594 49.372184 196.83594 50.271484 L 196.83594 61.865234 L 200.26367 61.865234 L 200.26367 48.832031 C 200.26367 48.467458 200.25075 48.102854 200.22656 47.738281 C 200.20227 47.361538 200.17123 47.033415 200.13477 46.753906 C 201.09484 46.012565 202.05556 45.405593 203.01562 44.931641 C 203.9757 44.445543 204.93642 44.201172 205.89648 44.201172 C 206.88086 44.201172 207.63368 44.336152 208.15625 44.603516 C 208.67882 44.870879 209.07986 45.264552 209.35938 45.787109 C 209.61458 46.273232 209.77864 46.924045 209.85156 47.738281 C 209.93663 48.552492 209.97852 49.396473 209.97852 50.271484 L 209.97852 61.865234 L 213.40625 61.865234 L 213.40625 48.650391 C 213.40625 46.219852 212.87218 44.329433 211.80273 42.980469 C 210.74544 41.61936 209.09744 40.939453 206.86133 40.939453 C 205.56098 40.939453 204.33963 41.200099 203.19727 41.722656 C 202.0549 42.233069 200.79167 43.071617 199.40625 44.238281 C 198.93229 43.205311 198.20855 42.397785 197.23633 41.814453 C 196.27626 41.231121 195.10417 40.939453 193.71875 40.939453 z M 324.16602 41.011719 C 322.93858 41.011719 321.69357 41.121135 320.42969 41.339844 C 319.1658 41.558704 318.19966 41.759233 317.53125 41.941406 L 317.53125 45.423828 L 317.71289 45.423828 C 318.89171 44.974064 320.03472 44.633147 321.14062 44.402344 C 322.24652 44.159194 323.24913 44.037109 324.14844 44.037109 C 324.88976 44.037109 325.6007 44.086334 326.28125 44.183594 C 326.96181 44.280828 327.54514 44.468538 328.03125 44.748047 C 328.54167 45.039726 328.9299 45.440759 329.19727 45.951172 C 329.47678 46.461584 329.61719 47.106989 329.61719 47.884766 L 329.61719 48.412109 C 327.62413 48.509268 325.75933 48.65509 324.02148 48.849609 C 322.28363 49.044053 320.79427 49.416018 319.55469 49.962891 C 318.32725 50.509763 317.37934 51.262581 316.71094 52.222656 C 316.05469 53.170562 315.72656 54.415576 315.72656 55.958984 C 315.72656 57.842651 316.36458 59.392127 317.64062 60.607422 C 318.91666 61.822691 320.47157 62.431641 322.30664 62.431641 C 323.30317 62.431641 324.17275 62.333192 324.91406 62.138672 C 325.65538 61.956373 326.31163 61.726774 326.88281 61.447266 C 327.36893 61.228532 327.86653 60.936864 328.37695 60.572266 C 328.89952 60.195548 329.31337 59.90388 329.61719 59.697266 L 329.61719 61.865234 L 333.02539 61.865234 L 333.02539 48.048828 C 333.02539 46.736324 332.82487 45.637156 332.42383 44.75 C 332.02279 43.862844 331.43945 43.139095 330.67383 42.580078 C 329.89605 42.00879 328.97374 41.607756 327.9043 41.376953 C 326.847 41.133804 325.60004 41.011719 324.16602 41.011719 z M 346.625 41.011719 C 345.39757 41.011719 344.15256 41.121135 342.88867 41.339844 C 341.62478 41.558704 340.65863 41.759233 339.99023 41.941406 L 339.99023 45.423828 L 340.17188 45.423828 C 341.35069 44.974064 342.4937 44.633147 343.59961 44.402344 C 344.70551 44.159194 345.70812 44.037109 346.60742 44.037109 C 347.34874 44.037109 348.05968 44.086334 348.74023 44.183594 C 349.42079 44.280828 350.00412 44.468538 350.49023 44.748047 C 351.00065 45.039726 351.38889 45.440759 351.65625 45.951172 C 351.93576 46.461584 352.07617 47.106989 352.07617 47.884766 L 352.07617 48.412109 C 350.08311 48.509268 348.21636 48.65509 346.47852 48.849609 C 344.74067 49.044053 343.25325 49.416018 342.01367 49.962891 C 340.78624 50.509763 339.83832 51.262581 339.16992 52.222656 C 338.51367 53.170562 338.18555 54.415576 338.18555 55.958984 C 338.18555 57.842651 338.82356 59.392127 340.09961 60.607422 C 341.37565 61.822691 342.93056 62.431641 344.76562 62.431641 C 345.76215 62.431641 346.63173 62.333192 347.37305 62.138672 C 348.11437 61.956373 348.77062 61.726774 349.3418 61.447266 C 349.82791 61.228532 350.32552 60.936864 350.83594 60.572266 C 351.35851 60.195548 351.77235 59.90388 352.07617 59.697266 L 352.07617 61.865234 L 355.48438 61.865234 L 355.48438 48.048828 C 355.48438 46.736324 355.28385 45.637156 354.88281 44.75 C 354.48177 43.862844 353.89844 43.139095 353.13281 42.580078 C 352.35503 42.00879 351.43077 41.607756 350.36133 41.376953 C 349.30404 41.133804 348.05903 41.011719 346.625 41.011719 z M 144.09961 41.503906 L 144.09961 61.865234 L 147.52539 61.865234 L 147.52539 47.410156 C 148.43685 46.66884 149.38477 46.067277 150.36914 45.605469 C 151.35351 45.131516 152.37435 44.894531 153.43164 44.894531 C 154.08789 44.894531 154.653 44.925604 155.12695 44.986328 C 155.61307 45.034958 156.11263 45.118786 156.62305 45.240234 L 156.80469 45.240234 L 156.80469 41.722656 C 156.26997 41.638499 155.86892 41.583791 155.60156 41.558594 C 155.3342 41.522058 154.90213 41.503906 154.30664 41.503906 C 153.22504 41.503906 152.16233 41.735458 151.11719 42.197266 C 150.0842 42.646929 148.8865 43.417974 147.52539 44.511719 L 147.52539 41.503906 L 144.09961 41.503906 z M 159.92188 41.503906 L 159.92188 54.720703 C 159.92187 57.248476 160.51801 59.167965 161.70898 60.480469 C 162.89996 61.780803 164.56424 62.431641 166.70312 62.431641 C 167.97917 62.431641 169.14583 62.18727 170.20312 61.701172 C 171.26042 61.215049 172.36697 60.51694 173.52148 59.605469 L 173.52148 61.865234 L 176.94727 61.865234 L 176.94727 41.503906 L 173.52148 41.503906 L 173.52148 56.707031 C 172.61003 57.424033 171.62565 58.012801 170.56836 58.474609 C 169.52322 58.936417 168.55708 59.167969 167.66992 59.167969 C 166.67339 59.167969 165.91319 59.045884 165.39062 58.802734 C 164.86805 58.55966 164.44336 58.171421 164.11523 57.636719 C 163.79925 57.114136 163.59135 56.488937 163.49414 55.759766 C 163.39691 55.018449 163.34961 54.130626 163.34961 53.097656 L 163.34961 41.503906 L 159.92188 41.503906 z M 292.22852 41.503906 L 292.22852 61.865234 L 295.65625 61.865234 L 295.65625 41.503906 L 292.22852 41.503906 z M 362.11914 41.503906 L 362.11914 61.865234 L 365.54688 61.865234 L 365.54688 47.410156 C 366.45833 46.66884 367.40624 46.067277 368.39062 45.605469 C 369.375 45.131516 370.39583 44.894531 371.45312 44.894531 C 372.10937 44.894531 372.67448 44.925604 373.14844 44.986328 C 373.63455 45.034958 374.13216 45.118786 374.64258 45.240234 L 374.82617 45.240234 L 374.82617 41.722656 C 374.29145 41.638499 373.89041 41.583791 373.62305 41.558594 C 373.35569 41.522058 372.92361 41.503906 372.32812 41.503906 C 371.24652 41.503906 370.18381 41.735458 369.13867 42.197266 C 368.10568 42.646929 366.90798 43.417974 365.54688 44.511719 L 365.54688 41.503906 L 362.11914 41.503906 z M 329.61719 51.183594 L 329.61719 56.853516 C 328.76649 57.509768 327.84223 58.074875 326.8457 58.548828 C 325.84917 59.010636 324.74999 59.240234 323.54688 59.240234 C 322.10069 59.240234 321.02518 58.948567 320.32031 58.365234 C 319.61545 57.769757 319.26367 56.889321 319.26367 55.722656 C 319.26367 54.689661 319.56619 53.88216 320.17383 53.298828 C 320.78147 52.703351 321.57813 52.265837 322.5625 51.986328 C 323.38889 51.755323 324.50629 51.57848 325.91602 51.457031 C 327.33789 51.335582 328.57205 51.244318 329.61719 51.183594 z M 352.07617 51.183594 L 352.07617 56.853516 C 351.22548 57.509768 350.30122 58.074875 349.30469 58.548828 C 348.30816 59.010636 347.20898 59.240234 346.00586 59.240234 C 344.55967 59.240234 343.48416 58.948567 342.7793 58.365234 C 342.07444 57.769757 341.7207 56.889321 341.7207 55.722656 C 341.7207 54.689661 342.02517 53.88216 342.63281 53.298828 C 343.24045 52.703351 344.03711 52.265837 345.02148 51.986328 C 345.84787 51.755323 346.96527 51.57848 348.375 51.457031 C 349.79687 51.335582 351.03103 51.244318 352.07617 51.183594 z "
       transform="matrix(0.26458333,0,0,0.26458333,0,270.54165)"
       id="path819" />
  </g>
</svg>
