<?xml version="1.0" encoding="UTF-8" standalone="no"?>
<!-- Created with Inkscape (http://www.inkscape.org/) -->

<svg
   xmlns:dc="http://purl.org/dc/elements/1.1/"
   xmlns:cc="http://creativecommons.org/ns#"
   xmlns:rdf="http://www.w3.org/1999/02/22-rdf-syntax-ns#"
   xmlns:svg="http://www.w3.org/2000/svg"
   xmlns="http://www.w3.org/2000/svg"
   xmlns:sodipodi="http://sodipodi.sourceforge.net/DTD/sodipodi-0.dtd"
   xmlns:inkscape="http://www.inkscape.org/namespaces/inkscape"
   width="210mm"
   height="297mm"
   viewBox="0 0 210 297"
   version="1.1"
   id="svg8"
   inkscape:version="0.92.4 (5da689c313, 2019-01-14)"
   sodipodi:docname="shootMe.svg">
  <defs
     id="defs2" />
  <sodipodi:namedview
     id="base"
     pagecolor="#ffffff"
     bordercolor="#666666"
     borderopacity="1.0"
     inkscape:pageopacity="0.0"
     inkscape:pageshadow="2"
     inkscape:zoom="0.76095916"
     inkscape:cx="574.27611"
     inkscape:cy="560"
     inkscape:document-units="mm"
     inkscape:current-layer="layer1"
     showgrid="false"
     inkscape:window-width="1920"
     inkscape:window-height="1017"
     inkscape:window-x="1358"
     inkscape:window-y="-8"
     inkscape:window-maximized="1" />
  <metadata
     id="metadata5">
    <rdf:RDF>
      <cc:Work
         rdf:about="">
        <dc:format>image/svg+xml</dc:format>
        <dc:type
           rdf:resource="http://purl.org/dc/dcmitype/StillImage" />
        <dc:title></dc:title>
      </cc:Work>
    </rdf:RDF>
  </metadata>
  <g
     inkscape:label="Laag 1"
     inkscape:groupmode="layer"
     id="layer1">
    <path
       style="font-style:normal;font-variant:normal;font-weight:normal;font-stretch:normal;font-size:11.28888893px;line-height:5.25;font-family:'Segoe MDL2 Assets';-inkscape-font-specification:'Segoe MDL2 Assets';letter-spacing:0px;word-spacing:0px;fill:#0f7b00;fill-opacity:1;stroke:none;stroke-width:0.99999994"
       d="M 447.44531 320.27148 L 446.07422 326.81836 L 443.48438 326.27539 L 442.80859 329.49609 L 445.39844 330.03906 L 442.85938 342.15234 C 442.28118 344.91186 442.46627 347.04274 443.41406 348.54688 C 444.36182 350.05099 445.99774 351.04614 448.32227 351.5332 C 448.98837 351.67278 449.75658 351.76998 450.625 351.82422 C 451.50703 351.88121 452.32756 351.89106 453.08789 351.85156 L 453.81055 348.4043 L 453.60742 348.36328 C 453.28276 348.42296 452.76056 348.47551 452.04102 348.52344 C 451.3243 348.55783 450.65267 348.50983 450.02734 348.37891 C 448.95343 348.15387 448.17613 347.86359 447.69727 347.50781 C 447.23488 347.14131 446.91176 346.65524 446.72656 346.04883 C 446.52285 345.39594 446.46341 344.73021 446.54883 344.05273 C 446.63689 343.36166 446.80583 342.41695 447.05664 341.2207 L 449.23242 330.8418 L 457.14258 332.5 L 457.81836 329.2793 L 449.90625 327.62109 L 451.27734 321.07617 L 447.44531 320.27148 z M 424.35742 323.95312 C 421.61651 324.07313 419.35186 325.06114 417.56641 326.91602 C 415.54035 329.0226 414.44369 331.96989 414.27539 335.75781 C 414.1072 339.54574 414.93827 342.5775 416.76953 344.85547 C 418.61466 347.13406 421.18229 348.34607 424.4707 348.49219 C 427.73138 348.63706 430.38191 347.65675 432.42188 345.55078 C 434.4618 343.44481 435.56607 340.49887 435.73438 336.71094 C 435.90256 332.923 435.06388 329.88992 433.21875 327.61133 C 431.37426 325.31886 428.82122 324.09995 425.56055 323.95508 C 425.14952 323.93694 424.74898 323.9358 424.35742 323.95312 z M 397.41602 325.41797 C 396.67013 325.39113 395.89275 325.43877 395.08594 325.56055 C 391.8312 326.05211 389.4073 327.53387 387.81445 330.00781 C 386.23325 332.46595 385.72672 335.57117 386.29297 339.32031 C 386.85918 343.06946 388.25948 345.88409 390.49609 347.76562 C 392.74646 349.64509 395.49917 350.33921 398.75391 349.84766 C 401.98121 349.36023 404.39336 347.886 405.98828 345.42578 C 407.5832 342.96557 408.09746 339.86048 407.53125 336.11133 C 406.96504 332.36218 405.55701 329.54938 403.30664 327.66992 C 401.61734 326.25003 399.65368 325.49877 397.41602 325.41797 z M 356.50977 327.30469 L 352.83398 328.65625 L 364.01367 359.08398 L 367.69141 357.73242 L 361.69922 341.42383 C 362.42045 340.28583 363.23733 339.2669 364.15039 338.36914 C 365.06345 337.47138 366.02157 336.83954 367.02539 336.4707 C 368.00315 336.11146 368.84918 335.95528 369.5625 336.00391 C 370.27103 336.03943 370.88892 336.27142 371.41602 336.69922 C 371.9109 337.07965 372.37921 337.69177 372.82227 338.53516 C 373.26055 339.36551 373.66437 340.28328 374.0332 341.28711 L 378.60156 353.72266 L 382.2793 352.37305 L 377.07031 338.19531 C 376.08834 335.52278 374.71568 333.70228 372.95508 332.73633 C 371.19447 331.77038 369.13505 331.72091 366.77539 332.58789 C 365.48476 333.06211 364.32399 333.79258 363.29492 334.77734 C 362.26588 335.76213 361.3542 336.94125 360.55664 338.31445 L 356.50977 327.30469 z M 424.63477 327.32617 C 424.88648 327.31446 425.1448 327.31446 425.41016 327.32617 C 427.5053 327.41926 429.11056 328.22683 430.22461 329.75 C 431.33927 331.2593 431.82911 333.52033 431.69531 336.53125 C 431.56454 339.47279 430.8692 341.66583 429.60938 343.11133 C 428.36402 344.54357 426.70237 345.21356 424.62109 345.12109 C 422.51208 345.0274 420.89992 344.20521 419.78711 342.6543 C 418.67487 341.0895 418.18301 338.84934 418.3125 335.93555 C 418.4463 332.92463 419.12914 330.71761 420.35938 329.3125 C 421.44852 328.07142 422.87328 327.40908 424.63477 327.32617 z M 397.08203 328.8125 C 398.50858 328.87622 399.74086 329.38809 400.78125 330.34766 C 402.16633 331.61334 403.08509 333.73475 403.53516 336.71484 C 403.97487 339.62627 403.71468 341.91267 402.75781 343.57422 C 401.81244 345.21997 400.30996 346.19864 398.25 346.50977 C 396.16253 346.82502 394.42257 346.33032 393.03125 345.02344 C 391.63789 343.70283 390.72462 341.60075 390.28906 338.7168 C 389.839 335.73671 390.08196 333.43847 391.01758 331.82227 C 391.96507 330.19025 393.48869 329.21578 395.58984 328.89844 C 396.10828 328.82013 396.60653 328.79126 397.08203 328.8125 z M 341.24805 337.58203 C 339.73724 337.82434 338.10243 338.26175 336.3457 338.89258 C 334.589 339.52341 332.793 340.42702 330.95703 341.60352 C 328.11541 343.42444 326.21989 345.62759 325.27148 348.21484 C 324.31557 350.7904 324.5401 353.1726 325.94141 355.35938 C 327.16285 357.26549 328.71069 358.45856 330.58594 358.93945 C 332.4654 359.40117 334.71946 359.13515 337.34961 358.14258 C 338.64548 357.64209 339.85201 357.14249 340.9668 356.64258 C 342.09327 356.13518 343.16839 355.71681 344.19531 355.38867 C 345.54785 354.95085 346.68223 354.82767 347.5957 355.01758 C 348.52091 355.20002 349.35383 355.86964 350.0957 357.02734 C 350.95749 358.37216 351.04483 359.8334 350.35742 361.41211 C 349.68169 362.98333 348.26692 364.45908 346.11523 365.83789 C 344.59501 366.81205 342.77887 367.55571 340.66602 368.06836 C 338.55313 368.58101 336.4848 368.71145 334.45898 368.45898 L 334.21289 368.61523 L 337 372.96484 C 338.9974 372.65814 340.8565 372.2021 342.57812 371.59375 C 344.31148 370.9779 346.1212 370.06582 348.00391 368.85938 C 349.758 367.73534 351.11811 366.56491 352.08789 365.34961 C 353.06938 364.12682 353.7882 362.84204 354.24414 361.49414 C 354.6556 360.25717 354.77847 358.99295 354.60938 357.69922 C 354.45188 356.398 354.04647 355.23808 353.39453 354.2207 C 352.19556 352.34967 350.7703 351.20818 349.12109 350.79688 C 347.47189 350.38557 345.5131 350.54406 343.24219 351.27344 C 342.12594 351.64232 340.80321 352.15237 339.27344 352.80273 C 337.74369 353.45308 336.55059 353.93608 335.69727 354.25195 C 334.07248 354.83125 332.78073 354.99056 331.82227 354.73047 C 330.8638 354.47036 330.03674 353.79651 329.33984 352.70898 C 328.56061 351.4928 328.48521 350.13962 329.11328 348.64844 C 329.75303 347.14977 331.002 345.80475 332.86133 344.61328 C 334.55695 343.52672 336.39179 342.74819 338.36523 342.27539 C 340.34291 341.7834 342.09931 341.63872 343.63281 341.84375 L 343.87891 341.6875 L 341.24805 337.58203 z M 484.23633 338 L 472.13281 357.875 L 475.47852 359.91211 L 484.51562 345.07227 C 485.85524 344.92861 487.11874 344.91018 488.30664 345.01562 C 489.50641 345.12829 490.56316 345.4633 491.47656 346.01953 C 492.43743 346.60466 493.09416 347.18231 493.44531 347.75391 C 493.80361 348.31364 493.96358 348.93119 493.92578 349.60742 C 493.8861 350.23362 493.65897 350.96656 493.24609 351.80469 C 492.85238 352.63818 492.38805 353.49326 491.85352 354.37109 L 484.96289 365.6875 L 488.30859 367.72461 L 496.05469 355.00195 C 496.27125 354.64607 496.4769 354.28439 496.66992 353.91406 C 496.87024 353.53188 497.0354 353.19295 497.16602 352.89844 C 498.5438 352.74548 499.84165 352.72206 501.06055 352.83008 C 502.28659 352.92627 503.36947 353.26136 504.30664 353.83203 C 505.26751 354.41716 505.92228 354.99481 506.27344 355.56641 C 506.62456 356.138 506.78194 356.76127 506.74414 357.4375 C 506.70446 358.0637 506.47733 358.79664 506.06445 359.63477 C 505.66352 360.48011 505.20373 361.32949 504.68359 362.18359 L 497.79102 373.5 L 501.13672 375.53711 L 508.99219 362.63672 C 510.43699 360.26422 511.03903 358.10282 510.79688 356.15039 C 510.57388 354.19332 509.37213 352.54987 507.18945 351.2207 C 505.92017 350.44776 504.5722 349.97753 503.14648 349.80859 C 501.72803 349.62778 499.99504 349.69448 497.94922 350.00977 C 498.1004 348.71973 497.87552 347.50082 497.27344 346.35352 C 496.683 345.21344 495.71169 344.23171 494.35938 343.4082 C 493.185 342.69306 491.92796 342.26067 490.58789 342.11133 C 489.25969 341.96922 487.80951 342.01385 486.23828 342.24414 L 487.58203 340.03711 L 484.23633 338 z M 522.33984 368.0293 C 519.29343 368.07488 516.39266 369.41079 513.63867 372.03711 C 510.85471 374.69219 509.45041 377.5276 509.42773 380.54297 C 509.4164 383.54871 510.74161 386.44794 513.40625 389.24219 C 514.45102 390.33776 515.58439 391.25398 516.80469 391.99023 C 518.02502 392.72652 519.29085 393.37971 520.60352 393.95117 L 523.69531 391.00391 L 523.55078 390.85352 C 522.63886 390.78284 521.39651 390.38518 519.82227 389.66016 C 518.26767 388.93562 516.94426 387.99935 515.85156 386.85352 C 515.02725 385.9891 514.3903 385.08068 513.94141 384.12695 C 513.50124 383.18328 513.27293 382.22103 513.25781 381.23828 C 513.23136 380.22586 513.45323 379.19825 513.91992 378.1582 C 514.39675 377.10855 515.1542 376.09078 516.18945 375.10352 L 528.02148 387.51172 L 529.55859 386.04492 C 532.00092 383.71575 533.29742 381.30035 533.44531 378.79883 C 533.60254 376.30732 532.59784 373.92587 530.43164 371.6543 C 528.09287 369.2018 525.39589 367.99377 522.33984 368.0293 z M 523.14453 371.37891 C 524.90175 371.43042 526.5038 372.21469 527.95117 373.73242 C 529.3889 375.2401 530.04995 376.74961 529.93555 378.25977 C 529.83085 379.77993 529.04048 381.25302 527.5625 382.68164 L 518.35938 373.0332 C 519.80111 371.88859 521.39688 371.33743 523.14453 371.37891 z M 288.04297 405.56445 C 287.05401 405.55689 286.11641 405.70767 285.22656 406.00977 C 282.85935 406.80252 281.03038 408.6298 279.74219 411.49219 C 278.35145 414.58256 278.24947 417.53603 279.43359 420.35352 C 280.62342 423.15838 282.95159 425.34057 286.42188 426.90234 C 289.93018 428.48124 293.08701 428.71468 295.88867 427.59961 C 298.67769 426.47879 300.86266 424.15769 302.44727 420.63672 C 303.06867 419.25621 303.49065 417.86089 303.71289 416.45312 C 303.93532 415.04533 304.06484 413.62651 304.09961 412.19531 L 300.20508 410.44336 L 300.11914 410.63281 C 300.39705 411.50422 300.49658 412.80571 300.41797 414.53711 C 300.3324 416.2501 299.96426 417.82763 299.31445 419.27148 C 298.82426 420.36071 298.22217 421.29325 297.50781 422.06836 C 296.79914 422.8308 295.99416 423.40408 295.08984 423.78906 C 294.16144 424.19366 293.12756 424.37649 291.98828 424.33594 C 290.83636 424.28983 289.60728 423.97387 288.30273 423.38672 L 295.33984 407.75 L 293.40234 406.87891 C 291.4788 406.01321 289.69123 405.57447 288.04297 405.56445 z M 287.76758 409.20312 C 288.77374 409.21068 289.86396 409.47679 291.03906 409.99609 L 285.56641 422.1543 C 283.96298 421.24989 282.85234 419.9802 282.23242 418.3457 C 281.61815 416.69851 281.74085 414.92029 282.60156 413.00781 C 283.45657 411.10803 284.60488 409.92577 286.04688 409.46289 C 286.58976 409.2845 287.16388 409.19783 287.76758 409.20312 z M 277.41797 434.8457 C 275.55268 434.80715 273.98266 435.15862 272.70703 435.90039 C 270.99443 436.87339 269.954 438.62511 269.58789 441.1543 C 269.3751 442.6251 269.47101 444.0501 269.875 445.42773 C 270.2653 446.80341 271.00685 448.36894 272.09961 450.12695 C 270.85365 450.49395 269.82094 451.17941 269.00195 452.18359 C 268.18494 453.17398 267.66427 454.4525 267.4375 456.01953 C 267.24051 457.38031 267.33615 458.70685 267.72461 459.99805 C 268.11508 461.27549 268.72439 462.59242 269.55273 463.94727 L 266.99609 463.57617 L 266.43555 467.45312 L 289.46484 470.78711 L 290.02734 466.91016 L 272.83008 464.42188 C 272.17229 463.24606 271.66015 462.09104 271.29102 460.95703 C 270.92391 459.80926 270.81556 458.7049 270.96875 457.64648 C 271.12991 456.53311 271.40501 455.70353 271.79297 455.15625 C 272.16718 454.6069 272.67375 454.21688 273.31055 453.98633 C 273.90217 453.77732 274.66281 453.69898 275.5957 453.75 C 276.51685 453.78402 277.48673 453.87641 278.50391 454.02344 L 291.61719 455.91992 L 292.17773 452.04492 L 277.43555 449.91016 C 277.0232 449.85044 276.60971 449.80594 276.19336 449.77344 C 275.76325 449.73942 275.38657 449.71976 275.06445 449.71484 C 274.38315 448.50759 273.85352 447.32173 273.47461 446.1582 C 273.08179 444.99275 272.96384 443.86715 273.12109 442.78125 C 273.28225 441.66784 273.55736 440.83833 273.94531 440.29102 C 274.33327 439.7437 274.84561 439.3536 275.48242 439.12305 C 276.07404 438.91404 276.83664 438.8357 277.76953 438.88672 C 278.70441 438.92451 279.66657 439.01338 280.65625 439.15625 L 293.76953 441.05469 L 294.33008 437.17773 L 279.38086 435.01562 C 278.69358 434.91622 278.03973 434.85855 277.41797 434.8457 z M 548.82617 474.37695 C 547.78975 476.11176 546.95827 477.83631 546.33008 479.55078 C 545.70014 481.27908 545.2504 483.25294 544.98047 485.47266 C 544.72875 487.54078 544.76146 489.3356 545.08008 490.85742 C 545.39718 492.39301 545.9295 493.76624 546.67773 494.97656 C 547.36882 496.08192 548.26622 496.97983 549.37109 497.67383 C 550.47426 498.38162 551.62666 498.80919 552.82617 498.95508 C 555.03213 499.22342 556.81961 498.85266 558.1875 497.84375 C 559.55542 496.83484 560.68147 495.22273 561.56641 493.00781 C 561.99342 491.91247 562.44439 490.56798 562.91797 488.97461 C 563.39158 487.38124 563.77784 486.15581 564.07812 485.29688 C 564.66705 483.67557 565.3665 482.57876 566.17773 482.00586 C 566.98893 481.43285 568.03615 481.22488 569.31836 481.38086 C 570.75227 481.5551 571.84281 482.35871 572.5918 483.79297 C 573.33912 485.24098 573.58106 487.0617 573.31445 489.25391 C 573.07143 491.25309 572.50255 493.16215 571.60938 494.98438 C 570.72833 496.82198 569.72112 498.26716 568.58594 499.31836 L 568.55078 499.60742 L 573.39062 500.19727 C 574.1666 498.87851 574.87065 497.33984 575.50391 495.58398 C 576.13717 493.82813 576.58637 491.86774 576.84961 489.70312 C 577.257 486.3528 576.76458 483.48897 575.375 481.10938 C 573.99921 478.73149 572.02356 477.38578 569.44531 477.07227 C 567.19801 476.79901 565.29024 477.23213 563.72461 478.37109 C 562.17115 479.52532 560.94035 481.43233 560.0293 484.0918 C 559.58925 485.40942 559.20594 486.65628 558.88086 487.83398 C 558.55393 489.02548 558.19056 490.12054 557.78906 491.12109 C 557.26462 492.44242 556.63667 493.39552 555.9082 493.97852 C 555.17804 494.57534 554.13056 494.79103 552.76562 494.625 C 551.18008 494.43224 549.99932 493.56702 549.2207 492.03125 C 548.44042 490.50923 548.20323 488.48025 548.51172 485.94336 C 548.7298 484.15103 549.31432 482.27726 550.26562 480.32227 C 551.21689 478.36723 552.43641 476.68945 553.92188 475.28906 L 553.95703 475 L 548.82617 474.37695 z M 291.77148 490.66406 L 288.33789 491.44336 L 288.38477 491.64648 C 288.57438 491.91672 288.84006 492.36981 289.18359 493.00391 C 289.51362 493.64106 289.74903 494.27155 289.89062 494.89453 C 290.13376 495.96448 290.19405 496.7914 290.07031 497.375 C 289.92998 497.94813 289.62244 498.44408 289.14844 498.86523 C 288.63994 499.32256 288.06146 499.65426 287.41016 499.85938 C 286.7453 500.06763 285.81681 500.30721 284.625 500.57812 L 274.2832 502.92773 L 272.49219 495.04688 L 269.2832 495.77539 L 271.07422 503.6582 L 264.55273 505.14062 L 265.42188 508.95898 L 271.94141 507.47656 L 272.5293 510.05664 L 275.73828 509.32812 L 275.15234 506.74805 L 287.21875 504.00391 C 289.96808 503.37896 291.82879 502.32259 292.80078 500.83398 C 293.77277 499.34542 293.99519 497.44286 293.46875 495.12695 C 293.31791 494.46331 293.08621 493.72606 292.77344 492.91406 C 292.45758 492.08854 292.12425 491.33878 291.77148 490.66406 z M 542.24414 504.03516 L 540.88086 507.70508 L 557.16797 513.75586 C 557.56395 515.0437 557.80609 516.32611 557.89453 517.60352 C 557.98297 518.88096 557.84122 520.02088 557.46875 521.02344 C 557.10592 521.99992 556.6745 522.74352 556.17383 523.25391 C 555.68616 523.76909 555.10914 524.08653 554.44141 524.20898 C 553.8306 524.33787 553.05972 524.29759 552.13086 524.08594 C 551.215 523.8792 550.25643 523.58916 549.25391 523.2168 L 536.83203 518.60352 L 535.46875 522.27539 L 549.62891 527.5332 C 552.29801 528.5245 554.57064 528.66686 556.44922 527.95703 C 558.32776 527.2472 559.70485 525.71403 560.58008 523.35742 C 561.05891 522.06845 561.25906 520.71119 561.17969 519.28906 C 561.10032 517.86694 560.79834 516.40694 560.27344 514.9082 L 571.26953 518.99219 L 572.63281 515.32031 L 542.24414 504.03516 z M 291.44336 511.56836 C 289.53949 511.55324 287.49746 512.00682 285.31641 512.93359 C 281.82672 514.41642 279.45064 516.48108 278.19141 519.12891 C 276.92001 521.7821 276.92267 524.61127 278.19922 527.61523 C 279.4865 530.64471 281.52742 532.62284 284.32031 533.54883 C 287.09499 534.4674 290.22711 534.18595 293.7168 532.70312 C 297.20648 531.22027 299.58298 529.1604 300.84766 526.52539 C 302.10697 523.8776 302.09391 521.03928 300.80664 518.00977 C 299.53019 515.0058 297.5008 513.03881 294.7207 512.10742 C 293.67817 511.75819 292.58568 511.57815 291.44336 511.56836 z M 292.26758 515.4668 C 292.78339 515.48947 293.27246 515.56719 293.73438 515.69531 C 295.56383 516.20067 296.88448 517.41269 297.69922 519.33008 C 298.52484 521.27306 298.4794 523.08075 297.56055 524.75391 C 296.62892 526.43247 294.82111 527.8418 292.13672 528.98242 C 289.36287 530.16107 287.07579 530.49953 285.27734 529.99609 C 283.46068 529.48529 282.13766 528.25068 281.30664 526.29492 C 280.48641 524.36475 280.52271 522.56852 281.41602 520.90625 C 282.29649 519.24938 284.12262 517.83298 286.89648 516.6543 C 288.92894 515.79071 290.72015 515.39431 292.26758 515.4668 z M 534.61523 531.41211 C 534.24938 531.42723 533.88476 531.46158 533.52344 531.51562 C 530.62511 531.95851 528.28384 533.56103 526.49805 536.32617 C 524.72738 539.06799 524.23488 541.85187 525.02344 544.67578 C 525.812 547.49973 527.79918 549.93905 530.98438 551.99609 C 534.16957 554.05306 537.21108 554.86089 540.10938 554.41797 C 543.01938 553.9826 545.36019 552.39416 547.13086 549.65234 C 548.91661 546.88717 549.40961 544.08928 548.60938 541.25781 C 547.81329 538.44554 545.82188 536.01013 542.63672 533.95312 C 539.84966 532.1532 537.17685 531.30689 534.61523 531.41211 z M 534.62891 535.20703 L 534.62891 535.20898 C 536.36091 535.25169 538.29946 535.96509 540.44336 537.34961 C 542.97519 538.98467 544.53677 540.68775 545.12891 542.45898 C 545.72516 544.24938 545.4479 546.03716 544.29492 547.82227 C 543.15713 549.58405 541.64866 550.56092 539.77148 550.75391 C 537.90595 550.9546 535.70757 550.23662 533.17578 548.60156 C 530.70231 547.00418 529.15893 545.29767 528.54688 543.48047 C 527.9389 541.68251 528.19992 539.90831 529.33008 538.1582 C 530.47539 536.3847 531.9979 535.40837 533.89844 535.23047 C 534.1373 535.20779 534.38146 535.20325 534.62891 535.20703 z M 305.04688 535.93164 C 302.47693 535.92408 299.83615 536.87486 297.125 538.78711 C 294.02652 540.97255 292.14128 543.49193 291.46875 546.3457 C 290.78488 549.20752 291.38439 551.97146 293.26562 554.63867 C 295.16286 557.32856 297.5727 558.83232 300.49805 559.14844 C 303.40405 559.46138 306.40741 558.52528 309.50586 556.33984 C 312.60434 554.15441 314.49329 551.63931 315.17383 548.79688 C 315.84633 545.94307 315.23513 543.17231 313.33789 540.48242 C 311.45665 537.81525 309.05852 536.31827 306.14453 535.99414 C 305.78026 535.9537 305.414 535.93277 305.04688 535.93164 z M 305.20703 539.71094 C 305.45399 539.69662 305.69627 539.69698 305.93555 539.71094 C 307.83043 539.81903 309.37735 540.72528 310.57812 542.42773 C 311.79492 544.1529 312.13125 545.93047 311.58594 547.75977 C 311.02927 549.59707 309.55923 551.35601 307.17578 553.03711 C 304.71289 554.77429 302.54971 555.58551 300.68555 555.47266 C 298.80201 555.35662 297.24823 554.42986 296.02344 552.69336 C 294.81465 550.97957 294.47154 549.2176 294.99414 547.4043 C 295.50541 545.59901 296.99219 543.82703 299.45508 542.08984 C 301.56046 540.6048 303.4783 539.81119 305.20703 539.71094 z M 517.13672 553.10938 C 514.64197 553.23901 512.38161 554.32599 510.35352 556.37109 C 508.05518 558.68859 507.00048 561.31044 507.18945 564.23633 C 507.37843 567.16217 508.81749 569.96093 511.50977 572.63086 C 514.20204 575.30083 517.0121 576.71829 519.93945 576.88281 C 522.87664 577.05743 525.49471 575.9855 527.79297 573.66797 C 530.11084 571.33075 531.17146 568.69345 530.97266 565.75781 C 530.77385 562.84179 529.32704 560.04884 526.63477 557.37891 C 523.94257 554.7089 521.13827 553.28767 518.2207 553.11328 C 517.85484 553.09438 517.49313 553.09048 517.13672 553.10938 z M 323.02344 554.04492 L 312.7793 565.14453 C 310.84841 567.23688 309.85603 569.28559 309.79883 571.29297 C 309.74172 573.30031 310.63696 575.15642 312.48438 576.86133 C 313.49485 577.79385 314.67197 578.49401 316.01758 578.96094 C 317.36319 579.42782 318.82824 579.70324 320.41406 579.78711 L 312.46094 588.40625 L 315.33789 591.06445 L 337.32422 567.24023 L 334.44531 564.58398 L 322.66211 577.35352 C 321.32046 577.2303 320.04147 576.96788 318.82617 576.56445 C 317.61088 576.1611 316.61014 575.59639 315.82422 574.87109 C 315.05874 574.16462 314.53581 573.4832 314.25391 572.82617 C 313.96262 572.17931 313.88697 571.52351 314.02734 570.85938 C 314.14031 570.24543 314.47087 569.54834 315.01953 568.76953 C 315.55877 568.00093 316.19073 567.22341 316.91602 566.4375 L 325.90234 556.70117 L 323.02344 554.04492 z M 517.12109 556.78516 C 517.35164 556.78557 517.58717 556.80009 517.82422 556.82617 C 519.73042 557.05408 521.71807 558.19425 523.78906 560.24805 C 525.92907 562.37033 527.10639 564.35959 527.32031 566.21484 C 527.53423 568.08975 526.8928 569.78215 525.39648 571.29102 C 523.91967 572.78 522.2438 573.42487 520.36719 573.22656 C 518.5004 573.03796 516.49743 571.88201 514.35742 569.75977 C 512.26678 567.68639 511.10874 565.69732 510.88477 563.79297 C 510.66102 561.90827 511.28298 560.22728 512.75 558.74805 C 514.05069 557.43648 515.50659 556.78225 517.12109 556.78516 z M 496.20898 570.24219 C 494.86317 570.32194 493.46578 570.88087 492.01758 571.91797 C 491.46426 572.31421 490.87338 572.81303 490.24609 573.41602 C 489.60747 574.02709 489.0458 574.62623 488.56055 575.21289 L 490.60938 578.07617 L 490.7793 577.95508 C 490.95504 577.67539 491.26928 577.25384 491.7207 576.69141 C 492.18014 576.14028 492.67003 575.67862 493.18945 575.30664 C 494.08154 574.66782 494.82031 574.29183 495.40625 574.17969 C 495.98902 574.08671 496.56484 574.1775 497.13672 574.45117 C 497.75543 574.74257 498.28707 575.14899 498.72852 575.66992 C 499.17798 576.20219 499.75714 576.96531 500.46875 577.95898 L 506.64258 586.58008 L 500.07227 591.28711 L 501.98828 593.96289 L 508.56055 589.25781 L 512.45312 594.69336 L 515.63867 592.41406 L 511.74414 586.97656 L 513.89453 585.43555 L 511.97852 582.75977 L 509.82812 584.30078 L 502.62305 574.24023 C 500.98148 571.94795 499.28605 570.64141 497.53711 570.32227 C 497.09986 570.24252 496.65761 570.21573 496.20898 570.24219 z M 346.10352 574.69531 C 345.36765 574.66886 344.6489 574.71058 343.94531 574.81641 C 342.65708 575.01634 341.47542 575.48633 340.40234 576.22852 C 339.31775 576.96341 338.47171 577.85592 337.86523 578.90039 C 336.75048 580.82183 336.38694 582.60937 336.77539 584.26367 C 337.16398 585.91839 338.20137 587.58957 339.88867 589.27539 C 340.7273 590.09933 341.78447 591.04255 343.0625 592.10547 C 344.34054 593.16835 345.31514 594.00673 345.98633 594.62109 C 347.24461 595.80099 347.97842 596.87639 348.18555 597.84766 C 348.39266 598.81899 348.17194 599.86332 347.52344 600.98047 C 346.7984 602.22983 345.62896 602.91562 344.01562 603.03906 C 342.3903 603.15547 340.62286 602.66108 338.71289 601.55273 C 336.97109 600.54182 335.43831 599.2672 334.11523 597.72852 C 332.77317 596.1949 331.84333 594.6977 331.32422 593.24023 L 331.07227 593.0957 L 328.625 597.31055 C 329.53151 598.54324 330.66677 599.79669 332.03125 601.07031 C 333.39574 602.34398 335.02029 603.52853 336.90625 604.62305 C 339.82526 606.31714 342.65216 606.9943 345.38672 606.6543 C 348.11431 606.32623 350.12993 605.03929 351.43359 602.79297 C 352.56996 600.83491 352.92423 598.91097 352.49414 597.02344 C 352.04508 595.14089 350.77707 593.25794 348.69141 591.37305 C 347.65362 590.44959 346.65757 589.60642 345.70312 588.84375 C 344.73667 588.07409 343.87283 587.30801 343.11133 586.54492 C 342.10336 585.5424 341.4755 584.59063 341.22656 583.69141 C 340.96562 582.78523 341.17895 581.73809 341.86914 580.54883 C 342.67088 579.16749 343.93209 578.4214 345.65039 578.31055 C 347.3567 578.19263 349.3151 578.77578 351.52539 580.05859 C 353.08702 580.96489 354.57772 582.24033 356 583.88477 C 357.42229 585.52916 358.48542 587.30959 359.1875 589.22656 L 359.43945 589.37305 L 362.0332 584.9043 C 360.84688 583.26833 359.58822 581.82304 358.25977 580.57031 C 356.91932 579.3106 355.28362 578.12045 353.34961 576.99805 C 351.54776 575.95233 349.88368 575.27527 348.35938 574.96875 C 347.59122 574.8119 346.83939 574.72101 346.10352 574.69531 z M 471.21484 585.11719 L 467.45117 586.19922 L 472.24805 602.89844 C 471.44645 603.98131 470.6048 604.92398 469.72266 605.72656 C 468.82717 606.53292 467.86573 607.08361 466.83789 607.37891 C 465.75661 607.68958 464.88687 607.78092 464.22852 607.65234 C 463.57398 607.53707 463.01101 607.23578 462.53906 606.75 C 462.10532 606.29657 461.71987 605.63504 461.38281 604.76367 C 461.03623 603.9095 460.7213 602.98786 460.4375 602 L 456.77734 589.26562 L 453.01367 590.34766 L 457.12695 604.66406 C 457.24185 605.06454 457.36999 605.46071 457.51172 605.85352 C 457.65723 606.25966 457.79367 606.61073 457.92188 606.90625 C 457.10126 608.02352 456.23895 608.99285 455.33398 609.81641 C 454.43279 610.65334 453.45495 611.22438 452.40039 611.52734 C 451.31911 611.83802 450.44937 611.92936 449.79102 611.80078 C 449.13266 611.6719 448.56761 611.36469 448.0957 610.87891 C 447.66196 610.42548 447.27651 609.762 446.93945 608.89062 C 446.58909 608.02311 446.27609 607.10957 446 606.14844 L 442.3418 593.41406 L 438.57617 594.49414 L 442.74805 609.01172 C 443.51506 611.6815 444.69842 613.58817 446.29883 614.73242 C 447.88971 615.89387 449.9129 616.12165 452.36914 615.41602 C 453.79746 615.00567 455.05658 614.33293 456.14648 613.39844 C 457.2402 612.47729 458.36399 611.15812 459.51758 609.43945 C 460.36419 610.42451 461.41405 611.08401 462.66602 611.41797 C 463.90468 611.75548 465.28485 611.70487 466.80664 611.26758 C 468.12815 610.88789 469.29697 610.25588 470.31445 609.37109 C 471.31856 608.49016 472.26738 607.39398 473.16211 606.08203 L 473.87695 608.56445 L 477.64062 607.48438 L 471.21484 585.11719 z M 420.1875 594.3418 C 418.67414 594.38148 417.23385 594.60674 415.86914 595.01758 C 414.50443 595.42841 413.1697 595.92771 411.86523 596.51758 L 411.97852 600.78711 L 412.18555 600.7832 C 412.84987 600.15452 413.9784 599.50116 415.57227 598.82031 C 417.15256 598.15368 418.73557 597.79916 420.31836 597.75781 C 421.51243 597.72758 422.61272 597.86475 423.62109 598.17188 C 424.6156 598.47915 425.48327 598.95593 426.22266 599.60352 C 426.9902 600.26421 427.60254 601.11621 428.06055 602.16016 C 428.51904 603.21797 428.76738 604.46248 428.80469 605.89258 L 411.66406 606.3418 L 411.7207 608.46289 C 411.80914 611.83672 412.73258 614.41901 414.48828 616.20703 C 416.23008 617.99547 418.66884 618.84775 421.80664 618.76562 C 425.19438 618.67718 427.90166 617.48713 429.92578 615.19727 C 431.93604 612.90782 432.89053 609.86092 432.79102 606.05664 C 432.69048 602.21078 431.52941 599.26836 429.30859 597.22852 C 427.0882 595.2025 424.04922 594.24077 420.18945 594.3418 L 420.1875 594.3418 z M 428.88281 608.89062 C 428.76414 610.7277 428.10375 612.28083 426.90039 613.54883 C 425.68312 614.81716 424.02615 615.47829 421.92969 615.5332 C 419.84705 615.58763 418.28316 615.06685 417.24023 613.96875 C 416.18321 612.87102 415.62219 611.29475 415.55469 609.24023 L 428.88281 608.89062 z "
       transform="scale(0.26458333)"
       id="path835" />
  </g>
</svg>
