<?xml version="1.0" encoding="UTF-8" standalone="no"?>
<!-- Created with Inkscape (http://www.inkscape.org/) -->

<svg
   xmlns:osb="http://www.openswatchbook.org/uri/2009/osb"
   xmlns:dc="http://purl.org/dc/elements/1.1/"
   xmlns:cc="http://creativecommons.org/ns#"
   xmlns:rdf="http://www.w3.org/1999/02/22-rdf-syntax-ns#"
   xmlns:svg="http://www.w3.org/2000/svg"
   xmlns="http://www.w3.org/2000/svg"
   xmlns:sodipodi="http://sodipodi.sourceforge.net/DTD/sodipodi-0.dtd"
   xmlns:inkscape="http://www.inkscape.org/namespaces/inkscape"
   width="100"
   height="500"
   viewBox="0 0 26.458334 132.29166"
   version="1.1"
   id="svg8"
   inkscape:version="0.92.4 (5da689c313, 2019-01-14)"
   sodipodi:docname="Sofskills.svg">
  <defs
     id="defs2">
    <linearGradient
       id="linearGradient898"
       osb:paint="solid">
      <stop
         style="stop-color:#000000;stop-opacity:1;"
         offset="0"
         id="stop896" />
    </linearGradient>
  </defs>
  <sodipodi:namedview
     id="base"
     pagecolor="#ffffff"
     bordercolor="#666666"
     borderopacity="1.0"
     inkscape:pageopacity="0.0"
     inkscape:pageshadow="2"
     inkscape:zoom="0.76095916"
     inkscape:cx="-528.57143"
     inkscape:cy="436.55905"
     inkscape:document-units="mm"
     inkscape:current-layer="layer1"
     showgrid="false"
     inkscape:window-width="1920"
     inkscape:window-height="1017"
     inkscape:window-x="1358"
     inkscape:window-y="-8"
     inkscape:window-maximized="1"
     units="px" />
  <metadata
     id="metadata5">
    <rdf:RDF>
      <cc:Work
         rdf:about="">
        <dc:format>image/svg+xml</dc:format>
        <dc:type
           rdf:resource="http://purl.org/dc/dcmitype/StillImage" />
        <dc:title></dc:title>
      </cc:Work>
    </rdf:RDF>
  </metadata>
  <g
     inkscape:label="Laag 1"
     inkscape:groupmode="layer"
     id="layer1"
     transform="translate(0,-164.70834)">
    <flowRoot
       xml:space="preserve"
       id="flowRoot819"
       style="font-style:normal;font-weight:normal;font-size:96px;line-height:1.25;font-family:sans-serif;letter-spacing:0px;word-spacing:0px;fill:#000000;fill-opacity:1;stroke:none"
       transform="scale(0.26458333)"><flowRegion
         id="flowRegion821"
         style="font-size:96px"><rect
           id="rect823"
           width="565.71429"
           height="402.85715"
           x="102.85714"
           y="279.66254"
           style="font-size:96px" /></flowRegion><flowPara
         id="flowPara825"></flowPara></flowRoot>    <flowRoot
       xml:space="preserve"
       id="flowRoot835"
       style="font-style:normal;font-weight:normal;font-size:40px;line-height:1.25;font-family:sans-serif;letter-spacing:0px;word-spacing:0px;fill:#000000;fill-opacity:1;stroke:none"
       transform="scale(0.26458333)"><flowRegion
         id="flowRegion837"><rect
           id="rect839"
           width="317.14285"
           height="162.85716"
           x="82.85714"
           y="408.23398" /></flowRegion><flowPara
         id="flowPara841"></flowPara></flowRoot>    <flowRoot
       xml:space="preserve"
       id="flowRoot876"
       style="font-style:normal;font-weight:normal;font-size:40px;line-height:1.25;font-family:sans-serif;letter-spacing:0px;word-spacing:0px;fill:#000000;fill-opacity:1;stroke:none"
       transform="matrix(0.26458333,0,0,0.26458333,0,270.54167)"><flowRegion
         id="flowRegion878"><rect
           id="rect880"
           width="100"
           height="97.14286"
           x="151.42857"
           y="60" /></flowRegion><flowPara
         id="flowPara882"></flowPara></flowRoot>    <flowRoot
       xml:space="preserve"
       id="flowRoot934"
       style="font-style:normal;font-weight:normal;font-size:40px;line-height:1.25;font-family:sans-serif;letter-spacing:0px;word-spacing:0px;fill:#000000;fill-opacity:1;stroke:none"
       transform="matrix(0.26458333,0,0,0.26458333,0,164.70834)"><flowRegion
         id="flowRegion936"><rect
           id="rect938"
           width="78.847862"
           height="478.34369"
           x="10.513048"
           y="8.5150156" /></flowRegion><flowPara
         id="flowPara940">Softskills</flowPara></flowRoot>    <path
       id="path968"
       style="font-style:normal;font-variant:normal;font-weight:normal;font-stretch:normal;font-size:40px;line-height:1.25;font-family:'Agency FB';-inkscape-font-specification:'Agency FB';letter-spacing:0px;word-spacing:0px;fill:#ff2800;fill-opacity:1;stroke:none;stroke-width:0.64244288"
       d="m 23.341746,237.54732 q 1.75638,-0.0122 1.765774,1.1324 l 0.02536,3.08933 q 0.0094,1.14457 -1.746985,1.15675 l -3.435045,0.0238 -0.01089,-1.32689 3.403958,-0.0236 -0.02237,-2.72469 -3.015378,0.0209 -4.400876,3.55558 q -0.61757,0.51076 -1.612334,0.51765 l -2.517997,0.0174 q -1.75638,0.0122 -1.765775,-1.1324 l -0.025025,-3.04881 q -0.00939,-1.14457 1.746986,-1.15674 l 3.015378,-0.0209 0.01072,1.30663 -2.984292,0.0207 0.02237,2.72468 2.642341,-0.0183 4.400627,-3.58596 q 0.60211,-0.50053 1.643504,-0.50775 z m 1.818651,7.57441 0.01089,1.32689 -24.32508923,0.1686 -0.0108912,-1.32689 z m 0.03026,3.68694 0.01089,1.32689 -24.32508959,0.1686 -0.0108912,-1.32689 z m -18.4041283,3.79445 0.011224,1.36741 -2.6112556,0.0181 -0.011224,-1.3674 z m 18.4343903,-0.1075 0.01089,1.32689 -15.123522,0.10483 -0.01089,-1.32689 z m 0.02336,2.84622 0.01206,1.46869 -7.687139,2.768 7.709421,-0.0534 0.01106,1.34715 -24.32508921,0.1686 -0.0110575,-1.34715 15.44992871,-0.10708 -6.269146,-2.48893 -0.01189,-1.44844 0.06218,-4.3e-4 6.707099,2.82017 z m -1.69336,7.68991 q 1.75638,-0.0122 1.765774,1.1324 l 0.02536,3.08933 q 0.0094,1.14457 -1.746986,1.15674 l -3.435044,0.0238 -0.01089,-1.32689 3.403957,-0.0236 -0.02236,-2.72469 -3.015378,0.0209 -4.400876,3.55558 q -0.61757,0.51075 -1.612334,0.51765 l -2.517997,0.0174 q -1.75638,0.0122 -1.765775,-1.1324 l -0.02502,-3.04881 q -0.0094,-1.14457 1.746985,-1.15674 l 3.015379,-0.0209 0.01072,1.30663 -2.984292,0.0207 0.02237,2.72469 2.642341,-0.0183 4.400627,-3.58597 q 0.60211,-0.50052 1.643504,-0.50773 z m 1.814078,7.01732 0.01571,1.91437 q 0.0093,1.13444 -1.747068,1.14661 l -11.548589,0.08 0.0097,1.18509 -1.818553,0.0126 -0.0097,-1.18509 -4.7095881,0.0326 -0.010891,-1.32689 4.7095871,-0.0326 -0.01413,-1.72192 1.818552,-0.0126 0.01413,1.72192 11.486416,-0.0796 -0.01413,-1.72192 z m -22.4674579,4.9166 0.01563,1.90424 7.3830119,-0.0512 -0.0138,-1.68141 1.818553,-0.0126 0.0138,1.6814 13.304969,-0.0922 0.01089,1.32689 -13.304969,0.0922 0.0094,1.14458 -1.818553,0.0126 -0.0094,-1.14457 -7.4451885,0.0516 q -1.7563792,0.0122 -1.7656908,-1.12227 l -0.01721,-2.09669 z m 20.7987899,5.78161 q 1.75638,-0.0122 1.765775,1.1324 l 0.02777,3.38307 q 0.0093,1.13444 -1.747068,1.14661 l -11.610762,0.0805 q -1.75638,0.0122 -1.765691,-1.12227 l -0.02777,-3.38307 q -0.0094,-1.14457 1.746985,-1.15674 z m -0.05112,1.34758 -11.486416,0.0796 0.02436,2.96778 11.486416,-0.0796 z m 0.147803,6.64394 q 0.761616,-0.005 1.246032,0.30538 0.484333,0.30053 0.488407,0.79685 l 0.03276,3.99081 q 0.0041,0.49631 -0.475105,0.82378 -0.479261,0.31734 -1.240878,0.32262 l -6.170645,0.0428 -0.01156,-1.40793 5.984127,-0.0415 -0.0281,-3.42359 -5.797609,0.0402 -8.0776277,4.43194 Q 8.907227,295.08177 7.89692,295.08877 l -4.9271903,0.0342 q -0.7616152,0.005 -1.2460323,-0.30538 -0.4845003,-0.32079 -0.4885741,-0.8171 l -0.032757,-3.99081 q -0.00407,-0.49632 0.4752719,-0.80353 0.4792625,-0.31733 1.2408777,-0.32261 l 5.6577203,-0.0392 0.011556,1.40793 -5.471206,0.0379 0.028101,3.42358 5.1292555,-0.0356 8.0774613,-4.45219 q 0.804671,-0.44115 1.814978,-0.44816 z" />
  </g>
</svg>
