<?xml version="1.0" encoding="UTF-8" standalone="no"?>
<!-- Created with Inkscape (http://www.inkscape.org/) -->

<svg
   xmlns:dc="http://purl.org/dc/elements/1.1/"
   xmlns:cc="http://creativecommons.org/ns#"
   xmlns:rdf="http://www.w3.org/1999/02/22-rdf-syntax-ns#"
   xmlns:svg="http://www.w3.org/2000/svg"
   xmlns="http://www.w3.org/2000/svg"
   xmlns:sodipodi="http://sodipodi.sourceforge.net/DTD/sodipodi-0.dtd"
   xmlns:inkscape="http://www.inkscape.org/namespaces/inkscape"
   width="500"
   height="100"
   viewBox="0 0 132.29166 26.458334"
   version="1.1"
   id="svg8"
   inkscape:version="0.92.4 (5da689c313, 2019-01-14)"
   sodipodi:docname="ss-1.svg">
  <defs
     id="defs2" />
  <sodipodi:namedview
     id="base"
     pagecolor="#ffffff"
     bordercolor="#666666"
     borderopacity="1.0"
     inkscape:pageopacity="0.0"
     inkscape:pageshadow="2"
     inkscape:zoom="1.3249068"
     inkscape:cx="-9.2937966"
     inkscape:cy="251.30524"
     inkscape:document-units="px"
     inkscape:current-layer="layer1"
     showgrid="false"
     units="px"
     inkscape:window-width="1920"
     inkscape:window-height="1017"
     inkscape:window-x="1358"
     inkscape:window-y="-8"
     inkscape:window-maximized="1" />
  <metadata
     id="metadata5">
    <rdf:RDF>
      <cc:Work
         rdf:about="">
        <dc:format>image/svg+xml</dc:format>
        <dc:type
           rdf:resource="http://purl.org/dc/dcmitype/StillImage" />
        <dc:title></dc:title>
      </cc:Work>
    </rdf:RDF>
  </metadata>
  <g
     inkscape:label="Laag 1"
     inkscape:groupmode="layer"
     id="layer1"
     transform="translate(0,-270.54165)">
    <path
       style="font-style:normal;font-variant:normal;font-weight:normal;font-stretch:normal;font-size:37.33333206px;line-height:1.25;font-family:'Segoe MDL2 Assets';-inkscape-font-specification:'Segoe MDL2 Assets';letter-spacing:0px;word-spacing:0px;fill:#ffbc42;fill-opacity:1;stroke:none;stroke-width:0.99999994"
       d="M 233.75 33.476562 C 231.75694 33.476562 229.94141 33.786458 228.30078 34.40625 C 226.67231 35.026042 225.27951 35.924681 224.125 37.103516 C 222.93403 38.318785 222.02257 39.808171 221.39062 41.570312 C 220.75868 43.332479 220.44336 45.330287 220.44336 47.566406 C 220.44336 49.924025 220.77148 51.996746 221.42773 53.783203 C 222.08398 55.557515 222.99544 57.021262 224.16211 58.175781 C 225.35308 59.354591 226.7513 60.224161 228.35547 60.783203 C 229.97179 61.330076 231.76367 61.603516 233.73242 61.603516 C 234.77756 61.603516 235.7309 61.517735 236.59375 61.347656 C 237.46875 61.189571 238.27821 60.996428 239.01953 60.765625 C 239.89453 60.486116 240.59809 60.218084 241.13281 59.962891 C 241.67969 59.707672 242.28863 59.434257 242.95703 59.142578 L 242.95703 54.914062 L 242.70117 54.914062 C 241.37652 56.105042 239.95464 56.998273 238.43555 57.59375 C 236.91645 58.189227 235.28863 58.486328 233.55078 58.486328 C 232.28689 58.486328 231.08377 58.273004 229.94141 57.847656 C 228.8112 57.410163 227.81945 56.743051 226.96875 55.84375 C 226.15451 54.980909 225.48741 53.86156 224.96484 52.488281 C 224.45443 51.115028 224.19922 49.474387 224.19922 47.566406 C 224.19922 45.74349 224.42882 44.13933 224.89062 42.753906 C 225.36458 41.356338 226.02083 40.202487 226.85938 39.291016 C 227.72222 38.355255 228.70117 37.667962 229.79492 37.230469 C 230.90082 36.780806 232.14041 36.556641 233.51367 36.556641 C 235.19076 36.556641 236.76389 36.842875 238.23438 37.414062 C 239.70486 37.98525 241.1888 38.896708 242.68359 40.148438 L 242.95703 40.148438 L 242.95703 35.863281 C 241.18273 34.976125 239.56576 34.356335 238.10742 34.003906 C 236.66124 33.651478 235.20833 33.476562 233.75 33.476562 z M 258.30469 33.96875 L 256.39062 41.660156 L 250.13867 41.660156 L 250.13867 44.121094 L 255.75391 44.121094 L 254.07617 50.976562 L 248.00586 50.976562 L 248.00586 53.4375 L 253.4375 53.4375 L 251.54297 61.111328 L 253.89453 61.111328 L 255.78906 53.4375 L 260.71094 53.4375 L 258.81641 61.111328 L 261.16797 61.111328 L 263.0625 53.4375 L 269.31641 53.4375 L 269.31641 50.976562 L 263.70117 50.976562 L 265.37891 44.121094 L 271.44922 44.121094 L 271.44922 41.660156 L 266.01562 41.660156 L 267.92969 33.96875 L 265.57812 33.96875 L 263.66406 41.660156 L 258.74219 41.660156 L 260.65625 33.96875 L 258.30469 33.96875 z M 258.08594 44.083984 L 263.08203 44.083984 L 261.36719 51.011719 L 256.37305 51.011719 L 258.08594 44.083984 z "
       transform="matrix(0.26458333,0,0,0.26458333,0,270.54165)"
       id="path819" />
  </g>
</svg>
