<?xml version="1.0" encoding="UTF-8" standalone="no"?>
<!-- Created with Inkscape (http://www.inkscape.org/) -->

<svg
   xmlns:dc="http://purl.org/dc/elements/1.1/"
   xmlns:cc="http://creativecommons.org/ns#"
   xmlns:rdf="http://www.w3.org/1999/02/22-rdf-syntax-ns#"
   xmlns:svg="http://www.w3.org/2000/svg"
   xmlns="http://www.w3.org/2000/svg"
   xmlns:sodipodi="http://sodipodi.sourceforge.net/DTD/sodipodi-0.dtd"
   xmlns:inkscape="http://www.inkscape.org/namespaces/inkscape"
   width="500"
   height="100"
   viewBox="0 0 132.29166 26.458334"
   version="1.1"
   id="svg8"
   inkscape:version="0.92.4 (5da689c313, 2019-01-14)"
   sodipodi:docname="ss-3.svg">
  <defs
     id="defs2" />
  <sodipodi:namedview
     id="base"
     pagecolor="#ffffff"
     bordercolor="#666666"
     borderopacity="1.0"
     inkscape:pageopacity="0.0"
     inkscape:pageshadow="2"
     inkscape:zoom="1.3249068"
     inkscape:cx="-9.2937966"
     inkscape:cy="251.30524"
     inkscape:document-units="px"
     inkscape:current-layer="layer1"
     showgrid="false"
     units="px"
     inkscape:window-width="1920"
     inkscape:window-height="1017"
     inkscape:window-x="1358"
     inkscape:window-y="-8"
     inkscape:window-maximized="1" />
  <metadata
     id="metadata5">
    <rdf:RDF>
      <cc:Work
         rdf:about="">
        <dc:format>image/svg+xml</dc:format>
        <dc:type
           rdf:resource="http://purl.org/dc/dcmitype/StillImage" />
        <dc:title></dc:title>
      </cc:Work>
    </rdf:RDF>
  </metadata>
  <g
     inkscape:label="Laag 1"
     inkscape:groupmode="layer"
     id="layer1"
     transform="translate(0,-270.54165)">
    <path
       style="font-style:normal;font-variant:normal;font-weight:normal;font-stretch:normal;font-size:37.33333206px;line-height:1.25;font-family:'Segoe MDL2 Assets';-inkscape-font-specification:'Segoe MDL2 Assets';letter-spacing:0px;word-spacing:0px;fill:#0496ff;fill-opacity:1;stroke:none;stroke-width:0.99999994"
       d="M 251.01367 32.650391 C 249.14215 32.650391 247.41037 32.965694 245.81836 33.597656 C 244.2385 34.229593 242.9132 35.141077 241.84375 36.332031 C 240.7257 37.583786 239.87435 39.091374 239.29102 40.853516 C 238.70768 42.603512 238.41602 44.583117 238.41602 46.794922 C 238.41602 49.043186 238.70768 51.042972 239.29102 52.792969 C 239.8865 54.542991 240.73242 56.019532 241.82617 57.222656 C 242.91992 58.425781 244.24327 59.342672 245.79883 59.974609 C 247.36654 60.606546 249.10569 60.923828 251.01367 60.923828 C 251.26888 60.923828 251.52951 60.909962 251.79688 60.884766 C 252.07639 60.872671 252.36263 60.843552 252.6543 60.794922 C 252.76367 62.958122 253.45638 64.61699 254.73242 65.771484 C 256.02062 66.938149 257.72135 67.521484 259.83594 67.521484 C 260.57726 67.521484 261.301 67.477743 262.00586 67.392578 C 262.72287 67.319558 263.44466 67.191939 264.17383 67.009766 L 264.17383 63.693359 L 263.68164 63.693359 C 263.38997 63.814833 262.89779 63.949813 262.20508 64.095703 C 261.52452 64.253687 260.93577 64.332031 260.4375 64.332031 C 258.83333 64.332031 257.72678 63.949225 257.11914 63.183594 C 256.5115 62.417962 256.18337 61.34243 256.13477 59.957031 C 258.41949 59.04556 260.23698 57.454195 261.58594 55.181641 C 262.94705 52.909061 263.62695 50.112642 263.62695 46.794922 C 263.62695 44.558827 263.32986 42.560995 262.73438 40.798828 C 262.15104 39.036686 261.30707 37.547326 260.20117 36.332031 C 259.11957 35.153222 257.7997 34.247171 256.24414 33.615234 C 254.70074 32.971127 252.95812 32.650391 251.01367 32.650391 z M 223.5957 32.720703 C 220.64258 32.720703 218.20725 33.44986 216.28711 34.908203 C 214.36697 36.354376 213.40625 38.213749 213.40625 40.486328 C 213.40625 42.467229 213.98416 44.076822 215.13867 45.316406 C 216.30534 46.54382 218.0918 47.41339 220.49805 47.923828 C 221.68902 48.166877 222.81185 48.367406 223.86914 48.525391 C 224.93859 48.683274 225.93034 48.883804 226.8418 49.126953 C 228.04492 49.442922 228.93815 49.885844 229.52148 50.457031 C 230.11697 51.028219 230.41406 51.916016 230.41406 53.119141 C 230.41406 54.516709 229.78885 55.634105 228.53711 56.472656 C 227.29753 57.311182 225.55838 57.730469 223.32227 57.730469 C 221.7424 57.730469 220.05447 57.420573 218.25586 56.800781 C 216.45725 56.180989 214.87131 55.300553 213.49805 54.158203 L 213.24219 54.158203 L 213.24219 58.679688 C 214.85851 59.396689 216.44444 59.936208 218 60.300781 C 219.56771 60.66538 221.33051 60.847656 223.28711 60.847656 C 225.11003 60.847656 226.66493 60.628899 227.95312 60.191406 C 229.25347 59.753888 230.38911 59.146917 231.36133 58.369141 C 232.24848 57.652139 232.93576 56.777136 233.42188 55.744141 C 233.92014 54.711145 234.16992 53.66666 234.16992 52.609375 C 234.16992 50.664934 233.6595 49.151913 232.63867 48.070312 C 231.61784 46.988712 230.09744 46.179259 228.08008 45.644531 C 227.08355 45.389438 225.86958 45.141587 224.43555 44.898438 C 223.00152 44.655313 221.89496 44.447422 221.11719 44.277344 C 219.6467 43.93706 218.62044 43.444863 218.03711 42.800781 C 217.45378 42.156674 217.16211 41.27083 217.16211 40.140625 C 217.16211 38.876726 217.74544 37.843082 218.91211 37.041016 C 220.09093 36.238924 221.64583 35.837891 223.57812 35.837891 C 225.34028 35.837891 227.05925 36.129558 228.73633 36.712891 C 230.42557 37.284078 231.78733 38.007827 232.82031 38.882812 L 233.07617 38.882812 L 233.07617 34.617188 C 231.84874 34.08246 230.43772 33.632151 228.8457 33.267578 C 227.25369 32.90298 225.50369 32.720703 223.5957 32.720703 z M 269.35156 33.212891 L 269.35156 60.355469 L 286.52344 60.355469 L 286.52344 57.148438 L 272.96094 57.148438 L 272.96094 33.212891 L 269.35156 33.212891 z M 251.03125 35.765625 C 253.76562 35.765625 255.92209 36.724405 257.50195 38.644531 C 259.08181 40.552512 259.87305 43.26866 259.87305 46.792969 C 259.87305 50.353737 259.07096 53.082679 257.4668 54.978516 C 255.87478 56.862182 253.72916 57.804688 251.03125 57.804688 C 248.33333 57.804687 246.18229 56.862182 244.57812 54.978516 C 242.97396 53.082679 242.17188 50.353737 242.17188 46.792969 C 242.17188 43.26866 242.95573 40.552512 244.52344 38.644531 C 246.1033 36.724405 248.27257 35.765625 251.03125 35.765625 z "
       transform="matrix(0.26458333,0,0,0.26458333,0,270.54165)"
       id="path819" />
  </g>
</svg>
