<?xml version="1.0" encoding="UTF-8" standalone="no"?>
<!-- Created with Inkscape (http://www.inkscape.org/) -->

<svg
   xmlns:dc="http://purl.org/dc/elements/1.1/"
   xmlns:cc="http://creativecommons.org/ns#"
   xmlns:rdf="http://www.w3.org/1999/02/22-rdf-syntax-ns#"
   xmlns:svg="http://www.w3.org/2000/svg"
   xmlns="http://www.w3.org/2000/svg"
   xmlns:sodipodi="http://sodipodi.sourceforge.net/DTD/sodipodi-0.dtd"
   xmlns:inkscape="http://www.inkscape.org/namespaces/inkscape"
   width="500"
   height="100"
   viewBox="0 0 132.29166 26.458334"
   version="1.1"
   id="svg8"
   inkscape:version="0.92.4 (5da689c313, 2019-01-14)"
   sodipodi:docname="ss-5.svg">
  <defs
     id="defs2" />
  <sodipodi:namedview
     id="base"
     pagecolor="#ffffff"
     bordercolor="#666666"
     borderopacity="1.0"
     inkscape:pageopacity="0.0"
     inkscape:pageshadow="2"
     inkscape:zoom="1.3249068"
     inkscape:cx="-9.2937966"
     inkscape:cy="251.30524"
     inkscape:document-units="px"
     inkscape:current-layer="layer1"
     showgrid="false"
     units="px"
     inkscape:window-width="1920"
     inkscape:window-height="1017"
     inkscape:window-x="1358"
     inkscape:window-y="-8"
     inkscape:window-maximized="1" />
  <metadata
     id="metadata5">
    <rdf:RDF>
      <cc:Work
         rdf:about="">
        <dc:format>image/svg+xml</dc:format>
        <dc:type
           rdf:resource="http://purl.org/dc/dcmitype/StillImage" />
        <dc:title></dc:title>
      </cc:Work>
    </rdf:RDF>
  </metadata>
  <g
     inkscape:label="Laag 1"
     inkscape:groupmode="layer"
     id="layer1"
     transform="translate(0,-270.54165)">
    <path
       style="font-style:normal;font-variant:normal;font-weight:normal;font-stretch:normal;font-size:37.33333206px;line-height:1.25;font-family:'Segoe MDL2 Assets';-inkscape-font-specification:'Segoe MDL2 Assets';letter-spacing:0px;word-spacing:0px;fill:#2e85b6;fill-opacity:1;stroke:none;stroke-width:0.99999994"
       d="M 229.51562 35.740234 C 227.52257 35.740234 225.70703 36.05013 224.06641 36.669922 C 222.43793 37.289714 221.04514 38.188353 219.89062 39.367188 C 218.69965 40.582457 217.78819 42.071843 217.15625 43.833984 C 216.52431 45.596151 216.20898 47.595912 216.20898 49.832031 C 216.20898 52.18965 216.53711 54.260418 217.19336 56.046875 C 217.84961 57.821187 218.76107 59.286887 219.92773 60.441406 C 221.11871 61.620216 222.51693 62.487832 224.12109 63.046875 C 225.73741 63.593747 227.5293 63.867188 229.49805 63.867188 C 230.54318 63.867188 231.49653 63.78336 232.35938 63.613281 C 233.23437 63.455196 234.04383 63.2601 234.78516 63.029297 C 235.66015 62.749788 236.36371 62.481756 236.89844 62.226562 C 237.44531 61.971344 238.05425 61.697929 238.72266 61.40625 L 238.72266 57.177734 L 238.4668 57.177734 C 237.14214 58.368714 235.72027 59.261945 234.20117 59.857422 C 232.68208 60.452899 231.05426 60.75 229.31641 60.75 C 228.05252 60.75 226.84939 60.538629 225.70703 60.113281 C 224.57682 59.675788 223.58507 59.006723 222.73438 58.107422 C 221.92014 57.244581 221.25304 56.127185 220.73047 54.753906 C 220.22005 53.380653 219.96484 51.740012 219.96484 49.832031 C 219.96484 48.009115 220.19444 46.404955 220.65625 45.019531 C 221.13021 43.621963 221.78646 42.466158 222.625 41.554688 C 223.48785 40.618927 224.4668 39.933587 225.56055 39.496094 C 226.66645 39.046431 227.90603 38.820312 229.2793 38.820312 C 230.95638 38.820312 232.52951 39.106547 234 39.677734 C 235.47049 40.248922 236.95443 41.16038 238.44922 42.412109 L 238.72266 42.412109 L 238.72266 38.128906 C 236.94835 37.24175 235.33138 36.62196 233.87305 36.269531 C 232.42687 35.917103 230.97396 35.740234 229.51562 35.740234 z M 253.01367 35.740234 C 250.06055 35.740234 247.62326 36.469391 245.70312 37.927734 C 243.78299 39.373908 242.82422 41.23328 242.82422 43.505859 C 242.82422 45.48676 243.40017 47.096353 244.55469 48.335938 C 245.72135 49.563352 247.50781 50.432922 249.91406 50.943359 C 251.10503 51.186408 252.22982 51.386938 253.28711 51.544922 C 254.35655 51.702805 255.34635 51.903335 256.25781 52.146484 C 257.46094 52.462453 258.35417 52.905375 258.9375 53.476562 C 259.53299 54.04775 259.83203 54.935547 259.83203 56.138672 C 259.83203 57.53624 259.20486 58.653636 257.95312 59.492188 C 256.71354 60.330713 254.97634 60.75 252.74023 60.75 C 251.16037 60.75 249.47048 60.440105 247.67188 59.820312 C 245.87326 59.20052 244.28733 58.320084 242.91406 57.177734 L 242.66016 57.177734 L 242.66016 61.699219 C 244.27648 62.41622 245.86241 62.955739 247.41797 63.320312 C 248.98568 63.684911 250.74653 63.867188 252.70312 63.867188 C 254.52604 63.867188 256.0829 63.64843 257.37109 63.210938 C 258.67144 62.773419 259.80708 62.166448 260.7793 61.388672 C 261.66645 60.67167 262.35373 59.796667 262.83984 58.763672 C 263.33811 57.730677 263.58594 56.686191 263.58594 55.628906 C 263.58594 53.684465 263.07552 52.171444 262.05469 51.089844 C 261.03385 50.008244 259.51541 49.19879 257.49805 48.664062 C 256.50152 48.40897 255.28559 48.161118 253.85156 47.917969 C 252.41753 47.674844 251.31294 47.466954 250.53516 47.296875 C 249.06467 46.956592 248.03646 46.464394 247.45312 45.820312 C 246.86979 45.176205 246.57812 44.290361 246.57812 43.160156 C 246.57812 41.896257 247.16146 40.862613 248.32812 40.060547 C 249.50694 39.258456 251.0638 38.857422 252.99609 38.857422 C 254.75825 38.857422 256.47721 39.14909 258.1543 39.732422 C 259.84353 40.303609 261.2053 41.027358 262.23828 41.902344 L 262.49219 41.902344 L 262.49219 37.636719 C 261.26476 37.101991 259.85569 36.651683 258.26367 36.287109 C 256.67166 35.922511 254.92166 35.740234 253.01367 35.740234 z M 278.16992 35.740234 C 275.2168 35.740234 272.77951 36.469391 270.85938 37.927734 C 268.93924 39.373908 267.98047 41.23328 267.98047 43.505859 C 267.98047 45.48676 268.55643 47.096353 269.71094 48.335938 C 270.8776 49.563352 272.66406 50.432922 275.07031 50.943359 C 276.26129 51.186408 277.38607 51.386938 278.44336 51.544922 C 279.5128 51.702805 280.5026 51.903335 281.41406 52.146484 C 282.61719 52.462453 283.51042 52.905375 284.09375 53.476562 C 284.68923 54.04775 284.98828 54.935547 284.98828 56.138672 C 284.98828 57.53624 284.36111 58.653636 283.10938 59.492188 C 281.86979 60.330713 280.1326 60.75 277.89648 60.75 C 276.31662 60.75 274.62674 60.440105 272.82812 59.820312 C 271.02951 59.20052 269.44358 58.320084 268.07031 57.177734 L 267.81641 57.177734 L 267.81641 61.699219 C 269.43273 62.41622 271.01866 62.955739 272.57422 63.320312 C 274.14193 63.684911 275.90278 63.867188 277.85938 63.867188 C 279.68229 63.867188 281.23915 63.64843 282.52734 63.210938 C 283.82769 62.773419 284.96332 62.166448 285.93555 61.388672 C 286.8227 60.67167 287.50998 59.796667 287.99609 58.763672 C 288.49436 57.730677 288.74219 56.686191 288.74219 55.628906 C 288.74219 53.684465 288.23177 52.171444 287.21094 51.089844 C 286.1901 50.008244 284.67166 49.19879 282.6543 48.664062 C 281.65777 48.40897 280.44184 48.161118 279.00781 47.917969 C 277.57379 47.674844 276.46919 47.466954 275.69141 47.296875 C 274.22092 46.956592 273.19271 46.464394 272.60938 45.820312 C 272.02604 45.176205 271.73438 44.290361 271.73438 43.160156 C 271.73438 41.896257 272.31771 40.862613 273.48438 40.060547 C 274.66319 39.258456 276.22005 38.857422 278.15234 38.857422 C 279.9145 38.857422 281.63346 39.14909 283.31055 39.732422 C 284.99978 40.303609 286.36154 41.027358 287.39453 41.902344 L 287.64844 41.902344 L 287.64844 37.636719 C 286.42101 37.101991 285.01194 36.651683 283.41992 36.287109 C 281.82791 35.922511 280.07791 35.740234 278.16992 35.740234 z "
       transform="matrix(0.26458333,0,0,0.26458333,0,270.54165)"
       id="path819" />
  </g>
</svg>
