<?xml version="1.0" encoding="UTF-8" standalone="no"?>
<!-- Created with Inkscape (http://www.inkscape.org/) -->

<svg
   xmlns:dc="http://purl.org/dc/elements/1.1/"
   xmlns:cc="http://creativecommons.org/ns#"
   xmlns:rdf="http://www.w3.org/1999/02/22-rdf-syntax-ns#"
   xmlns:svg="http://www.w3.org/2000/svg"
   xmlns="http://www.w3.org/2000/svg"
   xmlns:sodipodi="http://sodipodi.sourceforge.net/DTD/sodipodi-0.dtd"
   xmlns:inkscape="http://www.inkscape.org/namespaces/inkscape"
   width="500"
   height="100"
   viewBox="0 0 132.29166 26.458334"
   version="1.1"
   id="svg8"
   inkscape:version="0.92.4 (5da689c313, 2019-01-14)"
   sodipodi:docname="ss-6.svg">
  <defs
     id="defs2" />
  <sodipodi:namedview
     id="base"
     pagecolor="#ffffff"
     bordercolor="#666666"
     borderopacity="1.0"
     inkscape:pageopacity="0.0"
     inkscape:pageshadow="2"
     inkscape:zoom="1.3249068"
     inkscape:cx="-9.2937966"
     inkscape:cy="251.30524"
     inkscape:document-units="px"
     inkscape:current-layer="layer1"
     showgrid="false"
     units="px"
     inkscape:window-width="1920"
     inkscape:window-height="1017"
     inkscape:window-x="1358"
     inkscape:window-y="-8"
     inkscape:window-maximized="1" />
  <metadata
     id="metadata5">
    <rdf:RDF>
      <cc:Work
         rdf:about="">
        <dc:format>image/svg+xml</dc:format>
        <dc:type
           rdf:resource="http://purl.org/dc/dcmitype/StillImage" />
        <dc:title></dc:title>
      </cc:Work>
    </rdf:RDF>
  </metadata>
  <g
     inkscape:label="Laag 1"
     inkscape:groupmode="layer"
     id="layer1"
     transform="translate(0,-270.54165)">
    <path
       style="font-style:normal;font-variant:normal;font-weight:normal;font-stretch:normal;font-size:37.33333206px;line-height:1.25;font-family:'Segoe MDL2 Assets';-inkscape-font-specification:'Segoe MDL2 Assets';letter-spacing:0px;word-spacing:0px;fill:#ffbc42;fill-opacity:1;stroke:none;stroke-width:0.99999994"
       d="M 168.4043 33.96875 L 168.4043 61.111328 L 178.0293 61.111328 C 179.91298 61.111328 181.46246 60.941821 182.67773 60.601562 C 183.90517 60.261279 185.02995 59.68881 186.05078 58.886719 C 186.91363 58.218322 187.59896 57.368933 188.10938 56.335938 C 188.61979 55.302967 188.875 54.110683 188.875 52.761719 C 188.875 50.878027 188.34636 49.323117 187.28906 48.095703 C 186.23177 46.856119 184.78624 46.048618 182.95117 45.671875 L 182.95117 45.525391 C 184.04492 44.978518 184.91992 44.25477 185.57617 43.355469 C 186.23242 42.444023 186.56055 41.344855 186.56055 40.056641 C 186.56055 38.914291 186.33637 37.93533 185.88672 37.121094 C 185.43707 36.294713 184.71332 35.620239 183.7168 35.097656 C 182.81749 34.635924 181.875 34.33339 180.89062 34.1875 C 179.90625 34.04161 178.42426 33.96875 176.44336 33.96875 L 168.4043 33.96875 z M 239.15234 34.898438 L 239.15234 40.75 L 236.83594 40.75 L 236.83594 43.628906 L 239.15234 43.628906 L 239.15234 54.457031 C 239.15234 56.924055 239.69184 58.717903 240.77344 59.835938 C 241.85503 60.953997 243.43555 61.511719 245.51367 61.511719 C 246.10916 61.511719 246.78364 61.457011 247.53711 61.347656 C 248.30273 61.238226 249.00824 61.099766 249.65234 60.929688 L 249.65234 57.847656 L 249.46875 57.847656 C 249.20139 57.957086 248.76389 58.097499 248.15625 58.267578 C 247.54861 58.425562 246.96528 58.503906 246.40625 58.503906 C 245.44618 58.503906 244.72982 58.39449 244.25586 58.175781 C 243.79405 57.944877 243.42947 57.587685 243.16211 57.101562 C 242.87044 56.579005 242.70095 56.019305 242.65234 55.423828 C 242.60374 54.816181 242.57812 53.977658 242.57812 52.908203 L 242.57812 43.628906 L 249.65234 43.628906 L 249.65234 40.75 L 242.57812 40.75 L 242.57812 34.898438 L 239.15234 34.898438 z M 273.34961 34.898438 L 273.34961 40.75 L 271.03516 40.75 L 271.03516 43.628906 L 273.34961 43.628906 L 273.34961 54.457031 C 273.34961 56.924055 273.89106 58.717903 274.97266 59.835938 C 276.05425 60.953997 277.63281 61.511719 279.71094 61.511719 C 280.30642 61.511719 280.9809 61.457011 281.73438 61.347656 C 282.5 61.238226 283.20551 61.099766 283.84961 60.929688 L 283.84961 57.847656 L 283.66797 57.847656 C 283.40061 57.957086 282.96311 58.097499 282.35547 58.267578 C 281.74783 58.425562 281.1645 58.503906 280.60547 58.503906 C 279.6454 58.503906 278.92709 58.39449 278.45312 58.175781 C 277.99132 57.944877 277.62673 57.587685 277.35938 57.101562 C 277.0677 56.579005 276.89821 56.019305 276.84961 55.423828 C 276.801 54.816181 276.77734 53.977658 276.77734 52.908203 L 276.77734 43.628906 L 283.84961 43.628906 L 283.84961 40.75 L 276.77734 40.75 L 276.77734 34.898438 L 273.34961 34.898438 z M 172.01367 37.048828 L 176.31641 37.048828 C 177.51953 37.048828 178.52756 37.090616 179.3418 37.175781 C 180.15603 37.248701 180.84874 37.44923 181.41992 37.777344 C 181.90602 38.056852 182.2578 38.421431 182.47656 38.871094 C 182.69532 39.320757 182.80469 39.874998 182.80469 40.53125 C 182.80469 41.321171 182.68446 42.006511 182.44141 42.589844 C 182.2105 43.161031 181.80946 43.629567 181.23828 43.994141 C 180.6671 44.358815 180.04731 44.601207 179.37891 44.722656 C 178.7105 44.832011 177.8099 44.886719 176.67969 44.886719 L 172.01367 44.886719 L 172.01367 37.048828 z M 201.69141 40.183594 C 198.8112 40.183594 196.51975 41.14976 194.81836 43.082031 C 193.12912 45.002182 192.28516 47.621733 192.28516 50.939453 C 192.28516 54.257148 193.12912 56.876724 194.81836 58.796875 C 196.51975 60.717001 198.8112 61.675781 201.69141 61.675781 C 204.54731 61.675781 206.82595 60.717001 208.52734 58.796875 C 210.22873 56.876724 211.07812 54.257148 211.07812 50.939453 C 211.07812 47.621733 210.22873 45.002182 208.52734 43.082031 C 206.82595 41.14976 204.54731 40.183594 201.69141 40.183594 z M 224.36719 40.183594 C 221.48698 40.183594 219.19748 41.14976 217.49609 43.082031 C 215.80686 45.002182 214.96094 47.621733 214.96094 50.939453 C 214.96094 54.257148 215.80686 56.876724 217.49609 58.796875 C 219.19748 60.717001 221.48698 61.675781 224.36719 61.675781 C 227.22309 61.675781 229.50174 60.717001 231.20312 58.796875 C 232.90451 56.876724 233.75586 54.257148 233.75586 50.939453 C 233.75586 47.621733 232.90451 45.002182 231.20312 43.082031 C 229.50174 41.14976 227.22309 40.183594 224.36719 40.183594 z M 335.91211 40.183594 C 334.62392 40.183594 333.40798 40.446193 332.26562 40.96875 C 331.13542 41.479163 330.11459 42.117181 329.20312 42.882812 L 329.20312 40.75 L 325.77734 40.75 L 325.77734 68.621094 L 329.20312 68.621094 L 329.20312 60.089844 C 330.09028 60.576042 330.95985 60.935212 331.81055 61.166016 C 332.67339 61.396819 333.63411 61.511719 334.69141 61.511719 C 335.90668 61.511719 337.05512 61.269301 338.13672 60.783203 C 339.23047 60.284935 340.17839 59.586801 340.98047 58.6875 C 341.84331 57.739569 342.51041 56.583765 342.98438 55.222656 C 343.45834 53.849403 343.69531 52.336381 343.69531 50.683594 C 343.69531 47.390189 343.00998 44.819863 341.63672 42.972656 C 340.27561 41.11328 338.36697 40.183594 335.91211 40.183594 z M 260.75391 40.257812 C 259.45356 40.257812 258.27409 40.427295 257.2168 40.767578 C 256.17166 41.095692 255.30946 41.546 254.62891 42.117188 C 253.92405 42.70052 253.3954 43.362199 253.04297 44.103516 C 252.70269 44.844832 252.53125 45.634105 252.53125 46.472656 C 252.53125 47.80945 252.90321 48.939665 253.64453 49.863281 C 254.39801 50.774752 255.66667 51.467453 257.45312 51.941406 C 258.09722 52.111485 258.80816 52.270126 259.58594 52.416016 C 260.37587 52.561855 261.01389 52.689474 261.5 52.798828 C 262.8125 53.090507 263.7003 53.442266 264.16211 53.855469 C 264.62391 54.268647 264.85547 54.877596 264.85547 55.679688 C 264.85547 56.724828 264.42882 57.490465 263.57812 57.976562 C 262.72743 58.462685 261.54991 58.705078 260.04297 58.705078 C 258.82769 58.705078 257.55708 58.468093 256.23242 57.994141 C 254.90777 57.508018 253.70464 56.857205 252.62305 56.042969 L 252.44141 56.042969 L 252.44141 59.890625 C 253.2921 60.315973 254.34202 60.70962 255.59375 61.074219 C 256.85764 61.426647 258.24305 61.603516 259.75 61.603516 C 262.41146 61.603516 264.50781 61.007386 266.03906 59.816406 C 267.58246 58.625427 268.35547 57.101564 268.35547 55.242188 C 268.35547 53.759554 267.92339 52.56727 267.06055 51.667969 C 266.1977 50.780813 264.97092 50.155589 263.37891 49.791016 C 262.85634 49.669542 262.20009 49.536515 261.41016 49.390625 C 260.63238 49.244836 259.92686 49.099015 259.29492 48.953125 C 258.15256 48.685761 257.32682 48.339411 256.81641 47.914062 C 256.29384 47.48874 256.03125 46.856129 256.03125 46.017578 C 256.03125 45.069647 256.46333 44.358718 257.32617 43.884766 C 258.18902 43.398668 259.24631 43.15625 260.49805 43.15625 C 261.70117 43.15625 262.92795 43.38044 264.17969 43.830078 C 265.43143 44.267596 266.49609 44.809043 267.37109 45.453125 L 267.55273 45.453125 L 267.55273 41.789062 C 266.72634 41.363714 265.68728 41.004544 264.43555 40.712891 C 263.19597 40.409067 261.96919 40.257812 260.75391 40.257812 z M 310.28125 40.257812 C 309.05382 40.257812 307.80881 40.367229 306.54492 40.585938 C 305.28104 40.804797 304.31489 41.005327 303.64648 41.1875 L 303.64648 44.667969 L 303.82812 44.667969 C 305.00694 44.218205 306.14995 43.879241 307.25586 43.648438 C 308.36176 43.405288 309.36436 43.283203 310.26367 43.283203 C 311.00499 43.283203 311.71593 43.332428 312.39648 43.429688 C 313.07704 43.526922 313.66038 43.714632 314.14648 43.994141 C 314.6569 44.285819 315.04514 44.686853 315.3125 45.197266 C 315.59201 45.707678 315.73242 46.35113 315.73242 47.128906 L 315.73242 47.658203 C 313.73937 47.755362 311.87457 47.901183 310.13672 48.095703 C 308.39886 48.290147 306.9095 48.660159 305.66992 49.207031 C 304.44249 49.753904 303.49457 50.508674 302.82617 51.46875 C 302.16992 52.416656 301.8418 53.66167 301.8418 55.205078 C 301.8418 57.088744 302.47982 58.638221 303.75586 59.853516 C 305.0319 61.068785 306.58681 61.675781 308.42188 61.675781 C 309.41841 61.675781 310.28798 61.579285 311.0293 61.384766 C 311.77062 61.202466 312.42687 60.970915 312.99805 60.691406 C 313.48416 60.472672 313.98177 60.181005 314.49219 59.816406 C 315.01476 59.439688 315.4286 59.14802 315.73242 58.941406 L 315.73242 61.111328 L 319.14062 61.111328 L 319.14062 47.292969 C 319.14062 45.980465 318.9401 44.881297 318.53906 43.994141 C 318.13802 43.106985 317.55469 42.383236 316.78906 41.824219 C 316.01128 41.252931 315.08897 40.851897 314.01953 40.621094 C 312.96224 40.377944 311.71528 40.257812 310.28125 40.257812 z M 288.00586 40.75 L 288.00586 61.111328 L 291.43359 61.111328 L 291.43359 46.65625 C 292.34505 45.914933 293.29297 45.31337 294.27734 44.851562 C 295.26172 44.37761 296.28255 44.140625 297.33984 44.140625 C 297.9961 44.140625 298.5612 44.169744 299.03516 44.230469 C 299.52127 44.279099 300.01888 44.364879 300.5293 44.486328 L 300.71094 44.486328 L 300.71094 40.96875 C 300.17621 40.884593 299.77517 40.829884 299.50781 40.804688 C 299.24045 40.768152 298.81033 40.75 298.21484 40.75 C 297.13324 40.75 296.06857 40.979598 295.02344 41.441406 C 293.99045 41.891069 292.79471 42.664068 291.43359 43.757812 L 291.43359 40.75 L 288.00586 40.75 z M 201.69141 43.136719 C 203.52648 43.136719 204.9592 43.782098 205.99219 45.070312 C 207.02517 46.346357 207.54297 48.3023 207.54297 50.939453 C 207.54297 53.515831 207.01975 55.460934 205.97461 56.773438 C 204.94162 58.073771 203.51432 58.722656 201.69141 58.722656 C 199.84418 58.722656 198.40408 58.06641 197.37109 56.753906 C 196.33811 55.429257 195.82031 53.491516 195.82031 50.939453 C 195.82031 48.3023 196.33073 46.346357 197.35156 45.070312 C 198.38455 43.782098 199.83203 43.136719 201.69141 43.136719 z M 224.36719 43.136719 C 226.20226 43.136719 227.63694 43.782098 228.66992 45.070312 C 229.70291 46.346357 230.21875 48.3023 230.21875 50.939453 C 230.21875 53.515831 229.69748 55.460934 228.65234 56.773438 C 227.61936 58.073771 226.1901 58.722656 224.36719 58.722656 C 222.51996 58.722656 221.07986 58.06641 220.04688 56.753906 C 219.01389 55.429257 218.49805 53.491516 218.49805 50.939453 C 218.49805 48.3023 219.00846 46.346357 220.0293 45.070312 C 221.06228 43.782098 222.50781 43.136719 224.36719 43.136719 z M 335.03711 43.447266 C 336.77496 43.447266 338.0638 44.054262 338.90234 45.269531 C 339.74088 46.484801 340.16016 48.320512 340.16016 50.775391 C 340.16016 53.303164 339.62414 55.211811 338.55469 56.5 C 337.48524 57.788189 335.99782 58.431641 334.08984 58.431641 C 333.20269 58.431641 332.40604 58.353297 331.70117 58.195312 C 331.00847 58.037328 330.17535 57.738274 329.20312 57.300781 L 329.20312 45.761719 C 330.11459 45.069007 331.06988 44.511286 332.06641 44.085938 C 333.06293 43.660589 334.05274 43.447266 335.03711 43.447266 z M 172.01367 47.931641 L 177.68359 47.931641 C 178.87457 47.931641 179.8826 47.980865 180.70898 48.078125 C 181.54753 48.16319 182.25846 48.356333 182.8418 48.660156 C 183.70464 49.109819 184.30078 49.656674 184.62891 50.300781 C 184.95703 50.944863 185.12109 51.814458 185.12109 52.908203 C 185.12109 53.868279 184.96246 54.652118 184.64648 55.259766 C 184.33051 55.867388 183.8329 56.408835 183.15234 56.882812 C 182.50825 57.320356 181.68056 57.62289 180.67188 57.792969 C 179.66319 57.950953 178.36892 58.03125 176.78906 58.03125 L 172.01367 58.03125 L 172.01367 47.931641 z M 315.73242 50.429688 L 315.73242 56.097656 C 314.88173 56.753908 313.95747 57.319016 312.96094 57.792969 C 311.9644 58.254777 310.86523 58.486328 309.66211 58.486328 C 308.21593 58.486328 307.14041 58.19466 306.43555 57.611328 C 305.73069 57.015851 305.37891 56.135415 305.37891 54.96875 C 305.37891 53.935755 305.68142 53.126301 306.28906 52.542969 C 306.8967 51.947492 307.69336 51.509977 308.67773 51.230469 C 309.50413 50.999464 310.62153 50.824574 312.03125 50.703125 C 313.45312 50.581676 314.68728 50.490412 315.73242 50.429688 z "
       transform="matrix(0.26458333,0,0,0.26458333,0,270.54165)"
       id="path819" />
  </g>
</svg>
