<?xml version="1.0" encoding="UTF-8" standalone="no"?>
<!-- Created with Inkscape (http://www.inkscape.org/) -->

<svg
   xmlns:dc="http://purl.org/dc/elements/1.1/"
   xmlns:cc="http://creativecommons.org/ns#"
   xmlns:rdf="http://www.w3.org/1999/02/22-rdf-syntax-ns#"
   xmlns:svg="http://www.w3.org/2000/svg"
   xmlns="http://www.w3.org/2000/svg"
   xmlns:sodipodi="http://sodipodi.sourceforge.net/DTD/sodipodi-0.dtd"
   xmlns:inkscape="http://www.inkscape.org/namespaces/inkscape"
   width="500"
   height="100"
   viewBox="0 0 132.29166 26.458334"
   version="1.1"
   id="svg8"
   inkscape:version="0.92.4 (5da689c313, 2019-01-14)"
   sodipodi:docname="ss-8.svg">
  <defs
     id="defs2" />
  <sodipodi:namedview
     id="base"
     pagecolor="#ffffff"
     bordercolor="#666666"
     borderopacity="1.0"
     inkscape:pageopacity="0.0"
     inkscape:pageshadow="2"
     inkscape:zoom="1.3249068"
     inkscape:cx="-9.2937966"
     inkscape:cy="251.30524"
     inkscape:document-units="px"
     inkscape:current-layer="layer1"
     showgrid="false"
     units="px"
     inkscape:window-width="1920"
     inkscape:window-height="1017"
     inkscape:window-x="1358"
     inkscape:window-y="-8"
     inkscape:window-maximized="1" />
  <metadata
     id="metadata5">
    <rdf:RDF>
      <cc:Work
         rdf:about="">
        <dc:format>image/svg+xml</dc:format>
        <dc:type
           rdf:resource="http://purl.org/dc/dcmitype/StillImage" />
        <dc:title></dc:title>
      </cc:Work>
    </rdf:RDF>
  </metadata>
  <g
     inkscape:label="Laag 1"
     inkscape:groupmode="layer"
     id="layer1"
     transform="translate(0,-270.54165)">
    <path
       style="font-style:normal;font-variant:normal;font-weight:normal;font-stretch:normal;font-size:37.33333206px;line-height:1.25;font-family:'Segoe MDL2 Assets';-inkscape-font-specification:'Segoe MDL2 Assets';letter-spacing:0px;word-spacing:0px;fill:#0496ff;fill-opacity:1;stroke:none;stroke-width:0.99999994"
       d="M 209.45703 35.476562 L 216.64062 62.621094 L 220.61328 62.621094 L 226.19141 40.089844 L 231.89844 62.621094 L 235.96289 62.621094 L 243.01758 35.476562 L 239.48047 35.476562 L 233.8125 58.263672 L 228.14258 35.476562 L 224.47852 35.476562 L 218.86328 58.044922 L 213.1582 35.476562 L 209.45703 35.476562 z M 248.32227 35.476562 L 248.32227 62.621094 L 251.93164 62.621094 L 251.93164 52.503906 L 255.54102 52.503906 C 257.48546 52.503906 259.09505 52.27233 260.37109 51.810547 C 261.64714 51.336569 262.75369 50.631073 263.68945 49.695312 C 264.44293 48.941851 265.02626 48.056007 265.43945 47.035156 C 265.8648 46.002186 266.07812 44.882812 266.07812 43.679688 C 266.07813 42.09982 265.79188 40.794714 265.2207 39.761719 C 264.66167 38.728749 263.86502 37.864587 262.83203 37.171875 C 261.95703 36.588543 260.95443 36.163848 259.82422 35.896484 C 258.69401 35.616976 257.31597 35.476562 255.6875 35.476562 L 248.32227 35.476562 z M 270.85352 35.476562 L 270.85352 62.621094 L 274.46289 62.621094 L 274.46289 49.550781 L 286.25781 49.550781 L 286.25781 46.341797 L 274.46289 46.341797 L 274.46289 38.685547 L 288.18945 38.685547 L 288.18945 35.476562 L 270.85352 35.476562 z M 251.93164 38.576172 L 255.50391 38.576172 C 256.64627 38.576172 257.58876 38.661953 258.33008 38.832031 C 259.08355 38.990016 259.75261 39.256094 260.33594 39.632812 C 261.00434 40.070331 261.50195 40.635438 261.83008 41.328125 C 262.1582 42.020837 262.32227 42.835724 262.32227 43.771484 C 262.32227 44.573576 262.20008 45.297299 261.95703 45.941406 C 261.72613 46.585488 261.32509 47.199871 260.75391 47.783203 C 260.18273 48.354391 259.44271 48.773652 258.53125 49.041016 C 257.61979 49.296235 256.4349 49.423828 254.97656 49.423828 L 251.93164 49.423828 L 251.93164 38.576172 z "
       transform="matrix(0.26458333,0,0,0.26458333,0,270.54165)"
       id="path819" />
  </g>
</svg>
