<?xml version="1.0" encoding="UTF-8" standalone="no"?>
<!-- Created with Inkscape (http://www.inkscape.org/) -->

<svg
   xmlns:osb="http://www.openswatchbook.org/uri/2009/osb"
   xmlns:dc="http://purl.org/dc/elements/1.1/"
   xmlns:cc="http://creativecommons.org/ns#"
   xmlns:rdf="http://www.w3.org/1999/02/22-rdf-syntax-ns#"
   xmlns:svg="http://www.w3.org/2000/svg"
   xmlns="http://www.w3.org/2000/svg"
   xmlns:sodipodi="http://sodipodi.sourceforge.net/DTD/sodipodi-0.dtd"
   xmlns:inkscape="http://www.inkscape.org/namespaces/inkscape"
   width="500"
   height="100"
   viewBox="0 0 132.29166 26.458334"
   version="1.1"
   id="svg8"
   inkscape:version="0.92.4 (5da689c313, 2019-01-14)"
   sodipodi:docname="t-2.svg">
  <defs
     id="defs2">
    <linearGradient
       id="linearGradient829"
       osb:paint="solid">
      <stop
         style="stop-color:#0496ff;stop-opacity:1;"
         offset="0"
         id="stop827" />
    </linearGradient>
  </defs>
  <sodipodi:namedview
     id="base"
     pagecolor="#ffffff"
     bordercolor="#666666"
     borderopacity="1.0"
     inkscape:pageopacity="0.0"
     inkscape:pageshadow="2"
     inkscape:zoom="1.3249068"
     inkscape:cx="-24.456245"
     inkscape:cy="251.30524"
     inkscape:document-units="px"
     inkscape:current-layer="layer1"
     showgrid="false"
     units="px"
     inkscape:window-width="1920"
     inkscape:window-height="1017"
     inkscape:window-x="1358"
     inkscape:window-y="-8"
     inkscape:window-maximized="1" />
  <metadata
     id="metadata5">
    <rdf:RDF>
      <cc:Work
         rdf:about="">
        <dc:format>image/svg+xml</dc:format>
        <dc:type
           rdf:resource="http://purl.org/dc/dcmitype/StillImage" />
        <dc:title></dc:title>
      </cc:Work>
    </rdf:RDF>
  </metadata>
  <g
     inkscape:label="Laag 1"
     inkscape:groupmode="layer"
     id="layer1"
     transform="translate(0,-270.54165)">
    <path
       style="font-style:normal;font-variant:normal;font-weight:normal;font-stretch:normal;font-size:37.33333206px;line-height:1.25;font-family:'Segoe MDL2 Assets';-inkscape-font-specification:'Segoe MDL2 Assets';letter-spacing:0px;word-spacing:0px;fill:#0496ff;fill-opacity:1;stroke:none;stroke-width:0.99999994"
       d="M 299.75781 35.857422 C 297.7976 35.877155 295.82468 36.31901 293.91016 37.197266 C 285.91638 40.864239 281.74529 49.969747 284.75781 57.179688 C 286.18109 60.5861 290.38897 65.228755 293.14062 66.427734 C 296.88766 68.060415 303.3791 67.734272 307.18945 65.722656 C 315.95532 61.094814 318.294 48.864917 311.79297 41.654297 C 308.3253 37.808134 304.07028 35.814009 299.75781 35.857422 z M 336.74023 35.857422 C 334.78002 35.877155 332.80906 36.31901 330.89453 37.197266 C 322.90075 40.864239 318.72967 49.969747 321.74219 57.179688 C 323.16547 60.5861 327.37335 65.228755 330.125 66.427734 C 333.87204 68.060415 340.36153 67.734272 344.17188 65.722656 C 352.93774 61.094814 355.27837 48.864917 348.77734 41.654297 C 345.30968 37.808134 341.0527 35.814009 336.74023 35.857422 z M 372.96875 35.857422 C 371.00854 35.877155 369.03758 36.31901 367.12305 37.197266 C 359.12927 40.864239 354.95818 49.969747 357.9707 57.179688 C 359.39398 60.5861 363.60186 65.228755 366.35352 66.427734 C 370.10055 68.060415 376.59196 67.734272 380.40234 65.722656 C 389.1682 61.094814 391.50691 48.864917 385.00586 41.654297 C 381.53818 37.808134 377.28122 35.814009 372.96875 35.857422 z M 409.19922 35.857422 C 407.23901 35.877155 405.26608 36.31901 403.35156 37.197266 C 395.35775 40.864239 391.18866 49.969747 394.20117 57.179688 C 395.6245 60.5861 399.83234 65.228755 402.58398 66.427734 C 406.33105 68.060415 412.82053 67.734272 416.63086 65.722656 C 425.39676 61.094814 427.73539 48.864917 421.23438 41.654297 C 417.7667 37.808134 413.51168 35.814009 409.19922 35.857422 z M 137.13477 39.539062 L 137.13477 67.904297 L 140.5625 67.904297 L 140.5625 39.539062 L 137.13477 39.539062 z M 44.621094 40.761719 L 44.621094 67.904297 L 62.503906 67.904297 L 62.503906 64.695312 L 48.230469 64.695312 L 48.230469 54.615234 L 62.503906 54.615234 L 62.503906 51.40625 L 48.230469 51.40625 L 48.230469 43.96875 L 62.503906 43.96875 L 62.503906 40.761719 L 44.621094 40.761719 z M 78.236328 46.976562 C 77.033204 46.976563 75.861112 47.226367 74.71875 47.724609 C 73.57639 48.222877 72.469836 48.915578 71.400391 49.802734 L 71.400391 47.542969 L 67.972656 47.542969 L 67.972656 67.904297 L 71.400391 67.904297 L 71.400391 52.701172 C 72.336154 51.98417 73.315102 51.395402 74.335938 50.933594 C 75.35677 50.471786 76.333768 50.240234 77.269531 50.240234 C 78.18099 50.240234 78.922961 50.367853 79.494141 50.623047 C 80.06532 50.866121 80.50282 51.243494 80.806641 51.753906 C 81.098302 52.215714 81.298824 52.859166 81.408203 53.685547 C 81.517583 54.499783 81.572266 55.374786 81.572266 56.310547 L 81.572266 67.904297 L 85 67.904297 L 85 54.6875 C 85 52.196187 84.422093 50.289493 83.267578 48.964844 C 82.113063 47.640195 80.43598 46.976562 78.236328 46.976562 z M 99.199219 46.976562 C 98.081164 46.976563 96.958335 47.220934 95.828125 47.707031 C 94.697918 48.180984 93.737197 48.848071 92.947266 49.710938 C 92.096572 50.634528 91.422093 51.735675 90.923828 53.011719 C 90.437718 54.275618 90.195312 55.781253 90.195312 57.53125 C 90.195313 60.72742 90.906252 63.206583 92.328125 64.96875 C 93.762153 66.718747 95.694444 67.59375 98.125 67.59375 C 99.583333 67.59375 100.77908 67.393221 101.71484 66.992188 C 102.66276 66.578984 103.65451 65.959194 104.6875 65.132812 L 104.6875 66.992188 C 104.6875 67.818569 104.59636 68.565978 104.41406 69.234375 C 104.23177 69.902772 103.9273 70.475241 103.50195 70.949219 C 103.07661 71.447486 102.48047 71.835726 101.71484 72.115234 C 100.94922 72.394743 99.983073 72.535156 98.816406 72.535156 C 97.601129 72.535156 96.387154 72.371107 95.171875 72.042969 C 93.956598 71.726975 93.068793 71.458943 92.509766 71.240234 L 92.328125 71.240234 L 92.328125 74.740234 C 93.324653 75.019693 94.33268 75.233016 95.353516 75.378906 C 96.386501 75.536891 97.443793 75.615234 98.525391 75.615234 C 101.78234 75.615234 104.19401 74.807734 105.76172 73.191406 C 107.32943 71.575104 108.11328 69.041233 108.11328 65.589844 L 108.11328 47.542969 L 104.90625 47.542969 L 104.6875 48.417969 C 103.80035 47.93177 102.95443 47.5726 102.15234 47.341797 C 101.36241 47.098647 100.37804 46.976562 99.199219 46.976562 z M 123.31641 46.976562 C 120.35113 46.976562 117.95768 47.955524 116.13477 49.912109 C 114.324 51.86872 113.41797 54.511957 113.41797 57.841797 C 113.41797 61.208121 114.36589 63.80947 116.26172 65.644531 C 118.15755 67.467448 120.79536 68.378906 124.17383 68.378906 C 125.49848 68.378906 126.76172 68.214832 127.96484 67.886719 C 129.16797 67.558605 130.34744 67.150185 131.50195 66.664062 L 131.50195 62.927734 L 131.32031 62.927734 C 130.72483 63.462462 129.72222 64.009342 128.3125 64.568359 C 126.91493 65.115232 125.52213 65.388672 124.13672 65.388672 C 123.09158 65.388672 122.13281 65.242825 121.25781 64.951172 C 120.39496 64.659493 119.64757 64.222004 119.01562 63.638672 C 118.35938 63.043195 117.84158 62.282991 117.46484 61.359375 C 117.08811 60.423614 116.90039 59.329879 116.90039 58.078125 L 131.90234 58.078125 L 131.90234 56.21875 C 131.90234 53.265629 131.15495 50.98697 129.66016 49.382812 C 128.17752 47.778655 126.06293 46.976562 123.31641 46.976562 z M 154.32422 47.050781 C 153.02387 47.050781 151.84636 47.220263 150.78906 47.560547 C 149.74392 47.88866 148.87977 48.338969 148.19922 48.910156 C 147.49436 49.493489 146.96571 50.155168 146.61328 50.896484 C 146.27301 51.637801 146.10352 52.427074 146.10352 53.265625 C 146.10352 54.602419 146.47352 55.732634 147.21484 56.65625 C 147.96831 57.567721 149.23893 58.260422 151.02539 58.734375 C 151.66949 58.904454 152.38043 59.063095 153.1582 59.208984 C 153.94814 59.354824 154.58615 59.482443 155.07227 59.591797 C 156.38477 59.883476 157.27257 60.235234 157.73438 60.648438 C 158.19618 61.061615 158.42578 61.670565 158.42578 62.472656 C 158.42578 63.517796 158.00108 64.283434 157.15039 64.769531 C 156.2997 65.255654 155.12023 65.498047 153.61328 65.498047 C 152.39801 65.498047 151.12934 65.261062 149.80469 64.787109 C 148.48003 64.300987 147.27691 63.650174 146.19531 62.835938 L 146.01172 62.835938 L 146.01172 66.683594 C 146.86241 67.108942 147.91428 67.502589 149.16602 67.867188 C 150.4299 68.219616 151.81532 68.396484 153.32227 68.396484 C 155.98372 68.396484 158.08008 67.800355 159.61133 66.609375 C 161.15473 65.418395 161.92578 63.894533 161.92578 62.035156 C 161.92578 60.552523 161.49566 59.360238 160.63281 58.460938 C 159.76996 57.573782 158.54123 56.948558 156.94922 56.583984 C 156.42665 56.46251 155.7704 56.329484 154.98047 56.183594 C 154.20269 56.037805 153.49913 55.891984 152.86719 55.746094 C 151.72482 55.47873 150.89713 55.132379 150.38672 54.707031 C 149.86415 54.281708 149.60352 53.649098 149.60352 52.810547 C 149.60352 51.862616 150.03559 51.151687 150.89844 50.677734 C 151.76128 50.191637 152.81858 49.949219 154.07031 49.949219 C 155.27344 49.949219 156.50022 50.173409 157.75195 50.623047 C 159.00369 51.060565 160.06641 51.602012 160.94141 52.246094 L 161.125 52.246094 L 161.125 48.582031 C 160.29861 48.156683 159.25955 47.797513 158.00781 47.505859 C 156.76823 47.202036 155.5395 47.050781 154.32422 47.050781 z M 123.13477 49.802734 C 124.95768 49.802734 126.31207 50.294906 127.19922 51.279297 C 128.09858 52.263662 128.55431 53.654523 128.56641 55.453125 L 116.90039 55.453125 C 117.04622 53.848967 117.66059 52.507381 118.74219 51.425781 C 119.83594 50.344181 121.29969 49.802734 123.13477 49.802734 z M 99.800781 50.058594 C 100.57856 50.058594 101.35699 50.149858 102.13477 50.332031 C 102.9247 50.502186 103.77604 50.793853 104.6875 51.207031 L 104.6875 62.308594 C 103.84896 62.952701 102.9247 63.468534 101.91602 63.857422 C 100.91949 64.234165 99.922309 64.421875 98.925781 64.421875 C 97.066405 64.421875 95.735675 63.833132 94.933594 62.654297 C 94.13151 61.475487 93.730469 59.743709 93.730469 57.458984 C 93.730469 55.052736 94.271918 53.217024 95.353516 51.953125 C 96.435113 50.689251 97.917102 50.058594 99.800781 50.058594 z "
       transform="matrix(0.26458333,0,0,0.26458333,0,270.54165)"
       id="path831" />
  </g>
</svg>
