<?xml version="1.0" encoding="UTF-8" standalone="no"?>
<!-- Created with Inkscape (http://www.inkscape.org/) -->

<svg
   xmlns:osb="http://www.openswatchbook.org/uri/2009/osb"
   xmlns:dc="http://purl.org/dc/elements/1.1/"
   xmlns:cc="http://creativecommons.org/ns#"
   xmlns:rdf="http://www.w3.org/1999/02/22-rdf-syntax-ns#"
   xmlns:svg="http://www.w3.org/2000/svg"
   xmlns="http://www.w3.org/2000/svg"
   xmlns:sodipodi="http://sodipodi.sourceforge.net/DTD/sodipodi-0.dtd"
   xmlns:inkscape="http://www.inkscape.org/namespaces/inkscape"
   width="100"
   height="500"
   viewBox="0 0 26.458334 132.29166"
   version="1.1"
   id="svg8"
   inkscape:version="0.92.4 (5da689c313, 2019-01-14)"
   sodipodi:docname="cv.svg">
  <defs
     id="defs2">
    <linearGradient
       id="linearGradient898"
       osb:paint="solid">
      <stop
         style="stop-color:#000000;stop-opacity:1;"
         offset="0"
         id="stop896" />
    </linearGradient>
  </defs>
  <sodipodi:namedview
     id="base"
     pagecolor="#ffffff"
     bordercolor="#666666"
     borderopacity="1.0"
     inkscape:pageopacity="0.0"
     inkscape:pageshadow="2"
     inkscape:zoom="1.0074671"
     inkscape:cx="-619.51663"
     inkscape:cy="357.15199"
     inkscape:document-units="mm"
     inkscape:current-layer="layer1"
     showgrid="false"
     inkscape:window-width="1920"
     inkscape:window-height="1017"
     inkscape:window-x="1358"
     inkscape:window-y="-8"
     inkscape:window-maximized="1"
     units="px" />
  <metadata
     id="metadata5">
    <rdf:RDF>
      <cc:Work
         rdf:about="">
        <dc:format>image/svg+xml</dc:format>
        <dc:type
           rdf:resource="http://purl.org/dc/dcmitype/StillImage" />
        <dc:title></dc:title>
      </cc:Work>
    </rdf:RDF>
  </metadata>
  <g
     inkscape:label="Laag 1"
     inkscape:groupmode="layer"
     id="layer1"
     transform="translate(0,-164.70834)">
    <flowRoot
       xml:space="preserve"
       id="flowRoot819"
       style="font-style:normal;font-weight:normal;font-size:96px;line-height:1.25;font-family:sans-serif;letter-spacing:0px;word-spacing:0px;fill:#000000;fill-opacity:1;stroke:none"
       transform="scale(0.26458333)"><flowRegion
         id="flowRegion821"
         style="font-size:96px"><rect
           id="rect823"
           width="565.71429"
           height="402.85715"
           x="102.85714"
           y="279.66254"
           style="font-size:96px" /></flowRegion><flowPara
         id="flowPara825" /></flowRoot>    <flowRoot
       xml:space="preserve"
       id="flowRoot835"
       style="font-style:normal;font-weight:normal;font-size:40px;line-height:1.25;font-family:sans-serif;letter-spacing:0px;word-spacing:0px;fill:#000000;fill-opacity:1;stroke:none"
       transform="scale(0.26458333)"><flowRegion
         id="flowRegion837"><rect
           id="rect839"
           width="317.14285"
           height="162.85716"
           x="82.85714"
           y="408.23398" /></flowRegion><flowPara
         id="flowPara841" /></flowRoot>    <flowRoot
       xml:space="preserve"
       id="flowRoot876"
       style="font-style:normal;font-weight:normal;font-size:40px;line-height:1.25;font-family:sans-serif;letter-spacing:0px;word-spacing:0px;fill:#000000;fill-opacity:1;stroke:none"
       transform="matrix(0.26458333,0,0,0.26458333,0,270.54167)"><flowRegion
         id="flowRegion878"><rect
           id="rect880"
           width="100"
           height="97.14286"
           x="151.42857"
           y="60" /></flowRegion><flowPara
         id="flowPara882" /></flowRoot>    <flowRoot
       xml:space="preserve"
       id="flowRoot934"
       style="font-style:normal;font-weight:normal;font-size:40px;line-height:1.25;font-family:sans-serif;letter-spacing:0px;word-spacing:0px;fill:#000000;fill-opacity:1;stroke:none"
       transform="matrix(0.26458333,0,0,0.26458333,0,164.70834)"><flowRegion
         id="flowRegion936"><rect
           id="rect938"
           width="78.847862"
           height="478.34369"
           x="10.513048"
           y="8.5150156" /></flowRegion><flowPara
         id="flowPara940">Softskills</flowPara></flowRoot>    <path
       style="font-style:normal;font-variant:normal;font-weight:normal;font-stretch:normal;font-size:40px;line-height:1.25;font-family:'Agency FB';-inkscape-font-specification:'Agency FB';letter-spacing:0px;word-spacing:0px;fill:#ff2800;fill-opacity:1;stroke:none;stroke-width:2.42813063"
       d="M 88.095703 300.16797 L 9.2070312 301.28906 C 7.2881447 301.31633 5.7271184 301.7346 4.5253906 302.54297 C 3.3236605 303.35133 2.7325742 304.38039 2.7519531 305.63086 L 2.9902344 321.05859 C 3.0096124 322.30906 3.6327309 323.33344 4.859375 324.13281 C 6.0860171 324.93208 7.6592384 325.31823 9.578125 325.29102 L 32.898438 324.95898 L 32.816406 319.59961 L 10.199219 319.92188 L 9.9941406 306.59961 L 87.472656 305.49805 L 87.679688 318.82031 L 67.001953 319.11328 L 67.085938 324.47266 L 88.46875 324.16797 C 90.387634 324.14068 91.947102 323.71084 93.148438 322.87695 C 94.349796 322.04306 94.941277 321.00044 94.921875 319.75 L 94.681641 304.32422 C 94.662262 303.07377 94.040703 302.06096 92.814453 301.28711 C 91.588203 300.51334 90.014587 300.14076 88.095703 300.16797 z M 95.095703 331.08203 L 3.0917969 342.76562 L 3.1699219 347.7793 L 95.496094 356.84375 L 95.416016 351.71484 L 22.109375 345.32812 C 19.483219 345.21121 17.484309 345.15152 16.113281 345.14648 L 22.101562 344.83008 L 95.177734 336.36328 L 95.095703 331.08203 z M 13.998047 364.05078 L 3.6601562 364.19922 L 3.75 370.01758 L 14.087891 369.86914 L 13.998047 364.05078 z M 95.810547 377.09375 L 3.8789062 378.40039 L 3.9628906 383.7207 L 40.439453 383.20312 L 40.660156 397.32812 C 40.679535 398.57857 41.301096 399.58944 42.527344 400.36328 C 43.793148 401.16202 45.385801 401.5487 47.304688 401.52148 L 89.65625 400.91797 C 91.575134 400.89068 93.136555 400.46084 94.337891 399.62695 C 95.539644 398.81859 96.13073 397.78953 96.111328 396.53906 L 95.810547 377.09375 z M 88.666016 382.51562 L 88.869141 395.60742 L 47.927734 396.18945 L 47.724609 383.09961 L 88.666016 382.51562 z M 96.308594 409.24805 L 4.3769531 410.55469 L 4.5898438 424.25977 C 4.6388821 427.42419 6.2258164 430.01794 9.3515625 432.04102 C 12.516865 434.08907 16.528812 435.07685 21.384766 435.00781 L 80.066406 434.17383 C 84.922351 434.10479 88.881677 433.01539 91.943359 430.9043 C 95.044202 428.79267 96.568967 426.14112 96.519531 422.95117 L 96.308594 409.24805 z M 89.166016 414.67188 L 89.279297 422.05859 C 89.309747 424.0236 88.395896 425.63309 86.535156 426.88477 C 84.713968 428.16144 82.294697 428.82045 79.279297 428.86328 L 22.125 429.67578 C 18.952966 429.72088 16.434951 429.10539 14.574219 427.83008 C 12.753044 426.57971 11.826955 424.92254 11.794922 422.85547 L 11.685547 415.77344 L 89.166016 414.67188 z M 96.833984 443.24023 L 4.9042969 444.54688 L 4.9863281 449.86719 L 47.457031 449.26367 L 47.65625 462.125 L 54.998047 462.02148 L 54.798828 449.16016 L 89.691406 448.66406 L 89.908203 462.63477 L 97.132812 462.5332 L 96.833984 443.24023 z "
       transform="matrix(0.26458333,0,0,0.26458333,0,164.70834)"
       id="path837" />
  </g>
</svg>
