<?xml version="1.0" encoding="UTF-8" standalone="no"?>
<!-- Created with Inkscape (http://www.inkscape.org/) -->

<svg
   xmlns:dc="http://purl.org/dc/elements/1.1/"
   xmlns:cc="http://creativecommons.org/ns#"
   xmlns:rdf="http://www.w3.org/1999/02/22-rdf-syntax-ns#"
   xmlns:svg="http://www.w3.org/2000/svg"
   xmlns="http://www.w3.org/2000/svg"
   xmlns:sodipodi="http://sodipodi.sourceforge.net/DTD/sodipodi-0.dtd"
   xmlns:inkscape="http://www.inkscape.org/namespaces/inkscape"
   width="500"
   height="100"
   viewBox="0 0 132.29166 26.458334"
   version="1.1"
   id="svg8"
   inkscape:version="0.92.4 (5da689c313, 2019-01-14)"
   sodipodi:docname="F-interesses.svg">
  <defs
     id="defs2" />
  <sodipodi:namedview
     id="base"
     pagecolor="#ffffff"
     bordercolor="#666666"
     borderopacity="1.0"
     inkscape:pageopacity="0.0"
     inkscape:pageshadow="2"
     inkscape:zoom="1.4182101"
     inkscape:cx="113.35634"
     inkscape:cy="251.30524"
     inkscape:document-units="px"
     inkscape:current-layer="layer1"
     showgrid="false"
     units="px"
     inkscape:window-width="1920"
     inkscape:window-height="1017"
     inkscape:window-x="1358"
     inkscape:window-y="-8"
     inkscape:window-maximized="1" />
  <metadata
     id="metadata5">
    <rdf:RDF>
      <cc:Work
         rdf:about="">
        <dc:format>image/svg+xml</dc:format>
        <dc:type
           rdf:resource="http://purl.org/dc/dcmitype/StillImage" />
        <dc:title></dc:title>
      </cc:Work>
    </rdf:RDF>
  </metadata>
  <g
     inkscape:label="Laag 1"
     inkscape:groupmode="layer"
     id="layer1"
     transform="translate(0,-270.54165)">
    <path
       style="font-style:normal;font-variant:normal;font-weight:normal;font-stretch:normal;font-size:74.66666412px;line-height:1.25;font-family:'Agency FB';-inkscape-font-specification:'Agency FB';letter-spacing:0px;word-spacing:0px;fill:#d81159;fill-opacity:1;stroke:none;stroke-width:0.99999994"
       d="M 128.24414 21.738281 L 128.24414 78.794922 L 133.31055 78.794922 L 133.31055 21.738281 L 128.24414 21.738281 z M 172.32227 32.273438 L 172.32227 43.320312 L 168.05664 43.320312 L 168.05664 47.585938 L 172.32227 47.585938 L 172.32227 74.675781 C 172.32227 77.422288 173.68207 78.794922 176.4043 78.794922 L 183.29492 78.794922 L 183.29492 74.529297 L 177.09766 74.529297 L 177.09766 47.585938 L 183.29492 47.585938 L 183.29492 43.320312 L 177.09766 43.320312 L 177.09766 32.273438 L 172.32227 32.273438 z M 158.57617 43.101562 C 157.06923 43.101562 155.14974 43.247409 152.81641 43.539062 C 150.89627 43.806325 148.98763 44.061538 147.0918 44.304688 L 147.0918 43.320312 L 142.24414 43.320312 L 142.24414 78.794922 L 147.0918 78.794922 L 147.0918 47.951172 L 157.77539 47.660156 L 157.77539 78.794922 L 162.62305 78.794922 L 162.62305 47.076172 C 162.62305 44.426874 161.27409 43.101562 158.57617 43.101562 z M 231.89453 43.101562 C 230.60633 43.101562 228.98936 43.247409 227.04492 43.539062 C 225.41645 43.806325 223.80143 44.061538 222.19727 44.304688 L 222.19727 43.320312 L 217.34766 43.320312 L 217.34766 78.794922 L 222.19727 78.794922 L 222.19727 47.951172 L 231.12891 47.660156 L 231.12891 54.988281 L 235.9043 54.988281 L 235.9043 47.076172 C 235.9043 44.426874 234.56814 43.101562 231.89453 43.101562 z M 193.57617 43.320312 C 190.85395 43.320313 189.49414 44.694899 189.49414 47.441406 L 189.49414 74.675781 C 189.49414 77.422288 190.85395 78.794922 193.57617 78.794922 L 205.24414 78.794922 C 207.96636 78.794922 209.32617 77.422288 209.32617 74.675781 L 209.32617 68.257812 L 204.62305 68.257812 L 204.62305 74.748047 L 194.19727 74.748047 L 194.19727 61.914062 L 207.68555 61.914062 L 209.32617 60.201172 L 209.32617 47.441406 C 209.32617 44.694899 207.96636 43.320312 205.24414 43.320312 L 193.57617 43.320312 z M 246.22266 43.320312 C 243.50044 43.320313 242.13867 44.694899 242.13867 47.441406 L 242.13867 74.675781 C 242.13867 77.422288 243.50044 78.794922 246.22266 78.794922 L 257.88867 78.794922 C 260.61089 78.794922 261.97266 77.422288 261.97266 74.675781 L 261.97266 68.257812 L 257.26953 68.257812 L 257.26953 74.748047 L 246.8418 74.748047 L 246.8418 61.914062 L 260.33203 61.914062 L 261.97266 60.201172 L 261.97266 47.441406 C 261.97266 44.694899 260.61089 43.320312 257.88867 43.320312 L 246.22266 43.320312 z M 273.93164 43.320312 C 271.18511 43.320313 269.81055 44.694899 269.81055 47.441406 L 269.81055 53.347656 C 269.81055 54.903209 270.41949 56.166451 271.63477 57.138672 L 284.32227 67.529297 L 284.32227 74.601562 L 274.51367 74.601562 L 274.51367 66.617188 L 269.73828 66.617188 L 269.73828 74.675781 C 269.73828 77.422288 271.11089 78.794922 273.85742 78.794922 L 284.97852 78.794922 C 287.72504 78.794922 289.09766 77.422288 289.09766 74.675781 L 289.09766 67.966797 C 289.09766 66.338324 288.50151 65.049468 287.31055 64.101562 L 274.51367 53.710938 L 274.51367 47.513672 L 284.32227 47.513672 L 284.32227 54.513672 L 289.02539 54.513672 L 289.02539 47.441406 C 289.02539 44.694899 287.65082 43.320312 284.9043 43.320312 L 273.93164 43.320312 z M 300.76367 43.320312 C 298.01714 43.320313 296.64453 44.694899 296.64453 47.441406 L 296.64453 53.347656 C 296.64453 54.903209 297.25152 56.166451 298.4668 57.138672 L 311.1543 67.529297 L 311.1543 74.601562 L 301.34766 74.601562 L 301.34766 66.617188 L 296.57227 66.617188 L 296.57227 74.675781 C 296.57227 77.422288 297.94488 78.794922 300.69141 78.794922 L 311.81055 78.794922 C 314.55707 78.794922 315.93164 77.422288 315.93164 74.675781 L 315.93164 67.966797 C 315.93164 66.338324 315.3355 65.049468 314.14453 64.101562 L 301.34766 53.710938 L 301.34766 47.513672 L 311.1543 47.513672 L 311.1543 54.513672 L 315.85742 54.513672 L 315.85742 47.441406 C 315.85742 44.694899 314.48482 43.320312 311.73828 43.320312 L 300.76367 43.320312 z M 327.74414 43.320312 C 325.02191 43.320313 323.66016 44.694899 323.66016 47.441406 L 323.66016 74.675781 C 323.66016 77.422288 325.02191 78.794922 327.74414 78.794922 L 339.41016 78.794922 C 342.13238 78.794922 343.49414 77.422288 343.49414 74.675781 L 343.49414 68.257812 L 338.79102 68.257812 L 338.79102 74.748047 L 328.36328 74.748047 L 328.36328 61.914062 L 341.85352 61.914062 L 343.49414 60.201172 L 343.49414 47.441406 C 343.49414 44.694899 342.13238 43.320312 339.41016 43.320312 L 327.74414 43.320312 z M 355.45117 43.320312 C 352.70464 43.320313 351.33203 44.694899 351.33203 47.441406 L 351.33203 53.347656 C 351.33203 54.903209 351.93901 56.166451 353.1543 57.138672 L 365.8418 67.529297 L 365.8418 74.601562 L 356.03516 74.601562 L 356.03516 66.617188 L 351.25977 66.617188 L 351.25977 74.675781 C 351.25977 77.422288 352.63238 78.794922 355.37891 78.794922 L 366.49805 78.794922 C 369.24457 78.794922 370.61914 77.422288 370.61914 74.675781 L 370.61914 67.966797 C 370.61914 66.338324 370.023 65.049468 368.83203 64.101562 L 356.03516 53.710938 L 356.03516 47.513672 L 365.8418 47.513672 L 365.8418 54.513672 L 370.54492 54.513672 L 370.54492 47.441406 C 370.54492 44.694899 369.17231 43.320312 366.42578 43.320312 L 355.45117 43.320312 z M 194.19727 47.367188 L 204.62305 47.367188 L 204.62305 58.050781 L 194.19727 58.050781 L 194.19727 47.367188 z M 246.8418 47.367188 L 257.26953 47.367188 L 257.26953 58.050781 L 246.8418 58.050781 L 246.8418 47.367188 z M 328.36328 47.367188 L 338.79102 47.367188 L 338.79102 58.050781 L 328.36328 58.050781 L 328.36328 47.367188 z "
       transform="matrix(0.26458333,0,0,0.26458333,0,270.54165)"
       id="path819" />
  </g>
</svg>
