<?xml version="1.0" encoding="UTF-8" standalone="no"?>
<!-- Created with Inkscape (http://www.inkscape.org/) -->

<svg
   xmlns:osb="http://www.openswatchbook.org/uri/2009/osb"
   xmlns:dc="http://purl.org/dc/elements/1.1/"
   xmlns:cc="http://creativecommons.org/ns#"
   xmlns:rdf="http://www.w3.org/1999/02/22-rdf-syntax-ns#"
   xmlns:svg="http://www.w3.org/2000/svg"
   xmlns="http://www.w3.org/2000/svg"
   xmlns:sodipodi="http://sodipodi.sourceforge.net/DTD/sodipodi-0.dtd"
   xmlns:inkscape="http://www.inkscape.org/namespaces/inkscape"
   width="100"
   height="500"
   viewBox="0 0 26.458334 132.29166"
   version="1.1"
   id="svg8"
   inkscape:version="0.92.4 (5da689c313, 2019-01-14)"
   sodipodi:docname="hardskills.svg">
  <defs
     id="defs2">
    <linearGradient
       id="linearGradient898"
       osb:paint="solid">
      <stop
         style="stop-color:#000000;stop-opacity:1;"
         offset="0"
         id="stop896" />
    </linearGradient>
  </defs>
  <sodipodi:namedview
     id="base"
     pagecolor="#ffffff"
     bordercolor="#666666"
     borderopacity="1.0"
     inkscape:pageopacity="0.0"
     inkscape:pageshadow="2"
     inkscape:zoom="0.76095916"
     inkscape:cx="-742.11771"
     inkscape:cy="436.55905"
     inkscape:document-units="mm"
     inkscape:current-layer="layer1"
     showgrid="false"
     inkscape:window-width="1920"
     inkscape:window-height="1017"
     inkscape:window-x="1358"
     inkscape:window-y="-8"
     inkscape:window-maximized="1"
     units="px" />
  <metadata
     id="metadata5">
    <rdf:RDF>
      <cc:Work
         rdf:about="">
        <dc:format>image/svg+xml</dc:format>
        <dc:type
           rdf:resource="http://purl.org/dc/dcmitype/StillImage" />
        <dc:title></dc:title>
      </cc:Work>
    </rdf:RDF>
  </metadata>
  <g
     inkscape:label="Laag 1"
     inkscape:groupmode="layer"
     id="layer1"
     transform="translate(0,-164.70834)">
    <flowRoot
       xml:space="preserve"
       id="flowRoot819"
       style="font-style:normal;font-weight:normal;font-size:96px;line-height:1.25;font-family:sans-serif;letter-spacing:0px;word-spacing:0px;fill:#000000;fill-opacity:1;stroke:none"
       transform="scale(0.26458333)"><flowRegion
         id="flowRegion821"
         style="font-size:96px"><rect
           id="rect823"
           width="565.71429"
           height="402.85715"
           x="102.85714"
           y="279.66254"
           style="font-size:96px" /></flowRegion><flowPara
         id="flowPara825" /></flowRoot>    <flowRoot
       xml:space="preserve"
       id="flowRoot835"
       style="font-style:normal;font-weight:normal;font-size:40px;line-height:1.25;font-family:sans-serif;letter-spacing:0px;word-spacing:0px;fill:#000000;fill-opacity:1;stroke:none"
       transform="scale(0.26458333)"><flowRegion
         id="flowRegion837"><rect
           id="rect839"
           width="317.14285"
           height="162.85716"
           x="82.85714"
           y="408.23398" /></flowRegion><flowPara
         id="flowPara841" /></flowRoot>    <flowRoot
       xml:space="preserve"
       id="flowRoot876"
       style="font-style:normal;font-weight:normal;font-size:40px;line-height:1.25;font-family:sans-serif;letter-spacing:0px;word-spacing:0px;fill:#000000;fill-opacity:1;stroke:none"
       transform="matrix(0.26458333,0,0,0.26458333,0,270.54167)"><flowRegion
         id="flowRegion878"><rect
           id="rect880"
           width="100"
           height="97.14286"
           x="151.42857"
           y="60" /></flowRegion><flowPara
         id="flowPara882" /></flowRoot>    <flowRoot
       xml:space="preserve"
       id="flowRoot934"
       style="font-style:normal;font-weight:normal;font-size:40px;line-height:1.25;font-family:sans-serif;letter-spacing:0px;word-spacing:0px;fill:#000000;fill-opacity:1;stroke:none"
       transform="matrix(0.26458333,0,0,0.26458333,0,164.70834)"><flowRegion
         id="flowRegion936"><rect
           id="rect938"
           width="78.847862"
           height="478.34369"
           x="10.513048"
           y="8.5150156" /></flowRegion><flowPara
         id="flowPara940">Softskills</flowPara></flowRoot>    <path
       style="font-style:normal;font-variant:normal;font-weight:normal;font-stretch:normal;font-size:40px;line-height:1.25;font-family:'Agency FB';-inkscape-font-specification:'Agency FB';letter-spacing:0px;word-spacing:0px;fill:#ff2800;fill-opacity:1;stroke:none;stroke-width:2.42813063"
       d="M 88.068359 256.76758 L 77.259766 256.84375 C 74.635781 256.86192 72.564005 257.50057 71.046875 258.76172 L 54.416016 272.31445 L 44.427734 272.38477 L 44.34375 262.08594 L 55.623047 262.00781 L 55.582031 257.07031 L 44.185547 257.14844 C 39.760035 257.1791 37.560325 258.63753 37.583984 261.52148 L 37.677734 273.04297 C 37.701406 275.927 39.926037 277.35496 44.351562 277.32422 L 53.869141 277.25781 C 56.375633 277.24043 58.406806 276.58771 59.962891 275.30078 L 76.595703 261.86328 L 87.992188 261.7832 L 88.076172 272.08203 L 75.210938 272.17188 L 75.251953 277.18555 L 88.236328 277.0957 C 92.661868 277.06504 94.861576 275.60857 94.837891 272.72461 L 94.742188 261.04883 C 94.718515 258.1648 92.493884 256.73684 88.068359 256.76758 z M 94.941406 285.39648 L 3.0058594 286.0332 L 3.046875 291.04883 L 94.984375 290.41016 L 94.941406 285.39648 z M 95.056641 299.33008 L 3.1191406 299.96875 L 3.1601562 304.98242 L 95.097656 304.3457 L 95.056641 299.33008 z M 95.171875 313.26562 L 38.011719 313.66211 L 38.052734 318.67773 L 95.212891 318.28125 L 95.171875 313.26562 z M 25.498047 313.67188 L 15.628906 313.74023 L 15.671875 318.9082 L 25.541016 318.83984 L 25.498047 313.67188 z M 95.259766 324.02344 L 63.691406 335.8418 L 38.341797 325.18359 L 38.105469 325.18555 L 38.150391 330.66016 L 61.845703 340.06641 L 3.4511719 340.4707 L 3.4941406 345.5625 L 95.431641 344.92578 L 95.388672 339.83398 L 66.251953 340.03516 L 95.304688 329.57422 L 95.259766 324.02344 z M 88.859375 353.08789 L 78.050781 353.16211 C 75.426796 353.1803 73.355021 353.82085 71.837891 355.08203 L 55.207031 368.63477 L 45.21875 368.70312 L 45.134766 358.40625 L 56.414062 358.32812 L 56.373047 353.38867 L 44.976562 353.4668 C 40.551025 353.49746 38.349362 354.95589 38.373047 357.83984 L 38.46875 369.36328 C 38.49242 372.24731 40.717054 373.67332 45.142578 373.64258 L 54.660156 373.57617 C 57.166648 373.55881 59.197822 372.90805 60.753906 371.62109 L 77.386719 358.18164 L 88.783203 358.10352 L 88.867188 368.40039 L 76.001953 368.49023 L 76.042969 373.50586 L 89.025391 373.41602 C 93.450928 373.38533 95.652591 371.92692 95.628906 369.04297 L 95.533203 357.36719 C 95.509531 354.48316 93.284899 353.05715 88.859375 353.08789 z M 95.730469 381.48438 L 3.7929688 382.12305 L 3.8359375 387.17578 L 38.613281 386.93555 L 38.681641 395.31836 C 38.700284 397.58978 39.889756 399.47143 42.251953 400.96094 C 44.574984 402.45148 47.500636 403.1834 51.025391 403.1582 L 84.451172 402.92578 C 87.819273 402.90242 90.633918 402.21982 92.894531 400.87695 C 95.116067 399.53434 96.217109 397.77872 96.199219 395.60938 C 96.194401 395.02239 95.522787 392.00348 94.185547 386.55078 L 95.773438 386.53906 L 95.730469 381.48438 z M 88.664062 386.58789 C 89.088702 390.61762 89.30305 392.96339 89.308594 393.62695 C 89.331636 396.43429 87.150033 397.85428 82.763672 397.88477 L 52.216797 398.0957 C 47.791159 398.12637 45.565898 396.73905 45.542969 393.93164 L 45.486328 386.88672 L 88.664062 386.58789 z M 57.597656 409.4668 L 44.849609 409.55664 C 40.580855 409.58622 38.45754 411.00509 38.480469 413.8125 C 38.49157 415.16514 38.741791 416.85996 39.228516 418.89844 C 39.673356 420.60542 40.098441 422.29876 40.503906 423.98047 L 38.916016 423.99219 L 38.958984 429.08398 L 96.119141 428.6875 L 96.076172 423.5957 L 46.376953 423.94141 L 45.830078 414.56445 L 57.638672 414.48242 L 57.597656 409.4668 z M 96.1875 437.0332 L 45.666016 437.38477 C 41.240521 437.41543 39.039067 438.86029 39.0625 441.71875 L 39.162109 453.96875 C 39.185573 456.82726 41.410413 458.24168 45.835938 458.21094 L 55.470703 458.14258 L 55.429688 453.20508 L 45.677734 453.27148 L 45.587891 442.32422 L 62.800781 442.20312 L 62.900391 454.18555 C 62.924063 457.0696 65.127311 458.49729 69.513672 458.4668 L 90.369141 458.32227 C 94.598941 458.29296 96.702617 456.88735 96.679688 454.10547 C 96.667328 452.5997 96.416278 450.5975 95.925781 448.09961 C 95.517592 446.0861 95.089933 444.07378 94.642578 442.06055 L 96.228516 442.04883 L 96.1875 437.0332 z M 89.119141 442.02148 L 89.564453 453.38867 L 69.003906 453.53125 L 68.910156 442.16211 L 89.119141 442.02148 z M 96.433594 467.00781 L 4.4960938 467.64648 L 4.5390625 472.9668 L 44.957031 472.6875 L 45.074219 487.11914 L 4.6582031 487.40039 L 4.7011719 492.7207 L 96.638672 492.08398 L 96.595703 486.76172 L 52.417969 487.06836 L 52.298828 472.63672 L 96.476562 472.33008 L 96.433594 467.00781 z "
       transform="matrix(0.26458333,0,0,0.26458333,0,164.70834)"
       id="path837" />
  </g>
</svg>
