<?xml version="1.0" encoding="UTF-8" standalone="no"?>
<!-- Created with Inkscape (http://www.inkscape.org/) -->

<svg
   xmlns:dc="http://purl.org/dc/elements/1.1/"
   xmlns:cc="http://creativecommons.org/ns#"
   xmlns:rdf="http://www.w3.org/1999/02/22-rdf-syntax-ns#"
   xmlns:svg="http://www.w3.org/2000/svg"
   xmlns="http://www.w3.org/2000/svg"
   xmlns:sodipodi="http://sodipodi.sourceforge.net/DTD/sodipodi-0.dtd"
   xmlns:inkscape="http://www.inkscape.org/namespaces/inkscape"
   width="500"
   height="100"
   viewBox="0 0 132.29166 26.458334"
   version="1.1"
   id="svg8"
   inkscape:version="0.92.4 (5da689c313, 2019-01-14)"
   sodipodi:docname="hs-2.svg">
  <defs
     id="defs2" />
  <sodipodi:namedview
     id="base"
     pagecolor="#ffffff"
     bordercolor="#666666"
     borderopacity="1.0"
     inkscape:pageopacity="0.0"
     inkscape:pageshadow="2"
     inkscape:zoom="1.3249068"
     inkscape:cx="-9.2937966"
     inkscape:cy="251.30524"
     inkscape:document-units="px"
     inkscape:current-layer="layer1"
     showgrid="false"
     units="px"
     inkscape:window-width="1920"
     inkscape:window-height="1017"
     inkscape:window-x="1358"
     inkscape:window-y="-8"
     inkscape:window-maximized="1" />
  <metadata
     id="metadata5">
    <rdf:RDF>
      <cc:Work
         rdf:about="">
        <dc:format>image/svg+xml</dc:format>
        <dc:type
           rdf:resource="http://purl.org/dc/dcmitype/StillImage" />
        <dc:title></dc:title>
      </cc:Work>
    </rdf:RDF>
  </metadata>
  <g
     inkscape:label="Laag 1"
     inkscape:groupmode="layer"
     id="layer1"
     transform="translate(0,-270.54165)">
    <path
       style="font-style:normal;font-variant:normal;font-weight:normal;font-stretch:normal;font-size:37.33333206px;line-height:1.25;font-family:'Segoe MDL2 Assets';-inkscape-font-specification:'Segoe MDL2 Assets';letter-spacing:0px;word-spacing:0px;fill:#0496ff;fill-opacity:1;stroke:none;stroke-width:0.99999994"
       d="M 153.72852 33.501953 L 153.72852 61.865234 L 157.1543 61.865234 L 157.1543 33.501953 L 153.72852 33.501953 z M 250.01367 33.501953 L 250.01367 61.865234 L 253.44141 61.865234 L 253.44141 46.662109 C 254.37716 45.945108 255.35612 45.356339 256.37695 44.894531 C 257.39779 44.432723 258.37478 44.201172 259.31055 44.201172 C 260.22201 44.201172 260.96398 44.328791 261.53516 44.583984 C 262.10634 44.827058 262.54384 45.204431 262.84766 45.714844 C 263.13931 46.176652 263.33984 46.820103 263.44922 47.646484 C 263.5586 48.460721 263.61328 49.335724 263.61328 50.271484 L 263.61328 61.865234 L 267.04102 61.865234 L 267.04102 48.650391 C 267.04102 46.159077 266.46311 44.25043 265.30859 42.925781 C 264.15408 41.601132 262.477 40.939453 260.27734 40.939453 C 259.07422 40.939453 257.90213 41.187304 256.75977 41.685547 C 255.61741 42.183815 254.51085 42.876516 253.44141 43.763672 L 253.44141 33.501953 L 250.01367 33.501953 z M 299.85352 33.501953 L 299.85352 42.324219 C 298.94206 41.850241 298.07248 41.503865 297.24609 41.285156 C 296.4197 41.054353 295.47178 40.939453 294.40234 40.939453 C 293.22352 40.939453 292.08051 41.181871 290.97461 41.667969 C 289.88086 42.154092 288.9221 42.859587 288.0957 43.783203 C 287.25716 44.731109 286.5881 45.879552 286.08984 47.228516 C 285.60373 48.577454 285.36133 50.114137 285.36133 51.839844 C 285.36133 55.157563 286.07227 57.751526 287.49414 59.623047 C 288.92817 61.494568 290.86046 62.431641 293.29102 62.431641 C 294.54275 62.431641 295.70204 62.194656 296.77148 61.720703 C 297.84092 61.24675 298.86914 60.583118 299.85352 59.732422 L 299.85352 61.865234 L 303.2793 61.865234 L 303.2793 33.501953 L 299.85352 33.501953 z M 356.03516 33.501953 L 356.03516 61.865234 L 359.46289 61.865234 L 359.46289 55.066406 L 361.68555 52.951172 L 369.85352 61.865234 L 374.37305 61.865234 L 364.2207 50.910156 L 373.68164 41.503906 L 369.36133 41.503906 L 359.46289 51.693359 L 359.46289 33.501953 L 356.03516 33.501953 z M 200.61328 34.541016 L 200.61328 38.095703 L 204.47852 38.095703 L 204.47852 34.541016 L 200.61328 34.541016 z M 89.068359 34.722656 L 79.189453 61.865234 L 82.853516 61.865234 L 85.513672 54.300781 L 97.253906 54.300781 L 99.916016 61.865234 L 103.76172 61.865234 L 93.880859 34.722656 L 89.068359 34.722656 z M 186.13867 35.652344 L 186.13867 41.503906 L 183.82422 41.503906 L 183.82422 44.384766 L 186.13867 44.384766 L 186.13867 55.212891 C 186.13867 57.679914 186.68012 59.471809 187.76172 60.589844 C 188.84332 61.707904 190.42383 62.267578 192.50195 62.267578 C 193.09744 62.267578 193.77192 62.21287 194.52539 62.103516 C 195.29102 61.994086 195.99457 61.853672 196.63867 61.683594 L 196.63867 58.603516 L 196.45703 58.603516 C 196.18966 58.712946 195.75217 58.851406 195.14453 59.021484 C 194.53689 59.179469 193.95356 59.259766 193.39453 59.259766 C 192.43446 59.259766 191.7181 59.150349 191.24414 58.931641 C 190.78234 58.700737 190.41776 58.341592 190.15039 57.855469 C 189.85872 57.332911 189.68728 56.773212 189.63867 56.177734 C 189.59007 55.570087 189.56641 54.731565 189.56641 53.662109 L 189.56641 44.384766 L 196.63867 44.384766 L 196.63867 41.503906 L 189.56641 41.503906 L 189.56641 35.652344 L 186.13867 35.652344 z M 91.384766 37.876953 L 96.142578 51.201172 L 86.607422 51.201172 L 91.384766 37.876953 z M 117.87109 40.939453 C 116.66797 40.939453 115.49588 41.187304 114.35352 41.685547 C 113.21115 42.183815 112.1046 42.876516 111.03516 43.763672 L 111.03516 41.503906 L 107.60742 41.503906 L 107.60742 61.865234 L 111.03516 61.865234 L 111.03516 46.662109 C 111.97092 45.945108 112.94987 45.356339 113.9707 44.894531 C 114.99154 44.432723 115.96853 44.201172 116.9043 44.201172 C 117.81576 44.201172 118.55773 44.328791 119.12891 44.583984 C 119.70009 44.827058 120.13759 45.204431 120.44141 45.714844 C 120.73307 46.176652 120.93359 46.820103 121.04297 47.646484 C 121.15235 48.460721 121.20703 49.335724 121.20703 50.271484 L 121.20703 61.865234 L 124.63477 61.865234 L 124.63477 48.650391 C 124.63477 46.159077 124.05686 44.25043 122.90234 42.925781 C 121.74783 41.601132 120.07075 40.939453 117.87109 40.939453 z M 318.48242 40.939453 C 315.51714 40.939453 313.1237 41.916461 311.30078 43.873047 C 309.49001 45.829658 308.58398 48.472895 308.58398 51.802734 C 308.58398 55.169059 309.5319 57.770407 311.42773 59.605469 C 313.32357 61.428385 315.96137 62.339844 319.33984 62.339844 C 320.6645 62.339844 321.92773 62.17577 323.13086 61.847656 C 324.33399 61.519543 325.51346 61.113076 326.66797 60.626953 L 326.66797 56.888672 L 326.48633 56.888672 C 325.89085 57.423399 324.88824 57.97028 323.47852 58.529297 C 322.08095 59.076169 320.68815 59.349609 319.30273 59.349609 C 318.25759 59.349609 317.29883 59.203763 316.42383 58.912109 C 315.56098 58.620431 314.81358 58.182942 314.18164 57.599609 C 313.52539 57.004132 313.00759 56.245881 312.63086 55.322266 C 312.25412 54.386505 312.06641 53.29277 312.06641 52.041016 L 327.06836 52.041016 L 327.06836 50.181641 C 327.06836 47.228519 326.32096 44.949861 324.82617 43.345703 C 323.34353 41.741546 321.22895 40.939453 318.48242 40.939453 z M 342.52734 40.939453 C 341.32422 40.939453 340.15213 41.187304 339.00977 41.685547 C 337.86741 42.183815 336.76085 42.876516 335.69141 43.763672 L 335.69141 41.503906 L 332.26367 41.503906 L 332.26367 61.865234 L 335.69141 61.865234 L 335.69141 46.662109 C 336.62716 45.945108 337.60612 45.356339 338.62695 44.894531 C 339.64779 44.432723 340.62478 44.201172 341.56055 44.201172 C 342.47201 44.201172 343.21398 44.328791 343.78516 44.583984 C 344.35634 44.827058 344.79384 45.204431 345.09766 45.714844 C 345.38931 46.176652 345.58984 46.820103 345.69922 47.646484 C 345.8086 48.460721 345.86328 49.335724 345.86328 50.271484 L 345.86328 61.865234 L 349.29102 61.865234 L 349.29102 48.650391 C 349.29102 46.159077 348.71311 44.25043 347.55859 42.925781 C 346.40408 41.601132 344.727 40.939453 342.52734 40.939453 z M 386.07617 40.939453 C 383.11088 40.939453 380.71745 41.916461 378.89453 43.873047 C 377.08378 45.829658 376.17773 48.472895 376.17773 51.802734 C 376.17773 55.169059 377.12564 57.770407 379.02148 59.605469 C 380.9173 61.428385 383.5551 62.339844 386.93359 62.339844 C 388.25824 62.339844 389.52148 62.17577 390.72461 61.847656 C 391.92773 61.519543 393.1072 61.113076 394.26172 60.626953 L 394.26172 56.888672 L 394.08008 56.888672 C 393.4846 57.423399 392.48198 57.97028 391.07227 58.529297 C 389.6747 59.076169 388.28191 59.349609 386.89648 59.349609 C 385.85134 59.349609 384.89259 59.203763 384.01758 58.912109 C 383.15474 58.620431 382.40733 58.182942 381.77539 57.599609 C 381.11914 57.004132 380.60135 56.245881 380.22461 55.322266 C 379.84787 54.386505 379.66016 53.29277 379.66016 52.041016 L 394.66211 52.041016 L 394.66211 50.181641 C 394.66211 47.228519 393.91473 44.949861 392.41992 43.345703 C 390.93729 41.741546 388.8227 40.939453 386.07617 40.939453 z M 410.12109 40.939453 C 408.91797 40.939453 407.74589 41.187304 406.60352 41.685547 C 405.46117 42.183815 404.35461 42.876516 403.28516 43.763672 L 403.28516 41.503906 L 399.85742 41.503906 L 399.85742 61.865234 L 403.28516 61.865234 L 403.28516 46.662109 C 404.22092 45.945108 405.19985 45.356339 406.2207 44.894531 C 407.24153 44.432723 408.21854 44.201172 409.1543 44.201172 C 410.06577 44.201172 410.80774 44.328791 411.37891 44.583984 C 411.95009 44.827058 412.38758 45.204431 412.69141 45.714844 C 412.98308 46.176652 413.18361 46.820103 413.29297 47.646484 C 413.40232 48.460721 413.45703 49.335724 413.45703 50.271484 L 413.45703 61.865234 L 416.88477 61.865234 L 416.88477 48.650391 C 416.88477 46.159077 416.30686 44.25043 415.15234 42.925781 C 413.99782 41.601132 412.32073 40.939453 410.12109 40.939453 z M 138.19727 41.011719 C 136.96983 41.011719 135.72287 41.121135 134.45898 41.339844 C 133.1951 41.558704 132.22895 41.759233 131.56055 41.941406 L 131.56055 45.423828 L 131.74414 45.423828 C 132.92296 44.974064 134.06402 44.633147 135.16992 44.402344 C 136.27582 44.159194 137.27843 44.037109 138.17773 44.037109 C 138.91905 44.037109 139.62999 44.086334 140.31055 44.183594 C 140.9911 44.280828 141.57444 44.468538 142.06055 44.748047 C 142.57096 45.039726 142.96115 45.440759 143.22852 45.951172 C 143.50803 46.461584 143.64648 47.106989 143.64648 47.884766 L 143.64648 48.412109 C 141.65343 48.509268 139.78863 48.65509 138.05078 48.849609 C 136.31293 49.044053 134.82357 49.416018 133.58398 49.962891 C 132.35655 50.509763 131.40864 51.262581 130.74023 52.222656 C 130.08398 53.170562 129.75586 54.415576 129.75586 55.958984 C 129.75586 57.842651 130.39388 59.392127 131.66992 60.607422 C 132.94596 61.822691 134.50282 62.431641 136.33789 62.431641 C 137.33442 62.431641 138.20204 62.333192 138.94336 62.138672 C 139.68468 61.956373 140.34093 61.726774 140.91211 61.447266 C 141.39822 61.228532 141.89779 60.936864 142.4082 60.572266 C 142.93077 60.195548 143.34266 59.90388 143.64648 59.697266 L 143.64648 61.865234 L 147.05664 61.865234 L 147.05664 48.048828 C 147.05664 46.736324 146.85612 45.637156 146.45508 44.75 C 146.05404 43.862844 145.4707 43.139095 144.70508 42.580078 C 143.9273 42.00879 143.00304 41.607756 141.93359 41.376953 C 140.8763 41.133804 139.63129 41.011719 138.19727 41.011719 z M 218.02148 41.011719 C 216.72114 41.011719 215.54362 41.181201 214.48633 41.521484 C 213.44119 41.849598 212.57704 42.299906 211.89648 42.871094 C 211.19163 43.454426 210.66298 44.116105 210.31055 44.857422 C 209.97027 45.598738 209.80078 46.389964 209.80078 47.228516 C 209.80078 48.565309 210.17079 49.695525 210.91211 50.619141 C 211.66558 51.530612 212.9362 52.223313 214.72266 52.697266 C 215.36675 52.867344 216.07769 53.024032 216.85547 53.169922 C 217.6454 53.315761 218.28343 53.44338 218.76953 53.552734 C 220.08203 53.844413 220.96984 54.198125 221.43164 54.611328 C 221.89345 55.024506 222.12305 55.631502 222.12305 56.433594 C 222.12305 57.478734 221.69835 58.244371 220.84766 58.730469 C 219.99696 59.216592 218.81749 59.458984 217.31055 59.458984 C 216.09527 59.458984 214.82661 59.222 213.50195 58.748047 C 212.17731 58.261924 210.97418 57.613064 209.89258 56.798828 L 209.70898 56.798828 L 209.70898 60.644531 C 210.55968 61.069879 211.61155 61.46548 212.86328 61.830078 C 214.12718 62.182506 215.51259 62.357422 217.01953 62.357422 C 219.68099 62.357422 221.77734 61.763245 223.30859 60.572266 C 224.85199 59.381286 225.62305 57.85547 225.62305 55.996094 C 225.62305 54.513461 225.19292 53.323129 224.33008 52.423828 C 223.46723 51.536672 222.2385 50.909495 220.64648 50.544922 C 220.12391 50.423448 219.46766 50.290421 218.67773 50.144531 C 217.89996 49.998742 217.1964 49.852921 216.56445 49.707031 C 215.42209 49.439667 214.5944 49.093317 214.08398 48.667969 C 213.56141 48.242646 213.30078 47.610036 213.30078 46.771484 C 213.30078 45.823554 213.73286 45.112625 214.5957 44.638672 C 215.45856 44.152574 216.51584 43.910156 217.76758 43.910156 C 218.97071 43.910156 220.19748 44.134347 221.44922 44.583984 C 222.70096 45.021502 223.76367 45.562949 224.63867 46.207031 L 224.82227 46.207031 L 224.82227 42.542969 C 223.99587 42.117621 222.95681 41.75845 221.70508 41.466797 C 220.46549 41.162973 219.23676 41.011719 218.02148 41.011719 z M 239.07617 41.029297 C 236.07443 41.029297 233.65733 41.977211 231.82227 43.873047 C 229.99934 45.768883 229.08789 48.383026 229.08789 51.712891 C 229.08789 53.499347 229.33029 55.059691 229.81641 56.396484 C 230.30252 57.733303 230.98981 58.839858 231.87695 59.714844 C 232.75195 60.589855 233.80187 61.246101 235.0293 61.683594 C 236.25673 62.108942 237.60569 62.322266 239.07617 62.322266 C 240.23069 62.322266 241.31901 62.169058 242.33984 61.865234 C 243.37283 61.561436 244.46116 61.136741 245.60352 60.589844 L 245.60352 56.816406 L 245.41992 56.816406 C 245.16471 57.022995 244.81836 57.2728 244.38086 57.564453 C 243.94336 57.843987 243.47678 58.110041 242.97852 58.365234 C 242.40734 58.657014 241.76193 58.893999 241.04492 59.076172 C 240.3279 59.258345 239.62435 59.349609 238.93164 59.349609 C 236.93859 59.349609 235.38911 58.693363 234.2832 57.380859 C 233.18946 56.056211 232.64258 54.167744 232.64258 51.712891 C 232.64258 49.185117 233.20031 47.271062 234.31836 45.970703 C 235.44857 44.658199 236.9872 44.001953 238.93164 44.001953 C 239.98894 44.001953 241.06988 44.220685 242.17578 44.658203 C 243.29384 45.095696 244.37478 45.72092 245.41992 46.535156 L 245.60352 46.535156 L 245.60352 42.724609 C 244.66775 42.250657 243.63411 41.849598 242.50391 41.521484 C 241.38585 41.193346 240.24284 41.029297 239.07617 41.029297 z M 161.71289 41.503906 L 169.82422 60.880859 L 166.0332 69.376953 L 169.69727 69.376953 L 181.58203 41.503906 L 177.99023 41.503906 L 171.68359 56.597656 L 165.43164 41.503906 L 161.71289 41.503906 z M 200.83203 41.503906 L 200.83203 61.865234 L 204.25977 61.865234 L 204.25977 41.503906 L 200.83203 41.503906 z M 318.30078 43.763672 C 320.1237 43.763672 321.47808 44.255844 322.36523 45.240234 C 323.2646 46.2246 323.72033 47.617414 323.73242 49.416016 L 312.06641 49.416016 C 312.21224 47.811858 312.8266 46.468319 313.9082 45.386719 C 315.00195 44.305119 316.46571 43.763672 318.30078 43.763672 z M 385.89453 43.763672 C 387.71745 43.763672 389.07183 44.255844 389.95898 45.240234 C 390.85783 46.2246 391.31357 47.617414 391.32617 49.416016 L 379.66016 49.416016 C 379.806 47.811858 380.42035 46.468319 381.50195 45.386719 C 382.5957 44.305119 384.05944 43.763672 385.89453 43.763672 z M 294.98633 44.074219 C 295.84917 44.074219 296.64388 44.152563 297.37305 44.310547 C 298.10221 44.468531 298.9299 44.754791 299.85352 45.167969 L 299.85352 56.853516 C 298.99067 57.534083 298.06099 58.091804 297.06445 58.529297 C 296.06793 58.954645 295.08355 59.167969 294.11133 59.167969 C 292.28841 59.167969 290.9631 58.542745 290.13672 57.291016 C 289.31033 56.027116 288.89648 54.185972 288.89648 51.767578 C 288.89648 49.312699 289.43251 47.416872 290.50195 46.080078 C 291.5714 44.743284 293.06619 44.074219 294.98633 44.074219 z M 143.64648 51.183594 L 143.64648 56.853516 C 142.79579 57.509768 141.87348 58.074875 140.87695 58.548828 C 139.88043 59.010636 138.7793 59.240234 137.57617 59.240234 C 136.12999 59.240234 135.05447 58.948567 134.34961 58.365234 C 133.64475 57.769757 133.29297 56.889321 133.29297 55.722656 C 133.29297 54.689661 133.59744 53.88216 134.20508 53.298828 C 134.81272 52.703351 135.60742 52.265837 136.5918 51.986328 C 137.41819 51.755323 138.53754 51.57848 139.94727 51.457031 C 141.36914 51.335582 142.60134 51.244318 143.64648 51.183594 z "
       transform="matrix(0.26458333,0,0,0.26458333,0,270.54165)"
       id="path819" />
  </g>
</svg>
