<?xml version="1.0" encoding="UTF-8" standalone="no"?>
<!-- Created with Inkscape (http://www.inkscape.org/) -->

<svg
   xmlns:dc="http://purl.org/dc/elements/1.1/"
   xmlns:cc="http://creativecommons.org/ns#"
   xmlns:rdf="http://www.w3.org/1999/02/22-rdf-syntax-ns#"
   xmlns:svg="http://www.w3.org/2000/svg"
   xmlns="http://www.w3.org/2000/svg"
   xmlns:sodipodi="http://sodipodi.sourceforge.net/DTD/sodipodi-0.dtd"
   xmlns:inkscape="http://www.inkscape.org/namespaces/inkscape"
   width="500"
   height="100"
   viewBox="0 0 132.29166 26.458334"
   version="1.1"
   id="svg8"
   inkscape:version="0.92.4 (5da689c313, 2019-01-14)"
   sodipodi:docname="hs-4.svg">
  <defs
     id="defs2" />
  <sodipodi:namedview
     id="base"
     pagecolor="#ffffff"
     bordercolor="#666666"
     borderopacity="1.0"
     inkscape:pageopacity="0.0"
     inkscape:pageshadow="2"
     inkscape:zoom="1.3249068"
     inkscape:cx="-9.2937966"
     inkscape:cy="251.30524"
     inkscape:document-units="px"
     inkscape:current-layer="layer1"
     showgrid="false"
     units="px"
     inkscape:window-width="1920"
     inkscape:window-height="1017"
     inkscape:window-x="1358"
     inkscape:window-y="-8"
     inkscape:window-maximized="1" />
  <metadata
     id="metadata5">
    <rdf:RDF>
      <cc:Work
         rdf:about="">
        <dc:format>image/svg+xml</dc:format>
        <dc:type
           rdf:resource="http://purl.org/dc/dcmitype/StillImage" />
        <dc:title></dc:title>
      </cc:Work>
    </rdf:RDF>
  </metadata>
  <g
     inkscape:label="Laag 1"
     inkscape:groupmode="layer"
     id="layer1"
     transform="translate(0,-270.54165)">
    <path
       style="font-style:normal;font-variant:normal;font-weight:normal;font-stretch:normal;font-size:37.33333206px;line-height:1.25;font-family:'Segoe MDL2 Assets';-inkscape-font-specification:'Segoe MDL2 Assets';letter-spacing:0px;word-spacing:0px;fill:#ffbc42;fill-opacity:1;stroke:none;stroke-width:0.99999994"
       d="M 354.21875 34.255859 L 354.21875 62.621094 L 357.64648 62.621094 L 357.64648 34.255859 L 354.21875 34.255859 z M 364.5 34.255859 L 364.5 62.621094 L 367.92773 62.621094 L 367.92773 34.255859 L 364.5 34.255859 z M 117.38477 35.294922 L 117.38477 38.849609 L 121.25 38.849609 L 121.25 35.294922 L 117.38477 35.294922 z M 166.3125 35.294922 L 166.3125 38.849609 L 170.17773 38.849609 L 170.17773 35.294922 L 166.3125 35.294922 z M 213.5625 35.294922 L 213.5625 38.849609 L 217.42773 38.849609 L 217.42773 35.294922 L 213.5625 35.294922 z M 79.341797 35.476562 L 79.341797 62.621094 L 82.951172 62.621094 L 82.951172 52.503906 L 86.560547 52.503906 C 88.50499 52.503906 90.114583 52.27233 91.390625 51.810547 C 92.666667 51.336569 93.773221 50.631073 94.708984 49.695312 C 95.462456 48.941851 96.045789 48.056007 96.458984 47.035156 C 96.884332 46.002186 97.095703 44.882812 97.095703 43.679688 C 97.095703 42.09982 96.811417 40.794714 96.240234 39.761719 C 95.681207 38.728749 94.884548 37.864587 93.851562 37.171875 C 92.976562 36.588543 91.973957 36.163848 90.84375 35.896484 C 89.71354 35.616976 88.333548 35.476562 86.705078 35.476562 L 79.341797 35.476562 z M 176.84961 36.40625 L 176.84961 42.257812 L 174.5332 42.257812 L 174.5332 45.138672 L 176.84961 45.138672 L 176.84961 55.966797 C 176.84961 58.433821 177.3891 60.225715 178.4707 61.34375 C 179.5523 62.46181 181.13281 63.021484 183.21094 63.021484 C 183.80642 63.021484 184.4809 62.966776 185.23438 62.857422 C 186 62.747992 186.70552 62.607579 187.34961 62.4375 L 187.34961 59.357422 L 187.16602 59.357422 C 186.89865 59.466852 186.46116 59.607265 185.85352 59.777344 C 185.24588 59.935328 184.66254 60.013672 184.10352 60.013672 C 183.14345 60.013672 182.42709 59.904256 181.95312 59.685547 C 181.49132 59.454643 181.12674 59.095498 180.85938 58.609375 C 180.5677 58.086818 180.39821 57.529071 180.34961 56.933594 C 180.301 56.325946 180.27539 55.487424 180.27539 54.417969 L 180.27539 45.138672 L 187.34961 45.138672 L 187.34961 42.257812 L 180.27539 42.257812 L 180.27539 36.40625 L 176.84961 36.40625 z M 224.09961 36.40625 L 224.09961 42.257812 L 221.7832 42.257812 L 221.7832 45.138672 L 224.09961 45.138672 L 224.09961 55.966797 C 224.09961 58.433821 224.6391 60.225715 225.7207 61.34375 C 226.8023 62.46181 228.38281 63.021484 230.46094 63.021484 C 231.05642 63.021484 231.7309 62.966776 232.48438 62.857422 C 233.25 62.747992 233.95551 62.607579 234.59961 62.4375 L 234.59961 59.357422 L 234.41602 59.357422 C 234.14866 59.466852 233.71116 59.607265 233.10352 59.777344 C 232.49588 59.935328 231.91254 60.013672 231.35352 60.013672 C 230.39345 60.013672 229.67709 59.904256 229.20312 59.685547 C 228.74132 59.454643 228.37674 59.095498 228.10938 58.609375 C 227.8177 58.086818 227.64821 57.529071 227.59961 56.933594 C 227.551 56.325946 227.52539 55.487424 227.52539 54.417969 L 227.52539 45.138672 L 234.59961 45.138672 L 234.59961 42.257812 L 227.52539 42.257812 L 227.52539 36.40625 L 224.09961 36.40625 z M 317.28711 36.40625 L 317.28711 42.257812 L 314.9707 42.257812 L 314.9707 45.138672 L 317.28711 45.138672 L 317.28711 55.966797 C 317.28711 58.433821 317.8266 60.225715 318.9082 61.34375 C 319.9898 62.46181 321.57031 63.021484 323.64844 63.021484 C 324.24392 63.021484 324.9184 62.966776 325.67188 62.857422 C 326.4375 62.747992 327.14301 62.607579 327.78711 62.4375 L 327.78711 59.357422 L 327.60352 59.357422 C 327.33616 59.466852 326.89866 59.607265 326.29102 59.777344 C 325.68338 59.935328 325.10004 60.013672 324.54102 60.013672 C 323.58095 60.013672 322.86458 59.904256 322.39062 59.685547 C 321.92882 59.454643 321.56423 59.095498 321.29688 58.609375 C 321.0052 58.086818 320.83571 57.529071 320.78711 56.933594 C 320.7385 56.325946 320.71289 55.487424 320.71289 54.417969 L 320.71289 45.138672 L 327.78711 45.138672 L 327.78711 42.257812 L 320.71289 42.257812 L 320.71289 36.40625 L 317.28711 36.40625 z M 82.951172 38.576172 L 86.523438 38.576172 C 87.6658 38.576172 88.60829 38.661953 89.349609 38.832031 C 90.103081 38.990016 90.770181 39.256094 91.353516 39.632812 C 92.021918 40.070331 92.521483 40.635438 92.849609 41.328125 C 93.177733 42.020837 93.341797 42.835724 93.341797 43.771484 C 93.341797 44.573576 93.219611 45.297299 92.976562 45.941406 C 92.745659 46.585488 92.344617 47.199871 91.773438 47.783203 C 91.202258 48.354391 90.460289 48.773652 89.548828 49.041016 C 88.637372 49.296235 87.452476 49.423828 85.994141 49.423828 L 82.951172 49.423828 L 82.951172 38.576172 z M 135.81445 41.693359 C 132.93424 41.693359 130.64475 42.659526 128.94336 44.591797 C 127.25412 46.511948 126.4082 49.131499 126.4082 52.449219 C 126.4082 55.766913 127.25412 58.384536 128.94336 60.304688 C 130.64475 62.224814 132.93424 63.185547 135.81445 63.185547 C 138.67035 63.185547 140.949 62.224814 142.65039 60.304688 C 144.35178 58.384536 145.20312 55.766913 145.20312 52.449219 C 145.20313 49.131499 144.35178 46.511948 142.65039 44.591797 C 140.949 42.659526 138.67035 41.693359 135.81445 41.693359 z M 199.96289 41.693359 C 196.99761 41.693359 194.60416 42.67232 192.78125 44.628906 C 190.97048 46.585517 190.06445 49.228754 190.06445 52.558594 C 190.06445 55.924918 191.01237 58.524314 192.9082 60.359375 C 194.80404 62.182292 197.44184 63.09375 200.82031 63.09375 C 202.14497 63.09375 203.4082 62.929676 204.61133 62.601562 C 205.81446 62.273449 206.99392 61.866982 208.14844 61.380859 L 208.14844 57.644531 L 207.9668 57.644531 C 207.37132 58.179259 206.36871 58.726139 204.95898 59.285156 C 203.56142 59.832029 202.16862 60.105469 200.7832 60.105469 C 199.73806 60.105469 198.7793 59.959622 197.9043 59.667969 C 197.04145 59.37629 196.29405 58.938801 195.66211 58.355469 C 195.00586 57.759992 194.48806 56.999788 194.11133 56.076172 C 193.73459 55.140411 193.54688 54.046676 193.54688 52.794922 L 208.54883 52.794922 L 208.54883 50.935547 C 208.54883 47.982426 207.80143 45.703767 206.30664 44.099609 C 204.824 42.495452 202.70942 41.693359 199.96289 41.693359 z M 247.21289 41.693359 C 244.24761 41.693359 241.85416 42.67232 240.03125 44.628906 C 238.22048 46.585517 237.31445 49.228754 237.31445 52.558594 C 237.31445 55.924918 238.26237 58.524314 240.1582 60.359375 C 242.05404 62.182292 244.69184 63.09375 248.07031 63.09375 C 249.39497 63.09375 250.6582 62.929676 251.86133 62.601562 C 253.06446 62.273449 254.24393 61.866982 255.39844 61.380859 L 255.39844 57.644531 L 255.2168 57.644531 C 254.62131 58.179259 253.61871 58.726139 252.20898 59.285156 C 250.81142 59.832029 249.41862 60.105469 248.0332 60.105469 C 246.98806 60.105469 246.0293 59.959622 245.1543 59.667969 C 244.29145 59.37629 243.54405 58.938801 242.91211 58.355469 C 242.25586 57.759992 241.73806 56.999788 241.36133 56.076172 C 240.98459 55.140411 240.79688 54.046676 240.79688 52.794922 L 255.79883 52.794922 L 255.79883 50.935547 C 255.79883 47.982426 255.05143 45.703767 253.55664 44.099609 C 252.074 42.495452 249.95942 41.693359 247.21289 41.693359 z M 271.25781 41.693359 C 270.05469 41.693359 268.88259 41.943164 267.74023 42.441406 C 266.59787 42.939674 265.49132 43.632375 264.42188 44.519531 L 264.42188 42.257812 L 260.99414 42.257812 L 260.99414 62.621094 L 264.42188 62.621094 L 264.42188 47.417969 C 265.35764 46.700967 266.33659 46.110245 267.35742 45.648438 C 268.37825 45.18663 269.35525 44.957031 270.29102 44.957031 C 271.20248 44.957031 271.94445 45.08465 272.51562 45.339844 C 273.0868 45.582918 273.52431 45.958337 273.82812 46.46875 C 274.11979 46.930558 274.32031 47.575963 274.42969 48.402344 C 274.53907 49.21658 274.59375 50.091583 274.59375 51.027344 L 274.59375 62.621094 L 278.02148 62.621094 L 278.02148 49.404297 C 278.02148 46.912983 277.44357 45.004336 276.28906 43.679688 C 275.13455 42.355039 273.45746 41.693359 271.25781 41.693359 z M 340.40039 41.693359 C 337.43511 41.693359 335.04166 42.67232 333.21875 44.628906 C 331.40798 46.585517 330.50195 49.228754 330.50195 52.558594 C 330.50195 55.924918 331.44987 58.524314 333.3457 60.359375 C 335.24154 62.182292 337.87934 63.09375 341.25781 63.09375 C 342.58247 63.09375 343.8457 62.929676 345.04883 62.601562 C 346.25196 62.273449 347.43143 61.866982 348.58594 61.380859 L 348.58594 57.644531 L 348.4043 57.644531 C 347.80882 58.179259 346.80621 58.726139 345.39648 59.285156 C 343.99892 59.832029 342.60612 60.105469 341.2207 60.105469 C 340.17557 60.105469 339.2168 59.959622 338.3418 59.667969 C 337.47895 59.37629 336.73155 58.938801 336.09961 58.355469 C 335.44336 57.759992 334.92556 56.999788 334.54883 56.076172 C 334.17209 55.140411 333.98438 54.046676 333.98438 52.794922 L 348.98633 52.794922 L 348.98633 50.935547 C 348.98633 47.982426 348.23893 45.703767 346.74414 44.099609 C 345.2615 42.495452 343.14692 41.693359 340.40039 41.693359 z M 383.20312 41.693359 C 380.23786 41.693359 377.84441 42.67232 376.02148 44.628906 C 374.21073 46.585517 373.30469 49.228754 373.30469 52.558594 C 373.30469 55.924918 374.2526 58.524314 376.14844 60.359375 C 378.04428 62.182292 380.68208 63.09375 384.06055 63.09375 C 385.3852 63.09375 386.64844 62.929676 387.85156 62.601562 C 389.05469 62.273449 390.23415 61.866982 391.38867 61.380859 L 391.38867 57.644531 L 391.20508 57.644531 C 390.60958 58.179259 389.60698 58.726139 388.19727 59.285156 C 386.7997 59.832029 385.40886 60.105469 384.02344 60.105469 C 382.9783 60.105469 382.01756 59.959622 381.14258 59.667969 C 380.27971 59.37629 379.53233 58.938801 378.90039 58.355469 C 378.24415 57.759992 377.7283 56.999788 377.35156 56.076172 C 376.97483 55.140411 376.78711 54.046676 376.78711 52.794922 L 391.78906 52.794922 L 391.78906 50.935547 C 391.78906 47.982426 391.04168 45.703767 389.54688 44.099609 C 388.06424 42.495452 385.94966 41.693359 383.20312 41.693359 z M 407.24805 41.693359 C 406.04492 41.693359 404.87089 41.943164 403.72852 42.441406 C 402.58617 42.939674 401.48156 43.632375 400.41211 44.519531 L 400.41211 42.257812 L 396.98438 42.257812 L 396.98438 62.621094 L 400.41211 62.621094 L 400.41211 47.417969 C 401.34787 46.700967 402.32485 46.110245 403.3457 45.648438 C 404.36653 45.18663 405.34549 44.957031 406.28125 44.957031 C 407.19272 44.957031 407.9347 45.08465 408.50586 45.339844 C 409.07705 45.582918 409.51454 45.958337 409.81836 46.46875 C 410.11004 46.930558 410.31057 47.575963 410.41992 48.402344 C 410.52928 49.21658 410.58398 50.091583 410.58398 51.027344 L 410.58398 62.621094 L 414.00977 62.621094 L 414.00977 49.404297 C 414.00977 46.912983 413.43382 45.004336 412.2793 43.679688 C 411.12478 42.355039 409.44768 41.693359 407.24805 41.693359 z M 304.68945 41.765625 C 303.38911 41.765625 302.21159 41.93706 301.1543 42.277344 C 300.10916 42.605457 299.245 43.053813 298.56445 43.625 C 297.85959 44.208332 297.33095 44.871965 296.97852 45.613281 C 296.63824 46.354598 296.46875 47.143871 296.46875 47.982422 C 296.46875 49.319216 296.83876 50.449431 297.58008 51.373047 C 298.33355 52.284518 299.60417 52.977219 301.39062 53.451172 C 302.03472 53.621251 302.74566 53.779891 303.52344 53.925781 C 304.31337 54.071621 304.95139 54.199239 305.4375 54.308594 C 306.75 54.600272 307.6378 54.952031 308.09961 55.365234 C 308.56141 55.778412 308.79102 56.385409 308.79102 57.1875 C 308.79102 58.23264 308.36632 58.998277 307.51562 59.484375 C 306.66493 59.970498 305.48546 60.214844 303.97852 60.214844 C 302.76324 60.214844 301.49458 59.977859 300.16992 59.503906 C 298.84528 59.017783 297.64215 58.366971 296.56055 57.552734 L 296.37695 57.552734 L 296.37695 61.398438 C 297.22765 61.823786 298.27952 62.219386 299.53125 62.583984 C 300.79514 62.936413 302.18056 63.113281 303.6875 63.113281 C 306.34896 63.113281 308.44531 62.517151 309.97656 61.326172 C 311.51996 60.135192 312.29102 58.609376 312.29102 56.75 C 312.29102 55.267367 311.8609 54.077035 310.99805 53.177734 C 310.1352 52.290578 308.90647 51.665354 307.31445 51.300781 C 306.79188 51.179307 306.13563 51.044327 305.3457 50.898438 C 304.56792 50.752649 303.86437 50.606827 303.23242 50.460938 C 302.09006 50.193574 301.26237 49.847223 300.75195 49.421875 C 300.22938 48.996552 299.96875 48.365895 299.96875 47.527344 C 299.96875 46.579413 300.40083 45.868484 301.26367 45.394531 C 302.12653 44.908434 303.18382 44.664062 304.43555 44.664062 C 305.63867 44.664062 306.86545 44.890206 308.11719 45.339844 C 309.36893 45.777362 310.43164 46.316856 311.30664 46.960938 L 311.49023 46.960938 L 311.49023 43.296875 C 310.66384 42.871527 309.62478 42.51431 308.37305 42.222656 C 307.13346 41.918833 305.90472 41.765625 304.68945 41.765625 z M 117.60352 42.257812 L 117.60352 62.621094 L 121.03125 62.621094 L 121.03125 42.257812 L 117.60352 42.257812 z M 166.53125 42.257812 L 166.53125 62.621094 L 169.95898 62.621094 L 169.95898 42.257812 L 166.53125 42.257812 z M 213.78125 42.257812 L 213.78125 62.621094 L 217.20898 62.621094 L 217.20898 42.257812 L 213.78125 42.257812 z M 101.59961 42.259766 L 101.59961 62.621094 L 105.02539 62.621094 L 105.02539 48.166016 C 105.93685 47.424699 106.88477 46.823136 107.86914 46.361328 C 108.85352 45.887375 109.87435 45.650391 110.93164 45.650391 C 111.58789 45.650391 112.153 45.67951 112.62695 45.740234 C 113.11306 45.788864 113.61263 45.874645 114.12305 45.996094 L 114.30469 45.996094 L 114.30469 42.478516 C 113.76996 42.394358 113.36892 42.33965 113.10156 42.314453 C 112.8342 42.277918 112.40213 42.259766 111.80664 42.259766 C 110.72504 42.259766 109.66233 42.489364 108.61719 42.951172 C 107.5842 43.400835 106.3865 44.173833 105.02539 45.267578 L 105.02539 42.259766 L 101.59961 42.259766 z M 150.52539 42.259766 L 150.52539 62.621094 L 153.95312 62.621094 L 153.95312 48.166016 C 154.86458 47.424699 155.8125 46.823136 156.79688 46.361328 C 157.78125 45.887375 158.80208 45.650391 159.85938 45.650391 C 160.51562 45.650391 161.08073 45.67951 161.55469 45.740234 C 162.0408 45.788864 162.53841 45.874645 163.04883 45.996094 L 163.23242 45.996094 L 163.23242 42.478516 C 162.6977 42.394358 162.29666 42.33965 162.0293 42.314453 C 161.76193 42.277918 161.32986 42.259766 160.73438 42.259766 C 159.65278 42.259766 158.59006 42.489364 157.54492 42.951172 C 156.51193 43.400835 155.31424 44.173833 153.95312 45.267578 L 153.95312 42.259766 L 150.52539 42.259766 z M 199.78125 44.519531 C 201.60416 44.519531 202.95855 45.011703 203.8457 45.996094 C 204.74507 46.980459 205.2008 48.37132 205.21289 50.169922 L 193.54688 50.169922 C 193.69271 48.565764 194.30707 47.222225 195.38867 46.140625 C 196.48242 45.059025 197.94618 44.519531 199.78125 44.519531 z M 247.03125 44.519531 C 248.85416 44.519531 250.20855 45.011703 251.0957 45.996094 C 251.99507 46.980459 252.4508 48.37132 252.46289 50.169922 L 240.79688 50.169922 C 240.94271 48.565764 241.55707 47.222225 242.63867 46.140625 C 243.73242 45.059025 245.19618 44.519531 247.03125 44.519531 z M 340.21875 44.519531 C 342.04166 44.519531 343.39605 45.011703 344.2832 45.996094 C 345.18257 46.980459 345.6383 48.37132 345.65039 50.169922 L 333.98438 50.169922 C 334.13021 48.565764 334.74457 47.222225 335.82617 46.140625 C 336.91992 45.059025 338.38368 44.519531 340.21875 44.519531 z M 383.02148 44.519531 C 384.8444 44.519531 386.19878 45.011703 387.08594 45.996094 C 387.98478 46.980459 388.44053 48.37132 388.45312 50.169922 L 376.78711 50.169922 C 376.93294 48.565764 377.54537 47.222225 378.62695 46.140625 C 379.72072 45.059025 381.18642 44.519531 383.02148 44.519531 z M 135.81445 44.646484 C 137.64952 44.646484 139.0842 45.289911 140.11719 46.578125 C 141.15017 47.854169 141.66602 49.812066 141.66602 52.449219 C 141.66602 55.025597 141.14475 56.968746 140.09961 58.28125 C 139.06662 59.581584 137.63737 60.232422 135.81445 60.232422 C 133.96723 60.232422 132.52713 59.576176 131.49414 58.263672 C 130.46116 56.939023 129.94531 55.001282 129.94531 52.449219 C 129.94531 49.812066 130.45573 47.854169 131.47656 46.578125 C 132.50955 45.289911 133.95508 44.646484 135.81445 44.646484 z "
       transform="matrix(0.26458333,0,0,0.26458333,0,270.54165)"
       id="path819" />
  </g>
</svg>
