<?xml version="1.0" encoding="UTF-8" standalone="no"?>
<!-- Created with Inkscape (http://www.inkscape.org/) -->

<svg
   xmlns:dc="http://purl.org/dc/elements/1.1/"
   xmlns:cc="http://creativecommons.org/ns#"
   xmlns:rdf="http://www.w3.org/1999/02/22-rdf-syntax-ns#"
   xmlns:svg="http://www.w3.org/2000/svg"
   xmlns="http://www.w3.org/2000/svg"
   xmlns:sodipodi="http://sodipodi.sourceforge.net/DTD/sodipodi-0.dtd"
   xmlns:inkscape="http://www.inkscape.org/namespaces/inkscape"
   width="500"
   height="100"
   viewBox="0 0 132.29166 26.458334"
   version="1.1"
   id="svg8"
   inkscape:version="0.92.4 (5da689c313, 2019-01-14)"
   sodipodi:docname="hs-5.svg">
  <defs
     id="defs2" />
  <sodipodi:namedview
     id="base"
     pagecolor="#ffffff"
     bordercolor="#666666"
     borderopacity="1.0"
     inkscape:pageopacity="0.0"
     inkscape:pageshadow="2"
     inkscape:zoom="1.3249068"
     inkscape:cx="113.35634"
     inkscape:cy="251.30524"
     inkscape:document-units="px"
     inkscape:current-layer="layer1"
     showgrid="false"
     units="px"
     inkscape:window-width="1920"
     inkscape:window-height="1017"
     inkscape:window-x="1358"
     inkscape:window-y="-8"
     inkscape:window-maximized="1" />
  <metadata
     id="metadata5">
    <rdf:RDF>
      <cc:Work
         rdf:about="">
        <dc:format>image/svg+xml</dc:format>
        <dc:type
           rdf:resource="http://purl.org/dc/dcmitype/StillImage" />
        <dc:title></dc:title>
      </cc:Work>
    </rdf:RDF>
  </metadata>
  <g
     inkscape:label="Laag 1"
     inkscape:groupmode="layer"
     id="layer1"
     transform="translate(0,-270.54165)">
    <path
       style="font-style:normal;font-variant:normal;font-weight:normal;font-stretch:normal;font-size:37.33333206px;line-height:1.25;font-family:'Segoe MDL2 Assets';-inkscape-font-specification:'Segoe MDL2 Assets';letter-spacing:0px;word-spacing:0px;fill:#ffbc42;fill-opacity:1;stroke:none;stroke-width:0.99999994"
       d="M 247.22266 31.236328 L 247.22266 40.060547 C 246.3112 39.586569 245.44163 39.240193 244.61523 39.021484 C 243.78885 38.790681 242.84093 38.673828 241.77148 38.673828 C 240.59266 38.673828 239.44965 38.918199 238.34375 39.404297 C 237.25 39.89042 236.29123 40.593962 235.46484 41.517578 C 234.62631 42.465484 233.95725 43.613927 233.45898 44.962891 C 232.97288 46.311829 232.73047 47.850465 232.73047 49.576172 C 232.73047 52.893892 233.44141 55.487854 234.86328 57.359375 C 236.29731 59.230896 238.2296 60.166016 240.66016 60.166016 C 241.9119 60.166016 243.07118 59.929031 244.14062 59.455078 C 245.21007 58.981125 246.23828 58.319446 247.22266 57.46875 L 247.22266 59.601562 L 250.64844 59.601562 L 250.64844 31.236328 L 247.22266 31.236328 z M 279.66992 31.236328 L 279.66992 59.601562 L 283.09766 59.601562 L 283.09766 31.236328 L 279.66992 31.236328 z M 313.17578 31.236328 L 313.17578 59.601562 L 316.60156 59.601562 L 316.60156 52.802734 L 318.82617 50.6875 L 326.99219 59.601562 L 331.51367 59.601562 L 321.35938 48.646484 L 330.82031 39.240234 L 326.5 39.240234 L 316.60156 49.429688 L 316.60156 31.236328 L 313.17578 31.236328 z M 335.12305 31.236328 L 335.12305 59.601562 L 338.55078 59.601562 L 338.55078 44.398438 C 339.48655 43.681436 340.46354 43.092667 341.48438 42.630859 C 342.50521 42.169051 343.48416 41.9375 344.41992 41.9375 C 345.33138 41.9375 346.07335 42.065119 346.64453 42.320312 C 347.21571 42.563387 347.65321 42.940759 347.95703 43.451172 C 348.2487 43.91298 348.44921 44.556431 348.55859 45.382812 C 348.66797 46.197049 348.72266 47.072052 348.72266 48.007812 L 348.72266 59.601562 L 352.14844 59.601562 L 352.14844 46.384766 C 352.14844 43.893452 351.57248 41.986758 350.41797 40.662109 C 349.26345 39.337461 347.58637 38.673828 345.38672 38.673828 C 344.18359 38.673828 343.00955 38.923632 341.86719 39.421875 C 340.72483 39.920143 339.62023 40.612844 338.55078 41.5 L 338.55078 31.236328 L 335.12305 31.236328 z M 404.35742 31.236328 L 404.35742 40.060547 C 403.44598 39.586569 402.57641 39.240193 401.75 39.021484 C 400.92362 38.790681 399.97571 38.673828 398.90625 38.673828 C 397.72744 38.673828 396.58636 38.918199 395.48047 39.404297 C 394.38672 39.89042 393.42602 40.593962 392.59961 41.517578 C 391.76108 42.465484 391.09202 43.613927 390.59375 44.962891 C 390.10763 46.311829 389.86523 47.850465 389.86523 49.576172 C 389.86523 52.893892 390.57616 55.487854 391.99805 57.359375 C 393.43208 59.230896 395.36436 60.166016 397.79492 60.166016 C 399.04665 60.166016 400.20791 59.929031 401.27734 59.455078 C 402.3468 58.981125 403.37306 58.319446 404.35742 57.46875 L 404.35742 59.601562 L 407.78516 59.601562 L 407.78516 31.236328 L 404.35742 31.236328 z M 289.73242 32.275391 L 289.73242 35.830078 L 293.59766 35.830078 L 293.59766 32.275391 L 289.73242 32.275391 z M 302.67578 32.275391 L 302.67578 35.830078 L 306.53906 35.830078 L 306.53906 32.275391 L 302.67578 32.275391 z M 380.80469 32.275391 L 380.80469 35.830078 L 384.66992 35.830078 L 384.66992 32.275391 L 380.80469 32.275391 z M 453.42969 32.275391 L 453.42969 35.830078 L 457.29492 35.830078 L 457.29492 32.275391 L 453.42969 32.275391 z M 17.296875 32.458984 L 27.177734 59.601562 L 31.990234 59.601562 L 41.871094 32.458984 L 38.1875 32.458984 L 29.675781 56.337891 L 21.162109 32.458984 L 17.296875 32.458984 z M 127.60156 33.388672 L 127.60156 39.240234 L 125.28711 39.240234 L 125.28711 42.119141 L 127.60156 42.119141 L 127.60156 52.947266 C 127.60156 55.414289 128.14301 57.208137 129.22461 58.326172 C 130.3062 59.444232 131.88672 60.001953 133.96484 60.001953 C 134.56033 60.001953 135.23481 59.947245 135.98828 59.837891 C 136.75391 59.728461 137.45747 59.590001 138.10156 59.419922 L 138.10156 56.337891 L 137.91992 56.337891 C 137.65256 56.447321 137.21506 56.587734 136.60742 56.757812 C 135.99978 56.915797 135.41645 56.994141 134.85742 56.994141 C 133.89736 56.994141 133.18099 56.884724 132.70703 56.666016 C 132.24522 56.435112 131.88064 56.07792 131.61328 55.591797 C 131.32161 55.069239 131.15017 54.50954 131.10156 53.914062 C 131.05296 53.306415 131.0293 52.467893 131.0293 51.398438 L 131.0293 42.119141 L 138.10156 42.119141 L 138.10156 39.240234 L 131.0293 39.240234 L 131.0293 33.388672 L 127.60156 33.388672 z M 52.351562 38.673828 C 49.386286 38.673828 46.992838 39.652789 45.169922 41.609375 C 43.359158 43.565986 42.453125 46.209223 42.453125 49.539062 C 42.453125 52.905387 43.401044 55.506735 45.296875 57.341797 C 47.192709 59.164713 49.830513 60.076172 53.208984 60.076172 C 54.533638 60.076172 55.796876 59.912098 57 59.583984 C 58.203124 59.255871 59.382595 58.847451 60.537109 58.361328 L 60.537109 54.625 L 60.355469 54.625 C 59.759981 55.159728 58.757377 55.706608 57.347656 56.265625 C 55.950085 56.812497 54.557291 57.085938 53.171875 57.085938 C 52.126737 57.085937 51.16797 56.940091 50.292969 56.648438 C 49.430123 56.356759 48.682726 55.91927 48.050781 55.335938 C 47.394532 54.74046 46.876738 53.980256 46.5 53.056641 C 46.123264 52.12088 45.935547 51.027145 45.935547 49.775391 L 60.9375 49.775391 L 60.9375 47.916016 C 60.9375 44.962894 60.190103 42.684236 58.695312 41.080078 C 57.212672 39.475921 55.09809 38.673828 52.351562 38.673828 z M 114.16797 38.673828 C 112.96484 38.673828 111.7908 38.923632 110.64844 39.421875 C 109.50608 39.920143 108.40148 40.612844 107.33203 41.5 L 107.33203 39.240234 L 103.9043 39.240234 L 103.9043 59.601562 L 107.33203 59.601562 L 107.33203 44.398438 C 108.26779 43.681436 109.24479 43.092667 110.26562 42.630859 C 111.28646 42.169051 112.26541 41.9375 113.20117 41.9375 C 114.11263 41.9375 114.8546 42.065119 115.42578 42.320312 C 115.99696 42.563387 116.43446 42.940759 116.73828 43.451172 C 117.02994 43.91298 117.23046 44.556431 117.33984 45.382812 C 117.44922 46.197049 117.50391 47.072052 117.50391 48.007812 L 117.50391 59.601562 L 120.92969 59.601562 L 120.92969 46.384766 C 120.92969 43.893452 120.35373 41.986758 119.19922 40.662109 C 118.0447 39.337461 116.36762 38.673828 114.16797 38.673828 z M 180.77734 38.673828 C 177.89714 38.673828 175.60568 39.639995 173.9043 41.572266 C 172.21506 43.492417 171.37109 46.111968 171.37109 49.429688 C 171.37109 52.747382 172.21506 55.366958 173.9043 57.287109 C 175.60568 59.207235 177.89714 60.166016 180.77734 60.166016 C 183.63325 60.166016 185.91189 59.207235 187.61328 57.287109 C 189.31467 55.366958 190.16406 52.747382 190.16406 49.429688 C 190.16406 46.111968 189.31467 43.492417 187.61328 41.572266 C 185.91189 39.639995 183.63325 38.673828 180.77734 38.673828 z M 203.45312 38.673828 C 200.57292 38.673828 198.28342 39.639995 196.58203 41.572266 C 194.8928 43.492417 194.04687 46.111968 194.04688 49.429688 C 194.04687 52.747382 194.8928 55.366958 196.58203 57.287109 C 198.28342 59.207235 200.57292 60.166016 203.45312 60.166016 C 206.30903 60.166016 208.58767 59.207235 210.28906 57.287109 C 211.99045 55.366958 212.8418 52.747382 212.8418 49.429688 C 212.8418 46.111968 211.99045 43.492417 210.28906 41.572266 C 208.58767 39.639995 206.30903 38.673828 203.45312 38.673828 z M 265.85156 38.673828 C 262.88628 38.673828 260.49284 39.652789 258.66992 41.609375 C 256.85916 43.565986 255.95312 46.209223 255.95312 49.539062 C 255.95312 52.905387 256.90104 55.506735 258.79688 57.341797 C 260.69271 59.164713 263.33051 60.076172 266.70898 60.076172 C 268.03364 60.076172 269.29688 59.912098 270.5 59.583984 C 271.70312 59.255871 272.88259 58.847451 274.03711 58.361328 L 274.03711 54.625 L 273.85547 54.625 C 273.25998 55.159728 272.25737 55.706608 270.84766 56.265625 C 269.45008 56.812497 268.05729 57.085938 266.67188 57.085938 C 265.62673 57.085937 264.66797 56.940091 263.79297 56.648438 C 262.93012 56.356759 262.18273 55.91927 261.55078 55.335938 C 260.89453 54.74046 260.37674 53.980256 260 53.056641 C 259.62327 52.12088 259.43555 51.027145 259.43555 49.775391 L 274.4375 49.775391 L 274.4375 47.916016 C 274.4375 44.962894 273.6901 42.684236 272.19531 41.080078 C 270.71267 39.475921 268.59809 38.673828 265.85156 38.673828 z M 367.20703 38.673828 C 364.24176 38.673828 361.84636 39.652789 360.02344 41.609375 C 358.21268 43.565986 357.30859 46.209223 357.30859 49.539062 C 357.30859 52.905387 358.25651 55.506735 360.15234 57.341797 C 362.04818 59.164713 364.68403 60.076172 368.0625 60.076172 C 369.38715 60.076172 370.65234 59.912098 371.85547 59.583984 C 373.0586 59.255871 374.23611 58.847451 375.39062 58.361328 L 375.39062 54.625 L 375.20898 54.625 C 374.6135 55.159728 373.61089 55.706608 372.20117 56.265625 C 370.8036 56.812497 369.41276 57.085938 368.02734 57.085938 C 366.9822 57.085937 366.02149 56.940091 365.14648 56.648438 C 364.28364 56.356759 363.53624 55.91927 362.9043 55.335938 C 362.24805 54.74046 361.73221 53.980256 361.35547 53.056641 C 360.97874 52.12088 360.78906 51.027145 360.78906 49.775391 L 375.79297 49.775391 L 375.79297 47.916016 C 375.79297 44.962894 375.04558 42.684236 373.55078 41.080078 C 372.06815 39.475921 369.95356 38.673828 367.20703 38.673828 z M 474.15625 38.673828 C 472.95313 38.673828 471.78102 38.923632 470.63867 39.421875 C 469.4963 39.920143 468.38974 40.612844 467.32031 41.5 L 467.32031 39.240234 L 463.89453 39.240234 L 463.89453 59.601562 L 467.32031 59.601562 L 467.32031 44.398438 C 468.25607 43.681436 469.23503 43.092667 470.25586 42.630859 C 471.27668 42.169051 472.25562 41.9375 473.19141 41.9375 C 474.10285 41.9375 474.84288 42.065119 475.41406 42.320312 C 475.98525 42.563387 476.42276 42.940759 476.72656 43.451172 C 477.01827 43.91298 477.21877 44.556431 477.32812 45.382812 C 477.43748 46.197049 477.49219 47.072052 477.49219 48.007812 L 477.49219 59.601562 L 480.91992 59.601562 L 480.91992 46.384766 C 480.91992 43.893452 480.34202 41.986758 479.1875 40.662109 C 478.03298 39.337461 476.35591 38.673828 474.15625 38.673828 z M 88.410156 38.748047 C 87.182724 38.748047 85.935764 38.857463 84.671875 39.076172 C 83.407986 39.29478 82.441839 39.495309 81.773438 39.677734 L 81.773438 43.158203 L 81.957031 43.158203 C 83.135853 42.708439 84.27691 42.369475 85.382812 42.138672 C 86.488715 41.895522 87.491319 41.773438 88.390625 41.773438 C 89.131944 41.773438 89.842883 41.822662 90.523438 41.919922 C 91.203994 42.017157 91.787327 42.204866 92.273438 42.484375 C 92.783855 42.776054 93.174045 43.177087 93.441406 43.6875 C 93.72092 44.197913 93.859375 44.841364 93.859375 45.619141 L 93.859375 46.148438 C 91.866319 46.245597 90.001519 46.391418 88.263672 46.585938 C 86.525825 46.780382 85.036459 47.150393 83.796875 47.697266 C 82.569443 48.244138 81.621527 48.998909 80.953125 49.958984 C 80.296876 50.90689 79.96875 52.151905 79.96875 53.695312 C 79.96875 55.578979 80.606771 57.128455 81.882812 58.34375 C 83.158854 59.559019 84.715712 60.166016 86.550781 60.166016 C 87.547309 60.166016 88.414931 60.06952 89.15625 59.875 C 89.897569 59.692701 90.553818 59.461149 91.125 59.181641 C 91.61111 58.962907 92.110676 58.671239 92.621094 58.306641 C 93.143661 57.929923 93.555554 57.638255 93.859375 57.431641 L 93.859375 59.601562 L 97.269531 59.601562 L 97.269531 45.785156 C 97.269531 44.472652 97.069012 43.371531 96.667969 42.484375 C 96.266928 41.597219 95.683595 40.875424 94.917969 40.316406 C 94.140192 39.745118 93.215929 39.344084 92.146484 39.113281 C 91.089194 38.870132 89.844185 38.748047 88.410156 38.748047 z M 421.47461 38.748047 C 420.17428 38.748047 418.99481 38.917529 417.9375 39.257812 C 416.89239 39.585926 416.03018 40.036234 415.34961 40.607422 C 414.64475 41.190754 414.1161 41.852433 413.76367 42.59375 C 413.42339 43.335067 413.25391 44.124339 413.25391 44.962891 C 413.25391 46.299684 413.62392 47.4299 414.36523 48.353516 C 415.11872 49.264987 416.38935 49.957688 418.17578 50.431641 C 418.81989 50.601719 419.53082 50.76036 420.30859 50.90625 C 421.09854 51.052089 421.73656 51.179708 422.22266 51.289062 C 423.53516 51.580741 424.421 51.9325 424.88281 52.345703 C 425.34462 52.758881 425.57617 53.367831 425.57617 54.169922 C 425.57617 55.215062 425.15148 55.980699 424.30078 56.466797 C 423.45009 56.95292 422.27062 57.195312 420.76367 57.195312 C 419.5484 57.195312 418.27777 56.958328 416.95312 56.484375 C 415.62845 55.998252 414.42535 55.347439 413.34375 54.533203 L 413.16211 54.533203 L 413.16211 58.380859 C 414.01281 58.806207 415.06465 59.199855 416.31641 59.564453 C 417.58028 59.916881 418.96571 60.09375 420.47266 60.09375 C 423.13412 60.09375 425.23048 59.49762 426.76172 58.306641 C 428.30513 57.115661 429.07617 55.591798 429.07617 53.732422 C 429.07617 52.249789 428.64409 51.057504 427.78125 50.158203 C 426.91838 49.271047 425.69162 48.645823 424.09961 48.28125 C 423.57705 48.159776 422.92081 48.026749 422.13086 47.880859 C 421.35311 47.73507 420.64759 47.589249 420.01562 47.443359 C 418.87328 47.175996 418.04752 46.829645 417.53711 46.404297 C 417.01453 45.978974 416.75391 45.346364 416.75391 44.507812 C 416.75391 43.559882 417.18403 42.848953 418.04688 42.375 C 418.90974 41.888902 419.96702 41.646484 421.21875 41.646484 C 422.42187 41.646484 423.65061 41.870675 424.90234 42.320312 C 426.15407 42.757831 427.21679 43.299277 428.0918 43.943359 L 428.27344 43.943359 L 428.27344 40.279297 C 427.44706 39.853949 426.408 39.494779 425.15625 39.203125 C 423.91669 38.899301 422.6899 38.748047 421.47461 38.748047 z M 298.64648 39.238281 L 298.64648 42.119141 L 302.89453 42.119141 L 302.89453 58.525391 C 302.89453 59.509756 302.85069 60.342871 302.76562 61.023438 C 302.69271 61.716149 302.52323 62.304918 302.25586 62.791016 C 301.9885 63.277038 301.58745 63.641616 301.05273 63.884766 C 300.51801 64.127915 299.8125 64.25 298.9375 64.25 C 298.39062 64.25 297.82552 64.164219 297.24219 63.994141 C 296.67101 63.82386 296.21527 63.672606 295.875 63.539062 L 295.69336 63.539062 L 295.69336 66.802734 C 296.22809 66.948624 296.88976 67.068756 297.67969 67.166016 C 298.48177 67.263275 299.12717 67.3125 299.61328 67.3125 C 301.65495 67.3125 303.28277 66.705504 304.49805 65.490234 C 305.71333 64.27494 306.32031 62.475684 306.32031 60.09375 L 306.32031 39.238281 L 298.64648 39.238281 z M 66.132812 39.240234 L 66.132812 59.601562 L 69.560547 59.601562 L 69.560547 45.146484 C 70.472005 44.405168 71.419924 43.803605 72.404297 43.341797 C 73.388672 42.867844 74.409504 42.630859 75.466797 42.630859 C 76.123046 42.630859 76.688152 42.659979 77.162109 42.720703 C 77.648222 42.769333 78.145835 42.855114 78.65625 42.976562 L 78.839844 42.976562 L 78.839844 39.458984 C 78.305124 39.374827 77.90408 39.320119 77.636719 39.294922 C 77.369357 39.258386 76.937284 39.240234 76.341797 39.240234 C 75.260199 39.240234 74.197481 39.469833 73.152344 39.931641 C 72.119356 40.381304 70.921656 41.154302 69.560547 42.248047 L 69.560547 39.240234 L 66.132812 39.240234 z M 140.45312 39.240234 L 145.8125 59.601562 L 148.9668 59.601562 L 154.16211 43.90625 L 159.39453 59.601562 L 162.56641 59.601562 L 167.87109 39.240234 L 164.42578 39.240234 L 160.88867 55.007812 L 155.67578 39.240234 L 152.84961 39.240234 L 147.76367 55.007812 L 144.02734 39.240234 L 140.45312 39.240234 z M 218.16406 39.240234 L 218.16406 59.601562 L 221.5918 59.601562 L 221.5918 45.146484 C 222.50325 44.405168 223.45117 43.803605 224.43555 43.341797 C 225.41992 42.867844 226.44075 42.630859 227.49805 42.630859 C 228.15429 42.630859 228.7194 42.659979 229.19336 42.720703 C 229.67947 42.769333 230.17708 42.855114 230.6875 42.976562 L 230.87109 42.976562 L 230.87109 39.458984 C 230.33637 39.374827 229.93533 39.320119 229.66797 39.294922 C 229.4006 39.258386 228.96853 39.240234 228.37305 39.240234 C 227.29145 39.240234 226.22873 39.469833 225.18359 39.931641 C 224.15061 40.381304 222.9529 41.154302 221.5918 42.248047 L 221.5918 39.240234 L 218.16406 39.240234 z M 289.95117 39.240234 L 289.95117 59.601562 L 293.37891 59.601562 L 293.37891 39.240234 L 289.95117 39.240234 z M 381.02344 39.240234 L 381.02344 59.601562 L 384.45117 59.601562 L 384.45117 39.240234 L 381.02344 39.240234 z M 432.57617 39.240234 L 432.57617 42.101562 L 444.1875 42.101562 L 432.32031 57.068359 L 432.32031 59.601562 L 448.76367 59.601562 L 448.76367 56.703125 L 436.53125 56.703125 L 448.45312 41.681641 L 448.45312 39.240234 L 432.57617 39.240234 z M 453.64844 39.240234 L 453.64844 59.601562 L 457.07617 59.601562 L 457.07617 39.240234 L 453.64844 39.240234 z M 52.169922 41.5 C 53.992838 41.5 55.347222 41.992172 56.234375 42.976562 C 57.133739 43.960928 57.589468 45.351789 57.601562 47.150391 L 45.935547 47.150391 C 46.081381 45.546233 46.695746 44.204647 47.777344 43.123047 C 48.871094 42.041447 50.334853 41.5 52.169922 41.5 z M 265.66992 41.5 C 267.49283 41.5 268.84722 41.992172 269.73438 42.976562 C 270.63374 43.960928 271.08947 45.351789 271.10156 47.150391 L 259.43555 47.150391 C 259.58138 45.546233 260.19574 44.204647 261.27734 43.123047 C 262.37109 42.041447 263.83485 41.5 265.66992 41.5 z M 367.02344 41.5 C 368.84636 41.5 370.20269 41.992172 371.08984 42.976562 C 371.9892 43.960928 372.44494 45.351789 372.45703 47.150391 L 360.78906 47.150391 C 360.93489 45.546233 361.54926 44.204647 362.63086 43.123047 C 363.72461 42.041447 365.18837 41.5 367.02344 41.5 z M 180.77734 41.626953 C 182.61242 41.626953 184.04514 42.272333 185.07812 43.560547 C 186.11111 44.836591 186.62891 46.792535 186.62891 49.429688 C 186.62891 52.006065 186.10568 53.951168 185.06055 55.263672 C 184.02756 56.564006 182.60026 57.212891 180.77734 57.212891 C 178.93012 57.212891 177.49002 56.556645 176.45703 55.244141 C 175.42404 53.919492 174.90625 51.981751 174.90625 49.429688 C 174.90625 46.792535 175.41666 44.836591 176.4375 43.560547 C 177.47049 42.272333 178.91797 41.626953 180.77734 41.626953 z M 203.45312 41.626953 C 205.28819 41.626953 206.72287 42.272333 207.75586 43.560547 C 208.78885 44.836591 209.30469 46.792535 209.30469 49.429688 C 209.30469 52.006065 208.78342 53.951168 207.73828 55.263672 C 206.70529 56.564006 205.27604 57.212891 203.45312 57.212891 C 201.60591 57.212891 200.1658 56.556645 199.13281 55.244141 C 198.09983 53.919492 197.58398 51.981751 197.58398 49.429688 C 197.58398 46.792535 198.0944 44.836591 199.11523 43.560547 C 200.14822 42.272333 201.59375 41.626953 203.45312 41.626953 z M 242.35547 41.810547 C 243.21831 41.810547 244.01302 41.888891 244.74219 42.046875 C 245.47135 42.204859 246.29905 42.491119 247.22266 42.904297 L 247.22266 54.587891 C 246.35981 55.268458 245.43012 55.828132 244.43359 56.265625 C 243.43707 56.690973 242.45269 56.904297 241.48047 56.904297 C 239.65755 56.904297 238.33225 56.27712 237.50586 55.025391 C 236.67947 53.761491 236.26562 51.920347 236.26562 49.501953 C 236.26563 47.047074 236.80165 45.151247 237.87109 43.814453 C 238.94054 42.477659 240.43533 41.810547 242.35547 41.810547 z M 399.49023 41.810547 C 400.35308 41.810547 401.14973 41.888891 401.87891 42.046875 C 402.60808 42.204859 403.43383 42.491119 404.35742 42.904297 L 404.35742 54.587891 C 403.49458 55.268458 402.56489 55.828132 401.56836 56.265625 C 400.57185 56.690973 399.58745 56.904297 398.61523 56.904297 C 396.79229 56.904297 395.46701 56.27712 394.64062 55.025391 C 393.81424 53.761491 393.40234 51.920347 393.40234 49.501953 C 393.40234 47.047074 393.93643 45.151247 395.00586 43.814453 C 396.07531 42.477659 397.57008 41.810547 399.49023 41.810547 z M 93.859375 48.919922 L 93.859375 54.587891 C 93.008679 55.244143 92.086372 55.80925 91.089844 56.283203 C 90.093316 56.745011 88.992187 56.976562 87.789062 56.976562 C 86.342882 56.976562 85.267362 56.684895 84.5625 56.101562 C 83.857641 55.506085 83.505859 54.625649 83.505859 53.458984 C 83.505859 52.425989 83.810329 51.616535 84.417969 51.033203 C 85.025606 50.437726 85.820312 50.000212 86.804688 49.720703 C 87.631076 49.489698 88.750435 49.314808 90.160156 49.193359 C 91.582032 49.071911 92.814235 48.980646 93.859375 48.919922 z "
       transform="matrix(0.26458333,0,0,0.26458333,0,270.54165)"
       id="path835" />
  </g>
</svg>
