<?xml version="1.0" encoding="UTF-8" standalone="no"?>
<!-- Created with Inkscape (http://www.inkscape.org/) -->

<svg
   xmlns:dc="http://purl.org/dc/elements/1.1/"
   xmlns:cc="http://creativecommons.org/ns#"
   xmlns:rdf="http://www.w3.org/1999/02/22-rdf-syntax-ns#"
   xmlns:svg="http://www.w3.org/2000/svg"
   xmlns="http://www.w3.org/2000/svg"
   xmlns:sodipodi="http://sodipodi.sourceforge.net/DTD/sodipodi-0.dtd"
   xmlns:inkscape="http://www.inkscape.org/namespaces/inkscape"
   width="500"
   height="100"
   viewBox="0 0 132.29166 26.458334"
   version="1.1"
   id="svg8"
   inkscape:version="0.92.4 (5da689c313, 2019-01-14)"
   sodipodi:docname="hs-6.svg">
  <defs
     id="defs2" />
  <sodipodi:namedview
     id="base"
     pagecolor="#ffffff"
     bordercolor="#666666"
     borderopacity="1.0"
     inkscape:pageopacity="0.0"
     inkscape:pageshadow="2"
     inkscape:zoom="1.3249068"
     inkscape:cx="-9.2937966"
     inkscape:cy="251.30524"
     inkscape:document-units="px"
     inkscape:current-layer="layer1"
     showgrid="false"
     units="px"
     inkscape:window-width="1920"
     inkscape:window-height="1017"
     inkscape:window-x="1358"
     inkscape:window-y="-8"
     inkscape:window-maximized="1" />
  <metadata
     id="metadata5">
    <rdf:RDF>
      <cc:Work
         rdf:about="">
        <dc:format>image/svg+xml</dc:format>
        <dc:type
           rdf:resource="http://purl.org/dc/dcmitype/StillImage" />
        <dc:title></dc:title>
      </cc:Work>
    </rdf:RDF>
  </metadata>
  <g
     inkscape:label="Laag 1"
     inkscape:groupmode="layer"
     id="layer1"
     transform="translate(0,-270.54165)">
    <path
       style="font-style:normal;font-variant:normal;font-weight:normal;font-stretch:normal;font-size:37.33333206px;line-height:1.25;font-family:'Segoe MDL2 Assets';-inkscape-font-specification:'Segoe MDL2 Assets';letter-spacing:0px;word-spacing:0px;fill:#8f2d42;fill-opacity:1;stroke:none;stroke-width:0.99999994"
       d="M 150.65234 30.482422 L 150.65234 58.847656 L 154.07812 58.847656 L 154.07812 30.482422 L 150.65234 30.482422 z M 326.49023 30.482422 L 326.49023 58.847656 L 329.91797 58.847656 L 329.91797 43.644531 C 330.85373 42.92753 331.83073 42.336808 332.85156 41.875 C 333.8724 41.413192 334.85134 41.183594 335.78711 41.183594 C 336.69857 41.183594 337.44054 41.311213 338.01172 41.566406 C 338.5829 41.80948 339.0204 42.1849 339.32422 42.695312 C 339.61588 43.15712 339.8164 43.802525 339.92578 44.628906 C 340.03516 45.443142 340.08984 46.318146 340.08984 47.253906 L 340.08984 58.847656 L 343.51562 58.847656 L 343.51562 45.630859 C 343.51563 43.139546 342.93968 41.230899 341.78516 39.90625 C 340.63064 38.581601 338.95356 37.919922 336.75391 37.919922 C 335.55079 37.919922 334.37673 38.169726 333.23438 38.667969 C 332.09201 39.166236 330.98741 39.858938 329.91797 40.746094 L 329.91797 30.482422 L 326.49023 30.482422 z M 364.84375 30.482422 L 364.84375 58.847656 L 368.27148 58.847656 L 368.27148 43.644531 C 369.20725 42.92753 370.1862 42.336808 371.20703 41.875 C 372.22786 41.413192 373.20486 41.183594 374.14062 41.183594 C 375.05208 41.183594 375.79405 41.311213 376.36523 41.566406 C 376.93641 41.80948 377.37392 42.1849 377.67773 42.695312 C 377.96943 43.15712 378.16994 43.802525 378.2793 44.628906 C 378.38865 45.443142 378.44336 46.318146 378.44336 47.253906 L 378.44336 58.847656 L 381.87109 58.847656 L 381.87109 45.630859 C 381.87109 43.139546 381.29319 41.230899 380.13867 39.90625 C 378.98415 38.581601 377.30707 37.919922 375.10742 37.919922 C 373.90429 37.919922 372.7322 38.169726 371.58984 38.667969 C 370.44748 39.166236 369.34093 39.858938 368.27148 40.746094 L 368.27148 30.482422 L 364.84375 30.482422 z M 434.07812 30.482422 L 434.07812 39.304688 C 433.16668 38.83071 432.29906 38.484334 431.47266 38.265625 C 430.64628 38.034822 429.69834 37.919922 428.62891 37.919922 C 427.45007 37.919922 426.30706 38.16234 425.20117 38.648438 C 424.10743 39.13456 423.14672 39.840056 422.32031 40.763672 C 421.48179 41.711577 420.81467 42.860021 420.31641 44.208984 C 419.83028 45.557923 419.58594 47.094605 419.58594 48.820312 C 419.58594 52.138032 420.29687 54.733947 421.71875 56.605469 C 423.15278 58.47699 425.08506 59.412109 427.51562 59.412109 C 428.76735 59.412109 429.92862 59.175125 430.99805 58.701172 C 432.0675 58.227219 433.09376 57.56554 434.07812 56.714844 L 434.07812 58.847656 L 437.50586 58.847656 L 437.50586 30.482422 L 434.07812 30.482422 z M 296.55859 31.521484 L 296.55859 35.076172 L 300.42188 35.076172 L 300.42188 31.521484 L 296.55859 31.521484 z M 410.52734 31.521484 L 410.52734 35.076172 L 414.39062 35.076172 L 414.39062 31.521484 L 410.52734 31.521484 z M 60.472656 31.703125 L 60.472656 58.847656 L 64.082031 58.847656 L 64.082031 48.054688 L 69.167969 48.054688 L 78.246094 58.847656 L 82.929688 58.847656 L 72.722656 46.980469 C 74.448348 46.312072 75.802734 45.320316 76.787109 44.007812 C 77.771485 42.683164 78.263672 41.042523 78.263672 39.085938 C 78.263672 37.639739 77.984809 36.449433 77.425781 35.513672 C 76.878906 34.565766 76.113282 33.781902 75.128906 33.162109 C 74.253908 32.615237 73.269531 32.237864 72.175781 32.03125 C 71.082031 31.812541 69.714846 31.703125 68.074219 31.703125 L 60.472656 31.703125 z M 160.96875 32.632812 L 160.96875 38.484375 L 158.6543 38.484375 L 158.6543 41.365234 L 160.96875 41.365234 L 160.96875 52.193359 C 160.96875 54.660383 161.5102 56.452278 162.5918 57.570312 C 163.6734 58.688372 165.25391 59.248047 167.33203 59.248047 C 167.92752 59.248047 168.602 59.193339 169.35547 59.083984 C 170.1211 58.974554 170.82465 58.834141 171.46875 58.664062 L 171.46875 55.583984 L 171.28711 55.583984 C 171.01974 55.693414 170.58224 55.833828 169.97461 56.003906 C 169.36697 56.161891 168.78363 56.240234 168.22461 56.240234 C 167.26453 56.240234 166.54818 56.130818 166.07422 55.912109 C 165.61242 55.681205 165.24784 55.32206 164.98047 54.835938 C 164.6888 54.31338 164.51735 53.755633 164.46875 53.160156 C 164.42015 52.552509 164.39648 51.713986 164.39648 50.644531 L 164.39648 41.365234 L 171.46875 41.365234 L 171.46875 38.484375 L 164.39648 38.484375 L 164.39648 32.632812 L 160.96875 32.632812 z M 220.61523 32.632812 L 220.61523 38.484375 L 218.30078 38.484375 L 218.30078 41.365234 L 220.61523 41.365234 L 220.61523 52.193359 C 220.61523 54.660383 221.15668 56.452278 222.23828 57.570312 C 223.31988 58.688372 224.89844 59.248047 226.97656 59.248047 C 227.57205 59.248047 228.24653 59.193339 229 59.083984 C 229.76563 58.974554 230.47114 58.834141 231.11523 58.664062 L 231.11523 55.583984 L 230.93359 55.583984 C 230.66623 55.693414 230.22873 55.833828 229.62109 56.003906 C 229.01345 56.161891 228.43012 56.240234 227.87109 56.240234 C 226.91103 56.240234 226.19271 56.130818 225.71875 55.912109 C 225.25694 55.681205 224.89236 55.32206 224.625 54.835938 C 224.33333 54.31338 224.16384 53.755633 224.11523 53.160156 C 224.06663 52.552509 224.04297 51.713986 224.04297 50.644531 L 224.04297 41.365234 L 231.11523 41.365234 L 231.11523 38.484375 L 224.04297 38.484375 L 224.04297 32.632812 L 220.61523 32.632812 z M 350.1875 32.632812 L 350.1875 38.484375 L 347.87305 38.484375 L 347.87305 41.365234 L 350.1875 41.365234 L 350.1875 52.193359 C 350.1875 54.660383 350.72895 56.452278 351.81055 57.570312 C 352.89214 58.688372 354.47266 59.248047 356.55078 59.248047 C 357.14627 59.248047 357.82074 59.193339 358.57422 59.083984 C 359.33984 58.974554 360.0434 58.834141 360.6875 58.664062 L 360.6875 55.583984 L 360.50586 55.583984 C 360.2385 55.693414 359.801 55.833828 359.19336 56.003906 C 358.58572 56.161891 358.00239 56.240234 357.44336 56.240234 C 356.48329 56.240234 355.76692 56.130818 355.29297 55.912109 C 354.83116 55.681205 354.46658 55.32206 354.19922 54.835938 C 353.90755 54.31338 353.7361 53.755633 353.6875 53.160156 C 353.6389 52.552509 353.61523 51.713986 353.61523 50.644531 L 353.61523 41.365234 L 360.6875 41.365234 L 360.6875 38.484375 L 353.61523 38.484375 L 353.61523 32.632812 L 350.1875 32.632812 z M 64.082031 34.802734 L 68.328125 34.802734 C 69.300348 34.802734 70.146267 34.875595 70.863281 35.021484 C 71.580295 35.155154 72.200086 35.397572 72.722656 35.75 C 73.354598 36.163203 73.802951 36.673603 74.070312 37.28125 C 74.349826 37.876727 74.490234 38.56402 74.490234 39.341797 C 74.490234 40.362622 74.357205 41.206578 74.089844 41.875 C 73.834637 42.531252 73.433594 43.114587 72.886719 43.625 C 72.291231 44.171847 71.56749 44.549245 70.716797 44.755859 C 69.866101 44.950379 68.868922 45.046875 67.726562 45.046875 L 64.082031 45.046875 L 64.082031 34.802734 z M 93.740234 37.919922 C 90.774958 37.919922 88.38151 38.898883 86.558594 40.855469 C 84.74783 42.81208 83.841797 45.455317 83.841797 48.785156 C 83.841797 52.151481 84.789716 54.750876 86.685547 56.585938 C 88.581381 58.408854 91.219182 59.320312 94.597656 59.320312 C 95.922308 59.320313 97.185547 59.156238 98.388672 58.828125 C 99.591796 58.500012 100.77127 58.093545 101.92578 57.607422 L 101.92578 53.871094 L 101.74219 53.871094 C 101.1467 54.405821 100.1441 54.952701 98.734375 55.511719 C 97.336804 56.058591 95.945963 56.332031 94.560547 56.332031 C 93.515409 56.332031 92.554688 56.186185 91.679688 55.894531 C 90.816842 55.602853 90.069445 55.165364 89.4375 54.582031 C 88.781251 53.986554 88.26541 53.22635 87.888672 52.302734 C 87.511936 51.366974 87.324219 50.273239 87.324219 49.021484 L 102.32617 49.021484 L 102.32617 47.162109 C 102.32617 44.208988 101.57877 41.930329 100.08398 40.326172 C 98.601344 38.722014 96.486762 37.919922 93.740234 37.919922 z M 242.87305 37.919922 C 241.75499 37.919922 240.63021 38.16234 239.5 38.648438 C 238.36979 39.12239 237.41103 39.791431 236.62109 40.654297 C 235.7704 41.577887 235.09592 42.677081 234.59766 43.953125 C 234.11155 45.217024 233.86719 46.724613 233.86719 48.474609 C 233.86719 51.670779 234.57813 54.149942 236 55.912109 C 237.43403 57.662106 239.36632 58.537109 241.79688 58.537109 C 243.25521 58.537109 244.45291 58.33658 245.38867 57.935547 C 246.33659 57.522344 247.32639 56.902553 248.35938 56.076172 L 248.35938 57.935547 C 248.35938 58.761928 248.26824 59.509338 248.08594 60.177734 C 247.90364 60.846131 247.60113 61.416647 247.17578 61.890625 C 246.75043 62.388893 246.1543 62.779085 245.38867 63.058594 C 244.62305 63.338102 243.6569 63.476562 242.49023 63.476562 C 241.27496 63.476562 240.05903 63.312514 238.84375 62.984375 C 237.62847 62.668381 236.74262 62.402302 236.18359 62.183594 L 236 62.183594 L 236 65.683594 C 236.99653 65.963052 238.00651 66.174423 239.02734 66.320312 C 240.06033 66.478297 241.11762 66.558594 242.19922 66.558594 C 245.45616 66.558594 247.86783 65.74914 249.43555 64.132812 C 251.00325 62.51651 251.78711 59.982639 251.78711 56.53125 L 251.78711 38.484375 L 248.57812 38.484375 L 248.35938 39.359375 C 247.47222 38.873177 246.62826 38.515959 245.82617 38.285156 C 245.03625 38.042007 244.05187 37.919922 242.87305 37.919922 z M 266.99023 37.919922 C 264.02496 37.919922 261.63151 38.898883 259.80859 40.855469 C 257.99783 42.81208 257.0918 45.455317 257.0918 48.785156 C 257.0918 52.151481 258.03971 54.750876 259.93555 56.585938 C 261.83138 58.408854 264.46918 59.320312 267.84766 59.320312 C 269.17231 59.320313 270.43554 59.156238 271.63867 58.828125 C 272.84179 58.500012 274.02127 58.093545 275.17578 57.607422 L 275.17578 53.871094 L 274.99219 53.871094 C 274.3967 54.405821 273.39409 54.952701 271.98438 55.511719 C 270.58681 56.058591 269.19597 56.332031 267.81055 56.332031 C 266.76541 56.332031 265.80469 56.186185 264.92969 55.894531 C 264.06684 55.602853 263.31944 55.165364 262.6875 54.582031 C 262.03125 53.986554 261.51541 53.22635 261.13867 52.302734 C 260.76193 51.366974 260.57422 50.273239 260.57422 49.021484 L 275.57617 49.021484 L 275.57617 47.162109 C 275.57617 44.208988 274.82878 41.930329 273.33398 40.326172 C 271.85134 38.722014 269.73676 37.919922 266.99023 37.919922 z M 396.92773 37.919922 C 393.96247 37.919922 391.56901 38.898883 389.74609 40.855469 C 387.93532 42.81208 387.0293 45.455317 387.0293 48.785156 C 387.0293 52.151481 387.97721 54.750876 389.87305 56.585938 C 391.76888 58.408854 394.40669 59.320312 397.78516 59.320312 C 399.10981 59.320313 400.37305 59.156238 401.57617 58.828125 C 402.7793 58.500012 403.95876 58.093545 405.11328 57.607422 L 405.11328 53.871094 L 404.92969 53.871094 C 404.33421 54.405821 403.33161 54.952701 401.92188 55.511719 C 400.52431 56.058591 399.13345 56.332031 397.74805 56.332031 C 396.70291 56.332031 395.7422 56.186185 394.86719 55.894531 C 394.00435 55.602853 393.25696 55.165364 392.625 54.582031 C 391.96877 53.986554 391.45292 53.22635 391.07617 52.302734 C 390.69943 51.366974 390.51172 50.273239 390.51172 49.021484 L 405.51367 49.021484 L 405.51367 47.162109 C 405.51367 44.208988 404.76629 41.930329 403.27148 40.326172 C 401.78885 38.722014 399.67427 37.919922 396.92773 37.919922 z M 114.4668 37.992188 C 113.16645 37.992188 111.98698 38.163623 110.92969 38.503906 C 109.88455 38.83202 109.02235 39.280375 108.3418 39.851562 C 107.63694 40.434895 107.10829 41.098527 106.75586 41.839844 C 106.41558 42.58116 106.24609 43.370433 106.24609 44.208984 C 106.24609 45.545778 106.6161 46.675994 107.35742 47.599609 C 108.11089 48.51108 109.38151 49.203782 111.16797 49.677734 C 111.81207 49.847813 112.523 50.006454 113.30078 50.152344 C 114.09071 50.298183 114.72873 50.425802 115.21484 50.535156 C 116.52735 50.826835 117.41319 51.178594 117.875 51.591797 C 118.33681 52.004975 118.56836 52.611971 118.56836 53.414062 C 118.56836 54.459203 118.14366 55.22484 117.29297 55.710938 C 116.44227 56.19706 115.2628 56.441406 113.75586 56.441406 C 112.54058 56.441406 111.26996 56.204422 109.94531 55.730469 C 108.62066 55.244346 107.41753 54.593533 106.33594 53.779297 L 106.1543 53.779297 L 106.1543 57.625 C 107.00499 58.050348 108.05686 58.445948 109.30859 58.810547 C 110.57248 59.162975 111.9579 59.339844 113.46484 59.339844 C 116.1263 59.339844 118.22266 58.743714 119.75391 57.552734 C 121.29731 56.361755 122.06836 54.835939 122.06836 52.976562 C 122.06836 51.493929 121.63628 50.303598 120.77344 49.404297 C 119.91059 48.517141 118.68381 47.891917 117.0918 47.527344 C 116.56923 47.40587 115.91298 47.27089 115.12305 47.125 C 114.34527 46.979211 113.63976 46.83339 113.00781 46.6875 C 111.86545 46.420136 111.03971 46.073786 110.5293 45.648438 C 110.00673 45.223115 109.74609 44.592457 109.74609 43.753906 C 109.74609 42.805976 110.17621 42.095047 111.03906 41.621094 C 111.90191 41.134996 112.9592 40.890625 114.21094 40.890625 C 115.41406 40.890625 116.64279 41.116768 117.89453 41.566406 C 119.14627 42.003924 120.20899 42.543418 121.08398 43.1875 L 121.26562 43.1875 L 121.26562 39.523438 C 120.43924 39.098089 119.40017 38.740872 118.14844 38.449219 C 116.90885 38.145395 115.68207 37.992188 114.4668 37.992188 z M 182.58984 37.992188 C 181.36241 37.992188 180.11545 38.101604 178.85156 38.320312 C 177.58767 38.53892 176.62152 38.73945 175.95312 38.921875 L 175.95312 42.404297 L 176.13672 42.404297 C 177.31554 41.954533 178.4566 41.613616 179.5625 41.382812 C 180.6684 41.139663 181.67101 41.019531 182.57031 41.019531 C 183.31163 41.019531 184.02257 41.066803 184.70312 41.164062 C 185.38368 41.261297 185.96701 41.45096 186.45312 41.730469 C 186.96355 42.022147 187.35374 42.423181 187.62109 42.933594 C 187.90061 43.444006 188.03906 44.087458 188.03906 44.865234 L 188.03906 45.394531 C 186.046 45.49169 184.18121 45.637512 182.44336 45.832031 C 180.70551 46.026475 179.21614 46.396487 177.97656 46.943359 C 176.74913 47.490232 175.80121 48.243049 175.13281 49.203125 C 174.47656 50.151031 174.14844 51.397998 174.14844 52.941406 C 174.14844 54.825072 174.78645 56.374549 176.0625 57.589844 C 177.33854 58.805113 178.8954 59.412109 180.73047 59.412109 C 181.727 59.412109 182.59462 59.315613 183.33594 59.121094 C 184.07726 58.938795 184.73351 58.707243 185.30469 58.427734 C 185.7908 58.209001 186.29037 57.917333 186.80078 57.552734 C 187.32335 57.176016 187.73524 56.884349 188.03906 56.677734 L 188.03906 58.847656 L 191.44922 58.847656 L 191.44922 45.029297 C 191.44922 43.716793 191.2487 42.617625 190.84766 41.730469 C 190.44662 40.843313 189.86328 40.119564 189.09766 39.560547 C 188.31988 38.989259 187.39561 38.588225 186.32617 38.357422 C 185.26888 38.114272 184.02387 37.992188 182.58984 37.992188 z M 205.04688 37.992188 C 203.81944 37.992188 202.57443 38.101604 201.31055 38.320312 C 200.04666 38.53892 199.08051 38.73945 198.41211 38.921875 L 198.41211 42.404297 L 198.59375 42.404297 C 199.77257 41.954533 200.91558 41.613616 202.02148 41.382812 C 203.12739 41.139663 204.12999 41.019531 205.0293 41.019531 C 205.77062 41.019531 206.48156 41.066803 207.16211 41.164062 C 207.84266 41.261297 208.426 41.45096 208.91211 41.730469 C 209.42252 42.022147 209.81076 42.423181 210.07812 42.933594 C 210.35764 43.444006 210.49805 44.087458 210.49805 44.865234 L 210.49805 45.394531 C 208.50499 45.49169 206.64019 45.637512 204.90234 45.832031 C 203.1645 46.026475 201.67513 46.396487 200.43555 46.943359 C 199.20811 47.490232 198.2602 48.243049 197.5918 49.203125 C 196.93554 50.151031 196.60742 51.397998 196.60742 52.941406 C 196.60742 54.825072 197.24545 56.374549 198.52148 57.589844 C 199.79753 58.805113 201.35243 59.412109 203.1875 59.412109 C 204.18403 59.412109 205.0536 59.315613 205.79492 59.121094 C 206.53624 58.938795 207.19249 58.707243 207.76367 58.427734 C 208.24979 58.209001 208.7474 57.917333 209.25781 57.552734 C 209.78039 57.176016 210.19423 56.884349 210.49805 56.677734 L 210.49805 58.847656 L 213.90625 58.847656 L 213.90625 45.029297 C 213.90625 43.716793 213.70573 42.617625 213.30469 41.730469 C 212.90365 40.843313 212.32031 40.119564 211.55469 39.560547 C 210.77691 38.989259 209.8546 38.588225 208.78516 38.357422 C 207.72787 38.114272 206.4809 37.992188 205.04688 37.992188 z M 315.55273 38.011719 C 312.551 38.011719 310.13194 38.959633 308.29688 40.855469 C 306.47395 42.751305 305.5625 45.363495 305.5625 48.693359 C 305.5625 50.479816 305.80685 52.042113 306.29297 53.378906 C 306.77907 54.715725 307.46441 55.820327 308.35156 56.695312 C 309.22656 57.570324 310.27843 58.22657 311.50586 58.664062 C 312.73329 59.089411 314.08225 59.302734 315.55273 59.302734 C 316.70725 59.302734 317.79557 59.15148 318.81641 58.847656 C 319.84939 58.543858 320.93576 58.11721 322.07812 57.570312 L 322.07812 53.796875 L 321.89648 53.796875 C 321.64128 54.003464 321.29492 54.253268 320.85742 54.544922 C 320.41992 54.824456 319.95138 55.092463 319.45312 55.347656 C 318.88194 55.639436 318.2385 55.874467 317.52148 56.056641 C 316.80447 56.239066 316.09896 56.332031 315.40625 56.332031 C 313.4132 56.332031 311.86372 55.675785 310.75781 54.363281 C 309.66407 53.038632 309.11719 51.148213 309.11719 48.693359 C 309.11719 46.165586 309.67687 44.251531 310.79492 42.951172 C 311.92513 41.638668 313.4618 40.982422 315.40625 40.982422 C 316.46354 40.982422 317.54644 41.201154 318.65234 41.638672 C 319.7704 42.076165 320.85135 42.701389 321.89648 43.515625 L 322.07812 43.515625 L 322.07812 39.707031 C 321.14236 39.233078 320.11067 38.83202 318.98047 38.503906 C 317.86241 38.175768 316.7194 38.011719 315.55273 38.011719 z M 126.84375 38.484375 L 126.84375 51.701172 C 126.84375 54.228945 127.43989 56.148434 128.63086 57.460938 C 129.82183 58.761271 131.48611 59.412109 133.625 59.412109 C 134.90104 59.412109 136.06771 59.169691 137.125 58.683594 C 138.18229 58.197471 139.28884 57.497408 140.44336 56.585938 L 140.44336 58.847656 L 143.87109 58.847656 L 143.87109 38.484375 L 140.44336 38.484375 L 140.44336 53.6875 C 139.5319 54.404502 138.54753 54.995223 137.49023 55.457031 C 136.4451 55.918839 135.47895 56.148438 134.5918 56.148438 C 133.59527 56.148438 132.83507 56.028306 132.3125 55.785156 C 131.78993 55.542082 131.36524 55.15189 131.03711 54.617188 C 130.72113 54.094605 130.51518 53.469406 130.41797 52.740234 C 130.32076 51.998918 130.27148 51.111095 130.27148 50.078125 L 130.27148 38.484375 L 126.84375 38.484375 z M 280.77148 38.484375 L 280.77148 58.847656 L 284.19922 58.847656 L 284.19922 44.390625 C 285.11067 43.649308 286.05859 43.047745 287.04297 42.585938 C 288.02734 42.111985 289.04818 41.875 290.10547 41.875 C 290.76172 41.875 291.32682 41.906072 291.80078 41.966797 C 292.28689 42.015427 292.78451 42.101207 293.29492 42.222656 L 293.47656 42.222656 L 293.47656 38.703125 C 292.94184 38.618968 292.5408 38.564259 292.27344 38.539062 C 292.00608 38.502527 291.57596 38.484375 290.98047 38.484375 C 289.89887 38.484375 288.8342 38.715926 287.78906 39.177734 C 286.75608 39.627397 285.56032 40.398443 284.19922 41.492188 L 284.19922 38.484375 L 280.77148 38.484375 z M 296.77734 38.484375 L 296.77734 58.847656 L 300.20312 58.847656 L 300.20312 38.484375 L 296.77734 38.484375 z M 410.74609 38.484375 L 410.74609 58.847656 L 414.17188 58.847656 L 414.17188 38.484375 L 410.74609 38.484375 z M 93.558594 40.746094 C 95.38151 40.746094 96.735893 41.238266 97.623047 42.222656 C 98.522411 43.207022 98.97814 44.597883 98.990234 46.396484 L 87.324219 46.396484 C 87.470053 44.792327 88.082465 43.448788 89.164062 42.367188 C 90.257812 41.285587 91.723525 40.746094 93.558594 40.746094 z M 266.80859 40.746094 C 268.63151 40.746094 269.98589 41.238266 270.87305 42.222656 C 271.77241 43.207022 272.22814 44.597883 272.24023 46.396484 L 260.57422 46.396484 C 260.72005 44.792327 261.33246 43.448788 262.41406 42.367188 C 263.50781 41.285587 264.97352 40.746094 266.80859 40.746094 z M 396.74609 40.746094 C 398.56901 40.746094 399.92339 41.238266 400.81055 42.222656 C 401.70942 43.207022 402.16514 44.597883 402.17773 46.396484 L 390.51172 46.396484 C 390.65756 44.792327 391.26996 43.448788 392.35156 42.367188 C 393.44531 41.285587 394.91103 40.746094 396.74609 40.746094 z M 243.47461 41 C 244.25239 41 245.03082 41.091264 245.80859 41.273438 C 246.59853 41.443592 247.44792 41.73526 248.35938 42.148438 L 248.35938 53.25 C 247.52083 53.894107 246.59852 54.411893 245.58984 54.800781 C 244.59332 55.177525 243.59614 55.365234 242.59961 55.365234 C 240.74024 55.365234 239.40951 54.776491 238.60742 53.597656 C 237.80534 52.418847 237.4043 50.687068 237.4043 48.402344 C 237.4043 45.996095 237.94575 44.160384 239.02734 42.896484 C 240.10894 41.63261 241.59093 41 243.47461 41 z M 429.21094 41.054688 C 430.07378 41.054688 430.87044 41.134984 431.59961 41.292969 C 432.32878 41.450953 433.15453 41.73526 434.07812 42.148438 L 434.07812 53.833984 C 433.21528 54.514551 432.2856 55.074226 431.28906 55.511719 C 430.29255 55.937067 429.30816 56.148438 428.33594 56.148438 C 426.51302 56.148437 425.18969 55.523214 424.36328 54.271484 C 423.5369 53.007585 423.12305 51.166441 423.12305 48.748047 C 423.12305 46.293168 423.65711 44.397341 424.72656 43.060547 C 425.79599 41.723753 427.29079 41.054688 429.21094 41.054688 z M 188.03906 48.164062 L 188.03906 53.833984 C 187.18837 54.490236 186.26606 55.055344 185.26953 55.529297 C 184.273 55.991105 183.17187 56.222656 181.96875 56.222656 C 180.52256 56.222656 179.44705 55.930989 178.74219 55.347656 C 178.03733 54.752179 177.68555 53.86979 177.68555 52.703125 C 177.68555 51.67013 177.99002 50.862629 178.59766 50.279297 C 179.2053 49.68382 180 49.246306 180.98438 48.966797 C 181.81076 48.735792 182.93012 48.558949 184.33984 48.4375 C 185.76172 48.316051 186.99392 48.224787 188.03906 48.164062 z M 210.49805 48.164062 L 210.49805 53.833984 C 209.64735 54.490236 208.72309 55.055344 207.72656 55.529297 C 206.73003 55.991105 205.63086 56.222656 204.42773 56.222656 C 202.98156 56.222656 201.90603 55.930989 201.20117 55.347656 C 200.49631 54.752179 200.14453 53.86979 200.14453 52.703125 C 200.14453 51.67013 200.44705 50.862629 201.05469 50.279297 C 201.66233 49.68382 202.45899 49.246306 203.44336 48.966797 C 204.26975 48.735792 205.38715 48.558949 206.79688 48.4375 C 208.21875 48.316051 209.45291 48.224787 210.49805 48.164062 z "
       transform="matrix(0.26458333,0,0,0.26458333,0,270.54165)"
       id="path819" />
  </g>
</svg>
