<?xml version="1.0" encoding="UTF-8" standalone="no"?>
<!-- Created with Inkscape (http://www.inkscape.org/) -->

<svg
   xmlns:dc="http://purl.org/dc/elements/1.1/"
   xmlns:cc="http://creativecommons.org/ns#"
   xmlns:rdf="http://www.w3.org/1999/02/22-rdf-syntax-ns#"
   xmlns:svg="http://www.w3.org/2000/svg"
   xmlns="http://www.w3.org/2000/svg"
   xmlns:sodipodi="http://sodipodi.sourceforge.net/DTD/sodipodi-0.dtd"
   xmlns:inkscape="http://www.inkscape.org/namespaces/inkscape"
   width="500"
   height="100"
   viewBox="0 0 132.29166 26.458334"
   version="1.1"
   id="svg8"
   inkscape:version="0.92.4 (5da689c313, 2019-01-14)"
   sodipodi:docname="i-4.svg">
  <defs
     id="defs2" />
  <sodipodi:namedview
     id="base"
     pagecolor="#ffffff"
     bordercolor="#666666"
     borderopacity="1.0"
     inkscape:pageopacity="0.0"
     inkscape:pageshadow="2"
     inkscape:zoom="1.3249068"
     inkscape:cx="-9.2937966"
     inkscape:cy="251.30524"
     inkscape:document-units="px"
     inkscape:current-layer="layer1"
     showgrid="false"
     units="px"
     inkscape:window-width="1920"
     inkscape:window-height="1017"
     inkscape:window-x="1358"
     inkscape:window-y="-8"
     inkscape:window-maximized="1" />
  <metadata
     id="metadata5">
    <rdf:RDF>
      <cc:Work
         rdf:about="">
        <dc:format>image/svg+xml</dc:format>
        <dc:type
           rdf:resource="http://purl.org/dc/dcmitype/StillImage" />
        <dc:title></dc:title>
      </cc:Work>
    </rdf:RDF>
  </metadata>
  <g
     inkscape:label="Laag 1"
     inkscape:groupmode="layer"
     id="layer1"
     transform="translate(0,-270.54165)">
    <path
       style="font-style:normal;font-variant:normal;font-weight:normal;font-stretch:normal;font-size:37.33333206px;line-height:1.25;font-family:'Segoe MDL2 Assets';-inkscape-font-specification:'Segoe MDL2 Assets';letter-spacing:0px;word-spacing:0px;fill:#d81159;fill-opacity:1;stroke:none;stroke-width:0.99999994"
       d="M 253.31836 35.011719 L 253.31836 43.833984 C 252.4069 43.360006 251.53733 43.013631 250.71094 42.794922 C 249.88455 42.564119 248.93663 42.449219 247.86719 42.449219 C 246.68837 42.449219 245.54731 42.691637 244.44141 43.177734 C 243.34766 43.663857 242.38694 44.369353 241.56055 45.292969 C 240.72201 46.240874 240.05295 47.389317 239.55469 48.738281 C 239.06857 50.08722 238.82617 51.623902 238.82617 53.349609 C 238.82617 56.667329 239.53711 59.261291 240.95898 61.132812 C 242.39301 63.004334 244.32531 63.941406 246.75586 63.941406 C 248.0076 63.941406 249.16884 63.704422 250.23828 63.230469 C 251.30773 62.756516 252.33398 62.092884 253.31836 61.242188 L 253.31836 63.375 L 256.74609 63.375 L 256.74609 35.011719 L 253.31836 35.011719 z M 285.76562 35.011719 L 285.76562 63.375 L 289.19336 63.375 L 289.19336 35.011719 L 285.76562 35.011719 z M 157.37891 36.232422 L 164.56055 63.375 L 168.53516 63.375 L 174.11328 40.84375 L 179.81836 63.375 L 183.88281 63.375 L 190.9375 36.232422 L 187.40234 36.232422 L 181.73242 59.019531 L 176.0625 36.232422 L 172.39844 36.232422 L 166.78516 58.800781 L 161.07812 36.232422 L 157.37891 36.232422 z M 226.86719 42.449219 C 225.66406 42.449219 224.49197 42.69707 223.34961 43.195312 C 222.20725 43.69358 221.10069 44.386282 220.03125 45.273438 L 220.03125 43.013672 L 216.60547 43.013672 L 216.60547 63.375 L 220.03125 63.375 L 220.03125 48.171875 C 220.96701 47.454873 221.94596 46.866105 222.9668 46.404297 C 223.98763 45.942489 224.96658 45.710938 225.90234 45.710938 C 226.8138 45.710938 227.55382 45.838556 228.125 46.09375 C 228.69618 46.336824 229.13368 46.714197 229.4375 47.224609 C 229.72916 47.686417 229.92968 48.329869 230.03906 49.15625 C 230.14844 49.970486 230.20313 50.845489 230.20312 51.78125 L 230.20312 63.375 L 233.63086 63.375 L 233.63086 50.160156 C 233.63086 47.668843 233.05295 45.760196 231.89844 44.435547 C 230.74393 43.110898 229.06684 42.449219 226.86719 42.449219 z M 271.94922 42.449219 C 268.98395 42.449219 266.58854 43.426227 264.76562 45.382812 C 262.95487 47.339424 262.05078 49.982661 262.05078 53.3125 C 262.05078 56.678824 262.9987 59.280173 264.89453 61.115234 C 266.79036 62.938151 269.42621 63.849609 272.80469 63.849609 C 274.12933 63.849609 275.39453 63.685535 276.59766 63.357422 C 277.80078 63.029308 278.9783 62.622842 280.13281 62.136719 L 280.13281 58.398438 L 279.95117 58.398438 C 279.35569 58.933165 278.35308 59.480045 276.94336 60.039062 C 275.54579 60.585935 274.15494 60.859375 272.76953 60.859375 C 271.72439 60.859375 270.76367 60.713529 269.88867 60.421875 C 269.02582 60.130196 268.27843 59.692707 267.64648 59.109375 C 266.99024 58.513898 266.4744 57.755647 266.09766 56.832031 C 265.72092 55.896271 265.53125 54.802536 265.53125 53.550781 L 280.53516 53.550781 L 280.53516 51.691406 C 280.53516 48.738285 279.78776 46.459626 278.29297 44.855469 C 276.81034 43.251311 274.69575 42.449219 271.94922 42.449219 z M 304.46875 42.449219 C 301.50347 42.449219 299.11002 43.426227 297.28711 45.382812 C 295.47634 47.339424 294.57031 49.982661 294.57031 53.3125 C 294.57031 56.678824 295.51823 59.280173 297.41406 61.115234 C 299.3099 62.938151 301.9477 63.849609 305.32617 63.849609 C 306.65083 63.849609 307.91406 63.685535 309.11719 63.357422 C 310.32031 63.029308 311.49978 62.622842 312.6543 62.136719 L 312.6543 58.398438 L 312.47266 58.398438 C 311.87718 58.933165 310.87457 59.480045 309.46484 60.039062 C 308.06728 60.585935 306.67448 60.859375 305.28906 60.859375 C 304.24392 60.859375 303.28516 60.713529 302.41016 60.421875 C 301.54731 60.130196 300.79991 59.692707 300.16797 59.109375 C 299.51171 58.513898 298.99392 57.755647 298.61719 56.832031 C 298.24045 55.896271 298.05273 54.802536 298.05273 53.550781 L 313.05469 53.550781 L 313.05469 51.691406 C 313.05469 48.738285 312.30729 46.459626 310.8125 44.855469 C 309.32986 43.251311 307.21528 42.449219 304.46875 42.449219 z M 328.51367 42.449219 C 327.31054 42.449219 326.13845 42.69707 324.99609 43.195312 C 323.85373 43.69358 322.74718 44.386282 321.67773 45.273438 L 321.67773 43.013672 L 318.25 43.013672 L 318.25 63.375 L 321.67773 63.375 L 321.67773 48.171875 C 322.61349 47.454873 323.59245 46.866105 324.61328 46.404297 C 325.63411 45.942489 326.61111 45.710938 327.54688 45.710938 C 328.45834 45.710938 329.2003 45.838556 329.77148 46.09375 C 330.34266 46.336824 330.78017 46.714197 331.08398 47.224609 C 331.37565 47.686417 331.57617 48.329869 331.68555 49.15625 C 331.79493 49.970486 331.84961 50.845489 331.84961 51.78125 L 331.84961 63.375 L 335.27734 63.375 L 335.27734 50.160156 C 335.27734 47.668843 334.69944 45.760196 333.54492 44.435547 C 332.39041 43.110898 330.71333 42.449219 328.51367 42.449219 z M 201.10938 42.521484 C 199.88195 42.521484 198.63694 42.630901 197.37305 42.849609 C 196.10916 43.068217 195.14301 43.268747 194.47461 43.451172 L 194.47461 46.933594 L 194.65625 46.933594 C 195.83507 46.48383 196.97808 46.142913 198.08398 45.912109 C 199.18989 45.66896 200.19249 45.546875 201.0918 45.546875 C 201.83312 45.546875 202.54405 45.5961 203.22461 45.693359 C 203.90516 45.790594 204.4885 45.978304 204.97461 46.257812 C 205.48503 46.549491 205.87326 46.950525 206.14062 47.460938 C 206.42014 47.97135 206.56055 48.616755 206.56055 49.394531 L 206.56055 49.921875 C 204.56749 50.019034 202.70269 50.164855 200.96484 50.359375 C 199.227 50.553819 197.73763 50.925784 196.49805 51.472656 C 195.27062 52.019529 194.3227 52.772346 193.6543 53.732422 C 192.99804 54.680327 192.66992 55.925342 192.66992 57.46875 C 192.66992 59.352416 193.30794 60.901893 194.58398 62.117188 C 195.86003 63.332457 197.41493 63.941406 199.25 63.941406 C 200.24653 63.941406 201.1161 63.842957 201.85742 63.648438 C 202.59874 63.466138 203.25499 63.23654 203.82617 62.957031 C 204.31228 62.738297 204.8099 62.44663 205.32031 62.082031 C 205.84288 61.705313 206.25673 61.413645 206.56055 61.207031 L 206.56055 63.375 L 209.96875 63.375 L 209.96875 49.558594 C 209.96875 48.24609 209.76823 47.144968 209.36719 46.257812 C 208.96614 45.370657 208.38281 44.648861 207.61719 44.089844 C 206.83941 43.518556 205.9171 43.117522 204.84766 42.886719 C 203.79037 42.643569 202.5434 42.521484 201.10938 42.521484 z M 271.76562 45.273438 C 273.58855 45.273438 274.94488 45.765609 275.83203 46.75 C 276.73139 47.734365 277.18712 49.12718 277.19922 50.925781 L 265.53125 50.925781 C 265.67708 49.321624 266.29145 47.978084 267.37305 46.896484 C 268.4668 45.814884 269.93056 45.273438 271.76562 45.273438 z M 304.28711 45.273438 C 306.11002 45.273438 307.46441 45.765609 308.35156 46.75 C 309.25093 47.734365 309.70666 49.12718 309.71875 50.925781 L 298.05273 50.925781 C 298.19857 49.321624 298.81293 47.978084 299.89453 46.896484 C 300.98828 45.814884 302.45204 45.273438 304.28711 45.273438 z M 248.45117 45.583984 C 249.31402 45.583984 250.11068 45.662328 250.83984 45.820312 C 251.56901 45.978297 252.39475 46.264556 253.31836 46.677734 L 253.31836 58.363281 C 252.45551 59.043848 251.52582 59.60157 250.5293 60.039062 C 249.53277 60.464411 248.54839 60.677734 247.57617 60.677734 C 245.75326 60.677734 244.42795 60.05251 243.60156 58.800781 C 242.77517 57.536882 242.36328 55.695737 242.36328 53.277344 C 242.36328 50.822465 242.89735 48.926637 243.9668 47.589844 C 245.03624 46.25305 246.53103 45.583984 248.45117 45.583984 z M 206.56055 52.693359 L 206.56055 58.363281 C 205.70985 59.019533 204.78559 59.584641 203.78906 60.058594 C 202.79253 60.520402 201.69336 60.75 200.49023 60.75 C 199.04405 60.75 197.96853 60.458332 197.26367 59.875 C 196.55881 59.279523 196.20703 58.399086 196.20703 57.232422 C 196.20703 56.199427 196.50955 55.391926 197.11719 54.808594 C 197.72483 54.213117 198.52148 53.775602 199.50586 53.496094 C 200.33225 53.265089 201.44965 53.088246 202.85938 52.966797 C 204.28125 52.845348 205.51541 52.754084 206.56055 52.693359 z "
       transform="matrix(0.26458333,0,0,0.26458333,0,270.54165)"
       id="path819" />
  </g>
</svg>
