<?xml version="1.0" encoding="UTF-8" standalone="no"?>
<!-- Created with Inkscape (http://www.inkscape.org/) -->

<svg
   xmlns:osb="http://www.openswatchbook.org/uri/2009/osb"
   xmlns:dc="http://purl.org/dc/elements/1.1/"
   xmlns:cc="http://creativecommons.org/ns#"
   xmlns:rdf="http://www.w3.org/1999/02/22-rdf-syntax-ns#"
   xmlns:svg="http://www.w3.org/2000/svg"
   xmlns="http://www.w3.org/2000/svg"
   xmlns:sodipodi="http://sodipodi.sourceforge.net/DTD/sodipodi-0.dtd"
   xmlns:inkscape="http://www.inkscape.org/namespaces/inkscape"
   width="100"
   height="500"
   viewBox="0 0 26.458334 132.29166"
   version="1.1"
   id="svg8"
   inkscape:version="0.92.4 (5da689c313, 2019-01-14)"
   sodipodi:docname="interesses.svg">
  <defs
     id="defs2">
    <linearGradient
       id="linearGradient898"
       osb:paint="solid">
      <stop
         style="stop-color:#000000;stop-opacity:1;"
         offset="0"
         id="stop896" />
    </linearGradient>
  </defs>
  <sodipodi:namedview
     id="base"
     pagecolor="#ffffff"
     bordercolor="#666666"
     borderopacity="1.0"
     inkscape:pageopacity="0.0"
     inkscape:pageshadow="2"
     inkscape:zoom="0.76095916"
     inkscape:cx="-742.11771"
     inkscape:cy="436.55905"
     inkscape:document-units="mm"
     inkscape:current-layer="layer1"
     showgrid="false"
     inkscape:window-width="1920"
     inkscape:window-height="1017"
     inkscape:window-x="1358"
     inkscape:window-y="-8"
     inkscape:window-maximized="1"
     units="px" />
  <metadata
     id="metadata5">
    <rdf:RDF>
      <cc:Work
         rdf:about="">
        <dc:format>image/svg+xml</dc:format>
        <dc:type
           rdf:resource="http://purl.org/dc/dcmitype/StillImage" />
        <dc:title></dc:title>
      </cc:Work>
    </rdf:RDF>
  </metadata>
  <g
     inkscape:label="Laag 1"
     inkscape:groupmode="layer"
     id="layer1"
     transform="translate(0,-164.70834)">
    <flowRoot
       xml:space="preserve"
       id="flowRoot819"
       style="font-style:normal;font-weight:normal;font-size:96px;line-height:1.25;font-family:sans-serif;letter-spacing:0px;word-spacing:0px;fill:#000000;fill-opacity:1;stroke:none"
       transform="scale(0.26458333)"><flowRegion
         id="flowRegion821"
         style="font-size:96px"><rect
           id="rect823"
           width="565.71429"
           height="402.85715"
           x="102.85714"
           y="279.66254"
           style="font-size:96px" /></flowRegion><flowPara
         id="flowPara825" /></flowRoot>    <flowRoot
       xml:space="preserve"
       id="flowRoot835"
       style="font-style:normal;font-weight:normal;font-size:40px;line-height:1.25;font-family:sans-serif;letter-spacing:0px;word-spacing:0px;fill:#000000;fill-opacity:1;stroke:none"
       transform="scale(0.26458333)"><flowRegion
         id="flowRegion837"><rect
           id="rect839"
           width="317.14285"
           height="162.85716"
           x="82.85714"
           y="408.23398" /></flowRegion><flowPara
         id="flowPara841" /></flowRoot>    <flowRoot
       xml:space="preserve"
       id="flowRoot876"
       style="font-style:normal;font-weight:normal;font-size:40px;line-height:1.25;font-family:sans-serif;letter-spacing:0px;word-spacing:0px;fill:#000000;fill-opacity:1;stroke:none"
       transform="matrix(0.26458333,0,0,0.26458333,0,270.54167)"><flowRegion
         id="flowRegion878"><rect
           id="rect880"
           width="100"
           height="97.14286"
           x="151.42857"
           y="60" /></flowRegion><flowPara
         id="flowPara882" /></flowRoot>    <flowRoot
       xml:space="preserve"
       id="flowRoot934"
       style="font-style:normal;font-weight:normal;font-size:40px;line-height:1.25;font-family:sans-serif;letter-spacing:0px;word-spacing:0px;fill:#000000;fill-opacity:1;stroke:none"
       transform="matrix(0.26458333,0,0,0.26458333,0,164.70834)"><flowRegion
         id="flowRegion936"><rect
           id="rect938"
           width="78.847862"
           height="478.34369"
           x="10.513048"
           y="8.5150156" /></flowRegion><flowPara
         id="flowPara940">Softskills</flowPara></flowRoot>    <path
       style="font-style:normal;font-variant:normal;font-weight:normal;font-stretch:normal;font-size:40px;line-height:1.25;font-family:'Agency FB';-inkscape-font-specification:'Agency FB';letter-spacing:0px;word-spacing:0px;fill:#ff2800;fill-opacity:1;stroke:none;stroke-width:2.42813063"
       d="M 87.908203 237.32031 L 77.099609 237.39453 C 74.475624 237.41272 72.405799 238.0533 70.888672 239.31445 L 54.255859 252.86719 L 44.269531 252.9375 L 44.183594 242.63867 L 55.462891 242.56055 L 55.423828 237.62109 L 44.027344 237.70117 C 39.60183 237.73186 37.400168 239.18831 37.423828 242.07227 L 37.517578 253.5957 C 37.54125 256.47973 39.765882 257.90769 44.191406 257.87695 L 53.708984 257.81055 C 56.215476 257.79316 58.246652 257.14047 59.802734 255.85352 L 76.435547 242.41602 L 87.832031 242.33594 L 87.917969 252.63477 L 75.052734 252.72266 L 75.09375 257.73828 L 88.076172 257.64844 C 92.501709 257.61777 94.701419 256.1613 94.677734 253.27734 L 94.582031 241.59961 C 94.558359 238.71558 92.333728 237.28957 87.908203 237.32031 z M 88.142578 265.80273 L 77.802734 265.875 L 77.84375 270.8125 L 88.300781 270.74023 L 88.390625 281.68945 L 67.712891 281.83203 L 67.595703 267.66797 L 64.820312 265.96484 L 44.259766 266.10742 C 39.834243 266.13809 37.632792 267.58297 37.65625 270.44141 L 37.757812 282.69141 C 37.781275 285.54989 40.004164 286.96433 44.429688 286.93359 L 88.314453 286.62891 C 92.739947 286.59824 94.939449 285.15338 94.916016 282.29492 L 94.816406 270.04492 C 94.792943 267.18641 92.568103 265.77199 88.142578 265.80273 z M 61.394531 270.92773 L 61.484375 281.875 L 44.273438 281.99609 L 44.183594 271.04688 L 61.394531 270.92773 z M 88.380859 294.74414 L 77.570312 294.82031 C 74.946328 294.8385 72.876505 295.47713 71.359375 296.73828 L 54.726562 310.29102 L 44.740234 310.36133 L 44.65625 300.0625 L 55.935547 299.98438 L 55.894531 295.04688 L 44.498047 295.125 C 40.07251 295.15566 37.870846 296.61409 37.894531 299.49805 L 37.990234 311.01953 C 38.013907 313.90356 40.238538 315.33152 44.664062 315.30078 L 54.179688 315.23438 C 56.686179 315.21701 58.717353 314.5643 60.273438 313.27734 L 76.908203 299.83984 L 88.304688 299.75977 L 88.388672 310.05859 L 75.523438 310.14844 L 75.564453 315.16211 L 88.546875 315.07227 C 92.972415 315.04158 95.174076 313.58513 95.150391 310.70117 L 95.054688 299.02539 C 95.031015 296.14136 92.806384 294.7134 88.380859 294.74414 z M 88.611328 322.91992 L 77.802734 322.99609 C 75.178749 323.01426 73.106971 323.65291 71.589844 324.91406 L 54.958984 338.4668 L 44.970703 338.53711 L 44.886719 328.23828 L 56.166016 328.16016 L 56.125 323.22266 L 44.728516 323.30078 C 40.302976 323.33145 38.103268 324.78987 38.126953 327.67383 L 38.220703 339.19531 C 38.244376 342.07934 40.469007 343.5073 44.894531 343.47656 L 54.412109 343.41016 C 56.918601 343.39277 58.949777 342.74005 60.505859 341.45312 L 77.138672 328.01562 L 88.535156 327.93555 L 88.619141 338.23438 L 75.753906 338.32422 L 75.794922 343.33789 L 88.779297 343.24805 C 93.204834 343.21738 95.404544 341.76091 95.380859 338.87695 L 95.285156 327.20117 C 95.261486 324.31714 93.036853 322.88918 88.611328 322.91992 z M 88.845703 351.40234 L 78.505859 351.47461 L 78.546875 356.41406 L 89.003906 356.33984 L 89.09375 367.28906 L 68.414062 367.43359 L 68.298828 353.26758 L 65.523438 351.56445 L 44.962891 351.70703 C 40.537394 351.7377 38.335942 353.18258 38.359375 356.04102 L 38.458984 368.29102 C 38.482445 371.14952 40.707288 372.56394 45.132812 372.5332 L 89.015625 372.22852 C 93.441119 372.19783 95.642574 370.75296 95.619141 367.89453 L 95.519531 355.64453 C 95.496068 352.78602 93.271228 351.3716 88.845703 351.40234 z M 62.097656 356.52734 L 62.1875 367.47656 L 44.974609 367.5957 L 44.884766 356.64648 L 62.097656 356.52734 z M 57.347656 378.99414 L 44.599609 379.08203 C 40.330852 379.11161 38.20754 380.53048 38.230469 383.33789 C 38.24157 384.69053 38.489835 386.38728 38.976562 388.42578 C 39.4214 390.13274 39.848439 391.8261 40.253906 393.50781 L 38.666016 393.51953 L 38.708984 398.61133 L 95.869141 398.21484 L 95.826172 393.12305 L 46.126953 393.4668 L 45.580078 384.0918 L 57.388672 384.00977 L 57.347656 378.99414 z M 89.298828 406.68359 L 78.958984 406.75391 L 79 411.69336 L 89.457031 411.62109 L 89.546875 422.57031 L 68.869141 422.71289 L 68.751953 408.54883 L 65.976562 406.84375 L 45.416016 406.98633 C 40.990519 407.01702 38.789067 408.46188 38.8125 411.32031 L 38.914062 423.57031 C 38.937523 426.42882 41.162366 427.84324 45.587891 427.8125 L 89.470703 427.50781 C 93.896197 427.47715 96.095699 426.03421 96.072266 423.17578 L 95.972656 410.92383 C 95.949193 408.06532 93.724353 406.65285 89.298828 406.68359 z M 62.550781 411.80664 L 62.640625 422.75586 L 45.429688 422.875 L 45.339844 411.92578 L 62.550781 411.80664 z M 96.162109 433.9707 L 89.289062 434.01758 L 89.341797 440.52539 L 45.929688 440.82812 L 45.875 434.31836 L 39.001953 434.36719 L 39.054688 440.875 L 21.255859 440.99805 L 21.296875 446.01367 L 39.095703 445.89062 L 39.132812 450.36914 L 46.005859 450.32031 L 45.970703 445.8418 L 89.617188 445.53906 C 94.042684 445.50837 96.244136 444.06546 96.220703 441.20703 L 96.162109 433.9707 z M 96.339844 455.67773 L 45.230469 456.03125 C 40.961671 456.06086 38.8401 457.49131 38.863281 460.32422 C 38.876268 461.90656 39.127109 463.9223 39.617188 466.36914 C 40.06454 468.38237 40.492411 470.38311 40.900391 472.37109 L 39.314453 472.38086 L 39.355469 477.47266 L 96.515625 477.07617 L 96.474609 471.98633 L 46.775391 472.33008 L 46.212891 461.11719 L 96.380859 460.76953 L 96.339844 455.67773 z M 96.591797 486.45703 L 4.65625 487.09375 L 4.6992188 492.41406 L 96.636719 491.77734 L 96.591797 486.45703 z "
       transform="matrix(0.26458333,0,0,0.26458333,0,164.70834)"
       id="path837" />
  </g>
</svg>
