<?xml version="1.0" encoding="UTF-8" standalone="no"?>
<!-- Created with Inkscape (http://www.inkscape.org/) -->

<svg
   xmlns:osb="http://www.openswatchbook.org/uri/2009/osb"
   xmlns:dc="http://purl.org/dc/elements/1.1/"
   xmlns:cc="http://creativecommons.org/ns#"
   xmlns:rdf="http://www.w3.org/1999/02/22-rdf-syntax-ns#"
   xmlns:svg="http://www.w3.org/2000/svg"
   xmlns="http://www.w3.org/2000/svg"
   xmlns:sodipodi="http://sodipodi.sourceforge.net/DTD/sodipodi-0.dtd"
   xmlns:inkscape="http://www.inkscape.org/namespaces/inkscape"
   width="100"
   height="500"
   viewBox="0 0 26.458334 132.29166"
   version="1.1"
   id="svg8"
   inkscape:version="0.92.4 (5da689c313, 2019-01-14)"
   sodipodi:docname="linkedin.svg">
  <defs
     id="defs2">
    <linearGradient
       id="linearGradient898"
       osb:paint="solid">
      <stop
         style="stop-color:#000000;stop-opacity:1;"
         offset="0"
         id="stop896" />
    </linearGradient>
  </defs>
  <sodipodi:namedview
     id="base"
     pagecolor="#ffffff"
     bordercolor="#666666"
     borderopacity="1.0"
     inkscape:pageopacity="0.0"
     inkscape:pageshadow="2"
     inkscape:zoom="1.0074671"
     inkscape:cx="-461.0638"
     inkscape:cy="357.15199"
     inkscape:document-units="mm"
     inkscape:current-layer="layer1"
     showgrid="false"
     inkscape:window-width="1920"
     inkscape:window-height="1017"
     inkscape:window-x="1358"
     inkscape:window-y="-8"
     inkscape:window-maximized="1"
     units="px" />
  <metadata
     id="metadata5">
    <rdf:RDF>
      <cc:Work
         rdf:about="">
        <dc:format>image/svg+xml</dc:format>
        <dc:type
           rdf:resource="http://purl.org/dc/dcmitype/StillImage" />
        <dc:title></dc:title>
      </cc:Work>
    </rdf:RDF>
  </metadata>
  <g
     inkscape:label="Laag 1"
     inkscape:groupmode="layer"
     id="layer1"
     transform="translate(0,-164.70834)">
    <flowRoot
       xml:space="preserve"
       id="flowRoot819"
       style="font-style:normal;font-weight:normal;font-size:96px;line-height:1.25;font-family:sans-serif;letter-spacing:0px;word-spacing:0px;fill:#000000;fill-opacity:1;stroke:none"
       transform="scale(0.26458333)"><flowRegion
         id="flowRegion821"
         style="font-size:96px"><rect
           id="rect823"
           width="565.71429"
           height="402.85715"
           x="102.85714"
           y="279.66254"
           style="font-size:96px" /></flowRegion><flowPara
         id="flowPara825" /></flowRoot>    <flowRoot
       xml:space="preserve"
       id="flowRoot835"
       style="font-style:normal;font-weight:normal;font-size:40px;line-height:1.25;font-family:sans-serif;letter-spacing:0px;word-spacing:0px;fill:#000000;fill-opacity:1;stroke:none"
       transform="scale(0.26458333)"><flowRegion
         id="flowRegion837"><rect
           id="rect839"
           width="317.14285"
           height="162.85716"
           x="82.85714"
           y="408.23398" /></flowRegion><flowPara
         id="flowPara841" /></flowRoot>    <flowRoot
       xml:space="preserve"
       id="flowRoot876"
       style="font-style:normal;font-weight:normal;font-size:40px;line-height:1.25;font-family:sans-serif;letter-spacing:0px;word-spacing:0px;fill:#000000;fill-opacity:1;stroke:none"
       transform="matrix(0.26458333,0,0,0.26458333,0,270.54167)"><flowRegion
         id="flowRegion878"><rect
           id="rect880"
           width="100"
           height="97.14286"
           x="151.42857"
           y="60" /></flowRegion><flowPara
         id="flowPara882" /></flowRoot>    <flowRoot
       xml:space="preserve"
       id="flowRoot934"
       style="font-style:normal;font-weight:normal;font-size:40px;line-height:1.25;font-family:sans-serif;letter-spacing:0px;word-spacing:0px;fill:#000000;fill-opacity:1;stroke:none"
       transform="matrix(0.26458333,0,0,0.26458333,0,164.70834)"><flowRegion
         id="flowRegion936"><rect
           id="rect938"
           width="78.847862"
           height="478.34369"
           x="10.513048"
           y="8.5150156" /></flowRegion><flowPara
         id="flowPara940">Softskills</flowPara></flowRoot>    <path
       style="font-style:normal;font-variant:normal;font-weight:normal;font-stretch:normal;font-size:40px;line-height:1.25;font-family:'Agency FB';-inkscape-font-specification:'Agency FB';letter-spacing:0px;word-spacing:0px;fill:#ff2800;fill-opacity:1;stroke:none;stroke-width:2.42813063"
       d="M 94.615234 300.07422 L 2.6855469 301.38281 L 2.9824219 320.52148 L 10.207031 320.41992 L 9.9941406 306.59961 L 94.699219 305.39648 L 94.615234 300.07422 z M 82.626953 326.35742 L 72.757812 326.49805 L 72.837891 331.66602 L 82.707031 331.52539 L 82.626953 326.35742 z M 60.246094 326.75195 L 3.0917969 327.56445 L 3.1699219 332.58008 L 60.324219 331.76758 L 60.246094 326.75195 z M 60.458984 340.38086 L 3.3027344 341.19336 L 3.3808594 346.2832 L 53.076172 345.57812 L 53.720703 356.78711 L 3.5546875 357.5 L 3.6347656 362.5918 L 54.740234 361.86328 C 59.008772 361.80258 61.120065 360.35609 61.076172 357.52344 C 61.051653 355.94123 60.785242 353.92954 60.277344 351.48633 C 59.815332 349.47643 59.37363 347.4791 58.951172 345.49414 L 60.537109 345.4707 L 60.458984 340.38086 z M 95.693359 369.58984 L 3.7636719 370.89844 L 3.8417969 375.98828 L 32.978516 375.57422 L 4.0019531 386.24805 L 4.0878906 391.79883 L 35.568359 379.75 L 60.996094 390.22266 L 61.230469 390.21875 L 61.146484 384.74609 L 37.382812 375.51172 L 95.771484 374.68164 L 95.693359 369.58984 z M 54.689453 396.51562 L 10.808594 397.13867 C 6.3834095 397.20159 4.1939877 398.6633 4.2382812 401.52148 L 4.4277344 413.76953 C 4.4720272 416.62779 6.7056759 418.02588 11.130859 417.96289 L 21.470703 417.81641 L 21.394531 412.87891 L 10.9375 413.02734 L 10.767578 402.08008 L 31.445312 401.78516 L 31.664062 415.94922 L 34.451172 417.63086 L 55.011719 417.33984 C 59.436906 417.27693 61.626327 415.81524 61.582031 412.95703 L 61.392578 400.70898 C 61.348285 397.85073 59.114635 396.45263 54.689453 396.51562 z M 54.882812 401.45117 L 55.052734 412.39844 L 37.841797 412.64453 L 37.671875 401.69531 L 54.882812 401.45117 z M 49.5 425.64844 L 16.076172 426.125 C 12.708332 426.17287 9.8992051 426.87701 7.6484375 428.23633 C 5.4368281 429.59509 4.3472443 431.3582 4.3808594 433.52734 C 4.3899552 434.1143 5.0839949 437.12944 6.4609375 442.57227 L 4.875 442.59375 L 4.953125 447.64844 L 96.882812 446.33984 L 96.804688 441.28711 L 62.029297 441.78125 L 61.900391 433.39844 C 61.865196 431.12719 60.660098 429.25543 58.287109 427.7832 C 55.953281 426.31037 53.024483 425.5983 49.5 425.64844 z M 48.34375 430.7207 C 52.768919 430.65776 55.00336 432.02878 55.046875 434.83594 L 55.15625 441.87891 L 11.982422 442.49414 C 11.528325 438.46763 11.295437 436.12249 11.285156 435.45898 C 11.241654 432.65195 13.412805 431.21679 17.798828 431.1543 L 48.34375 430.7207 z M 97.027344 455.64258 L 5.0976562 456.94922 L 5.1796875 462.26953 L 97.109375 460.96289 L 97.027344 455.64258 z M 62.480469 470.83594 L 5.3242188 471.64844 L 5.4042969 476.74023 L 55.097656 476.0332 L 55.742188 487.24219 L 5.578125 487.95508 L 5.65625 493.04688 L 56.761719 492.32031 C 61.030257 492.25961 63.141549 490.81312 63.097656 487.98047 C 63.073137 486.39826 62.806724 484.38462 62.298828 481.94141 C 61.836814 479.9315 61.395112 477.9342 60.972656 475.94922 L 62.558594 475.92773 L 62.480469 470.83594 z "
       transform="matrix(0.26458333,0,0,0.26458333,0,164.70834)"
       id="path837" />
  </g>
</svg>
