<?xml version="1.0" encoding="UTF-8" standalone="no"?>
<!-- Created with Inkscape (http://www.inkscape.org/) -->

<svg
   xmlns:dc="http://purl.org/dc/elements/1.1/"
   xmlns:cc="http://creativecommons.org/ns#"
   xmlns:rdf="http://www.w3.org/1999/02/22-rdf-syntax-ns#"
   xmlns:svg="http://www.w3.org/2000/svg"
   xmlns="http://www.w3.org/2000/svg"
   xmlns:sodipodi="http://sodipodi.sourceforge.net/DTD/sodipodi-0.dtd"
   xmlns:inkscape="http://www.inkscape.org/namespaces/inkscape"
   width="210mm"
   height="297mm"
   viewBox="0 0 210 297"
   version="1.1"
   id="svg8"
   inkscape:version="0.92.4 (5da689c313, 2019-01-14)"
   sodipodi:docname="nederlands.svg">
  <defs
     id="defs2" />
  <sodipodi:namedview
     id="base"
     pagecolor="#ffffff"
     bordercolor="#666666"
     borderopacity="1.0"
     inkscape:pageopacity="0.0"
     inkscape:pageshadow="2"
     inkscape:zoom="0.35"
     inkscape:cx="-64.285714"
     inkscape:cy="560"
     inkscape:document-units="mm"
     inkscape:current-layer="layer1"
     showgrid="false"
     inkscape:window-width="1920"
     inkscape:window-height="1017"
     inkscape:window-x="1358"
     inkscape:window-y="-8"
     inkscape:window-maximized="1" />
  <metadata
     id="metadata5">
    <rdf:RDF>
      <cc:Work
         rdf:about="">
        <dc:format>image/svg+xml</dc:format>
        <dc:type
           rdf:resource="http://purl.org/dc/dcmitype/StillImage" />
        <dc:title></dc:title>
      </cc:Work>
    </rdf:RDF>
  </metadata>
  <g
     inkscape:label="Laag 1"
     inkscape:groupmode="layer"
     id="layer1">
    <path
       style="font-style:normal;font-variant:normal;font-weight:normal;font-stretch:normal;font-size:96px;line-height:1.25;font-family:'Agency FB';-inkscape-font-specification:'Agency FB';letter-spacing:0px;word-spacing:0px;fill:#0067f7;fill-opacity:1;stroke:none;stroke-width:0.99999994"
       d="M 54.431641 333.12891 L 54.431641 406.48828 L 60.572266 406.48828 L 60.572266 352.53516 L 80.166016 406.48828 L 84.666016 406.48828 L 84.666016 333.12891 L 78.525391 333.12891 L 78.525391 386.14453 L 59.306641 333.12891 L 54.431641 333.12891 z M 151.22852 333.12891 L 151.22852 360.87891 L 140.96289 360.87891 C 138.18164 360.87891 135.86914 361.81641 134.02539 363.69141 C 132.18164 365.53515 131.25977 367.86328 131.25977 370.67578 L 131.25977 397.34766 C 131.25977 400.03515 132.07227 402.28517 133.69727 404.09766 C 135.32227 405.87892 137.46289 406.76953 140.11914 406.76953 C 140.83789 406.76953 144.54102 406.25391 151.22852 405.22266 L 151.22852 406.48828 L 157.41602 406.48828 L 157.41602 333.12891 L 151.22852 333.12891 z M 235.74414 333.12891 L 235.74414 406.48828 L 241.88477 406.48828 L 241.88477 333.12891 L 235.74414 333.12891 z M 344.54102 333.12891 L 344.54102 360.87891 L 334.27539 360.87891 C 331.49414 360.87891 329.18164 361.81641 327.33789 363.69141 C 325.49414 365.53515 324.57227 367.86328 324.57227 370.67578 L 324.57227 397.34766 C 324.57227 400.03515 325.38477 402.28517 327.00977 404.09766 C 328.63477 405.87892 330.77539 406.76953 333.43164 406.76953 C 334.15039 406.76953 337.85352 406.25391 344.54102 405.22266 L 344.54102 406.48828 L 350.72852 406.48828 L 350.72852 333.12891 L 344.54102 333.12891 z M 222.19727 360.59766 C 220.54101 360.59766 218.46289 360.78516 215.96289 361.16016 C 213.86914 361.5039 211.79102 361.83203 209.72852 362.14453 L 209.72852 360.87891 L 203.49414 360.87891 L 203.49414 406.48828 L 209.72852 406.48828 L 209.72852 366.83203 L 221.21289 366.45703 L 221.21289 375.87891 L 227.35352 375.87891 L 227.35352 365.70703 C 227.35352 362.30078 225.63476 360.59766 222.19727 360.59766 z M 309.43164 360.59766 C 307.49414 360.59766 305.02539 360.78516 302.02539 361.16016 C 299.55665 361.5039 297.10352 361.83203 294.66602 362.14453 L 294.66602 360.87891 L 288.43164 360.87891 L 288.43164 406.48828 L 294.66602 406.48828 L 294.66602 366.83203 L 308.40039 366.45703 L 308.40039 406.48828 L 314.63477 406.48828 L 314.63477 365.70703 C 314.63477 362.30078 312.90039 360.59766 309.43164 360.59766 z M 100.93164 360.87891 C 97.431642 360.87891 95.681641 362.64453 95.681641 366.17578 L 95.681641 401.19141 C 95.681641 404.72264 97.431642 406.48828 100.93164 406.48828 L 115.93164 406.48828 C 119.43164 406.48828 121.18164 404.72264 121.18164 401.19141 L 121.18164 392.94141 L 115.13477 392.94141 L 115.13477 401.28516 L 101.72852 401.28516 L 101.72852 384.78516 L 119.07227 384.78516 L 121.18164 382.58203 L 121.18164 366.17578 C 121.18164 362.64453 119.43164 360.87891 115.93164 360.87891 L 100.93164 360.87891 z M 172.93164 360.87891 C 169.43164 360.87891 167.68164 362.64453 167.68164 366.17578 L 167.68164 401.19141 C 167.68164 404.72264 169.43164 406.48828 172.93164 406.48828 L 187.93164 406.48828 C 191.43164 406.48828 193.18164 404.72264 193.18164 401.19141 L 193.18164 392.94141 L 187.13477 392.94141 L 187.13477 401.28516 L 173.72852 401.28516 L 173.72852 384.78516 L 191.07227 384.78516 L 193.18164 382.58203 L 193.18164 366.17578 C 193.18164 362.64453 191.43164 360.87891 187.93164 360.87891 L 172.93164 360.87891 z M 257.96289 360.87891 C 254.46289 360.87891 252.71289 362.64453 252.71289 366.17578 L 252.71289 373.86328 L 258.75977 373.86328 L 258.75977 366.08203 L 272.16602 366.08203 L 272.16602 379.81641 L 257.49414 379.81641 C 253.9629 379.81641 252.19727 381.56641 252.19727 385.06641 L 252.19727 401.70703 C 252.19727 405.08205 253.90039 406.76953 257.30664 406.76953 C 259.15039 406.76953 261.60351 406.58204 264.66602 406.20703 C 267.13476 405.89451 269.60351 405.56639 272.07227 405.22266 L 272.07227 406.48828 L 278.21289 406.48828 L 278.21289 366.17578 C 278.21289 362.64453 276.46289 360.87891 272.96289 360.87891 L 257.96289 360.87891 z M 366.05664 360.87891 C 362.52539 360.87891 360.75977 362.64453 360.75977 366.17578 L 360.75977 373.76953 C 360.75977 375.76953 361.54102 377.39453 363.10352 378.64453 L 379.41602 392.00391 L 379.41602 401.09766 L 366.80664 401.09766 L 366.80664 390.83203 L 360.66602 390.83203 L 360.66602 401.19141 C 360.66602 404.72264 362.43165 406.48828 365.96289 406.48828 L 380.25977 406.48828 C 383.791 406.48828 385.55664 404.72264 385.55664 401.19141 L 385.55664 392.56641 C 385.55664 390.47265 384.791 388.8164 383.25977 387.59766 L 366.80664 374.23828 L 366.80664 366.26953 L 379.41602 366.26953 L 379.41602 375.26953 L 385.46289 375.26953 L 385.46289 366.17578 C 385.46289 362.64453 383.69728 360.87891 380.16602 360.87891 L 366.05664 360.87891 z M 101.72852 366.08203 L 115.13477 366.08203 L 115.13477 379.81641 L 101.72852 379.81641 L 101.72852 366.08203 z M 173.72852 366.08203 L 187.13477 366.08203 L 187.13477 379.81641 L 173.72852 379.81641 L 173.72852 366.08203 z M 142.60352 366.36328 L 151.22852 366.36328 L 151.22852 400.81641 C 146.29102 401.1289 143.41602 401.28516 142.60352 401.28516 C 139.16602 401.28516 137.44727 399.53515 137.44727 396.03516 L 137.44727 371.66016 C 137.44727 368.1289 139.16602 366.36328 142.60352 366.36328 z M 335.91602 366.36328 L 344.54102 366.36328 L 344.54102 400.81641 C 339.60352 401.1289 336.72852 401.28516 335.91602 401.28516 C 332.47852 401.28516 330.75977 399.53515 330.75977 396.03516 L 330.75977 371.66016 C 330.75977 368.1289 332.47852 366.36328 335.91602 366.36328 z M 258.24414 384.69141 L 272.16602 384.69141 L 272.16602 400.81641 L 258.24414 401.09766 L 258.24414 384.69141 z "
       transform="scale(0.26458333)"
       id="path823" />
  </g>
</svg>
