<?xml version="1.0" encoding="UTF-8" standalone="no"?>
<!-- Created with Inkscape (http://www.inkscape.org/) -->

<svg
   xmlns:osb="http://www.openswatchbook.org/uri/2009/osb"
   xmlns:dc="http://purl.org/dc/elements/1.1/"
   xmlns:cc="http://creativecommons.org/ns#"
   xmlns:rdf="http://www.w3.org/1999/02/22-rdf-syntax-ns#"
   xmlns:svg="http://www.w3.org/2000/svg"
   xmlns="http://www.w3.org/2000/svg"
   xmlns:sodipodi="http://sodipodi.sourceforge.net/DTD/sodipodi-0.dtd"
   xmlns:inkscape="http://www.inkscape.org/namespaces/inkscape"
   width="100"
   height="500"
   viewBox="0 0 26.458334 132.29166"
   version="1.1"
   id="svg8"
   inkscape:version="0.92.4 (5da689c313, 2019-01-14)"
   sodipodi:docname="play.svg">
  <defs
     id="defs2">
    <linearGradient
       id="linearGradient898"
       osb:paint="solid">
      <stop
         style="stop-color:#000000;stop-opacity:1;"
         offset="0"
         id="stop896" />
    </linearGradient>
  </defs>
  <sodipodi:namedview
     id="base"
     pagecolor="#ffffff"
     bordercolor="#666666"
     borderopacity="1.0"
     inkscape:pageopacity="0.0"
     inkscape:pageshadow="2"
     inkscape:zoom="1.0074671"
     inkscape:cx="-619.51663"
     inkscape:cy="357.15199"
     inkscape:document-units="mm"
     inkscape:current-layer="layer1"
     showgrid="false"
     inkscape:window-width="1920"
     inkscape:window-height="1017"
     inkscape:window-x="1358"
     inkscape:window-y="-8"
     inkscape:window-maximized="1"
     units="px" />
  <metadata
     id="metadata5">
    <rdf:RDF>
      <cc:Work
         rdf:about="">
        <dc:format>image/svg+xml</dc:format>
        <dc:type
           rdf:resource="http://purl.org/dc/dcmitype/StillImage" />
        <dc:title></dc:title>
      </cc:Work>
    </rdf:RDF>
  </metadata>
  <g
     inkscape:label="Laag 1"
     inkscape:groupmode="layer"
     id="layer1"
     transform="translate(0,-164.70834)">
    <flowRoot
       xml:space="preserve"
       id="flowRoot819"
       style="font-style:normal;font-weight:normal;font-size:96px;line-height:1.25;font-family:sans-serif;letter-spacing:0px;word-spacing:0px;fill:#000000;fill-opacity:1;stroke:none"
       transform="scale(0.26458333)"><flowRegion
         id="flowRegion821"
         style="font-size:96px"><rect
           id="rect823"
           width="565.71429"
           height="402.85715"
           x="102.85714"
           y="279.66254"
           style="font-size:96px" /></flowRegion><flowPara
         id="flowPara825" /></flowRoot>    <flowRoot
       xml:space="preserve"
       id="flowRoot835"
       style="font-style:normal;font-weight:normal;font-size:40px;line-height:1.25;font-family:sans-serif;letter-spacing:0px;word-spacing:0px;fill:#000000;fill-opacity:1;stroke:none"
       transform="scale(0.26458333)"><flowRegion
         id="flowRegion837"><rect
           id="rect839"
           width="317.14285"
           height="162.85716"
           x="82.85714"
           y="408.23398" /></flowRegion><flowPara
         id="flowPara841" /></flowRoot>    <flowRoot
       xml:space="preserve"
       id="flowRoot876"
       style="font-style:normal;font-weight:normal;font-size:40px;line-height:1.25;font-family:sans-serif;letter-spacing:0px;word-spacing:0px;fill:#000000;fill-opacity:1;stroke:none"
       transform="matrix(0.26458333,0,0,0.26458333,0,270.54167)"><flowRegion
         id="flowRegion878"><rect
           id="rect880"
           width="100"
           height="97.14286"
           x="151.42857"
           y="60" /></flowRegion><flowPara
         id="flowPara882" /></flowRoot>    <flowRoot
       xml:space="preserve"
       id="flowRoot934"
       style="font-style:normal;font-weight:normal;font-size:40px;line-height:1.25;font-family:sans-serif;letter-spacing:0px;word-spacing:0px;fill:#000000;fill-opacity:1;stroke:none"
       transform="matrix(0.26458333,0,0,0.26458333,0,164.70834)"><flowRegion
         id="flowRegion936"><rect
           id="rect938"
           width="78.847862"
           height="478.34369"
           x="10.513048"
           y="8.5150156" /></flowRegion><flowPara
         id="flowPara940">Softskills</flowPara></flowRoot>    <path
       style="font-style:normal;font-variant:normal;font-weight:normal;font-stretch:normal;font-size:40px;line-height:1.25;font-family:'Agency FB';-inkscape-font-specification:'Agency FB';letter-spacing:0px;word-spacing:0px;fill:#ff2800;fill-opacity:1;stroke:none;stroke-width:2.42813063"
       d="M 97.59375 400.32617 L 5.6640625 401.63281 L 5.7460938 406.95508 L 42.224609 406.43555 L 42.443359 420.56055 C 42.462736 421.81102 43.08625 422.82381 44.3125 423.59766 C 45.578304 424.3964 47.17096 424.78112 49.089844 424.75391 L 91.441406 424.15234 C 93.360288 424.12506 94.919758 423.69519 96.121094 422.86133 C 97.32285 422.05294 97.913933 421.02193 97.894531 419.77148 L 97.59375 400.32617 z M 90.451172 405.75 L 90.654297 418.8418 L 49.710938 419.42383 L 49.507812 406.33203 L 90.451172 405.75 z M 98.087891 432.17383 L 6.1582031 433.48242 L 6.234375 438.49609 L 98.166016 437.18945 L 98.087891 432.17383 z M 33.210938 446.53516 L 12.357422 446.83203 C 8.1280423 446.89218 6.0350182 448.31407 6.078125 451.0957 C 6.1014578 452.60134 6.3663129 454.60144 6.875 457.0957 C 7.2978525 459.10616 7.7411123 461.11507 8.203125 463.125 L 6.6171875 463.14844 L 6.6953125 468.16211 L 57.212891 467.44531 C 61.638077 467.3824 63.827499 465.92068 63.783203 463.0625 L 63.59375 450.8125 C 63.549456 447.95424 61.313854 446.5581 56.888672 446.62109 L 47.255859 446.75781 L 47.332031 451.69531 L 57.083984 451.55664 L 57.253906 462.50391 L 40.042969 462.75 L 39.855469 450.76758 C 39.81078 447.88397 37.596961 446.47292 33.210938 446.53516 z M 33.755859 451.4668 L 33.933594 462.83594 L 13.726562 463.12305 L 13.197266 451.75977 L 33.755859 451.4668 z M 63.945312 473.55078 L 7.4023438 483.54492 L -14.800781 480.10742 L -14.722656 485.12305 L 7.4804688 488.52148 L 64.304688 496.67188 L 64.224609 491.58203 L 19.130859 485.79102 L 64.027344 478.79492 L 63.945312 473.55078 z "
       transform="matrix(0.26458333,0,0,0.26458333,0,164.70834)"
       id="path837" />
  </g>
</svg>
