<?xml version="1.0" encoding="UTF-8" standalone="no"?>
<!-- Created with Inkscape (http://www.inkscape.org/) -->

<svg
   xmlns:dc="http://purl.org/dc/elements/1.1/"
   xmlns:cc="http://creativecommons.org/ns#"
   xmlns:rdf="http://www.w3.org/1999/02/22-rdf-syntax-ns#"
   xmlns:svg="http://www.w3.org/2000/svg"
   xmlns="http://www.w3.org/2000/svg"
   xmlns:sodipodi="http://sodipodi.sourceforge.net/DTD/sodipodi-0.dtd"
   xmlns:inkscape="http://www.inkscape.org/namespaces/inkscape"
   width="210mm"
   height="297mm"
   viewBox="0 0 210 297"
   version="1.1"
   id="svg8"
   inkscape:version="0.92.4 (5da689c313, 2019-01-14)"
   sodipodi:docname="shootMe.svg">
  <defs
     id="defs2" />
  <sodipodi:namedview
     id="base"
     pagecolor="#ffffff"
     bordercolor="#666666"
     borderopacity="1.0"
     inkscape:pageopacity="0.0"
     inkscape:pageshadow="2"
     inkscape:zoom="0.76095916"
     inkscape:cx="574.27611"
     inkscape:cy="560"
     inkscape:document-units="mm"
     inkscape:current-layer="layer1"
     showgrid="false"
     inkscape:window-width="1920"
     inkscape:window-height="1017"
     inkscape:window-x="1358"
     inkscape:window-y="-8"
     inkscape:window-maximized="1" />
  <metadata
     id="metadata5">
    <rdf:RDF>
      <cc:Work
         rdf:about="">
        <dc:format>image/svg+xml</dc:format>
        <dc:type
           rdf:resource="http://purl.org/dc/dcmitype/StillImage" />
        <dc:title></dc:title>
      </cc:Work>
    </rdf:RDF>
  </metadata>
  <g
     inkscape:label="Laag 1"
     inkscape:groupmode="layer"
     id="layer1">
    <path
       style="fill:#ff1159;fill-opacity:1;stroke:#000000;stroke-width:0.3959381;stroke-miterlimit:4;stroke-dasharray:none;stroke-opacity:0.98994978"
       id="path815"
       sodipodi:type="arc"
       sodipodi:cx="55.448505"
       sodipodi:cy="118.78761"
       sodipodi:rx="33.829838"
       sodipodi:ry="32.697632"
       sodipodi:start="0"
       sodipodi:end="6.2244375"
       sodipodi:open="true"
       d="M 89.278343,118.78761 A 33.829838,32.697632 0 0 1 55.945345,151.48172 33.829838,32.697632 0 0 1 21.633261,119.74793 33.829838,32.697632 0 0 1 53.958416,86.121715 33.829838,32.697632 0 0 1 89.219981,116.8678" />
    <path
       style="font-style:normal;font-variant:normal;font-weight:normal;font-stretch:normal;font-size:11.28888893px;line-height:5.25;font-family:'Segoe MDL2 Assets';-inkscape-font-specification:'Segoe MDL2 Assets';letter-spacing:0px;word-spacing:0px;fill:#0f7b00;fill-opacity:1;stroke:none;stroke-width:0.99999994"
       d="M 603.82617 311.07227 L 602.45508 317.61914 L 599.86523 317.07617 L 599.18945 320.29688 L 601.7793 320.83984 L 599.24023 332.95312 C 598.66202 335.71264 598.84714 337.84353 599.79492 339.34766 C 600.7427 340.85178 602.37859 341.84691 604.70312 342.33398 C 605.3692 342.47355 606.13742 342.57075 607.00586 342.625 C 607.8879 342.682 608.70841 342.6917 609.46875 342.65234 L 610.19141 339.20508 L 609.98828 339.16406 C 609.66359 339.22373 609.14145 339.27632 608.42188 339.32422 C 607.70518 339.35851 607.03351 339.31071 606.4082 339.17969 C 605.33429 338.95466 604.55699 338.66437 604.07812 338.30859 C 603.61574 337.94208 603.29262 337.45602 603.10742 336.84961 C 602.90358 336.19672 602.84452 335.531 602.92969 334.85352 C 603.0177 334.16244 603.18679 333.21773 603.4375 332.02148 L 605.61328 321.64258 L 613.52344 323.30078 L 614.19922 320.08008 L 606.28711 318.42188 L 607.6582 311.87695 L 603.82617 311.07227 z M 580.73828 314.75391 C 577.99738 314.8739 575.73274 315.86193 573.94727 317.7168 C 571.92121 319.82338 570.82456 322.77067 570.65625 326.55859 C 570.48794 330.34652 571.31913 333.37828 573.15039 335.65625 C 574.99551 337.93484 577.56315 339.14685 580.85156 339.29297 C 584.11224 339.43785 586.7628 338.45753 588.80273 336.35156 C 590.84267 334.24559 591.94692 331.29965 592.11523 327.51172 C 592.28355 323.72379 591.44475 320.6907 589.59961 318.41211 C 587.75512 316.11964 585.20208 314.90074 581.94141 314.75586 C 581.53035 314.7376 581.12984 314.73676 580.73828 314.75391 z M 553.79688 316.21875 C 553.05098 316.19182 552.27362 316.23947 551.4668 316.36133 C 548.21204 316.85289 545.78818 318.33465 544.19531 320.80859 C 542.61411 323.26673 542.10758 326.37195 542.67383 330.12109 C 543.24005 333.87024 544.64033 336.68487 546.87695 338.56641 C 549.12731 340.44587 551.88001 341.14 555.13477 340.64844 C 558.36205 340.16102 560.77421 338.68678 562.36914 336.22656 C 563.96405 333.76635 564.47833 330.66126 563.91211 326.91211 C 563.34589 323.16296 561.93786 320.35016 559.6875 318.4707 C 557.99818 317.05081 556.03455 316.29955 553.79688 316.21875 z M 512.89062 318.10547 L 509.21484 319.45703 L 520.39453 349.88477 L 524.07227 348.5332 L 518.08008 332.22461 C 518.80131 331.08661 519.61819 330.06768 520.53125 329.16992 C 521.44431 328.27216 522.40243 327.64032 523.40625 327.27148 C 524.38401 326.91224 525.23004 326.75606 525.94336 326.80469 C 526.65189 326.84029 527.26978 327.07221 527.79688 327.5 C 528.29177 327.88043 528.76006 328.49255 529.20312 329.33594 C 529.6414 330.16629 530.04523 331.08406 530.41406 332.08789 L 534.98242 344.52344 L 538.66016 343.17383 L 533.45117 328.99609 C 532.4692 326.32356 531.09654 324.50306 529.33594 323.53711 C 527.57533 322.57116 525.51591 322.52167 523.15625 323.38867 C 521.86562 323.86289 520.70485 324.59335 519.67578 325.57812 C 518.64674 326.5629 517.73506 327.74203 516.9375 329.11523 L 512.89062 318.10547 z M 581.01562 318.12695 C 581.26727 318.11511 581.52565 318.11516 581.79102 318.12695 C 583.88616 318.22005 585.49142 319.02761 586.60547 320.55078 C 587.72013 322.06008 588.20997 324.32111 588.07617 327.33203 C 587.94548 330.27357 587.25008 332.46661 585.99023 333.91211 C 584.74488 335.34435 583.08324 336.01435 581.00195 335.92188 C 578.89293 335.82817 577.28079 335.006 576.16797 333.45508 C 575.05573 331.89028 574.56385 329.65012 574.69336 326.73633 C 574.82715 323.72541 575.51 321.51839 576.74023 320.11328 C 577.82939 318.8722 579.25413 318.20986 581.01562 318.12695 z M 553.46289 319.61328 C 554.88944 319.677 556.12172 320.18888 557.16211 321.14844 C 558.54721 322.41412 559.46595 324.53553 559.91602 327.51562 C 560.35573 330.42705 560.0957 332.71345 559.13867 334.375 C 558.19329 336.02075 556.69083 336.99943 554.63086 337.31055 C 552.5434 337.62581 550.80343 337.1311 549.41211 335.82422 C 548.01872 334.50361 547.1055 332.40154 546.66992 329.51758 C 546.21986 326.53749 546.46265 324.23925 547.39844 322.62305 C 548.34591 320.99103 549.86954 320.01656 551.9707 319.69922 C 552.48913 319.62092 552.98737 319.59204 553.46289 319.61328 z M 497.62891 328.38281 C 496.1181 328.62513 494.48329 329.06253 492.72656 329.69336 C 490.96986 330.32419 489.17386 331.22781 487.33789 332.4043 C 484.49627 334.22522 482.60075 336.42837 481.65234 339.01562 C 480.69643 341.59118 480.92097 343.97339 482.32227 346.16016 C 483.54371 348.06627 485.09155 349.25934 486.9668 349.74023 C 488.84626 350.20195 491.10032 349.93593 493.73047 348.94336 C 495.02634 348.44287 496.23287 347.94327 497.34766 347.44336 C 498.47413 346.93596 499.54925 346.51759 500.57617 346.18945 C 501.92871 345.75163 503.06308 345.62843 503.97656 345.81836 C 504.90177 346.00079 505.73469 346.67042 506.47656 347.82812 C 507.33835 349.17293 507.4257 350.63418 506.73828 352.21289 C 506.06255 353.78411 504.64778 355.25986 502.49609 356.63867 C 500.97587 357.61283 499.15973 358.35649 497.04688 358.86914 C 494.93399 359.38179 492.86565 359.51223 490.83984 359.25977 L 490.59375 359.41602 L 493.38086 363.76562 C 495.37826 363.45893 497.23736 363.00288 498.95898 362.39453 C 500.69233 361.77868 502.50206 360.86661 504.38477 359.66016 C 506.13887 358.53613 507.49897 357.36569 508.46875 356.15039 C 509.45024 354.9276 510.16906 353.64282 510.625 352.29492 C 511.03646 351.05795 511.15931 349.79373 510.99023 348.5 C 510.83273 347.19878 510.42733 346.03886 509.77539 345.02148 C 508.57642 343.15045 507.15116 342.00896 505.50195 341.59766 C 503.85274 341.18635 501.89396 341.34483 499.62305 342.07422 C 498.5068 342.44311 497.18407 342.95316 495.6543 343.60352 C 494.12455 344.25387 492.93144 344.73686 492.07812 345.05273 C 490.45333 345.63202 489.16159 345.79134 488.20312 345.53125 C 487.24466 345.27116 486.4176 344.5973 485.7207 343.50977 C 484.94147 342.29359 484.86608 340.9404 485.49414 339.44922 C 486.13389 337.95055 487.38286 336.60553 489.24219 335.41406 C 490.93781 334.3275 492.77265 333.54897 494.74609 333.07617 C 496.72377 332.58418 498.48017 332.4395 500.01367 332.64453 L 500.25977 332.48828 L 497.62891 328.38281 z M 640.61719 328.80078 L 628.51367 348.67578 L 631.85938 350.71289 L 640.89648 335.87305 C 642.2361 335.7294 643.49959 335.71096 644.6875 335.81641 C 645.88727 335.92908 646.94401 336.26408 647.85742 336.82031 C 648.81828 337.40544 649.475 337.98309 649.82617 338.55469 C 650.18457 339.11442 650.34444 339.73197 650.30664 340.4082 C 650.2668 341.0344 650.03978 341.76734 649.62695 342.60547 C 649.23323 343.43896 648.76893 344.29405 648.23438 345.17188 L 641.34375 356.48828 L 644.68945 358.52539 L 652.43555 345.80273 C 652.65224 345.44686 652.85777 345.08517 653.05078 344.71484 C 653.25102 344.33266 653.41636 343.99373 653.54688 343.69922 C 654.92466 343.54627 656.22253 343.52282 657.44141 343.63086 C 658.66748 343.72704 659.75035 344.06214 660.6875 344.63281 C 661.64836 345.21794 662.30313 345.79559 662.6543 346.36719 C 663.00547 346.93879 663.1628 347.56205 663.125 348.23828 C 663.08516 348.86448 662.85814 349.59742 662.44531 350.43555 C 662.04436 351.2809 661.58457 352.13028 661.06445 352.98438 L 654.17188 364.30078 L 657.51758 366.33789 L 665.37305 353.4375 C 666.81788 351.065 667.41988 348.9036 667.17773 346.95117 C 666.95474 344.9941 665.75299 343.35065 663.57031 342.02148 C 662.30102 341.24854 660.95306 340.77832 659.52734 340.60938 C 658.10889 340.42856 656.37589 340.49526 654.33008 340.81055 C 654.48146 339.52051 654.25655 338.3016 653.6543 337.1543 C 653.06388 336.01422 652.09255 335.03249 650.74023 334.20898 C 649.56586 333.49384 648.30884 333.06145 646.96875 332.91211 C 645.64055 332.77 644.19037 332.81465 642.61914 333.04492 L 643.96289 330.83789 L 640.61719 328.80078 z M 678.7207 358.83008 C 675.67428 358.87565 672.77355 360.21157 670.01953 362.83789 C 667.23556 365.49297 665.83127 368.32841 665.80859 371.34375 C 665.7962 374.3495 667.12244 377.24872 669.78711 380.04297 C 670.83187 381.13853 671.96524 382.05474 673.18555 382.79102 C 674.40586 383.52729 675.67172 384.18049 676.98438 384.75195 L 680.07617 381.80469 L 679.93164 381.6543 C 679.01972 381.58352 677.77737 381.18595 676.20312 380.46094 C 674.64853 379.73638 673.32511 378.80013 672.23242 377.6543 C 671.40811 376.78989 670.77117 375.88146 670.32227 374.92773 C 669.8821 373.98406 669.65379 373.02181 669.63867 372.03906 C 669.61358 371.02663 669.83403 369.99904 670.30078 368.95898 C 670.77761 367.90935 671.53505 366.89156 672.57031 365.9043 L 684.40234 378.3125 L 685.93945 376.8457 C 688.38176 374.51652 689.67827 372.10115 689.82617 369.59961 C 689.98355 367.10813 688.97872 364.72665 686.8125 362.45508 C 684.47373 360.00258 681.77673 358.79455 678.7207 358.83008 z M 679.52539 362.17969 C 681.28259 362.23122 682.88467 363.01547 684.33203 364.5332 C 685.76976 366.04088 686.4308 367.55041 686.31641 369.06055 C 686.21156 370.58073 685.42136 372.05377 683.94336 373.48242 L 674.74023 363.83398 C 676.182 362.68937 677.77774 362.13821 679.52539 362.17969 z M 444.42383 396.36523 C 443.43487 396.35923 442.49727 396.50851 441.60742 396.81055 C 439.2402 397.60332 437.41124 399.43058 436.12305 402.29297 C 434.73231 405.38331 434.63033 408.33679 435.81445 411.1543 C 437.00427 413.95913 439.33245 416.14132 442.80273 417.70312 C 446.31104 419.28201 449.46787 419.51548 452.26953 418.40039 C 455.05855 417.27958 457.24352 414.95846 458.82812 411.4375 C 459.44953 410.05696 459.87151 408.66168 460.09375 407.25391 C 460.31619 405.84613 460.4457 404.4273 460.48047 402.99609 L 456.58594 401.24414 L 456.5 401.43359 C 456.77792 402.305 456.87744 403.60651 456.79883 405.33789 C 456.71326 407.0509 456.34511 408.62841 455.69531 410.07227 C 455.20511 411.1615 454.60303 412.09404 453.88867 412.86914 C 453.17999 413.63157 452.37502 414.20484 451.4707 414.58984 C 450.5423 414.99445 449.50842 415.17729 448.36914 415.13672 C 447.21722 415.09046 445.98814 414.77461 444.68359 414.1875 L 451.7207 398.55078 L 449.7832 397.67969 C 447.85966 396.81399 446.07209 396.37525 444.42383 396.36523 z M 444.14844 400.00391 C 445.1546 400.01289 446.24482 400.27755 447.41992 400.79688 L 441.94727 412.95508 C 440.34384 412.05069 439.2332 410.781 438.61328 409.14648 C 437.99901 407.49929 438.12172 405.72106 438.98242 403.80859 C 439.83743 401.9088 440.98574 400.72654 442.42773 400.26367 C 442.97062 400.08534 443.54474 399.99851 444.14844 400.00391 z M 433.79883 425.64648 C 431.93354 425.60806 430.36352 425.95959 429.08789 426.70117 C 427.37529 427.6742 426.33486 429.42589 425.96875 431.95508 C 425.75596 433.42587 425.85183 434.85088 426.25586 436.22852 C 426.64616 437.60419 427.38771 439.16972 428.48047 440.92773 C 427.23451 441.29468 426.20179 441.9802 425.38281 442.98438 C 424.5658 443.97476 424.04513 445.2533 423.81836 446.82031 C 423.62137 448.18112 423.71698 449.50764 424.10547 450.79883 C 424.49594 452.07628 425.10525 453.39319 425.93359 454.74805 L 423.37695 454.37695 L 422.81641 458.25391 L 445.8457 461.58789 L 446.4082 457.71094 L 429.21094 455.22266 C 428.55315 454.04685 428.04101 452.89182 427.67188 451.75781 C 427.30476 450.61005 427.19641 449.50568 427.34961 448.44727 C 427.51077 447.33387 427.78587 446.50431 428.17383 445.95703 C 428.54805 445.40769 429.05461 445.01766 429.69141 444.78711 C 430.28303 444.57798 431.04367 444.49988 431.97656 444.55078 C 432.89771 444.58606 433.86759 444.67707 434.88477 444.82422 L 447.99805 446.7207 L 448.55859 442.8457 L 433.81641 440.71094 C 433.40406 440.65122 432.99057 440.60647 432.57422 440.57422 C 432.14411 440.54045 431.76743 440.52066 431.44531 440.51562 C 430.76401 439.30837 430.23438 438.1225 429.85547 436.95898 C 429.46265 435.7935 429.34472 434.66794 429.50195 433.58203 C 429.66311 432.46863 429.93822 431.6391 430.32617 431.0918 C 430.71413 430.54447 431.22646 430.15438 431.86328 429.92383 C 432.4549 429.71469 433.2175 429.6366 434.15039 429.6875 C 435.08527 429.72479 436.04743 429.81391 437.03711 429.95703 L 450.15039 431.85547 L 450.71094 427.97852 L 435.76172 425.81641 C 435.07444 425.71693 434.42059 425.65929 433.79883 425.64648 z M 705.20703 465.17773 C 704.17058 466.91254 703.33915 468.63709 702.71094 470.35156 C 702.08102 472.07984 701.63126 474.0537 701.36133 476.27344 C 701.10974 478.34154 701.14232 480.13639 701.46094 481.6582 C 701.77789 483.1938 702.31035 484.56704 703.05859 485.77734 C 703.74967 486.88273 704.6471 487.78061 705.75195 488.47461 C 706.85512 489.18239 708.00754 489.60997 709.20703 489.75586 C 711.41302 490.02411 713.20045 489.65344 714.56836 488.64453 C 715.93627 487.63562 717.06233 486.02352 717.94727 483.80859 C 718.3743 482.71324 718.82525 481.36876 719.29883 479.77539 C 719.77243 478.18202 720.15866 476.95657 720.45898 476.09766 C 721.04789 474.47634 721.74738 473.37957 722.55859 472.80664 C 723.36981 472.23366 724.417 472.02567 725.69922 472.18164 C 727.1331 472.356 728.22365 473.15949 728.97266 474.59375 C 729.71999 476.04176 729.9619 477.86251 729.69531 480.05469 C 729.45221 482.05386 728.88341 483.96297 727.99023 485.78516 C 727.10918 487.62279 726.10199 489.06793 724.9668 490.11914 L 724.93164 490.4082 L 729.77148 490.99805 C 730.54747 489.67929 731.25152 488.14061 731.88477 486.38477 C 732.51804 484.62892 732.96724 482.66852 733.23047 480.50391 C 733.63788 477.15358 733.14542 474.28975 731.75586 471.91016 C 730.38006 469.53225 728.40439 468.18657 725.82617 467.87305 C 723.57884 467.59976 721.67108 468.0331 720.10547 469.17188 C 718.55201 470.32612 717.3212 472.2331 716.41016 474.89258 C 715.97009 476.2102 715.58681 477.45706 715.26172 478.63477 C 714.93494 479.82625 714.57141 480.92136 714.16992 481.92188 C 713.64545 483.24322 713.01753 484.19629 712.28906 484.7793 C 711.55888 485.37613 710.51142 485.59183 709.14648 485.42578 C 707.56095 485.23297 706.3802 484.36783 705.60156 482.83203 C 704.82127 481.31004 704.58409 479.28101 704.89258 476.74414 C 705.11053 474.95179 705.69518 473.07805 706.64648 471.12305 C 707.59777 469.16802 708.81725 467.49021 710.30273 466.08984 L 710.33594 465.80078 L 705.20703 465.17773 z M 448.15234 481.46484 L 444.71875 482.24414 L 444.76562 482.44727 C 444.95523 482.71753 445.22092 483.17063 445.56445 483.80469 C 445.89446 484.44184 446.12988 485.07232 446.27148 485.69531 C 446.51463 486.76525 446.57489 487.59217 446.45117 488.17578 C 446.31085 488.74891 446.0033 489.2449 445.5293 489.66602 C 445.0208 490.12336 444.44233 490.45505 443.79102 490.66016 C 443.12617 490.86826 442.19767 491.10799 441.00586 491.37891 L 430.66406 493.72852 L 428.87305 485.84766 L 425.66406 486.57617 L 427.45508 494.45898 L 420.93359 495.94141 L 421.80273 499.75977 L 428.32227 498.27734 L 428.91016 500.85742 L 432.11914 500.12891 L 431.5332 497.54883 L 443.59961 494.80469 C 446.34894 494.17973 448.20965 493.12337 449.18164 491.63477 C 450.15363 490.14619 450.37605 488.24365 449.84961 485.92773 C 449.69876 485.2641 449.46707 484.52681 449.1543 483.71484 C 448.83845 482.88932 448.5051 482.13957 448.15234 481.46484 z M 698.625 494.83594 L 697.26172 498.50586 L 713.54883 504.55664 C 713.9448 505.84448 714.18695 507.12689 714.27539 508.4043 C 714.36396 509.68173 714.22194 510.82169 713.84961 511.82422 C 713.48695 512.80072 713.05537 513.5443 712.55469 514.05469 C 712.067 514.56986 711.48998 514.88731 710.82227 515.00977 C 710.21144 515.13852 709.44058 515.09837 708.51172 514.88672 C 707.59586 514.67993 706.63732 514.38991 705.63477 514.01758 L 693.21289 509.4043 L 691.84961 513.07617 L 706.00977 518.33398 C 708.67884 519.32528 710.95153 519.46763 712.83008 518.75781 C 714.70863 518.04799 716.0857 516.51481 716.96094 514.1582 C 717.43975 512.86923 717.63992 511.51198 717.56055 510.08984 C 717.48128 508.66771 717.17922 507.20772 716.6543 505.70898 L 727.65039 509.79297 L 729.01367 506.12109 L 698.625 494.83594 z M 447.82422 502.36914 C 445.92035 502.35286 443.87832 502.8076 441.69727 503.73438 C 438.20758 505.21721 435.8315 507.2819 434.57227 509.92969 C 433.30088 512.58289 433.30366 515.41207 434.58008 518.41602 C 435.86736 521.44553 437.90828 523.42365 440.70117 524.34961 C 443.47585 525.26821 446.60797 524.98674 450.09766 523.50391 C 453.58734 522.02107 455.96384 519.96116 457.22852 517.32617 C 458.48783 514.67839 458.47478 511.84006 457.1875 508.81055 C 455.91105 505.8066 453.88166 503.8396 451.10156 502.9082 C 450.05903 502.55894 448.96654 502.37891 447.82422 502.36914 z M 448.64844 506.26758 C 449.16425 506.29174 449.65332 506.36792 450.11523 506.49609 C 451.94468 507.00144 453.26534 508.21345 454.08008 510.13086 C 454.9057 512.07384 454.86026 513.88154 453.94141 515.55469 C 453.00978 517.23328 451.20197 518.64257 448.51758 519.7832 C 445.74373 520.96186 443.45665 521.30031 441.6582 520.79688 C 439.84154 520.28608 438.51852 519.05146 437.6875 517.0957 C 436.86727 515.16552 436.90357 513.36932 437.79688 511.70703 C 438.67735 510.05016 440.50347 508.63374 443.27734 507.45508 C 445.3098 506.59146 447.10101 506.19509 448.64844 506.26758 z M 690.99609 522.21289 C 690.63015 522.22792 690.26564 522.2625 689.9043 522.31641 C 687.00598 522.75932 684.66468 524.36178 682.87891 527.12695 C 681.10822 529.86877 680.61574 532.65263 681.4043 535.47656 C 682.19286 538.3005 684.18005 540.73985 687.36523 542.79688 C 690.55042 544.85387 693.59192 545.66166 696.49023 545.21875 C 699.40024 544.78337 701.74104 543.19497 703.51172 540.45312 C 705.29747 537.68797 705.79046 534.89006 704.99023 532.05859 C 704.19414 529.24632 702.20276 526.81093 699.01758 524.75391 C 696.23054 522.95401 693.55773 522.10769 690.99609 522.21289 z M 691.01172 526.00977 C 692.74372 526.05234 694.6823 526.76587 696.82617 528.15039 C 699.358 529.78546 700.91959 531.48855 701.51172 533.25977 C 702.108 535.0502 701.83057 536.83795 700.67773 538.62305 C 699.53997 540.38484 698.03149 541.36168 696.1543 541.55469 C 694.28875 541.75525 692.0904 541.03742 689.55859 539.40234 C 687.08512 537.80496 685.54177 536.09842 684.92969 534.28125 C 684.32174 532.4833 684.58266 530.70908 685.71289 528.95898 C 686.85819 527.18548 688.3807 526.20914 690.28125 526.03125 C 690.52027 526.00995 690.76429 526.00368 691.01172 526.00977 z M 461.42969 526.73242 C 458.85975 526.72331 456.21896 527.67564 453.50781 529.58789 C 450.40933 531.77334 448.52409 534.29269 447.85156 537.14648 C 447.16769 540.00829 447.76719 542.77227 449.64844 545.43945 C 451.54568 548.12934 453.95551 549.6331 456.88086 549.94922 C 459.78686 550.26201 462.79022 549.32607 465.88867 547.14062 C 468.98715 544.95518 470.8761 542.44011 471.55664 539.59766 C 472.22914 536.74386 471.61795 533.97309 469.7207 531.2832 C 467.83946 528.61602 465.44133 527.11905 462.52734 526.79492 C 462.16309 526.75441 461.79682 526.73372 461.42969 526.73242 z M 462.31836 530.51172 C 464.21324 530.61989 465.76016 531.52607 466.96094 533.22852 C 468.17774 534.95369 468.51406 536.73126 467.96875 538.56055 C 467.41208 540.39785 465.94204 542.15678 463.55859 543.83789 C 461.0957 545.57509 458.93252 546.38632 457.06836 546.27344 C 455.18482 546.15728 453.63104 545.23066 452.40625 543.49414 C 451.19746 541.78035 450.85435 540.01837 451.37695 538.20508 C 451.88822 536.39977 453.375 534.62777 455.83789 532.89062 C 458.24404 531.19339 460.40413 530.4001 462.31836 530.51172 z M 673.51953 543.91016 C 671.02477 544.03976 668.76445 545.12679 666.73633 547.17188 C 664.43802 549.48938 663.38329 552.11123 663.57227 555.03711 C 663.76122 557.96297 665.20032 560.76171 667.89258 563.43164 C 670.58484 566.10162 673.39492 567.51906 676.32227 567.68359 C 679.25946 567.85798 681.8775 566.78626 684.17578 564.46875 C 686.49364 562.13152 687.55427 559.49425 687.35547 556.55859 C 687.15672 553.64259 685.70984 550.84962 683.01758 548.17969 C 680.32535 545.50968 677.52108 544.08842 674.60352 543.91406 C 674.2376 543.89349 673.87593 543.89164 673.51953 543.91016 z M 479.40625 544.8457 L 469.16211 555.94531 C 467.23122 558.03766 466.23884 560.08637 466.18164 562.09375 C 466.12454 564.10111 467.01978 565.95719 468.86719 567.66211 C 469.87766 568.59464 471.05478 569.29477 472.40039 569.76172 C 473.746 570.22859 475.21106 570.50399 476.79688 570.58789 L 468.84375 579.20703 L 471.7207 581.86523 L 493.70703 558.04102 L 490.82812 555.38477 L 479.04492 568.1543 C 477.70327 568.03121 476.42428 567.76864 475.20898 567.36523 C 473.99369 566.96186 472.99295 566.39717 472.20703 565.67188 C 471.44155 564.96541 470.91862 564.28399 470.63672 563.62695 C 470.34544 562.9801 470.26981 562.32432 470.41016 561.66016 C 470.52314 561.04623 470.85368 560.34915 471.40234 559.57031 C 471.94158 558.80171 472.57354 558.0242 473.29883 557.23828 L 482.28516 547.50195 L 479.40625 544.8457 z M 673.50391 547.58594 C 673.73455 547.58636 673.96999 547.59971 674.20703 547.62695 C 676.11325 547.85471 678.1009 548.99503 680.17188 551.04883 C 682.31189 553.17108 683.4892 555.16036 683.70312 557.01562 C 683.9172 558.89055 683.27564 560.58293 681.7793 562.0918 C 680.30251 563.58078 678.62664 564.22564 676.75 564.02734 C 674.88322 563.83869 672.88023 562.6828 670.74023 560.56055 C 668.64958 558.4872 667.49158 556.4981 667.26758 554.59375 C 667.04365 552.70905 667.6658 551.02808 669.13281 549.54883 C 670.43353 548.23726 671.88941 547.58301 673.50391 547.58594 z M 652.5918 561.04297 C 651.24597 561.12273 649.84859 561.68165 648.40039 562.71875 C 647.84707 563.115 647.25621 563.61381 646.62891 564.2168 C 645.99027 564.82787 645.4286 565.42699 644.94336 566.01367 L 646.99219 568.87695 L 647.16211 568.75586 C 647.33776 568.47633 647.65211 568.05461 648.10352 567.49219 C 648.56298 566.94106 649.05283 566.4794 649.57227 566.10742 C 650.46433 565.46861 651.20313 565.09259 651.78906 564.98047 C 652.37182 564.88759 652.94764 564.97816 653.51953 565.25195 C 654.13824 565.54343 654.6699 565.94976 655.11133 566.4707 C 655.56081 567.00296 656.13995 567.76608 656.85156 568.75977 L 663.02539 577.38086 L 656.45508 582.08789 L 658.37109 584.76367 L 664.94336 580.05859 L 668.83594 585.49414 L 672.02148 583.21484 L 668.12695 577.77734 L 670.27734 576.23633 L 668.36133 573.56055 L 666.21094 575.10156 L 659.00586 565.04102 C 657.36428 562.74873 655.66886 561.44222 653.91992 561.12305 C 653.48269 561.04326 653.04041 561.01638 652.5918 561.04297 z M 502.48633 565.49609 C 501.75046 565.47052 501.03171 565.51161 500.32812 565.61719 C 499.03989 565.817 497.85824 566.28712 496.78516 567.0293 C 495.70057 567.76419 494.85453 568.65669 494.24805 569.70117 C 493.1333 571.62258 492.76975 573.41016 493.1582 575.06445 C 493.54679 576.71916 494.58418 578.39033 496.27148 580.07617 C 497.11011 580.90008 498.16728 581.84335 499.44531 582.90625 C 500.72335 583.96913 501.69795 584.8075 502.36914 585.42188 C 503.62742 586.60177 504.36124 587.67715 504.56836 588.64844 C 504.77548 589.61975 504.55462 590.6641 503.90625 591.78125 C 503.18121 593.03061 502.01177 593.71638 500.39844 593.83984 C 498.77311 593.95643 497.00567 593.462 495.0957 592.35352 C 493.3539 591.34264 491.82113 590.06797 490.49805 588.5293 C 489.15599 586.99567 488.22614 585.49848 487.70703 584.04102 L 487.45508 583.89648 L 485.00781 588.11133 C 485.91432 589.34401 487.04958 590.59744 488.41406 591.87109 C 489.77855 593.14474 491.4031 594.3293 493.28906 595.42383 C 496.20807 597.11791 499.03497 597.79506 501.76953 597.45508 C 504.49712 597.12712 506.51275 595.84007 507.81641 593.59375 C 508.95278 591.6357 509.30704 589.71177 508.87695 587.82422 C 508.42789 585.94169 507.15989 584.05873 505.07422 582.17383 C 504.03644 581.25036 503.04039 580.40721 502.08594 579.64453 C 501.11949 578.87487 500.25564 578.10881 499.49414 577.3457 C 498.48617 576.3432 497.85832 575.39141 497.60938 574.49219 C 497.34844 573.58601 497.56176 572.53885 498.25195 571.34961 C 499.05369 569.96827 500.3149 569.22219 502.0332 569.11133 C 503.73951 568.99356 505.69791 569.5766 507.9082 570.85938 C 509.46983 571.76568 510.96053 573.04112 512.38281 574.68555 C 513.8051 576.32997 514.86823 578.11037 515.57031 580.02734 L 515.82227 580.17383 L 518.41602 575.70508 C 517.2297 574.06912 515.97103 572.62383 514.64258 571.37109 C 513.30213 570.1114 511.66643 568.92127 509.73242 567.79883 C 507.93057 566.75311 506.2665 566.07608 504.74219 565.76953 C 503.97404 565.61281 503.2222 565.52167 502.48633 565.49609 z M 627.59766 575.91797 L 623.83398 577 L 628.63086 593.69922 C 627.82927 594.7821 626.98761 595.72477 626.10547 596.52734 C 625.21 597.33372 624.24856 597.88438 623.2207 598.17969 C 622.13943 598.49036 621.2697 598.58188 620.61133 598.45312 C 619.95679 598.33772 619.39381 598.03658 618.92188 597.55078 C 618.48814 597.09736 618.10266 596.43584 617.76562 595.56445 C 617.41907 594.71028 617.10413 593.7886 616.82031 592.80078 L 613.16016 580.06641 L 609.39648 581.14844 L 613.50977 595.46484 C 613.62471 595.86532 613.75267 596.2615 613.89453 596.6543 C 614.04012 597.06044 614.17644 597.41152 614.30469 597.70703 C 613.48408 598.82431 612.62179 599.79363 611.7168 600.61719 C 610.81563 601.45413 609.83777 602.02516 608.7832 602.32812 C 607.70193 602.6388 606.8322 602.73032 606.17383 602.60156 C 605.51546 602.47281 604.95045 602.16548 604.47852 601.67969 C 604.04478 601.22627 603.6593 600.56279 603.32227 599.69141 C 602.97185 598.82388 602.65892 597.91033 602.38281 596.94922 L 598.72461 584.21484 L 594.95898 585.29492 L 599.13086 599.8125 C 599.89788 602.48228 601.08124 604.38896 602.68164 605.5332 C 604.27252 606.69463 606.29574 606.92243 608.75195 606.2168 C 610.18029 605.80644 611.43941 605.13372 612.5293 604.19922 C 613.62302 603.27805 614.74678 601.95891 615.90039 600.24023 C 616.74698 601.22531 617.79685 601.88479 619.04883 602.21875 C 620.28748 602.55641 621.66766 602.50555 623.18945 602.06836 C 624.51098 601.68867 625.67979 601.05666 626.69727 600.17188 C 627.70139 599.29092 628.65018 598.19476 629.54492 596.88281 L 630.25977 599.36523 L 634.02344 598.28516 L 627.59766 575.91797 z M 576.57031 585.14258 C 575.05694 585.18216 573.61669 585.40752 572.25195 585.81836 C 570.88724 586.22919 569.55251 586.72848 568.24805 587.31836 L 568.36133 591.58789 L 568.56836 591.58398 C 569.2327 590.9553 570.36123 590.30191 571.95508 589.62109 C 573.5354 588.95444 575.11838 588.59992 576.70117 588.55859 C 577.89523 588.52735 578.99553 588.66558 580.00391 588.97266 C 580.9984 589.28008 581.86607 589.75674 582.60547 590.4043 C 583.37302 591.06501 583.98536 591.91701 584.44336 592.96094 C 584.90187 594.01875 585.15021 595.26329 585.1875 596.69336 L 568.04688 597.14258 L 568.10156 599.26367 C 568.18985 602.63753 569.11345 605.21979 570.86914 607.00781 C 572.61095 608.79626 575.04969 609.64855 578.1875 609.56641 C 581.57524 609.47776 584.2825 608.28789 586.30664 605.99805 C 588.31687 603.70859 589.2714 600.66169 589.17188 596.85742 C 589.07126 593.01153 587.91023 590.06913 585.68945 588.0293 C 583.46903 586.00329 580.43009 585.04154 576.57031 585.14258 z M 585.26562 599.69141 C 585.14697 601.52848 584.48655 603.0816 583.2832 604.34961 C 582.06594 605.61792 580.409 606.27906 578.3125 606.33398 C 576.22988 606.38849 574.66599 605.86764 573.62305 604.76953 C 572.56606 603.67181 572.00503 602.09552 571.9375 600.04102 L 585.26562 599.69141 z "
       transform="scale(0.26458333)"
       id="path835" />
  </g>
</svg>
