<?xml version="1.0" encoding="UTF-8" standalone="no"?>
<!-- Created with Inkscape (http://www.inkscape.org/) -->

<svg
   xmlns:dc="http://purl.org/dc/elements/1.1/"
   xmlns:cc="http://creativecommons.org/ns#"
   xmlns:rdf="http://www.w3.org/1999/02/22-rdf-syntax-ns#"
   xmlns:svg="http://www.w3.org/2000/svg"
   xmlns="http://www.w3.org/2000/svg"
   xmlns:sodipodi="http://sodipodi.sourceforge.net/DTD/sodipodi-0.dtd"
   xmlns:inkscape="http://www.inkscape.org/namespaces/inkscape"
   width="500"
   height="100"
   viewBox="0 0 132.29166 26.458334"
   version="1.1"
   id="svg8"
   inkscape:version="0.92.4 (5da689c313, 2019-01-14)"
   sodipodi:docname="ss-2.svg">
  <defs
     id="defs2" />
  <sodipodi:namedview
     id="base"
     pagecolor="#ffffff"
     bordercolor="#666666"
     borderopacity="1.0"
     inkscape:pageopacity="0.0"
     inkscape:pageshadow="2"
     inkscape:zoom="1.3249068"
     inkscape:cx="-9.2937966"
     inkscape:cy="251.30524"
     inkscape:document-units="px"
     inkscape:current-layer="layer1"
     showgrid="false"
     units="px"
     inkscape:window-width="1920"
     inkscape:window-height="1017"
     inkscape:window-x="1358"
     inkscape:window-y="-8"
     inkscape:window-maximized="1" />
  <metadata
     id="metadata5">
    <rdf:RDF>
      <cc:Work
         rdf:about="">
        <dc:format>image/svg+xml</dc:format>
        <dc:type
           rdf:resource="http://purl.org/dc/dcmitype/StillImage" />
        <dc:title></dc:title>
      </cc:Work>
    </rdf:RDF>
  </metadata>
  <g
     inkscape:label="Laag 1"
     inkscape:groupmode="layer"
     id="layer1"
     transform="translate(0,-270.54165)">
    <path
       style="font-style:normal;font-variant:normal;font-weight:normal;font-stretch:normal;font-size:37.33333206px;line-height:1.25;font-family:'Segoe MDL2 Assets';-inkscape-font-specification:'Segoe MDL2 Assets';letter-spacing:0px;word-spacing:0px;fill:#8f2d56;fill-opacity:1;stroke:none;stroke-width:0.99999994"
       d="M 296.02148 32.275391 L 296.02148 35.830078 L 299.88672 35.830078 L 299.88672 32.275391 L 296.02148 32.275391 z M 159.19336 32.458984 L 159.19336 35.337891 L 164.93555 35.337891 L 164.93555 51.179688 C 164.93555 52.103278 164.88823 52.918165 164.79102 53.623047 C 164.70595 54.327904 164.49805 54.922105 164.16992 55.408203 C 163.85395 55.882181 163.36176 56.246759 162.69336 56.501953 C 162.03711 56.757172 161.15126 56.884766 160.0332 56.884766 C 159.26758 56.884766 158.52018 56.793501 157.79102 56.611328 C 157.06185 56.428979 156.44748 56.254063 155.94922 56.083984 L 155.74805 56.083984 L 155.74805 59.455078 C 156.4043 59.600968 157.21918 59.723053 158.19141 59.820312 C 159.16363 59.929667 159.94206 59.984375 160.52539 59.984375 C 162.9681 59.984375 164.91124 59.340923 166.35742 58.052734 C 167.81576 56.764545 168.54492 54.928834 168.54492 52.546875 L 168.54492 32.458984 L 159.19336 32.458984 z M 329.81836 33.388672 L 329.81836 39.240234 L 327.50391 39.240234 L 327.50391 42.119141 L 329.81836 42.119141 L 329.81836 52.947266 C 329.81836 55.414289 330.35981 57.208137 331.44141 58.326172 C 332.523 59.444232 334.10351 60.001953 336.18164 60.001953 C 336.77713 60.001953 337.4516 59.947245 338.20508 59.837891 C 338.9707 59.728461 339.67426 59.590001 340.31836 59.419922 L 340.31836 56.337891 L 340.13672 56.337891 C 339.86936 56.447321 339.43186 56.587734 338.82422 56.757812 C 338.21658 56.915797 337.63325 56.994141 337.07422 56.994141 C 336.11415 56.994141 335.39779 56.884724 334.92383 56.666016 C 334.46202 56.435112 334.09744 56.07792 333.83008 55.591797 C 333.5384 55.069239 333.36696 54.50954 333.31836 53.914062 C 333.26975 53.306415 333.24609 52.467893 333.24609 51.398438 L 333.24609 42.119141 L 340.31836 42.119141 L 340.31836 39.240234 L 333.24609 39.240234 L 333.24609 33.388672 L 329.81836 33.388672 z M 316.62109 38.673828 C 315.3329 38.673828 314.11697 38.936427 312.97461 39.458984 C 311.8444 39.969397 310.82356 40.607415 309.91211 41.373047 L 309.91211 39.240234 L 306.48633 39.240234 L 306.48633 67.111328 L 309.91211 67.111328 L 309.91211 58.580078 C 310.79926 59.066277 311.66884 59.425447 312.51953 59.65625 C 313.38238 59.887053 314.3431 60.001953 315.40039 60.001953 C 316.61566 60.001953 317.7641 59.759535 318.8457 59.273438 C 319.93945 58.77517 320.88737 58.077035 321.68945 57.177734 C 322.5523 56.229804 323.2194 55.073999 323.69336 53.712891 C 324.16731 52.339637 324.4043 50.826616 324.4043 49.173828 C 324.4043 45.880423 323.71896 43.310097 322.3457 41.462891 C 320.98459 39.603514 319.07595 38.673828 316.62109 38.673828 z M 182.27148 38.748047 C 181.04405 38.748047 179.79904 38.857463 178.53516 39.076172 C 177.27127 39.29478 176.30512 39.495309 175.63672 39.677734 L 175.63672 43.158203 L 175.81836 43.158203 C 176.99718 42.708439 178.14019 42.369475 179.24609 42.138672 C 180.352 41.895522 181.3546 41.773438 182.25391 41.773438 C 182.99523 41.773438 183.70616 41.822662 184.38672 41.919922 C 185.06728 42.017157 185.65061 42.204866 186.13672 42.484375 C 186.64714 42.776054 187.03537 43.177087 187.30273 43.6875 C 187.58225 44.197913 187.72266 44.841364 187.72266 45.619141 L 187.72266 46.148438 C 185.7296 46.245597 183.8648 46.391418 182.12695 46.585938 C 180.38911 46.780382 178.89974 47.150393 177.66016 47.697266 C 176.43273 48.244138 175.48481 48.998909 174.81641 49.958984 C 174.16016 50.90689 173.83203 52.151905 173.83203 53.695312 C 173.83203 55.578979 174.47005 57.128455 175.74609 58.34375 C 177.02214 59.559019 178.57704 60.166016 180.41211 60.166016 C 181.40864 60.166016 182.27821 60.06952 183.01953 59.875 C 183.76085 59.692701 184.4171 59.461149 184.98828 59.181641 C 185.47439 58.962907 185.972 58.671239 186.48242 58.306641 C 187.00499 57.929923 187.41884 57.638255 187.72266 57.431641 L 187.72266 59.601562 L 191.13086 59.601562 L 191.13086 45.785156 C 191.13086 44.472652 190.93034 43.371531 190.5293 42.484375 C 190.12826 41.597219 189.54492 40.875424 188.7793 40.316406 C 188.00152 39.745118 187.07921 39.344084 186.00977 39.113281 C 184.95248 38.870132 183.70551 38.748047 182.27148 38.748047 z M 225.80273 38.748047 C 224.5753 38.748047 223.33029 38.857463 222.06641 39.076172 C 220.80252 39.29478 219.83637 39.495309 219.16797 39.677734 L 219.16797 43.158203 L 219.34961 43.158203 C 220.52843 42.708439 221.67144 42.369475 222.77734 42.138672 C 223.88325 41.895522 224.88585 41.773438 225.78516 41.773438 C 226.52648 41.773438 227.23741 41.822662 227.91797 41.919922 C 228.59852 42.017157 229.18186 42.204866 229.66797 42.484375 C 230.17839 42.776054 230.56662 43.177087 230.83398 43.6875 C 231.1135 44.197913 231.25391 44.841364 231.25391 45.619141 L 231.25391 46.148438 C 229.26085 46.245597 227.39605 46.391418 225.6582 46.585938 C 223.92036 46.780382 222.43099 47.150393 221.19141 47.697266 C 219.96398 48.244138 219.01606 48.998909 218.34766 49.958984 C 217.69141 50.90689 217.36328 52.151905 217.36328 53.695312 C 217.36328 55.578979 218.0013 57.128455 219.27734 58.34375 C 220.55339 59.559019 222.10829 60.166016 223.94336 60.166016 C 224.93989 60.166016 225.80946 60.06952 226.55078 59.875 C 227.2921 59.692701 227.94835 59.461149 228.51953 59.181641 C 229.00564 58.962907 229.50325 58.671239 230.01367 58.306641 C 230.53624 57.929923 230.95009 57.638255 231.25391 57.431641 L 231.25391 59.601562 L 234.66211 59.601562 L 234.66211 45.785156 C 234.66211 44.472652 234.46159 43.371531 234.06055 42.484375 C 233.65951 41.597219 233.07617 40.875424 232.31055 40.316406 C 231.53277 39.745118 230.61046 39.344084 229.54102 39.113281 C 228.48373 38.870132 227.23676 38.748047 225.80273 38.748047 z M 248.24414 38.748047 C 246.94379 38.748047 245.76432 38.917529 244.70703 39.257812 C 243.66189 39.585926 242.7997 40.036234 242.11914 40.607422 C 241.41428 41.190754 240.88563 41.852433 240.5332 42.59375 C 240.19292 43.335067 240.02148 44.124339 240.02148 44.962891 C 240.02148 46.299684 240.39345 47.4299 241.13477 48.353516 C 241.88824 49.264987 243.1569 49.957688 244.94336 50.431641 C 245.58746 50.601719 246.29839 50.76036 247.07617 50.90625 C 247.8661 51.052089 248.50412 51.179708 248.99023 51.289062 C 250.30273 51.580741 251.19054 51.9325 251.65234 52.345703 C 252.11415 52.758881 252.3457 53.367831 252.3457 54.169922 C 252.3457 55.215062 251.91905 55.980699 251.06836 56.466797 C 250.21767 56.95292 249.04015 57.195312 247.5332 57.195312 C 246.31793 57.195312 245.04731 56.958328 243.72266 56.484375 C 242.398 55.998252 241.19488 55.347439 240.11328 54.533203 L 239.93164 54.533203 L 239.93164 58.380859 C 240.78234 58.806207 241.83225 59.199855 243.08398 59.564453 C 244.34787 59.916881 245.73329 60.09375 247.24023 60.09375 C 249.90169 60.09375 251.99805 59.49762 253.5293 58.306641 C 255.0727 57.115661 255.8457 55.591798 255.8457 53.732422 C 255.8457 52.249789 255.41363 51.057504 254.55078 50.158203 C 253.68794 49.271047 252.46116 48.645823 250.86914 48.28125 C 250.34657 48.159776 249.69032 48.026749 248.90039 47.880859 C 248.12261 47.73507 247.4171 47.589249 246.78516 47.443359 C 245.64279 47.175996 244.81706 46.829645 244.30664 46.404297 C 243.78407 45.978974 243.52148 45.346364 243.52148 44.507812 C 243.52148 43.559882 243.95356 42.848953 244.81641 42.375 C 245.67925 41.888902 246.73655 41.646484 247.98828 41.646484 C 249.19141 41.646484 250.41819 41.870675 251.66992 42.320312 C 252.92166 42.757831 253.98633 43.299277 254.86133 43.943359 L 255.04297 43.943359 L 255.04297 40.279297 C 254.21658 39.853949 253.17752 39.494779 251.92578 39.203125 C 250.6862 38.899301 249.45942 38.748047 248.24414 38.748047 z M 269.29883 38.765625 C 266.29709 38.765625 263.87804 39.713539 262.04297 41.609375 C 260.22006 43.505211 259.30859 46.117401 259.30859 49.447266 C 259.30859 51.233722 259.551 52.796019 260.03711 54.132812 C 260.52322 55.469631 261.2105 56.576186 262.09766 57.451172 C 262.97265 58.326183 264.02452 58.982429 265.25195 59.419922 C 266.47938 59.84527 267.82834 60.056641 269.29883 60.056641 C 270.45334 60.056641 271.53971 59.905386 272.56055 59.601562 C 273.59353 59.297764 274.68186 58.87307 275.82422 58.326172 L 275.82422 54.552734 L 275.64258 54.552734 C 275.38737 54.759323 275.04101 55.007175 274.60352 55.298828 C 274.16602 55.578362 273.69749 55.846369 273.19922 56.101562 C 272.62804 56.393342 271.98459 56.630327 271.26758 56.8125 C 270.55056 56.994925 269.84505 57.085938 269.15234 57.085938 C 267.15928 57.085937 265.60981 56.429691 264.50391 55.117188 C 263.41016 53.792539 262.86328 51.902119 262.86328 49.447266 C 262.86328 46.919492 263.42296 45.005437 264.54102 43.705078 C 265.67122 42.392574 267.2079 41.736328 269.15234 41.736328 C 270.20964 41.736328 271.29058 41.95506 272.39648 42.392578 C 273.51454 42.830071 274.59744 43.457248 275.64258 44.271484 L 275.82422 44.271484 L 275.82422 40.460938 C 274.88846 39.986985 273.85482 39.585926 272.72461 39.257812 C 271.60656 38.929674 270.4655 38.765625 269.29883 38.765625 z M 195.21484 39.240234 L 203.40039 59.601562 L 206.8457 59.601562 L 215.08398 39.240234 L 211.49414 39.240234 L 205.24023 55.445312 L 198.93359 39.240234 L 195.21484 39.240234 z M 280.23633 39.240234 L 280.23633 59.601562 L 283.66211 59.601562 L 283.66211 45.146484 C 284.57357 44.405168 285.52149 43.803605 286.50586 43.341797 C 287.49024 42.867844 288.51107 42.630859 289.56836 42.630859 C 290.22461 42.630859 290.78971 42.659979 291.26367 42.720703 C 291.74978 42.769333 292.24935 42.855114 292.75977 42.976562 L 292.94141 42.976562 L 292.94141 39.458984 C 292.40669 39.374827 292.00564 39.320119 291.73828 39.294922 C 291.47091 39.258386 291.03885 39.240234 290.44336 39.240234 C 289.36177 39.240234 288.29905 39.469833 287.25391 39.931641 C 286.22092 40.381304 285.02322 41.154302 283.66211 42.248047 L 283.66211 39.240234 L 280.23633 39.240234 z M 296.24023 39.240234 L 296.24023 59.601562 L 299.66797 59.601562 L 299.66797 39.240234 L 296.24023 39.240234 z M 315.74609 41.9375 C 317.48394 41.9375 318.77279 42.544496 319.61133 43.759766 C 320.44987 44.975035 320.86914 46.810746 320.86914 49.265625 C 320.86914 51.793398 320.33312 53.702045 319.26367 54.990234 C 318.19422 56.278423 316.70681 56.921875 314.79883 56.921875 C 313.91167 56.921875 313.11502 56.843531 312.41016 56.685547 C 311.71745 56.527563 310.88433 56.228509 309.91211 55.791016 L 309.91211 44.251953 C 310.82356 43.559241 311.77886 43.00152 312.77539 42.576172 C 313.77192 42.150824 314.76172 41.9375 315.74609 41.9375 z M 187.72266 48.919922 L 187.72266 54.587891 C 186.87196 55.244143 185.9477 55.80925 184.95117 56.283203 C 183.95465 56.745011 182.85547 56.976562 181.65234 56.976562 C 180.20617 56.976562 179.13064 56.684895 178.42578 56.101562 C 177.72092 55.506085 177.36914 54.625649 177.36914 53.458984 C 177.36914 52.425989 177.67166 51.616535 178.2793 51.033203 C 178.88693 50.437726 179.68359 50.000212 180.66797 49.720703 C 181.49436 49.489698 182.61176 49.314808 184.02148 49.193359 C 185.44336 49.071911 186.67752 48.980646 187.72266 48.919922 z M 231.25391 48.919922 L 231.25391 54.587891 C 230.40321 55.244143 229.47895 55.80925 228.48242 56.283203 C 227.48589 56.745011 226.38672 56.976562 225.18359 56.976562 C 223.73741 56.976562 222.66189 56.684895 221.95703 56.101562 C 221.25217 55.506085 220.90039 54.625649 220.90039 53.458984 C 220.90039 52.425989 221.20291 51.616535 221.81055 51.033203 C 222.41818 50.437726 223.21484 50.000212 224.19922 49.720703 C 225.02561 49.489698 226.14301 49.314808 227.55273 49.193359 C 228.97461 49.071911 230.20877 48.980646 231.25391 48.919922 z "
       transform="matrix(0.26458333,0,0,0.26458333,0,270.54165)"
       id="path819" />
  </g>
</svg>
