<?xml version="1.0" encoding="UTF-8" standalone="no"?>
<!-- Created with Inkscape (http://www.inkscape.org/) -->

<svg
   xmlns:dc="http://purl.org/dc/elements/1.1/"
   xmlns:cc="http://creativecommons.org/ns#"
   xmlns:rdf="http://www.w3.org/1999/02/22-rdf-syntax-ns#"
   xmlns:svg="http://www.w3.org/2000/svg"
   xmlns="http://www.w3.org/2000/svg"
   xmlns:sodipodi="http://sodipodi.sourceforge.net/DTD/sodipodi-0.dtd"
   xmlns:inkscape="http://www.inkscape.org/namespaces/inkscape"
   width="500"
   height="100"
   viewBox="0 0 132.29166 26.458334"
   version="1.1"
   id="svg8"
   inkscape:version="0.92.4 (5da689c313, 2019-01-14)"
   sodipodi:docname="ss-4.svg">
  <defs
     id="defs2" />
  <sodipodi:namedview
     id="base"
     pagecolor="#ffffff"
     bordercolor="#666666"
     borderopacity="1.0"
     inkscape:pageopacity="0.0"
     inkscape:pageshadow="2"
     inkscape:zoom="1.3249068"
     inkscape:cx="-9.2937966"
     inkscape:cy="251.30524"
     inkscape:document-units="px"
     inkscape:current-layer="layer1"
     showgrid="false"
     units="px"
     inkscape:window-width="1920"
     inkscape:window-height="1017"
     inkscape:window-x="1358"
     inkscape:window-y="-8"
     inkscape:window-maximized="1" />
  <metadata
     id="metadata5">
    <rdf:RDF>
      <cc:Work
         rdf:about="">
        <dc:format>image/svg+xml</dc:format>
        <dc:type
           rdf:resource="http://purl.org/dc/dcmitype/StillImage" />
        <dc:title></dc:title>
      </cc:Work>
    </rdf:RDF>
  </metadata>
  <g
     inkscape:label="Laag 1"
     inkscape:groupmode="layer"
     id="layer1"
     transform="translate(0,-270.54165)">
    <path
       style="font-style:normal;font-variant:normal;font-weight:normal;font-stretch:normal;font-size:37.33333206px;line-height:1.25;font-family:'Segoe MDL2 Assets';-inkscape-font-specification:'Segoe MDL2 Assets';letter-spacing:0px;word-spacing:0px;fill:#d81159;fill-opacity:1;stroke:none;stroke-width:0.99999994"
       d="M 200.10547 36.232422 L 200.10547 63.375 L 203.71484 63.375 L 203.71484 50.085938 L 217.25781 50.085938 L 217.25781 63.375 L 220.86719 63.375 L 220.86719 36.232422 L 217.25781 36.232422 L 217.25781 46.878906 L 203.71484 46.878906 L 203.71484 36.232422 L 200.10547 36.232422 z M 224.53125 36.232422 L 224.53125 39.441406 L 234.23047 39.441406 L 234.23047 63.375 L 237.83984 63.375 L 237.83984 39.441406 L 247.53711 39.441406 L 247.53711 36.232422 L 224.53125 36.232422 z M 251.21875 36.232422 L 251.21875 63.375 L 254.5918 63.375 L 254.5918 39.988281 L 262.08398 55.902344 L 264.23438 55.902344 L 271.78125 39.988281 L 271.78125 63.375 L 275.39062 63.375 L 275.39062 36.232422 L 270.37891 36.232422 L 263.37891 51.34375 L 256.14062 36.232422 L 251.21875 36.232422 z M 282.71875 36.232422 L 282.71875 63.375 L 299.89062 63.375 L 299.89062 60.167969 L 286.32812 60.167969 L 286.32812 36.232422 L 282.71875 36.232422 z "
       transform="matrix(0.26458333,0,0,0.26458333,0,270.54165)"
       id="path819" />
  </g>
</svg>
