<?xml version="1.0" encoding="UTF-8" standalone="no"?>
<!-- Created with Inkscape (http://www.inkscape.org/) -->

<svg
   xmlns:dc="http://purl.org/dc/elements/1.1/"
   xmlns:cc="http://creativecommons.org/ns#"
   xmlns:rdf="http://www.w3.org/1999/02/22-rdf-syntax-ns#"
   xmlns:svg="http://www.w3.org/2000/svg"
   xmlns="http://www.w3.org/2000/svg"
   xmlns:sodipodi="http://sodipodi.sourceforge.net/DTD/sodipodi-0.dtd"
   xmlns:inkscape="http://www.inkscape.org/namespaces/inkscape"
   width="500"
   height="100"
   viewBox="0 0 132.29166 26.458334"
   version="1.1"
   id="svg8"
   inkscape:version="0.92.4 (5da689c313, 2019-01-14)"
   sodipodi:docname="ss-7.svg">
  <defs
     id="defs2" />
  <sodipodi:namedview
     id="base"
     pagecolor="#ffffff"
     bordercolor="#666666"
     borderopacity="1.0"
     inkscape:pageopacity="0.0"
     inkscape:pageshadow="2"
     inkscape:zoom="1.3249068"
     inkscape:cx="-9.2937966"
     inkscape:cy="251.30524"
     inkscape:document-units="px"
     inkscape:current-layer="layer1"
     showgrid="false"
     units="px"
     inkscape:window-width="1920"
     inkscape:window-height="1017"
     inkscape:window-x="1358"
     inkscape:window-y="-8"
     inkscape:window-maximized="1" />
  <metadata
     id="metadata5">
    <rdf:RDF>
      <cc:Work
         rdf:about="">
        <dc:format>image/svg+xml</dc:format>
        <dc:type
           rdf:resource="http://purl.org/dc/dcmitype/StillImage" />
        <dc:title></dc:title>
      </cc:Work>
    </rdf:RDF>
  </metadata>
  <g
     inkscape:label="Laag 1"
     inkscape:groupmode="layer"
     id="layer1"
     transform="translate(0,-270.54165)">
    <path
       style="font-style:normal;font-variant:normal;font-weight:normal;font-stretch:normal;font-size:37.33333206px;line-height:1.25;font-family:'Segoe MDL2 Assets';-inkscape-font-specification:'Segoe MDL2 Assets';letter-spacing:0px;word-spacing:0px;fill:#8f2d56;fill-opacity:1;stroke:none;stroke-width:0.99999994"
       d="M 212.7832 35.478516 L 212.7832 38.357422 L 218.52539 38.357422 L 218.52539 54.199219 C 218.52539 55.122809 218.47612 55.937696 218.37891 56.642578 C 218.29384 57.347435 218.08789 57.941637 217.75977 58.427734 C 217.44379 58.901712 216.95161 59.266291 216.2832 59.521484 C 215.62695 59.776703 214.73915 59.904297 213.62109 59.904297 C 212.85547 59.904297 212.10807 59.813285 211.37891 59.630859 C 210.64974 59.44851 210.03537 59.271641 209.53711 59.101562 L 209.33789 59.101562 L 209.33789 62.474609 C 209.99414 62.620499 210.80707 62.742584 211.7793 62.839844 C 212.75152 62.949198 213.52995 63.003906 214.11328 63.003906 C 216.55599 63.003906 218.50108 62.358501 219.94727 61.070312 C 221.4056 59.782124 222.13477 57.948365 222.13477 55.566406 L 222.13477 35.478516 L 212.7832 35.478516 z M 256.33203 41.693359 C 253.45182 41.693359 251.16037 42.659526 249.45898 44.591797 C 247.76975 46.511948 246.92578 49.131499 246.92578 52.449219 C 246.92578 55.766913 247.76975 58.384536 249.45898 60.304688 C 251.16037 62.224814 253.45182 63.185547 256.33203 63.185547 C 259.18793 63.185547 261.46658 62.224814 263.16797 60.304688 C 264.86936 58.384536 265.7207 55.766913 265.7207 52.449219 C 265.7207 49.131499 264.86936 46.511948 263.16797 44.591797 C 261.46658 42.659526 259.18793 41.693359 256.33203 41.693359 z M 281.30664 41.693359 C 280.10352 41.693359 278.92947 41.943164 277.78711 42.441406 C 276.64475 42.939674 275.54015 43.632375 274.4707 44.519531 L 274.4707 42.257812 L 271.04297 42.257812 L 271.04297 62.621094 L 274.4707 62.621094 L 274.4707 47.417969 C 275.40647 46.700967 276.38346 46.110245 277.4043 45.648438 C 278.42513 45.18663 279.40408 44.957031 280.33984 44.957031 C 281.2513 44.957031 281.99327 45.08465 282.56445 45.339844 C 283.13563 45.582918 283.57313 45.958337 283.87695 46.46875 C 284.16861 46.930558 284.36914 47.575963 284.47852 48.402344 C 284.5879 49.21658 284.64258 50.091583 284.64258 51.027344 L 284.64258 62.621094 L 288.06836 62.621094 L 288.06836 49.404297 C 288.06836 46.912983 287.4924 45.004336 286.33789 43.679688 C 285.18338 42.355039 283.50629 41.693359 281.30664 41.693359 z M 235.8418 41.765625 C 234.54145 41.765625 233.36393 41.93706 232.30664 42.277344 C 231.2615 42.605457 230.39735 43.053813 229.7168 43.625 C 229.01194 44.208332 228.48329 44.871965 228.13086 45.613281 C 227.79058 46.354598 227.62109 47.143871 227.62109 47.982422 C 227.62109 49.319216 227.9911 50.449431 228.73242 51.373047 C 229.48589 52.284518 230.75651 52.977219 232.54297 53.451172 C 233.18707 53.621251 233.898 53.779891 234.67578 53.925781 C 235.46571 54.071621 236.10373 54.199239 236.58984 54.308594 C 237.90235 54.600272 238.79015 54.952031 239.25195 55.365234 C 239.71376 55.778412 239.94336 56.385409 239.94336 57.1875 C 239.94336 58.23264 239.51866 58.998277 238.66797 59.484375 C 237.81727 59.970498 236.6378 60.214844 235.13086 60.214844 C 233.91558 60.214844 232.64692 59.977859 231.32227 59.503906 C 229.99761 59.017783 228.79449 58.366971 227.71289 57.552734 L 227.5293 57.552734 L 227.5293 61.398438 C 228.37999 61.823786 229.43186 62.219386 230.68359 62.583984 C 231.94748 62.936413 233.3329 63.113281 234.83984 63.113281 C 237.5013 63.113281 239.59766 62.517151 241.12891 61.326172 C 242.67231 60.135192 243.44336 58.609376 243.44336 56.75 C 243.44336 55.267367 243.01324 54.077035 242.15039 53.177734 C 241.28754 52.290578 240.05881 51.665354 238.4668 51.300781 C 237.94423 51.179307 237.28798 51.044327 236.49805 50.898438 C 235.72027 50.752649 235.01671 50.606827 234.38477 50.460938 C 233.24241 50.193574 232.41471 49.847223 231.9043 49.421875 C 231.38173 48.996552 231.12109 48.365895 231.12109 47.527344 C 231.12109 46.579413 231.55317 45.868484 232.41602 45.394531 C 233.27886 44.908434 234.33615 44.664062 235.58789 44.664062 C 236.79102 44.664062 238.01779 44.890206 239.26953 45.339844 C 240.52127 45.777362 241.58399 46.316856 242.45898 46.960938 L 242.64258 46.960938 L 242.64258 43.296875 C 241.81619 42.871527 240.77713 42.51431 239.52539 42.222656 C 238.28581 41.918833 237.05707 41.765625 235.8418 41.765625 z M 256.33203 44.646484 C 258.1671 44.646484 259.60178 45.289911 260.63477 46.578125 C 261.66775 47.854169 262.18359 49.812066 262.18359 52.449219 C 262.18359 55.025597 261.66037 56.968746 260.61523 58.28125 C 259.58225 59.581584 258.15495 60.232422 256.33203 60.232422 C 254.48481 60.232422 253.04471 59.576176 252.01172 58.263672 C 250.97873 56.939023 250.46289 55.001282 250.46289 52.449219 C 250.46289 49.812066 250.97331 47.854169 251.99414 46.578125 C 253.02713 45.289911 254.47266 44.646484 256.33203 44.646484 z "
       transform="matrix(0.26458333,0,0,0.26458333,0,270.54165)"
       id="path819" />
  </g>
</svg>
