<?xml version="1.0" encoding="UTF-8" standalone="no"?>
<!-- Created with Inkscape (http://www.inkscape.org/) -->

<svg
   xmlns:osb="http://www.openswatchbook.org/uri/2009/osb"
   xmlns:dc="http://purl.org/dc/elements/1.1/"
   xmlns:cc="http://creativecommons.org/ns#"
   xmlns:rdf="http://www.w3.org/1999/02/22-rdf-syntax-ns#"
   xmlns:svg="http://www.w3.org/2000/svg"
   xmlns="http://www.w3.org/2000/svg"
   xmlns:sodipodi="http://sodipodi.sourceforge.net/DTD/sodipodi-0.dtd"
   xmlns:inkscape="http://www.inkscape.org/namespaces/inkscape"
   width="500"
   height="100"
   viewBox="0 0 132.29166 26.458334"
   version="1.1"
   id="svg8"
   inkscape:version="0.92.4 (5da689c313, 2019-01-14)"
   sodipodi:docname="t-1.svg">
  <defs
     id="defs2">
    <linearGradient
       id="linearGradient829"
       osb:paint="solid">
      <stop
         style="stop-color:#ffbc43;stop-opacity:1;"
         offset="0"
         id="stop827" />
    </linearGradient>
  </defs>
  <sodipodi:namedview
     id="base"
     pagecolor="#ffffff"
     bordercolor="#666666"
     borderopacity="1.0"
     inkscape:pageopacity="0.0"
     inkscape:pageshadow="2"
     inkscape:zoom="1.3249068"
     inkscape:cx="-9.2937966"
     inkscape:cy="251.30524"
     inkscape:document-units="px"
     inkscape:current-layer="layer1"
     showgrid="false"
     units="px"
     inkscape:window-width="1920"
     inkscape:window-height="1017"
     inkscape:window-x="1358"
     inkscape:window-y="-8"
     inkscape:window-maximized="1" />
  <metadata
     id="metadata5">
    <rdf:RDF>
      <cc:Work
         rdf:about="">
        <dc:format>image/svg+xml</dc:format>
        <dc:type
           rdf:resource="http://purl.org/dc/dcmitype/StillImage" />
        <dc:title></dc:title>
      </cc:Work>
    </rdf:RDF>
  </metadata>
  <g
     inkscape:label="Laag 1"
     inkscape:groupmode="layer"
     id="layer1"
     transform="translate(0,-270.54165)">
    <path
       style="font-style:normal;font-variant:normal;font-weight:normal;font-stretch:normal;font-size:37.33333206px;line-height:1.25;font-family:'Segoe MDL2 Assets';-inkscape-font-specification:'Segoe MDL2 Assets';letter-spacing:0px;word-spacing:0px;fill:#ffbc42;fill-opacity:1;stroke:none;stroke-width:0.99999994"
       d="M 83.451172 31.236328 L 83.451172 40.060547 C 82.539714 39.586569 81.670139 39.240193 80.84375 39.021484 C 80.017361 38.790681 79.069445 38.673828 78 38.673828 C 76.82118 38.673828 75.680121 38.918199 74.574219 39.404297 C 73.480469 39.89042 72.519748 40.593962 71.693359 41.517578 C 70.854816 42.465484 70.185763 43.613927 69.6875 44.962891 C 69.20139 46.311829 68.958984 47.850465 68.958984 49.576172 C 68.958984 52.893892 69.669923 55.487854 71.091797 57.359375 C 72.525825 59.230896 74.458116 60.166016 76.888672 60.166016 C 78.140406 60.166016 79.301649 59.929031 80.371094 59.455078 C 81.440539 58.981125 82.466796 58.319446 83.451172 57.46875 L 83.451172 59.601562 L 86.878906 59.601562 L 86.878906 31.236328 L 83.451172 31.236328 z M 131.86719 31.236328 L 131.86719 59.601562 L 135.29492 59.601562 L 135.29492 31.236328 L 131.86719 31.236328 z M 201.28516 31.236328 L 201.28516 40.060547 C 200.3737 39.586569 199.50412 39.240193 198.67773 39.021484 C 197.85134 38.790681 196.90342 38.673828 195.83398 38.673828 C 194.65516 38.673828 193.51215 38.918199 192.40625 39.404297 C 191.3125 39.89042 190.35373 40.593962 189.52734 41.517578 C 188.6888 42.465484 188.01974 43.613927 187.52148 44.962891 C 187.03537 46.311829 186.79297 47.850465 186.79297 49.576172 C 186.79297 52.893892 187.50391 55.487854 188.92578 57.359375 C 190.35981 59.230896 192.2921 60.166016 194.72266 60.166016 C 195.97439 60.166016 197.13368 59.929031 198.20312 59.455078 C 199.27257 58.981125 200.30078 58.319446 201.28516 57.46875 L 201.28516 59.601562 L 204.71094 59.601562 L 204.71094 31.236328 L 201.28516 31.236328 z M 20.46875 32.458984 L 20.46875 59.601562 L 23.841797 59.601562 L 23.841797 35.320312 L 36.710938 59.601562 L 41.177734 59.601562 L 41.177734 32.458984 L 37.804688 32.458984 L 37.804688 54.625 L 26.066406 32.458984 L 20.46875 32.458984 z M 310.32422 33.59375 C 308.36401 33.613483 306.39109 34.053385 304.47656 34.931641 C 296.48278 38.598614 292.31365 47.706075 295.32617 54.916016 C 296.74945 58.322428 300.95733 62.96313 303.70898 64.162109 C 307.45602 65.79479 313.94551 65.4706 317.75586 63.458984 C 326.52173 58.831142 328.8604 46.599292 322.35938 39.388672 C 318.89171 35.542509 314.63669 33.550338 310.32422 33.59375 z M 346.55273 33.59375 C 344.59252 33.613483 342.62156 34.053385 340.70703 34.931641 C 332.71325 38.598614 328.54217 47.706075 331.55469 54.916016 C 332.97797 58.322428 337.18585 62.96313 339.9375 64.162109 C 343.68454 65.79479 350.17403 65.4706 353.98438 63.458984 C 362.75024 58.831142 365.09087 46.599292 358.58984 39.388672 C 355.12218 35.542509 350.8652 33.550338 346.55273 33.59375 z M 382.02734 33.59375 C 380.06713 33.613483 378.09422 34.053385 376.17969 34.931641 C 368.18591 38.598614 364.01678 47.706075 367.0293 54.916016 C 368.45258 58.322428 372.66046 62.96313 375.41211 64.162109 C 379.15914 65.79479 385.64862 65.4706 389.45898 63.458984 C 398.22484 58.831142 400.56355 46.599292 394.0625 39.388672 C 390.59485 35.542509 386.33982 33.550338 382.02734 33.59375 z M 418.25586 33.59375 C 416.29564 33.613483 414.32469 34.053385 412.41016 34.931641 C 404.41638 38.598614 400.24526 47.706075 403.25781 54.916016 C 404.68107 58.322428 408.88898 62.96313 411.64062 64.162109 C 415.38765 65.79479 421.87713 65.4706 425.6875 63.458984 C 434.45336 58.831142 436.79402 46.599292 430.29297 39.388672 C 426.82532 35.542509 422.56833 33.550338 418.25586 33.59375 z M 453.73047 33.59375 C 451.77025 33.613483 449.79734 34.053385 447.88281 34.931641 C 439.88904 38.598614 435.71987 47.706075 438.73242 54.916016 C 440.15568 58.322428 444.36359 62.96313 447.11523 64.162109 C 450.86226 65.79479 457.35174 65.4706 461.16211 63.458984 C 469.92797 58.831142 472.26863 46.599292 465.76758 39.388672 C 462.29993 35.542509 458.04294 33.550338 453.73047 33.59375 z M 56.582031 38.673828 C 53.616752 38.673828 51.221354 39.652789 49.398438 41.609375 C 47.587676 43.565986 46.683594 46.209223 46.683594 49.539062 C 46.683594 52.905387 47.631513 55.506735 49.527344 57.341797 C 51.423177 59.164713 54.059028 60.076172 57.4375 60.076172 C 58.762154 60.076172 60.027344 59.912098 61.230469 59.583984 C 62.433593 59.255871 63.61111 58.847451 64.765625 58.361328 L 64.765625 54.625 L 64.583984 54.625 C 63.988497 55.159728 62.985893 55.706608 61.576172 56.265625 C 60.178601 56.812497 58.78776 57.085938 57.402344 57.085938 C 56.357206 57.085937 55.396485 56.940091 54.521484 56.648438 C 53.658636 56.356759 52.911239 55.91927 52.279297 55.335938 C 51.623045 54.74046 51.107205 53.980256 50.730469 53.056641 C 50.353733 52.12088 50.164063 51.027145 50.164062 49.775391 L 65.167969 49.775391 L 65.167969 47.916016 C 65.167969 44.962894 64.420574 42.684236 62.925781 41.080078 C 61.443143 39.475921 59.328559 38.673828 56.582031 38.673828 z M 102.08203 38.673828 C 99.116752 38.673828 96.721354 39.652789 94.898438 41.609375 C 93.087673 43.565986 92.183594 46.209223 92.183594 49.539062 C 92.183594 52.905387 93.13151 55.506735 95.027344 57.341797 C 96.923177 59.164713 99.559028 60.076172 102.9375 60.076172 C 104.26215 60.076172 105.52734 59.912098 106.73047 59.583984 C 107.93359 59.255871 109.11111 58.847451 110.26562 58.361328 L 110.26562 54.625 L 110.08398 54.625 C 109.4885 55.159728 108.4859 55.706608 107.07617 56.265625 C 105.6786 56.812497 104.28776 57.085938 102.90234 57.085938 C 101.85721 57.085937 100.89649 56.940091 100.02148 56.648438 C 99.158638 56.356759 98.411241 55.91927 97.779297 55.335938 C 97.123047 54.74046 96.607205 53.980256 96.230469 53.056641 C 95.85373 52.12088 95.664062 51.027145 95.664062 49.775391 L 110.66797 49.775391 L 110.66797 47.916016 C 110.66797 44.962894 109.92057 42.684236 108.42578 41.080078 C 106.94314 39.475921 104.82856 38.673828 102.08203 38.673828 z M 174.83398 38.673828 C 173.63086 38.673828 172.45877 38.923632 171.31641 39.421875 C 170.17405 39.920143 169.06749 40.612844 167.99805 41.5 L 167.99805 39.240234 L 164.57031 39.240234 L 164.57031 59.601562 L 167.99805 59.601562 L 167.99805 44.398438 C 168.93381 43.681436 169.91276 43.092667 170.93359 42.630859 C 171.95443 42.169051 172.93143 41.9375 173.86719 41.9375 C 174.77865 41.9375 175.52062 42.065119 176.0918 42.320312 C 176.66298 42.563387 177.10048 42.940759 177.4043 43.451172 C 177.69596 43.91298 177.89648 44.556431 178.00586 45.382812 C 178.11524 46.197049 178.16992 47.072052 178.16992 48.007812 L 178.16992 59.601562 L 181.59766 59.601562 L 181.59766 46.384766 C 181.59766 43.893452 181.01975 41.986758 179.86523 40.662109 C 178.71072 39.337461 177.03364 38.673828 174.83398 38.673828 z M 149.07617 38.748047 C 147.84875 38.748047 146.60374 38.857463 145.33984 39.076172 C 144.07596 39.29478 143.10981 39.495309 142.44141 39.677734 L 142.44141 43.158203 L 142.62305 43.158203 C 143.80187 42.708439 144.94488 42.369475 146.05078 42.138672 C 147.15669 41.895522 148.15929 41.773438 149.05859 41.773438 C 149.79991 41.773438 150.51085 41.822662 151.19141 41.919922 C 151.87196 42.017157 152.45529 42.204866 152.94141 42.484375 C 153.45182 42.776054 153.84006 43.177087 154.10742 43.6875 C 154.38694 44.197913 154.52734 44.841364 154.52734 45.619141 L 154.52734 46.148438 C 152.53429 46.245597 150.66753 46.391418 148.92969 46.585938 C 147.19184 46.780382 145.70443 47.150393 144.46484 47.697266 C 143.23742 48.244138 142.2895 48.998909 141.62109 49.958984 C 140.96485 50.90689 140.63672 52.151905 140.63672 53.695312 C 140.63672 55.578979 141.27474 57.128455 142.55078 58.34375 C 143.82682 59.559019 145.38172 60.166016 147.2168 60.166016 C 148.21332 60.166016 149.0829 60.06952 149.82422 59.875 C 150.56554 59.692701 151.22179 59.461149 151.79297 59.181641 C 152.27908 58.962907 152.7767 58.671239 153.28711 58.306641 C 153.80968 57.929923 154.22352 57.638255 154.52734 57.431641 L 154.52734 59.601562 L 157.93555 59.601562 L 157.93555 45.785156 C 157.93555 44.472652 157.73503 43.371531 157.33398 42.484375 C 156.93294 41.597219 156.3496 40.875424 155.58398 40.316406 C 154.8062 39.745118 153.88195 39.344084 152.8125 39.113281 C 151.7552 38.870132 150.5102 38.748047 149.07617 38.748047 z M 218.40234 38.748047 C 217.102 38.748047 215.92253 38.917529 214.86523 39.257812 C 213.8201 39.585926 212.9579 40.036234 212.27734 40.607422 C 211.57248 41.190754 211.04383 41.852433 210.69141 42.59375 C 210.35113 43.335067 210.17969 44.124339 210.17969 44.962891 C 210.17969 46.299684 210.55165 47.4299 211.29297 48.353516 C 212.04644 49.264987 213.3151 49.957688 215.10156 50.431641 C 215.74566 50.601719 216.4566 50.76036 217.23438 50.90625 C 218.02431 51.052089 218.66233 51.179708 219.14844 51.289062 C 220.46094 51.580741 221.34874 51.9325 221.81055 52.345703 C 222.27235 52.758881 222.50391 53.367831 222.50391 54.169922 C 222.50391 55.215062 222.07726 55.980699 221.22656 56.466797 C 220.37587 56.95292 219.19835 57.195312 217.69141 57.195312 C 216.47613 57.195312 215.20551 56.958328 213.88086 56.484375 C 212.55621 55.998252 211.35308 55.347439 210.27148 54.533203 L 210.08984 54.533203 L 210.08984 58.380859 C 210.94054 58.806207 211.99046 59.199855 213.24219 59.564453 C 214.50608 59.916881 215.8915 60.09375 217.39844 60.09375 C 220.0599 60.09375 222.15625 59.49762 223.6875 58.306641 C 225.23091 57.115661 226.00391 55.591798 226.00391 53.732422 C 226.00391 52.249789 225.57183 51.057504 224.70898 50.158203 C 223.84614 49.271047 222.61936 48.645823 221.02734 48.28125 C 220.50477 48.159776 219.84852 48.026749 219.05859 47.880859 C 218.28081 47.73507 217.57531 47.589249 216.94336 47.443359 C 215.801 47.175996 214.97526 46.829645 214.46484 46.404297 C 213.94227 45.978974 213.67969 45.346364 213.67969 44.507812 C 213.67969 43.559882 214.11176 42.848953 214.97461 42.375 C 215.83746 41.888902 216.89474 41.646484 218.14648 41.646484 C 219.34961 41.646484 220.57639 41.870675 221.82812 42.320312 C 223.07986 42.757831 224.14453 43.299277 225.01953 43.943359 L 225.20117 43.943359 L 225.20117 40.279297 C 224.37478 39.853949 223.33572 39.494779 222.08398 39.203125 C 220.8444 38.899301 219.61762 38.748047 218.40234 38.748047 z M 115.86328 39.240234 L 115.86328 59.601562 L 119.28906 59.601562 L 119.28906 45.146484 C 120.20052 44.405168 121.14844 43.803605 122.13281 43.341797 C 123.11719 42.867844 124.13803 42.630859 125.19531 42.630859 C 125.85157 42.630859 126.41666 42.659979 126.89062 42.720703 C 127.37673 42.769333 127.8763 42.855114 128.38672 42.976562 L 128.56836 42.976562 L 128.56836 39.458984 C 128.03364 39.374827 127.63259 39.320119 127.36523 39.294922 C 127.09787 39.258386 126.6658 39.240234 126.07031 39.240234 C 124.98872 39.240234 123.926 39.469833 122.88086 39.931641 C 121.84787 40.381304 120.65018 41.154302 119.28906 42.248047 L 119.28906 39.240234 L 115.86328 39.240234 z M 56.398438 41.5 C 58.221354 41.5 59.577693 41.992172 60.464844 42.976562 C 61.36421 43.960928 61.819937 45.351789 61.832031 47.150391 L 50.164062 47.150391 C 50.309897 45.546233 50.924262 44.204647 52.005859 43.123047 C 53.099609 42.041447 54.563369 41.5 56.398438 41.5 z M 101.89844 41.5 C 103.72135 41.5 105.07769 41.992172 105.96484 42.976562 C 106.86421 43.960928 107.31994 45.351789 107.33203 47.150391 L 95.664062 47.150391 C 95.809897 45.546233 96.424262 44.204647 97.505859 43.123047 C 98.599609 42.041447 100.06337 41.5 101.89844 41.5 z M 78.583984 41.810547 C 79.44683 41.810547 80.24349 41.888891 80.972656 42.046875 C 81.701823 42.204859 82.527559 42.491119 83.451172 42.904297 L 83.451172 54.587891 C 82.588323 55.268458 81.658637 55.828132 80.662109 56.265625 C 79.665581 56.690973 78.681205 56.904297 77.708984 56.904297 C 75.886068 56.904297 74.560766 56.27712 73.734375 55.025391 C 72.907986 53.761491 72.496094 51.920347 72.496094 49.501953 C 72.496094 47.047074 73.030164 45.151247 74.099609 43.814453 C 75.169054 42.477659 76.663846 41.810547 78.583984 41.810547 z M 196.41797 41.810547 C 197.28081 41.810547 198.07552 41.888891 198.80469 42.046875 C 199.53385 42.204859 200.36154 42.491119 201.28516 42.904297 L 201.28516 54.587891 C 200.42231 55.268458 199.49262 55.828132 198.49609 56.265625 C 197.49956 56.690973 196.51519 56.904297 195.54297 56.904297 C 193.72005 56.904297 192.39475 56.27712 191.56836 55.025391 C 190.74197 53.761491 190.32812 51.920347 190.32812 49.501953 C 190.32812 47.047074 190.86415 45.151247 191.93359 43.814453 C 193.00303 42.477659 194.49783 41.810547 196.41797 41.810547 z M 154.52734 48.919922 L 154.52734 54.587891 C 153.67665 55.244143 152.75239 55.80925 151.75586 56.283203 C 150.75933 56.745011 149.66016 56.976562 148.45703 56.976562 C 147.01085 56.976562 145.93533 56.684895 145.23047 56.101562 C 144.52561 55.506085 144.17188 54.625649 144.17188 53.458984 C 144.17188 52.425989 144.47634 51.616535 145.08398 51.033203 C 145.69162 50.437726 146.48828 50.000212 147.47266 49.720703 C 148.29904 49.489698 149.41645 49.314808 150.82617 49.193359 C 152.24805 49.071911 153.48221 48.980646 154.52734 48.919922 z "
       transform="matrix(0.26458333,0,0,0.26458333,0,270.54165)"
       id="path1038" />
  </g>
</svg>
