<?xml version="1.0" encoding="UTF-8" standalone="no"?>
<!-- Created with Inkscape (http://www.inkscape.org/) -->

<svg
   xmlns:osb="http://www.openswatchbook.org/uri/2009/osb"
   xmlns:dc="http://purl.org/dc/elements/1.1/"
   xmlns:cc="http://creativecommons.org/ns#"
   xmlns:rdf="http://www.w3.org/1999/02/22-rdf-syntax-ns#"
   xmlns:svg="http://www.w3.org/2000/svg"
   xmlns="http://www.w3.org/2000/svg"
   xmlns:sodipodi="http://sodipodi.sourceforge.net/DTD/sodipodi-0.dtd"
   xmlns:inkscape="http://www.inkscape.org/namespaces/inkscape"
   width="500"
   height="100"
   viewBox="0 0 132.29166 26.458334"
   version="1.1"
   id="svg8"
   inkscape:version="0.92.4 (5da689c313, 2019-01-14)"
   sodipodi:docname="t-1.svg">
  <defs
     id="defs2">
    <linearGradient
       id="linearGradient829"
       osb:paint="solid">
      <stop
         style="stop-color:#d81158;stop-opacity:1;"
         offset="0"
         id="stop827" />
    </linearGradient>
  </defs>
  <sodipodi:namedview
     id="base"
     pagecolor="#ffffff"
     bordercolor="#666666"
     borderopacity="1.0"
     inkscape:pageopacity="0.0"
     inkscape:pageshadow="2"
     inkscape:zoom="1.1575153"
     inkscape:cx="143.84363"
     inkscape:cy="168.78868"
     inkscape:document-units="px"
     inkscape:current-layer="layer1"
     showgrid="false"
     units="px"
     inkscape:window-width="1920"
     inkscape:window-height="1017"
     inkscape:window-x="1358"
     inkscape:window-y="-8"
     inkscape:window-maximized="1" />
  <metadata
     id="metadata5">
    <rdf:RDF>
      <cc:Work
         rdf:about="">
        <dc:format>image/svg+xml</dc:format>
        <dc:type
           rdf:resource="http://purl.org/dc/dcmitype/StillImage" />
        <dc:title></dc:title>
      </cc:Work>
    </rdf:RDF>
  </metadata>
  <g
     inkscape:label="Laag 1"
     inkscape:groupmode="layer"
     id="layer1"
     transform="translate(0,-270.54165)">
    <path
       style="font-style:normal;font-variant:normal;font-weight:normal;font-stretch:normal;font-size:37.33333206px;line-height:1.25;font-family:'Segoe MDL2 Assets';-inkscape-font-specification:'Segoe MDL2 Assets';letter-spacing:0px;word-spacing:0px;fill:#d81159;fill-opacity:1;stroke:none;stroke-width:0.99999994"
       d="M 444.33398 35.478516 A 15.876147 15.738631 0 0 0 429.16406 51.664062 A 15.876147 15.738631 0 0 0 445.26758 66.939453 A 15.876147 15.738631 0 0 0 460.91016 51.203125 L 460.88281 50.277344 A 15.876147 15.738631 0 0 0 444.33398 35.478516 z M 299.75781 35.857422 C 297.7976 35.877155 295.82468 36.31901 293.91016 37.197266 C 285.91638 40.864239 281.74529 49.969747 284.75781 57.179688 C 286.18109 60.5861 290.38897 65.228755 293.14062 66.427734 C 296.88766 68.060415 303.3791 67.734272 307.18945 65.722656 C 315.95532 61.094814 318.294 48.864917 311.79297 41.654297 C 308.3253 37.808134 304.07028 35.814009 299.75781 35.857422 z M 336.74023 35.857422 C 334.78002 35.877155 332.80906 36.31901 330.89453 37.197266 C 322.90075 40.864239 318.72967 49.969747 321.74219 57.179688 C 323.16547 60.5861 327.37335 65.228755 330.125 66.427734 C 333.87204 68.060415 340.36153 67.734272 344.17188 65.722656 C 352.93774 61.094814 355.27837 48.864917 348.77734 41.654297 C 345.30968 37.808134 341.0527 35.814009 336.74023 35.857422 z M 372.96875 35.857422 C 371.00854 35.877155 369.03758 36.31901 367.12305 37.197266 C 359.12927 40.864239 354.95818 49.969747 357.9707 57.179688 C 359.39398 60.5861 363.60186 65.228755 366.35352 66.427734 C 370.10055 68.060415 376.59196 67.734272 380.40234 65.722656 C 389.1682 61.094814 391.50691 48.864917 385.00586 41.654297 C 381.53818 37.808134 377.28122 35.814009 372.96875 35.857422 z M 407.93555 35.896484 A 15.876147 15.738631 0 0 0 392.76562 52.082031 A 15.876147 15.738631 0 0 0 408.86719 67.357422 A 15.876147 15.738631 0 0 0 424.50977 51.621094 L 424.48242 50.697266 A 15.876147 15.738631 0 0 0 407.93555 35.896484 z M 44.621094 40.761719 L 44.621094 67.904297 L 48.230469 67.904297 L 48.230469 54.833984 L 60.025391 54.833984 L 60.025391 51.625 L 48.230469 51.625 L 48.230469 43.96875 L 61.957031 43.96875 L 61.957031 40.761719 L 44.621094 40.761719 z M 113.82031 46.976562 C 112.61719 46.976563 111.44314 47.226367 110.30078 47.724609 C 109.15842 48.222877 108.05382 48.915578 106.98438 49.802734 L 106.98438 47.542969 L 103.55664 47.542969 L 103.55664 67.904297 L 106.98438 67.904297 L 106.98438 52.701172 C 107.92014 51.98417 108.89714 51.395402 109.91797 50.933594 C 110.9388 50.471786 111.91775 50.240234 112.85352 50.240234 C 113.76498 50.240234 114.50695 50.367853 115.07812 50.623047 C 115.6493 50.866121 116.0868 51.243494 116.39062 51.753906 C 116.68229 52.215714 116.88281 52.859166 116.99219 53.685547 C 117.10157 54.499783 117.15625 55.374786 117.15625 56.310547 L 117.15625 67.904297 L 120.58203 67.904297 L 120.58203 54.6875 C 120.58203 52.196187 120.00608 50.289493 118.85156 48.964844 C 117.69705 47.640195 116.01996 46.976562 113.82031 46.976562 z M 88.0625 47.050781 C 86.835071 47.050781 85.588108 47.160198 84.324219 47.378906 C 83.06033 47.597766 82.094183 47.798296 81.425781 47.980469 L 81.425781 51.460938 L 81.609375 51.460938 C 82.788195 51.011174 83.929254 50.672209 85.035156 50.441406 C 86.141059 50.198257 87.143663 50.076172 88.042969 50.076172 C 88.784288 50.076172 89.495224 50.125396 90.175781 50.222656 C 90.856336 50.319891 91.439671 50.507601 91.925781 50.787109 C 92.436199 51.078788 92.826389 51.479822 93.09375 51.990234 C 93.373264 52.500647 93.511719 53.144099 93.511719 53.921875 L 93.511719 54.451172 C 91.518663 54.548331 89.653863 54.694152 87.916016 54.888672 C 86.178169 55.083116 84.688803 55.453128 83.449219 56 C 82.221789 56.546872 81.273871 57.301643 80.605469 58.261719 C 79.949217 59.209624 79.621094 60.454639 79.621094 61.998047 C 79.621094 63.881713 80.259115 65.43119 81.535156 66.646484 C 82.811198 67.861754 84.368056 68.46875 86.203125 68.46875 C 87.199655 68.46875 88.067275 68.372254 88.808594 68.177734 C 89.549913 67.995435 90.206164 67.763884 90.777344 67.484375 C 91.263454 67.265641 91.76302 66.973973 92.273438 66.609375 C 92.796008 66.232657 93.2079 65.940989 93.511719 65.734375 L 93.511719 67.904297 L 96.921875 67.904297 L 96.921875 54.085938 C 96.921875 52.773434 96.721353 51.674265 96.320312 50.787109 C 95.919269 49.899953 95.335936 49.176205 94.570312 48.617188 C 93.792534 48.045899 92.868273 47.644866 91.798828 47.414062 C 90.741538 47.170913 89.496528 47.050781 88.0625 47.050781 z M 134.12695 47.050781 C 132.82661 47.050781 131.64713 47.220263 130.58984 47.560547 C 129.5447 47.88866 128.68251 48.338969 128.00195 48.910156 C 127.29709 49.493489 126.76845 50.155168 126.41602 50.896484 C 126.07574 51.637801 125.90625 52.427074 125.90625 53.265625 C 125.90625 54.602419 126.27626 55.732634 127.01758 56.65625 C 127.77105 57.567721 129.04167 58.260422 130.82812 58.734375 C 131.47222 58.904454 132.18316 59.063095 132.96094 59.208984 C 133.75087 59.354824 134.38889 59.482443 134.875 59.591797 C 136.1875 59.883476 137.07335 60.235234 137.53516 60.648438 C 137.99696 61.061615 138.22852 61.670565 138.22852 62.472656 C 138.22852 63.517796 137.80382 64.283434 136.95312 64.769531 C 136.10243 65.255654 134.92296 65.498047 133.41602 65.498047 C 132.20074 65.498047 130.93012 65.261062 129.60547 64.787109 C 128.28082 64.300987 127.07769 63.650174 125.99609 62.835938 L 125.81445 62.835938 L 125.81445 66.683594 C 126.66515 67.108942 127.71701 67.502589 128.96875 67.867188 C 130.23264 68.219616 131.61805 68.396484 133.125 68.396484 C 135.78646 68.396484 137.88281 67.800355 139.41406 66.609375 C 140.95747 65.418395 141.72852 63.894533 141.72852 62.035156 C 141.72852 60.552523 141.29644 59.360238 140.43359 58.460938 C 139.57075 57.573782 138.34397 56.948558 136.75195 56.583984 C 136.22938 56.46251 135.57313 56.329484 134.7832 56.183594 C 134.00543 56.037805 133.29991 55.891984 132.66797 55.746094 C 131.52561 55.47873 130.69987 55.132379 130.18945 54.707031 C 129.66688 54.281708 129.40625 53.649098 129.40625 52.810547 C 129.40625 51.862616 129.83637 51.151687 130.69922 50.677734 C 131.56207 50.191637 132.61936 49.949219 133.87109 49.949219 C 135.07422 49.949219 136.30295 50.173409 137.55469 50.623047 C 138.80642 51.060565 139.86914 51.602012 140.74414 52.246094 L 140.92578 52.246094 L 140.92578 48.582031 C 140.09939 48.156683 139.06033 47.797513 137.80859 47.505859 C 136.56901 47.202036 135.34223 47.050781 134.12695 47.050781 z M 65.785156 47.542969 L 65.785156 67.904297 L 69.212891 67.904297 L 69.212891 53.449219 C 70.124349 52.707902 71.072265 52.106339 72.056641 51.644531 C 73.041016 51.170578 74.061851 50.933594 75.119141 50.933594 C 75.775393 50.933594 76.340495 50.962713 76.814453 51.023438 C 77.300563 51.072067 77.798176 51.157848 78.308594 51.279297 L 78.492188 51.279297 L 78.492188 47.761719 C 77.957465 47.677561 77.556424 47.622853 77.289062 47.597656 C 77.021701 47.561121 76.589625 47.542969 75.994141 47.542969 C 74.912543 47.542969 73.849828 47.772567 72.804688 48.234375 C 71.771702 48.684038 70.574002 49.457036 69.212891 50.550781 L 69.212891 47.542969 L 65.785156 47.542969 z M 93.511719 57.222656 L 93.511719 62.890625 C 92.661025 63.546877 91.738715 64.111985 90.742188 64.585938 C 89.74566 65.047745 88.644533 65.279297 87.441406 65.279297 C 85.995228 65.279297 84.919705 64.987629 84.214844 64.404297 C 83.509982 63.80882 83.158203 62.928383 83.158203 61.761719 C 83.158203 60.728723 83.462673 59.91927 84.070312 59.335938 C 84.677952 58.74046 85.472658 58.302946 86.457031 58.023438 C 87.283422 57.792433 88.402779 57.617543 89.8125 57.496094 C 91.234373 57.374645 92.466579 57.283381 93.511719 57.222656 z "
       transform="matrix(0.26458333,0,0,0.26458333,0,270.54165)"
       id="path844" />
  </g>
</svg>
