<?xml version="1.0" encoding="UTF-8" standalone="no"?>
<!-- Created with Inkscape (http://www.inkscape.org/) -->

<svg
   xmlns:osb="http://www.openswatchbook.org/uri/2009/osb"
   xmlns:dc="http://purl.org/dc/elements/1.1/"
   xmlns:cc="http://creativecommons.org/ns#"
   xmlns:rdf="http://www.w3.org/1999/02/22-rdf-syntax-ns#"
   xmlns:svg="http://www.w3.org/2000/svg"
   xmlns="http://www.w3.org/2000/svg"
   xmlns:xlink="http://www.w3.org/1999/xlink"
   xmlns:sodipodi="http://sodipodi.sourceforge.net/DTD/sodipodi-0.dtd"
   xmlns:inkscape="http://www.inkscape.org/namespaces/inkscape"
   width="500"
   height="100"
   viewBox="0 0 132.29166 26.458334"
   version="1.1"
   id="svg8"
   inkscape:version="0.92.4 (5da689c313, 2019-01-14)"
   sodipodi:docname="t-2.svg">
  <defs
     id="defs2">
    <linearGradient
       id="linearGradient829"
       osb:paint="solid">
      <stop
         style="stop-color:#0496ff;stop-opacity:1;"
         offset="0"
         id="stop827" />
    </linearGradient>
    <linearGradient
       inkscape:collect="always"
       xlink:href="#linearGradient829"
       id="linearGradient831-5"
       x1="63.584675"
       y1="283.36063"
       x2="72.124092"
       y2="283.36063"
       gradientUnits="userSpaceOnUse"
       gradientTransform="translate(14.22206,0.25330433)" />
    <linearGradient
       inkscape:collect="always"
       xlink:href="#linearGradient829"
       id="linearGradient831-8"
       x1="63.584675"
       y1="283.36063"
       x2="72.124092"
       y2="283.36063"
       gradientUnits="userSpaceOnUse"
       gradientTransform="translate(23.807639,0.25330473)" />
    <linearGradient
       inkscape:collect="always"
       xlink:href="#linearGradient829"
       id="linearGradient831-8-6"
       x1="63.584675"
       y1="283.36063"
       x2="72.124092"
       y2="283.36063"
       gradientUnits="userSpaceOnUse"
       gradientTransform="translate(42.7791,0.25330433)" />
    <linearGradient
       inkscape:collect="always"
       xlink:href="#linearGradient829"
       id="linearGradient831-5-1"
       x1="63.584675"
       y1="283.36063"
       x2="72.124092"
       y2="283.36063"
       gradientUnits="userSpaceOnUse"
       gradientTransform="translate(33.193521,0.25330433)" />
  </defs>
  <sodipodi:namedview
     id="base"
     pagecolor="#ffffff"
     bordercolor="#666666"
     borderopacity="1.0"
     inkscape:pageopacity="0.0"
     inkscape:pageshadow="2"
     inkscape:zoom="1.3249068"
     inkscape:cx="157.54523"
     inkscape:cy="251.30524"
     inkscape:document-units="px"
     inkscape:current-layer="layer1"
     showgrid="false"
     units="px"
     inkscape:window-width="1920"
     inkscape:window-height="1017"
     inkscape:window-x="1358"
     inkscape:window-y="-8"
     inkscape:window-maximized="1" />
  <metadata
     id="metadata5">
    <rdf:RDF>
      <cc:Work
         rdf:about="">
        <dc:format>image/svg+xml</dc:format>
        <dc:type
           rdf:resource="http://purl.org/dc/dcmitype/StillImage" />
        <dc:title></dc:title>
      </cc:Work>
    </rdf:RDF>
  </metadata>
  <g
     inkscape:label="Laag 1"
     inkscape:groupmode="layer"
     id="layer1"
     transform="translate(0,-270.54165)">
    <g
       id="g881">
      <g
         id="flowRoot827"
         style="font-style:normal;font-variant:normal;font-weight:normal;font-stretch:normal;font-size:37.33333206px;line-height:1.25;font-family:'Segoe MDL2 Assets';-inkscape-font-specification:'Segoe MDL2 Assets';letter-spacing:0px;word-spacing:0px;fill:#0496ff;fill-opacity:1;stroke:none"
         transform="matrix(0.26458333,0,0,0.26458333,4.63776,272.6201)"
         aria-label="  Engels">
        <path
           id="path857"
           style=""
           d="M 47.073567,51.746092 H 29.190755 V 24.602864 h 17.882812 v 3.208333 H 32.80013 v 7.4375 H 47.073567 V 38.45703 H 32.80013 v 10.080729 h 14.273437 z" />
        <path
           id="path859"
           style=""
           d="M 69.568359,51.746092 H 66.141275 V 40.152343 q 0,-1.403646 -0.164062,-2.625 Q 65.81315,36.28776 65.37565,35.595051 64.919921,34.829426 64.063151,34.464843 63.20638,34.08203 61.839192,34.08203 q -1.403646,0 -2.934895,0.692709 -1.53125,0.692708 -2.934896,1.768229 V 51.746092 H 52.542318 V 31.384114 h 3.427083 v 2.260416 q 1.604166,-1.330729 3.317708,-2.078124 1.713542,-0.747396 3.518229,-0.747396 3.299479,0 5.03125,1.986979 1.731771,1.986979 1.731771,5.723958 z" />
        <path
           id="path861"
           style=""
           d="m 92.682942,49.430988 q 0,5.177083 -2.351562,7.601562 -2.351563,2.42448 -7.236979,2.42448 -1.622396,0 -3.171875,-0.23698 -1.53125,-0.21875 -3.026042,-0.63802 v -3.5 h 0.182292 q 0.838542,0.328125 2.661458,0.802083 1.822917,0.492187 3.645833,0.492187 1.75,0 2.898438,-0.41927 1.148437,-0.419271 1.786458,-1.166667 0.638021,-0.710937 0.911458,-1.713542 0.273438,-1.002604 0.273438,-2.242187 v -1.859375 q -1.549479,1.239583 -2.971354,1.859375 -1.403646,0.601562 -3.591146,0.601562 -3.645833,0 -5.796875,-2.624999 -2.132812,-2.643229 -2.132812,-7.4375 0,-2.625 0.729166,-4.520833 0.747396,-1.914063 2.023438,-3.299479 1.184896,-1.294271 2.880208,-2.005209 1.695313,-0.729166 3.372396,-0.729166 1.768229,0 2.953125,0.364583 1.203125,0.346354 2.533854,1.075521 l 0.21875,-0.875 h 3.208333 z m -3.427083,-3.28125 V 35.048176 q -1.367188,-0.619791 -2.552083,-0.875 -1.166667,-0.273437 -2.333334,-0.273437 -2.82552,0 -4.447916,1.895833 -1.622396,1.895833 -1.622396,5.505208 0,3.427083 1.203125,5.195312 1.203125,1.76823 3.992187,1.76823 1.494792,0 2.989584,-0.565105 1.51302,-0.583333 2.770833,-1.549479 z" />
        <path
           id="path863"
           style=""
           d="m 116.472,41.920572 h -15.0026 q 0,1.877604 0.5651,3.28125 0.56511,1.385416 1.54948,2.278645 0.94792,0.875 2.24219,1.3125 1.3125,0.4375 2.88021,0.4375 2.07812,0 4.17448,-0.820312 2.11458,-0.838542 3.00781,-1.640625 h 0.18229 v 3.736979 q -1.73177,0.729167 -3.53646,1.221354 -1.80469,0.492188 -3.79166,0.492188 -5.06771,0 -7.91146,-2.734375 -2.843752,-2.752604 -2.843752,-7.802083 0,-4.994792 2.716142,-7.929688 2.73438,-2.934895 7.18229,-2.934895 4.1198,0 6.34375,2.40625 2.24219,2.40625 2.24219,6.835937 z m -3.33594,-2.625 q -0.0182,-2.697917 -1.36718,-4.174479 -1.33073,-1.476563 -4.06511,-1.476563 -2.7526,0 -4.39323,1.622396 -1.62239,1.622396 -1.84114,4.028646 z" />
        <path
           id="path865"
           style=""
           d="m 125.13086,51.746092 h -3.42708 V 23.38151 h 3.42708 z" />
        <path
           id="path867"
           style=""
           d="m 146.49544,45.876301 q 0,2.789062 -2.3151,4.575521 -2.29688,1.786458 -6.28906,1.786458 -2.26042,0 -4.15625,-0.528646 -1.87761,-0.546875 -3.15365,-1.184896 v -3.846354 h 0.18229 q 1.6224,1.221354 3.60938,1.950521 1.98698,0.710937 3.80989,0.710937 2.26042,0 3.53646,-0.729166 1.27604,-0.729167 1.27604,-2.296875 0,-1.203125 -0.69271,-1.822917 -0.6927,-0.619791 -2.66145,-1.057291 -0.72917,-0.164063 -1.91407,-0.382813 -1.16666,-0.21875 -2.13281,-0.473958 -2.67969,-0.710938 -3.80989,-2.078125 -1.11198,-1.385417 -1.11198,-3.390625 0,-1.257812 0.51041,-2.369792 0.52865,-1.111979 1.58594,-1.986979 1.02083,-0.856771 2.58854,-1.348958 1.58594,-0.510417 3.53646,-0.510417 1.82292,0 3.68229,0.45573 1.87761,0.437499 3.11719,1.07552 v 3.664063 h -0.18229 q -1.3125,-0.966146 -3.19011,-1.622396 -1.8776,-0.674479 -3.68229,-0.674479 -1.8776,0 -3.17187,0.729166 -1.29427,0.710938 -1.29427,2.132813 0,1.257812 0.78385,1.895833 0.76562,0.638021 2.47917,1.039063 0.94791,0.21875 2.11458,0.4375 1.1849,0.21875 1.96875,0.401041 2.38802,0.546875 3.68229,1.877604 1.29427,1.348959 1.29427,3.572917 z" />
      </g>
      <path
         inkscape:connector-curvature="0"
         id="path823-7"
         d="m 80.356167,287.51801 c -0.728041,-0.31723 -1.841386,-1.54536 -2.217962,-2.44664 -0.797063,-1.90763 0.306355,-4.31702 2.421376,-5.28724 1.620965,-0.74359 3.397054,-0.30093 4.731581,1.17926 1.720064,1.90781 1.100979,5.14381 -1.218324,6.36826 -1.008155,0.53224 -2.725267,0.61834 -3.716671,0.18636 z"
         style="fill:url(#linearGradient831-5);fill-opacity:1;stroke:#000000;stroke-width:0.53948539;stroke-miterlimit:4;stroke-dasharray:none;stroke-opacity:0.98994978" />
      <path
         inkscape:connector-curvature="0"
         id="path823-5"
         d="m 89.941747,287.51801 c -0.728041,-0.31723 -1.841386,-1.54536 -2.217962,-2.44664 -0.797063,-1.90763 0.306355,-4.31702 2.421376,-5.28724 1.620965,-0.74359 3.397054,-0.30093 4.731581,1.17926 1.720064,1.90781 1.100979,5.14381 -1.218324,6.36826 -1.008155,0.53224 -2.725267,0.61834 -3.716671,0.18636 z"
         style="fill:url(#linearGradient831-8);fill-opacity:1;stroke:#000000;stroke-width:0.53948539;stroke-miterlimit:4;stroke-dasharray:none;stroke-opacity:0.98994978" />
      <path
         inkscape:connector-curvature="0"
         id="path823-7-5"
         d="m 99.327627,287.51801 c -0.728041,-0.31723 -1.841386,-1.54536 -2.217962,-2.44664 -0.797063,-1.90763 0.306355,-4.31702 2.421376,-5.28724 1.620969,-0.74359 3.397059,-0.30093 4.731579,1.17926 1.72007,1.90781 1.10098,5.14381 -1.21832,6.36826 -1.00816,0.53224 -2.72527,0.61834 -3.716673,0.18636 z"
         style="fill:url(#linearGradient831-5-1);fill-opacity:1;stroke:#000000;stroke-width:0.53948539;stroke-miterlimit:4;stroke-dasharray:none;stroke-opacity:0.98994978" />
      <path
         inkscape:connector-curvature="0"
         id="path823-5-3"
         d="m 108.91321,287.51801 c -0.72804,-0.31723 -1.84139,-1.54536 -2.21796,-2.44664 -0.79707,-1.90763 0.30635,-4.31702 2.42137,-5.28724 1.62097,-0.74359 3.39706,-0.30093 4.73158,1.17926 1.72007,1.90781 1.10098,5.14381 -1.21832,6.36826 -1.00816,0.53224 -2.72527,0.61834 -3.71667,0.18636 z"
         style="fill:url(#linearGradient831-8-6);fill-opacity:1;stroke:#000000;stroke-width:0.53948539;stroke-miterlimit:4;stroke-dasharray:none;stroke-opacity:0.98994978" />
    </g>
  </g>
</svg>
