<?xml version="1.0" encoding="UTF-8" standalone="no"?>
<!-- Created with Inkscape (http://www.inkscape.org/) -->

<svg
   xmlns:osb="http://www.openswatchbook.org/uri/2009/osb"
   xmlns:dc="http://purl.org/dc/elements/1.1/"
   xmlns:cc="http://creativecommons.org/ns#"
   xmlns:rdf="http://www.w3.org/1999/02/22-rdf-syntax-ns#"
   xmlns:svg="http://www.w3.org/2000/svg"
   xmlns="http://www.w3.org/2000/svg"
   xmlns:xlink="http://www.w3.org/1999/xlink"
   xmlns:sodipodi="http://sodipodi.sourceforge.net/DTD/sodipodi-0.dtd"
   xmlns:inkscape="http://www.inkscape.org/namespaces/inkscape"
   width="500"
   height="100"
   viewBox="0 0 132.29166 26.458334"
   version="1.1"
   id="svg8"
   inkscape:version="0.92.4 (5da689c313, 2019-01-14)"
   sodipodi:docname="t-3.svg">
  <defs
     id="defs2">
    <linearGradient
       id="linearGradient829"
       osb:paint="solid">
      <stop
         style="stop-color:#ffbc43;stop-opacity:1;"
         offset="0"
         id="stop827" />
    </linearGradient>
    <linearGradient
       inkscape:collect="always"
       xlink:href="#linearGradient829"
       id="linearGradient831-5-8"
       x1="63.584675"
       y1="283.36063"
       x2="72.124092"
       y2="283.36063"
       gradientUnits="userSpaceOnUse"
       gradientTransform="translate(49.968286,0.85240288)" />
  </defs>
  <sodipodi:namedview
     id="base"
     pagecolor="#ffffff"
     bordercolor="#666666"
     borderopacity="1.0"
     inkscape:pageopacity="0.0"
     inkscape:pageshadow="2"
     inkscape:zoom="1.3249068"
     inkscape:cx="98.193892"
     inkscape:cy="251.30524"
     inkscape:document-units="px"
     inkscape:current-layer="layer1"
     showgrid="false"
     units="px"
     inkscape:window-width="1920"
     inkscape:window-height="1017"
     inkscape:window-x="1358"
     inkscape:window-y="-8"
     inkscape:window-maximized="1" />
  <metadata
     id="metadata5">
    <rdf:RDF>
      <cc:Work
         rdf:about="">
        <dc:format>image/svg+xml</dc:format>
        <dc:type
           rdf:resource="http://purl.org/dc/dcmitype/StillImage" />
        <dc:title></dc:title>
      </cc:Work>
    </rdf:RDF>
  </metadata>
  <g
     inkscape:label="Laag 1"
     inkscape:groupmode="layer"
     id="layer1"
     transform="translate(0,-270.54165)">
    <path
       style="font-style:normal;font-variant:normal;font-weight:normal;font-stretch:normal;font-size:37.33333206px;line-height:1.25;font-family:'Segoe MDL2 Assets';-inkscape-font-specification:'Segoe MDL2 Assets';letter-spacing:0px;word-spacing:0px;fill:#ffbc42;fill-opacity:1;stroke:none;stroke-width:0.99999994"
       d="M 299.75781 35.857422 C 297.7976 35.877155 295.82468 36.31901 293.91016 37.197266 C 285.91638 40.864239 281.74529 49.969747 284.75781 57.179688 C 286.18109 60.5861 290.38897 65.228755 293.14062 66.427734 C 296.88766 68.060415 303.3791 67.734272 307.18945 65.722656 C 315.95532 61.094814 318.294 48.864917 311.79297 41.654297 C 308.3253 37.808134 304.07028 35.814009 299.75781 35.857422 z M 336.74023 35.857422 C 334.78002 35.877155 332.80906 36.31901 330.89453 37.197266 C 322.90075 40.864239 318.72967 49.969747 321.74219 57.179688 C 323.16547 60.5861 327.37335 65.228755 330.125 66.427734 C 333.87204 68.060415 340.36153 67.734272 344.17188 65.722656 C 352.93774 61.094814 355.27837 48.864917 348.77734 41.654297 C 345.30968 37.808134 341.0527 35.814009 336.74023 35.857422 z M 372.96875 35.857422 C 371.00854 35.877155 369.03758 36.31901 367.12305 37.197266 C 359.12927 40.864239 354.95818 49.969747 357.9707 57.179688 C 359.39398 60.5861 363.60186 65.228755 366.35352 66.427734 C 370.10055 68.060415 376.59196 67.734272 380.40234 65.722656 C 389.1682 61.094814 391.50691 48.864917 385.00586 41.654297 C 381.53818 37.808134 377.28122 35.814009 372.96875 35.857422 z M 409.19922 35.857422 C 407.23901 35.877155 405.26608 36.31901 403.35156 37.197266 C 395.35775 40.864239 391.18866 49.969747 394.20117 57.179688 C 395.6245 60.5861 399.83234 65.228755 402.58398 66.427734 C 406.33105 68.060415 412.82053 67.734272 416.63086 65.722656 C 425.39676 61.094814 427.73539 48.864917 421.23438 41.654297 C 417.7667 37.808134 413.51168 35.814009 409.19922 35.857422 z M 445.42773 35.857422 C 443.46752 35.877155 441.49461 36.31901 439.58008 37.197266 C 431.5863 40.864239 427.41718 49.969747 430.42969 57.179688 C 431.85298 60.5861 436.06085 65.228755 438.8125 66.427734 C 442.55952 68.060415 449.04901 67.734272 452.85938 65.722656 C 461.62523 61.094814 463.9659 48.864917 457.46484 41.654297 C 453.99717 37.808134 449.7402 35.814009 445.42773 35.857422 z M 107.60352 39.539062 L 107.60352 48.363281 C 106.69206 47.889303 105.82248 47.542927 104.99609 47.324219 C 104.16971 47.093416 103.22179 46.976562 102.15234 46.976562 C 100.97352 46.976563 99.832465 47.220934 98.726562 47.707031 C 97.632813 48.193154 96.672092 48.896697 95.845703 49.820312 C 95.007159 50.768218 94.338106 51.916661 93.839844 53.265625 C 93.353734 54.614564 93.111328 56.153199 93.111328 57.878906 C 93.111328 61.196626 93.822267 63.790588 95.244141 65.662109 C 96.678169 67.533631 98.610459 68.46875 101.04102 68.46875 C 102.29275 68.46875 103.45399 68.231765 104.52344 67.757812 C 105.59288 67.28386 106.61914 66.62218 107.60352 65.771484 L 107.60352 67.904297 L 111.03125 67.904297 L 111.03125 39.539062 L 107.60352 39.539062 z M 156.01953 39.539062 L 156.01953 67.904297 L 159.44727 67.904297 L 159.44727 39.539062 L 156.01953 39.539062 z M 225.4375 39.539062 L 225.4375 48.363281 C 224.52604 47.889303 223.65647 47.542927 222.83008 47.324219 C 222.00369 47.093416 221.05577 46.976562 219.98633 46.976562 C 218.80751 46.976563 217.6645 47.220934 216.55859 47.707031 C 215.46485 48.193154 214.50607 48.896697 213.67969 49.820312 C 212.84114 50.768218 212.17209 51.916661 211.67383 53.265625 C 211.18771 54.614564 210.94531 56.153199 210.94531 57.878906 C 210.94531 61.196626 211.65625 63.790588 213.07812 65.662109 C 214.51216 67.533631 216.44445 68.46875 218.875 68.46875 C 220.12673 68.46875 221.28602 68.231765 222.35547 67.757812 C 223.42491 67.28386 224.45313 66.62218 225.4375 65.771484 L 225.4375 67.904297 L 228.86328 67.904297 L 228.86328 39.539062 L 225.4375 39.539062 z M 44.621094 40.761719 L 44.621094 67.904297 L 47.994141 67.904297 L 47.994141 43.623047 L 60.863281 67.904297 L 65.330078 67.904297 L 65.330078 40.761719 L 61.957031 40.761719 L 61.957031 62.927734 L 50.21875 40.761719 L 44.621094 40.761719 z M 80.734375 46.976562 C 77.769096 46.976562 75.373698 47.955524 73.550781 49.912109 C 71.74002 51.86872 70.835938 54.511957 70.835938 57.841797 C 70.835938 61.208121 71.783856 63.80947 73.679688 65.644531 C 75.575521 67.467448 78.211372 68.378906 81.589844 68.378906 C 82.914498 68.378906 84.179688 68.214832 85.382812 67.886719 C 86.585937 67.558605 87.763454 67.150185 88.917969 66.664062 L 88.917969 62.927734 L 88.736328 62.927734 C 88.140841 63.462462 87.138237 64.009342 85.728516 64.568359 C 84.330945 65.115232 82.940104 65.388672 81.554688 65.388672 C 80.50955 65.388672 79.548829 65.242825 78.673828 64.951172 C 77.81098 64.659493 77.063583 64.222004 76.431641 63.638672 C 75.775389 63.043195 75.259548 62.282991 74.882812 61.359375 C 74.506077 60.423614 74.316406 59.329879 74.316406 58.078125 L 89.320312 58.078125 L 89.320312 56.21875 C 89.320312 53.265629 88.572918 50.98697 87.078125 49.382812 C 85.595487 47.778655 83.480902 46.976562 80.734375 46.976562 z M 126.23438 46.976562 C 123.2691 46.976562 120.8737 47.955524 119.05078 49.912109 C 117.24002 51.86872 116.33594 54.511957 116.33594 57.841797 C 116.33594 61.208121 117.28385 63.80947 119.17969 65.644531 C 121.07552 67.467448 123.71137 68.378906 127.08984 68.378906 C 128.4145 68.378906 129.67969 68.214832 130.88281 67.886719 C 132.08594 67.558605 133.26346 67.150185 134.41797 66.664062 L 134.41797 62.927734 L 134.23633 62.927734 C 133.64084 63.462462 132.63824 64.009342 131.22852 64.568359 C 129.83095 65.115232 128.44011 65.388672 127.05469 65.388672 C 126.00955 65.388672 125.04883 65.242825 124.17383 64.951172 C 123.31098 64.659493 122.56359 64.222004 121.93164 63.638672 C 121.27539 63.043195 120.75955 62.282991 120.38281 61.359375 C 120.00607 60.423614 119.81641 59.329879 119.81641 58.078125 L 134.82031 58.078125 L 134.82031 56.21875 C 134.82031 53.265629 134.07292 50.98697 132.57812 49.382812 C 131.09549 47.778655 128.9809 46.976562 126.23438 46.976562 z M 198.98633 46.976562 C 197.7832 46.976563 196.61111 47.226367 195.46875 47.724609 C 194.32639 48.222877 193.21984 48.915578 192.15039 49.802734 L 192.15039 47.542969 L 188.72266 47.542969 L 188.72266 67.904297 L 192.15039 67.904297 L 192.15039 52.701172 C 193.08616 51.98417 194.0651 51.395402 195.08594 50.933594 C 196.10677 50.471786 197.08377 50.240234 198.01953 50.240234 C 198.93099 50.240234 199.67296 50.367853 200.24414 50.623047 C 200.81532 50.866121 201.25282 51.243494 201.55664 51.753906 C 201.8483 52.215714 202.04882 52.859166 202.1582 53.685547 C 202.26758 54.499783 202.32227 55.374786 202.32227 56.310547 L 202.32227 67.904297 L 205.75 67.904297 L 205.75 54.6875 C 205.75 52.196187 205.17209 50.289493 204.01758 48.964844 C 202.86306 47.640195 201.18598 46.976562 198.98633 46.976562 z M 173.22852 47.050781 C 172.00109 47.050781 170.75608 47.160198 169.49219 47.378906 C 168.2283 47.597766 167.26215 47.798296 166.59375 47.980469 L 166.59375 51.460938 L 166.77539 51.460938 C 167.95421 51.011174 169.09723 50.672209 170.20312 50.441406 C 171.30903 50.198257 172.31164 50.076172 173.21094 50.076172 C 173.95226 50.076172 174.66319 50.125396 175.34375 50.222656 C 176.0243 50.319891 176.60764 50.507601 177.09375 50.787109 C 177.60416 51.078788 177.9924 51.479822 178.25977 51.990234 C 178.53928 52.500647 178.67969 53.144099 178.67969 53.921875 L 178.67969 54.451172 C 176.68663 54.548331 174.81988 54.694152 173.08203 54.888672 C 171.34418 55.083116 169.85677 55.453128 168.61719 56 C 167.38976 56.546872 166.44184 57.301643 165.77344 58.261719 C 165.11719 59.209624 164.78906 60.454639 164.78906 61.998047 C 164.78906 63.881713 165.42709 65.43119 166.70312 66.646484 C 167.97917 67.861754 169.53407 68.46875 171.36914 68.46875 C 172.36567 68.46875 173.23524 68.372254 173.97656 68.177734 C 174.71788 67.995435 175.37413 67.763884 175.94531 67.484375 C 176.43143 67.265641 176.92904 66.973973 177.43945 66.609375 C 177.96202 66.232657 178.37587 65.940989 178.67969 65.734375 L 178.67969 67.904297 L 182.08789 67.904297 L 182.08789 54.085938 C 182.08789 52.773434 181.88737 51.674265 181.48633 50.787109 C 181.08528 49.899953 180.50195 49.176205 179.73633 48.617188 C 178.95855 48.045899 178.03429 47.644866 176.96484 47.414062 C 175.90755 47.170913 174.66254 47.050781 173.22852 47.050781 z M 242.55469 47.050781 C 241.25434 47.050781 240.07487 47.220263 239.01758 47.560547 C 237.97244 47.88866 237.11024 48.338969 236.42969 48.910156 C 235.72482 49.493489 235.19618 50.155168 234.84375 50.896484 C 234.50347 51.637801 234.33203 52.427074 234.33203 53.265625 C 234.33203 54.602419 234.70399 55.732634 235.44531 56.65625 C 236.19879 57.567721 237.46745 58.260422 239.25391 58.734375 C 239.898 58.904454 240.60894 59.063095 241.38672 59.208984 C 242.17665 59.354824 242.81467 59.482443 243.30078 59.591797 C 244.61328 59.883476 245.50108 60.235234 245.96289 60.648438 C 246.4247 61.061615 246.65625 61.670565 246.65625 62.472656 C 246.65625 63.517796 246.2296 64.283434 245.37891 64.769531 C 244.52821 65.255654 243.3507 65.498047 241.84375 65.498047 C 240.62847 65.498047 239.35786 65.261062 238.0332 64.787109 C 236.70855 64.300987 235.50542 63.650174 234.42383 62.835938 L 234.24219 62.835938 L 234.24219 66.683594 C 235.09288 67.108942 236.1428 67.502589 237.39453 67.867188 C 238.65843 68.219616 240.04384 68.396484 241.55078 68.396484 C 244.21224 68.396484 246.3086 67.800355 247.83984 66.609375 C 249.38325 65.418395 250.15625 63.894533 250.15625 62.035156 C 250.15625 60.552523 249.72417 59.360238 248.86133 58.460938 C 247.99848 57.573782 246.7717 56.948558 245.17969 56.583984 C 244.65711 56.46251 244.00086 56.329484 243.21094 56.183594 C 242.43316 56.037805 241.72765 55.891984 241.0957 55.746094 C 239.95334 55.47873 239.1276 55.132379 238.61719 54.707031 C 238.09461 54.281708 237.83203 53.649098 237.83203 52.810547 C 237.83203 51.862616 238.26411 51.151687 239.12695 50.677734 C 239.9898 50.191637 241.04709 49.949219 242.29883 49.949219 C 243.50195 49.949219 244.72873 50.173409 245.98047 50.623047 C 247.2322 51.060565 248.29688 51.602012 249.17188 52.246094 L 249.35352 52.246094 L 249.35352 48.582031 C 248.52712 48.156683 247.48806 47.797513 246.23633 47.505859 C 244.99674 47.202036 243.76996 47.050781 242.55469 47.050781 z M 140.01562 47.542969 L 140.01562 67.904297 L 143.44141 67.904297 L 143.44141 53.449219 C 144.35287 52.707902 145.30078 52.106339 146.28516 51.644531 C 147.26954 51.170578 148.29037 50.933594 149.34766 50.933594 C 150.00391 50.933594 150.56901 50.962713 151.04297 51.023438 C 151.52907 51.072067 152.02864 51.157848 152.53906 51.279297 L 152.7207 51.279297 L 152.7207 47.761719 C 152.18598 47.677561 151.78494 47.622853 151.51758 47.597656 C 151.25021 47.561121 150.81814 47.542969 150.22266 47.542969 C 149.14106 47.542969 148.07834 47.772567 147.0332 48.234375 C 146.00022 48.684038 144.80252 49.457036 143.44141 50.550781 L 143.44141 47.542969 L 140.01562 47.542969 z M 80.550781 49.802734 C 82.373698 49.802734 83.730037 50.294906 84.617188 51.279297 C 85.516554 52.263662 85.972281 53.654523 85.984375 55.453125 L 74.316406 55.453125 C 74.462241 53.848967 75.076606 52.507381 76.158203 51.425781 C 77.251953 50.344181 78.715712 49.802734 80.550781 49.802734 z M 126.05078 49.802734 C 127.8737 49.802734 129.23003 50.294906 130.11719 51.279297 C 131.01655 52.263662 131.47228 53.654523 131.48438 55.453125 L 119.81641 55.453125 C 119.96224 53.848967 120.57661 52.507381 121.6582 51.425781 C 122.75195 50.344181 124.21571 49.802734 126.05078 49.802734 z M 102.73633 50.113281 C 103.59917 50.113281 104.39583 50.191625 105.125 50.349609 C 105.85417 50.507594 106.6799 50.793853 107.60352 51.207031 L 107.60352 62.890625 C 106.74067 63.571192 105.81098 64.130866 104.81445 64.568359 C 103.81793 64.993707 102.83355 65.207031 101.86133 65.207031 C 100.03841 65.207031 98.71311 64.579854 97.886719 63.328125 C 97.06033 62.064226 96.648437 60.223081 96.648438 57.804688 C 96.648438 55.349809 97.182508 53.453981 98.251953 52.117188 C 99.321398 50.780394 100.81619 50.113281 102.73633 50.113281 z M 220.57031 50.113281 C 221.43316 50.113281 222.22786 50.191625 222.95703 50.349609 C 223.6862 50.507594 224.51389 50.793853 225.4375 51.207031 L 225.4375 62.890625 C 224.57465 63.571192 223.64496 64.130866 222.64844 64.568359 C 221.6519 64.993707 220.66753 65.207031 219.69531 65.207031 C 217.8724 65.207031 216.5471 64.579854 215.7207 63.328125 C 214.89432 62.064226 214.48047 60.223081 214.48047 57.804688 C 214.48047 55.349809 215.01649 53.453981 216.08594 52.117188 C 217.15538 50.780394 218.65017 50.113281 220.57031 50.113281 z M 178.67969 57.222656 L 178.67969 62.890625 C 177.82899 63.546877 176.90473 64.111985 175.9082 64.585938 C 174.91168 65.047745 173.8125 65.279297 172.60938 65.279297 C 171.16319 65.279297 170.08767 64.987629 169.38281 64.404297 C 168.67795 63.80882 168.32422 62.928383 168.32422 61.761719 C 168.32422 60.728723 168.62869 59.91927 169.23633 59.335938 C 169.84396 58.74046 170.64062 58.302946 171.625 58.023438 C 172.45139 57.792433 173.56879 57.617543 174.97852 57.496094 C 176.40039 57.374645 177.63455 57.283381 178.67969 57.222656 z "
       transform="matrix(0.26458333,0,0,0.26458333,0,270.54165)"
       id="path937" />
  </g>
</svg>
