<?xml version="1.0" encoding="UTF-8" standalone="no"?>
<!-- Created with Inkscape (http://www.inkscape.org/) -->

<svg
   xmlns:osb="http://www.openswatchbook.org/uri/2009/osb"
   xmlns:dc="http://purl.org/dc/elements/1.1/"
   xmlns:cc="http://creativecommons.org/ns#"
   xmlns:rdf="http://www.w3.org/1999/02/22-rdf-syntax-ns#"
   xmlns:svg="http://www.w3.org/2000/svg"
   xmlns="http://www.w3.org/2000/svg"
   xmlns:sodipodi="http://sodipodi.sourceforge.net/DTD/sodipodi-0.dtd"
   xmlns:inkscape="http://www.inkscape.org/namespaces/inkscape"
   width="100"
   height="500"
   viewBox="0 0 26.458334 132.29166"
   version="1.1"
   id="svg8"
   inkscape:version="0.92.4 (5da689c313, 2019-01-14)"
   sodipodi:docname="talen.svg">
  <defs
     id="defs2">
    <linearGradient
       id="linearGradient898"
       osb:paint="solid">
      <stop
         style="stop-color:#000000;stop-opacity:1;"
         offset="0"
         id="stop896" />
    </linearGradient>
  </defs>
  <sodipodi:namedview
     id="base"
     pagecolor="#ffffff"
     bordercolor="#666666"
     borderopacity="1.0"
     inkscape:pageopacity="0.0"
     inkscape:pageshadow="2"
     inkscape:zoom="0.76095916"
     inkscape:cx="-742.11771"
     inkscape:cy="436.55905"
     inkscape:document-units="mm"
     inkscape:current-layer="layer1"
     showgrid="false"
     inkscape:window-width="1920"
     inkscape:window-height="1017"
     inkscape:window-x="1358"
     inkscape:window-y="-8"
     inkscape:window-maximized="1"
     units="px" />
  <metadata
     id="metadata5">
    <rdf:RDF>
      <cc:Work
         rdf:about="">
        <dc:format>image/svg+xml</dc:format>
        <dc:type
           rdf:resource="http://purl.org/dc/dcmitype/StillImage" />
        <dc:title></dc:title>
      </cc:Work>
    </rdf:RDF>
  </metadata>
  <g
     inkscape:label="Laag 1"
     inkscape:groupmode="layer"
     id="layer1"
     transform="translate(0,-164.70834)">
    <flowRoot
       xml:space="preserve"
       id="flowRoot819"
       style="font-style:normal;font-weight:normal;font-size:96px;line-height:1.25;font-family:sans-serif;letter-spacing:0px;word-spacing:0px;fill:#000000;fill-opacity:1;stroke:none"
       transform="scale(0.26458333)"><flowRegion
         id="flowRegion821"
         style="font-size:96px"><rect
           id="rect823"
           width="565.71429"
           height="402.85715"
           x="102.85714"
           y="279.66254"
           style="font-size:96px" /></flowRegion><flowPara
         id="flowPara825" /></flowRoot>    <flowRoot
       xml:space="preserve"
       id="flowRoot835"
       style="font-style:normal;font-weight:normal;font-size:40px;line-height:1.25;font-family:sans-serif;letter-spacing:0px;word-spacing:0px;fill:#000000;fill-opacity:1;stroke:none"
       transform="scale(0.26458333)"><flowRegion
         id="flowRegion837"><rect
           id="rect839"
           width="317.14285"
           height="162.85716"
           x="82.85714"
           y="408.23398" /></flowRegion><flowPara
         id="flowPara841" /></flowRoot>    <flowRoot
       xml:space="preserve"
       id="flowRoot876"
       style="font-style:normal;font-weight:normal;font-size:40px;line-height:1.25;font-family:sans-serif;letter-spacing:0px;word-spacing:0px;fill:#000000;fill-opacity:1;stroke:none"
       transform="matrix(0.26458333,0,0,0.26458333,0,270.54167)"><flowRegion
         id="flowRegion878"><rect
           id="rect880"
           width="100"
           height="97.14286"
           x="151.42857"
           y="60" /></flowRegion><flowPara
         id="flowPara882" /></flowRoot>    <flowRoot
       xml:space="preserve"
       id="flowRoot934"
       style="font-style:normal;font-weight:normal;font-size:40px;line-height:1.25;font-family:sans-serif;letter-spacing:0px;word-spacing:0px;fill:#000000;fill-opacity:1;stroke:none"
       transform="matrix(0.26458333,0,0,0.26458333,0,164.70834)"><flowRegion
         id="flowRegion936"><rect
           id="rect938"
           width="78.847862"
           height="478.34369"
           x="10.513048"
           y="8.5150156" /></flowRegion><flowPara
         id="flowPara940">Softskills</flowPara></flowRoot>    <path
       style="font-style:normal;font-variant:normal;font-weight:normal;font-stretch:normal;font-size:40px;line-height:1.25;font-family:'Agency FB';-inkscape-font-specification:'Agency FB';letter-spacing:0px;word-spacing:0px;fill:#ff2800;fill-opacity:1;stroke:none;stroke-width:2.42813063"
       d="M 95.650391 371.76172 L 44.542969 372.11523 C 40.274171 372.14484 38.150647 373.57727 38.173828 376.41016 C 38.186815 377.99252 38.437656 380.00628 38.927734 382.45312 C 39.375087 384.46635 39.802958 386.4671 40.210938 388.45508 L 38.625 388.4668 L 38.667969 393.55859 L 95.826172 393.16211 L 95.785156 388.07031 L 46.085938 388.41406 L 45.523438 377.20117 L 95.693359 376.85352 L 95.650391 371.76172 z M 89.257812 401.62891 L 78.917969 401.70117 L 78.958984 406.64062 L 89.416016 406.56836 L 89.505859 417.51562 L 68.826172 417.66016 L 68.710938 403.49414 L 65.935547 401.79102 L 45.375 401.93359 C 40.949506 401.96428 38.748051 403.40915 38.771484 406.26758 L 38.871094 418.51758 C 38.894557 421.37609 41.119397 422.79051 45.544922 422.75977 L 89.427734 422.45508 C 93.853231 422.42439 96.054683 420.97953 96.03125 418.12109 L 95.931641 405.87109 C 95.90818 403.01259 93.683337 401.59817 89.257812 401.62891 z M 62.509766 406.75391 L 62.599609 417.70312 L 45.386719 417.82227 L 45.296875 406.87305 L 62.509766 406.75391 z M 96.136719 431.02344 L 4.2011719 431.66016 L 4.2421875 436.67578 L 96.179688 436.03711 L 96.136719 431.02344 z M 96.25 444.68945 L 45.728516 445.04102 C 41.303019 445.07168 39.101567 446.51657 39.125 449.375 L 39.226562 461.625 C 39.250023 464.48351 41.472913 465.89793 45.898438 465.86719 L 55.533203 465.79883 L 55.492188 460.86133 L 45.742188 460.92969 L 45.652344 449.98047 L 62.863281 449.86133 L 62.962891 461.84375 C 62.986563 464.72781 65.191764 466.15354 69.578125 466.12305 L 90.431641 465.97852 C 94.661441 465.94921 96.765117 464.5436 96.742188 461.76172 C 96.729828 460.25593 96.478778 458.25372 95.988281 455.75586 C 95.58009 453.74235 95.152431 451.73003 94.705078 449.7168 L 96.291016 449.70508 L 96.25 444.68945 z M 89.181641 449.67773 L 89.626953 461.04492 L 69.066406 461.1875 L 68.972656 449.81836 L 89.181641 449.67773 z M 11.757812 472.03711 L 4.53125 472.08594 L 4.7285156 496.01367 L 11.955078 495.96289 L 11.876953 486.62305 L 96.589844 486.03516 L 96.544922 480.71289 L 11.833984 481.30078 L 11.757812 472.03711 z "
       transform="matrix(0.26458333,0,0,0.26458333,0,164.70834)"
       id="path837" />
  </g>
</svg>
